<?xml version="1.0" encoding="utf-8"?>
<!-- Generator: Adobe Illustrator 21.1.0, SVG Export Plug-In . SVG Version: 6.00 Build 0)  -->
<svg version="1.1" id="Camada_1" xmlns="http://www.w3.org/2000/svg" xmlns:xlink="http://www.w3.org/1999/xlink" x="0px" y="0px"
	 viewBox="0 0 1000 1000" style="enable-background:new 0 0 1000 1000;" xml:space="preserve">
<title>users2</title>
<title>contract</title>
<title>users2</title>
<title>contract</title>
<g>
	<path d="M679,987c-6.5-1-13.1-1.9-19.5-3.1c-56.3-10-102.4-56.7-112.5-112.8c-13.8-77.2,35.5-149.1,109.9-164.6
		c77-16,149.4,32.1,166.9,105.7c1.8,7.5,2.8,15.2,4.2,22.9c0,6.7,0,13.3,0,20c-2,3.6-1.4,7.7-1.9,11.6
		c-8.3,57.8-54.8,106.5-112,117.2c-7,1.3-14,2.2-21,3.2C688.3,987,683.7,987,679,987z M685.9,960.4c59.4,0.8,115.6-46.8,115.8-115.4
		c0.2-64.1-50.5-115.3-115.5-115.9c-63.2-0.6-115.2,51.8-115.8,114.6C569.7,907.6,622.3,961,685.9,960.4z"/>
	<path d="M828,487c-2.1,5.7-1.8,11.7-3,17.5C813.6,563.2,765.3,609,706,617c-76.9,10.4-146.8-40.3-159.4-117
		c-13.3-80.8,43-152.2,118.8-163c74.3-10.6,142.6,36.4,159.1,109.5c1.5,6.8,2.4,13.6,3.6,20.5C828,473.7,828,480.3,828,487z
		 M686,592.4c59.8,0.6,115.2-47.1,115.9-115.5c0.6-63.4-52.2-115.9-115.6-115.9c-63.4,0-115.1,51.8-115.8,114.7
		C569.8,539,621.6,592.8,686,592.4z"/>
	<path d="M283,13c7.4,2,15,2.2,22.5,3.9c56.6,13,99.9,60,108.2,117.5c11,76.4-41.7,148.3-117.6,160.2
		c-75.9,11.9-146.6-37.6-161.6-113.1c-15.6-78.2,38.4-154.7,117.4-166.7c3.7-0.6,7.7,0.2,11.1-1.9C269.7,13,276.3,13,283,13z
		 M273.4,270.4c62.9,0.1,115.3-51.6,115.8-113.7c0.5-63.7-49.5-116.8-113.8-117.6C210.3,38.5,157.9,90,157.8,153.8
		C157.7,218.5,209,270.3,273.4,270.4z"/>
	<path d="M260.4,593c0-72.5,0-145,0-217.5c0-6.6,0-6.6,6.4-6.6c4.7,0,9.4,0.3,14-0.1c4.2-0.3,5.3,1.2,5.3,5.4c-0.2,27-0.1,54-0.1,81
		c0,10.5-1.1,8.9,9.1,8.9c57,0,114,0.1,171-0.1c4.5,0,6.1,1.1,5.8,5.8c-0.4,5.1-0.3,10.3,0,15.5c0.2,3.9-1.2,4.7-4.8,4.7
		c-34-0.1-68-0.1-102-0.1c-24.5,0-49,0.1-73.5-0.1c-4.3,0-5.7,1.1-5.7,5.6c0.1,104.2,0.1,208.3,0.1,312.5c0,15.7,8.8,24.3,24.5,24.3
		c51.8,0,103.7,0,155.5-0.1c4.4,0,6.3,0.8,5.9,5.7c-0.5,5.5-0.2,11-0.1,16.5c0.1,2.9-0.9,3.8-3.7,3.7c-3.7-0.2-7.3,0-11,0
		c-49.5,0-99,0-148.5,0c-27.8,0-48.3-20.5-48.3-48.3C260.4,737.3,260.4,665.2,260.4,593z"/>
</g>
</svg>
