<?xml version="1.0" encoding="utf-8"?>
<!-- Generator: Adobe Illustrator 21.1.0, SVG Export Plug-In . SVG Version: 6.00 Build 0)  -->
<svg version="1.1" id="Camada_1" xmlns="http://www.w3.org/2000/svg" xmlns:xlink="http://www.w3.org/1999/xlink" x="0px" y="0px"
	 viewBox="0 0 1000 1000" style="enable-background:new 0 0 1000 1000;" xml:space="preserve">
<title>users2</title>
<title>contract</title>
<title>users2</title>
<title>contract</title>
<g>
	<path d="M287.3,594.8c0-69.1,0.3-138.2-0.3-207.4c-0.1-12.3,3.4-15.8,15.6-15.7c34.6,0.4,34.6-0.1,34.6,33.9
		c0,10.9,0.7,21.9-0.2,32.7c-0.9,10.9,2.8,14.1,13.8,14c46.2-0.6,92.5,0.2,138.8-0.6c13.1-0.2,16.6,3.7,16.4,16.6
		c-0.7,33.7-0.1,33.7-33.2,33.7c-41.1,0-82.1,0.2-123.2-0.2c-9.3-0.1-12.6,2.5-12.6,12.2c0.3,94.1,0.3,188.1,0,282.2
		c0,11.1,4.5,14.3,15,14.2c46.8-0.4,93.6,0.1,140.3-0.3c9.7-0.1,13.5,1.9,13.6,12.7c0.2,37.4,0.7,37.4-37,37.4c-40,0-80,0.1-120.1,0
		c-37.6-0.1-61.3-23.3-61.5-61.2C287,731,287.3,662.9,287.3,594.8z"/>
	<path d="M861.7,478.8c0,82.8-67,149.5-149.9,149.1c-82.8-0.4-149.1-67.1-149-150.2c0-82.6,67.1-150.1,149.4-150.3
		C795,327.2,861.8,394.8,861.7,478.8z M812.3,478.5c0.2-54.9-44.7-100.6-99.3-101.1c-53.9-0.5-100.4,45.5-100.8,99.9
		c-0.4,54.7,44.8,100.4,99.6,100.7C766.9,578.2,812.1,533.4,812.3,478.5z"/>
	<path d="M163,164.7C163,80,228.2,14.9,313,14.9c82.3,0.1,149.3,67.7,148.9,150.3c-0.3,82.6-67.4,149.2-150.2,149.2
		C228.5,314.4,163,248.5,163,164.7z M212.4,164.9c0.1,55.5,44.3,99.7,99.8,99.6c54.9-0.1,100-45.2,99.8-100.2
		c-0.2-54.8-45.7-100.1-100.4-99.9C256.5,64.6,212.3,109.3,212.4,164.9z"/>
	<path d="M711.9,985.1c-83.2,0-149.2-66.1-149.1-149.4c0-82.8,66.8-149.9,149.3-150c83.2-0.1,149.6,66.9,149.6,151
		C861.7,919.9,795.9,985.1,711.9,985.1z M812.3,835.7c-0.2-55.1-45.1-100.2-99.9-100.2c-54.5,0-100.2,45.7-100.2,100.3
		c0,54.9,45.2,99.9,100.2,99.9C767.6,935.7,812.5,890.8,812.3,835.7z"/>
</g>
</svg>
