<?xml version="1.0" encoding="utf-8"?>
<!-- Generator: Adobe Illustrator 21.1.0, SVG Export Plug-In . SVG Version: 6.00 Build 0)  -->
<svg version="1.1" id="Camada_1" xmlns="http://www.w3.org/2000/svg" xmlns:xlink="http://www.w3.org/1999/xlink" x="0px" y="0px"
	 viewBox="0 0 1000 1000" style="enable-background:new 0 0 1000 1000;" xml:space="preserve">
<title>users2</title>
<title>contract</title>
<title>users2</title>
<title>contract</title>
<g>
	<path d="M903,322C903,322.5,902.8,321.5,903,322c6,15-16.1,50.4-26.3,60.7c-154.9,156.5-270.8,274.6-425.8,431
		c-23.3,23.5-50,23.7-73,0.3c-83.8-85.2-167.2-170.8-250.4-256.6c-21.9-22.6-20.9-50,0.9-71c20.6-20,47.6-20.6,68.9,0.6
		c67,66.9,134.4,133.4,199.3,202.3c16.8,17.9,23.4,15.3,38.1,0.3c135.3-138,216.2-220.1,352.1-357.5c27.4-27.7,86-51.2,109.2-24.1
		C903.4,316.7,902.3,314.5,903,322z"/>
</g>
</svg>
