<?xml version="1.0" encoding="utf-8"?>
<!-- Generator: Adobe Illustrator 21.1.0, SVG Export Plug-In . SVG Version: 6.00 Build 0)  -->
<svg version="1.1" id="Camada_1" xmlns="http://www.w3.org/2000/svg" xmlns:xlink="http://www.w3.org/1999/xlink" x="0px" y="0px"
	 viewBox="0 0 1000 1000" style="enable-background:new 0 0 1000 1000;" xml:space="preserve">
<title>users2</title>
<title>contract</title>
<title>users2</title>
<title>contract</title>
<g>
	<path d="M585.5,619c0,111.4,0,222.8,0,334.2c0,26.6-5.1,31.7-31.4,31.7c-25.3,0.1-50.6,0-75.9,0c-27.8,0-32.7-4.8-32.7-32.2
		c0-104.2,0-208.4,0-312.6c0-119.8-0.3-239.7,0.3-359.5c0.1-15-4.1-19.7-19.2-19.2c-33.1,1.1-66.2,0.2-99.4,0.4
		c-10.2,0.1-19.5-1-24-11.8c-4-9.9,3.7-15.7,9-21.5c45-49.1,90.4-97.8,135.4-146.9c16.2-17.7,31.3-36.3,47.4-54
		c15.1-16.6,21.5-16.9,36.6-0.8c63.1,67.6,125.9,135.3,188.5,203.3c4.7,5.2,11.9,11,7.4,20.3c-4.6,9.6-12.8,11.5-22.5,11.4
		c-33.1-0.2-66.3,0.9-99.4-0.5c-17.3-0.7-20.7,5.5-20.6,21.5C585.8,395,585.5,507,585.5,619z"/>
</g>
</svg>
