<?xml version="1.0" encoding="utf-8"?>
<!-- Generator: Adobe Illustrator 21.1.0, SVG Export Plug-In . SVG Version: 6.00 Build 0)  -->
<svg version="1.1" id="Camada_1" xmlns="http://www.w3.org/2000/svg" xmlns:xlink="http://www.w3.org/1999/xlink" x="0px" y="0px"
	 viewBox="0 0 1000 1000" style="enable-background:new 0 0 1000 1000;" xml:space="preserve">
<title>users2</title>
<title>contract</title>
<title>users2</title>
<title>contract</title>
<g>
	<path d="M448,397.2c0-106.4,0-212.7,0-319.1c0-22.4,4.7-27.2,27-27.3c26.3-0.1,52.6-0.1,78.9,0c21.3,0.1,26.8,5.8,27,27.7
		c0.1,12.6,0,25.2,0,37.7c0,200.2,0.2,400.3-0.4,600.5c0,16.6,4.3,21.6,20.9,20.9c30.8-1.3,61.7-0.2,92.6-0.5
		c9.1-0.1,17.2,1.3,21.6,10.4c4.5,9.4-2.6,15.1-7.7,20.6c-43.1,47.1-86.6,93.7-129.8,140.7c-15.8,17.2-30.9,34.9-46.2,52.5
		c-10.3,12-19.3,13.2-29.8,1.9C453.9,911,406,858.4,357.8,806c-11.6-12.6-24.3-24.2-35.9-36.9c-5.4-5.9-13.3-11.8-8.4-21.9
		c4.5-9.1,12.8-10.1,21.8-10.1c30.3,0.2,60.6,0.1,90.9,0c21.8,0,21.8,0,21.8-22.6C448,608.8,448,503,448,397.2z"/>
</g>
</svg>
