<svg id="Camada_1" data-name="Camada 1" xmlns="http://www.w3.org/2000/svg" viewBox="0 0 768.47 768.2"><title>at</title><g id="Camada_1-2" data-name="Camada_1"><path d="M214.07,422.5c0-3.94.17-8.05,0.28-12l1.13-17c0.74-4.9,3.4-22.71,4.31-25.65,0.82-2.64,1.7-7,2.32-9.84,1.45-6.41,3.37-12.3,5.41-18.51a226.1,226.1,0,0,1,23.19-49.32c8.79-14.29,16.07-21.74,27.21-33.16,4.73-4.85,6.21-5.44,9.41-8.45l11.91-9.5c0.65-.4,1-0.62,1.76-1.13a159.63,159.63,0,0,1,18.48-11.51c2.72-1.47,5-2.81,8-4.11,1.39-.62,2.78-1.36,4.14-1.93,20.78-8.67,44.13-13.44,67.38-11,8.9,0.94,23.47,4.31,31.58,8.42a96.66,96.66,0,0,1,8.87,4.71A110.66,110.66,0,0,1,451,231c9.84,8.45,16.92,19,22.71,30.5,0.82,1.67,1.53,3.15,2.13,4.68,12.3,30.93,11.42,61.11,7.31,93.46-0.85,6.58-4.65,25.48-6.52,31.41-5.39,17.09-7.65,24.94-15.39,41.39-6.86,14.54-8.87,17.55-17.09,30.42a162.88,162.88,0,0,1-12,16.24l-8.9,10c-3,3.17-5.61,6.24-9.35,9.58l-18,15.19c-1,.74-1.59,1.36-2.61,2L382,523.22c-2.07,1.22-4.31,2.21-6.32,3.34a62.66,62.66,0,0,1-6.15,3.15c-6.92,2.83-20.95,8.11-28.63,9.18-19.64,2.72-15.85,2.15-35.69,2-3.15,0-5.39-.79-8.56-0.94a39.29,39.29,0,0,1-7.74-1.47c-2.55-.79-5.24-1-7.74-1.87-14.46-4.79-24.72-10.09-35.8-21-5.22-5.13-4.54-5-8.84-10.09-7-8.16-12.16-21.17-15.82-31.35-1.76-4.88-2.55-10.4-3.54-15.42C214.69,446.29,214.07,435.8,214.07,422.5ZM458.58,534.84c0.71,1.64.31,4.37,1,6.6,0.43,1.36,1.13,4.62,1.45,6a62.93,62.93,0,0,0,3.83,11.17,60.65,60.65,0,0,0,8.5,14.37,98.05,98.05,0,0,0,7.48,7.88l8.42,6.58c14.54,8.79,22.56,10.29,39.63,13.24,4.51,0.79,9.47.48,14.09,0.88s23.84-.31,28.77-0.85c2.49-.28,4.76-0.37,7.31-0.51,4.48-.23,14.71-2.3,19.64-2.95a95.51,95.51,0,0,0,12.25-2.75c1.59-.45,4.37-1,6.12-1.39s4-1.36,5.64-1.84a202.86,202.86,0,0,0,32.94-12.81c6.83-3.54,13.15-6.77,19.62-10.74,35.69-21.85,61.34-49.46,76.28-89.46,2-5.41,4.42-11.2,6-16.92,0.48-1.81,1.3-4,1.76-5.75,0.54-2.07,1.19-4.22,1.76-6.09L763.5,437c1.11-6.12,3.68-20.86,3.86-26.67a57.37,57.37,0,0,1,.4-6.94c1.73-11.71.48-58.48-2-72.34-0.4-2.15-.26-4.73-0.57-6.86l-3.63-23.22c-0.17-1.11-.14-2.1-0.4-3.23L757.29,279c-0.6-3.91-2.24-8-3-11.93-1.22-6.07-3.4-11.91-5.07-17.8-2.81-10-10-28.46-14.51-38.38-3.06-6.72-6.32-13.86-9.78-20.21-1.87-3.4-3.49-6.69-5.27-9.72-2-3.29-3.54-6.52-5.61-9.75l-7.4-11.54-24.29-32.12c-2.15-2.41-4.56-5.7-7-8-5.19-5.07-9.5-10.4-14.82-15.53-5.84-5.64-13.27-12.5-19.84-18-6.89-5.78-14.23-11.34-21.26-16.61-6-4.54-11.45-8.11-17.89-12.13S589,49.39,582.45,46c-6.38-3.26-13-6.94-20-10.06C521.71,17.7,487.78,9.11,443.87,3.13,435.88,2,410.65,0,401.72,0h-30c-5,.09-9.3.77-13.92,0.91-17.21.48-54.31,6.24-71.6,11.74l-17.57,5.22c-7.63,2.38-15,5.33-22.34,8.05-10.6,3.88-21.12,8.93-31.27,13.75a386.38,386.38,0,0,0-45.64,26.53L145.58,83.46c-10,7.68-18.94,16.07-28.29,24.58-5.41,4.93-9.89,9.92-15.08,15.28-17.83,18.37-31.1,39-45.16,60.21-1.9,3.15-3.8,6.52-5.73,9.64-5.7,9.3-10.43,19.73-15.28,29.73-4.14,8.53-7.68,17.66-11.48,26.73-2.24,5.36-3.83,11.17-5.84,16.7C13.86,279.73,4.51,316,3.17,333.92l-3,34.64c0,10.15-.26,20.21,0,30.36,0.11,4.79.85,9.13,0.91,13.95l1.16,13.95c1.11,9.72,6,40.45,9.52,51.31,0.65,2,1,4.14,1.62,6.26,1.64,5.78,3.2,11.54,5.27,17.21,2.78,7.71,5,14.74,8,22C45.52,568.49,66,603.52,98.62,641l10.91,11.59c4.14,4.62,10.63,10.6,15.25,14.74,12.27,11,19.79,16.84,33.25,27.13a157.13,157.13,0,0,0,13.49,9.35l14,8.53c10.12,5.84,18.4,10.57,29.39,16l15.31,7.2c1.9,0.88,3.15,1.53,5.13,2.35,3.74,1.5,7.43,3.12,11,4.37s6.89,2.81,10.88,4.14c3.71,1.25,7.4,2.66,11.17,3.83,3.57,1.11,7.71,2.18,11.54,3.46,7.77,2.58,16.13,3.8,24.21,6.15a111.86,111.86,0,0,0,12.59,2.38c4.2,0.48,8.42,1.67,12.84,2.15,13.72,1.5,27.86,3.51,41.81,3.71,5,0.06,9.69.17,14.65,0.17,9.67,0,19.47-.65,29.17-1.19,7.31-.4,33.59-3.71,40.19-5.5,3.8-1,8.48-1.64,12.53-2.49s8.08-2,12-2.89c5.92-1.33,12-3.43,17.8-5.07l16.78-5.7C545.94,734,572,720,599.88,702.08l8.73-6.24c1.47-1.08,2.86-1.9,4.42-3.09,3-2.3,5.9-4.37,8.67-6.69,5.67-4.76,12.25-8.67,11.65-18.14-0.51-8.11-9.41-16.78-14.68-23.07l-6.89-8.11c-3.77-4.45-6.32-8.84-13.61-8.87-5.41,0-7.88,1.19-11.51,3.86L574,641.53c-3.63,3.12-17.63,12.33-22.56,15.31-26.08,15.62-49.58,26.48-78.69,34.92-6.46,1.87-12.08,2.75-18.08,4.39L445.09,698c-1.19.2-1.64,0.51-2.83,0.74-19.47,3.34-50.37,6.09-69.56,4.59-9.67-.77-18.77-0.45-28.2-2.15-4.08-.74-9.27-0.79-13.15-1.81-3.15-.82-6.6-1-9.86-1.62-1.13-.2-1.59-0.54-2.75-0.77-13-2.52-28.46-7.34-41.1-11.82a310.36,310.36,0,0,1-36.91-16,303.33,303.33,0,0,1-31.41-17.91l-15.45-10.63c-11.65-8.22-30.93-24.77-40.51-35.6-2.32-2.64-4.65-5.13-7.23-7.77-18.25-18.77-36.79-49.78-48.39-72.37-1.79-3.46-3.12-6.8-4.76-10.23a265.15,265.15,0,0,1-12.81-32.57c-2.18-6.69-5.78-17-6.75-23.58-0.62-4.22-2-8.28-2.86-12.53-0.74-3.77-2.89-15.59-3.17-19.28-0.2-2.52-.68-4.37-0.88-6.58-1.25-14.34-2.41-28.88-1.93-43.45,0.31-9.67,1.19-18.74,1.87-28.2,0.17-2.52.79-4.11,0.94-6.8,0.6-11.08,8.53-44.84,12.56-55.3,1.47-3.83,2.41-7.4,3.83-11.2,2.75-7.37,5.78-14.31,8.9-21.46,7.82-17.86,23.58-46.12,36.28-61.94,5.78-7.2,10.77-14,17-20.86l18.37-19.13,33.25-27.13a335.75,335.75,0,0,1,32.57-20.3c16.87-9,33.93-17.55,52.21-23.19C296,77,303,74.25,317.79,71.3l12.61-2.35c28.12-5.87,56.75-4.88,85.26-3.66l33.93,3.83c2.72,0.14,4.05.77,6.55,1,9.18,1,28.37,5.67,36.68,8.31,2,0.62,4,1.25,6,1.84,9.35,2.64,18.57,6.58,27.52,10,14.34,5.47,36.88,17.52,49.21,26.53,15.53,11.31,28.2,20.72,41.36,34.36,7.91,8.19,13.83,14.91,21.32,23.7,4.62,5.53,8.7,11.59,12.87,17.46a196.67,196.67,0,0,1,11.48,18.51,320,320,0,0,1,15.11,30.64c5.16,12.1,14.43,38.52,16.44,51.48,0.65,4.17,2,8.42,2.78,12.56,1,5.33,2.83,14.71,3.15,19.42L703,352.06c0.37,9.72.79,19.47,1,29.31,0.17,7.34-.54,14.54-0.91,21.8-0.14,2.61-.62,4.14-0.85,6.43-0.77,7.14-2.32,19.36-4.59,25.79-0.71,2-1.13,3.77-1.67,5.87-6.75,25.88-23.92,51.84-46.32,66.9L640.5,514c-1.59.91-3.15,2-4.71,2.78-16.36,8.08-25.62,11.34-43.82,16.58-4.37,1.25-9.13,1-13.58,1.79s-17,1.84-20.89,1.53c-6.43-.51-12.78-1.64-17.66-5.13-9.38-6.69-7.77-26.73-7.45-37.3,0.14-4.54,1.64-8.59,2-13.15,0.14-1.76.79-4.25,1.13-6.35,0.65-3.91,1.81-8.7,2.66-12.67,1.33-6.32,1.81-12.61,3.57-18.94l2.55-12.44A162.84,162.84,0,0,1,548,411.56l2.38-12.64a82.22,82.22,0,0,1,2.47-12.53c1.3-4.39,4.51-23.9,6.26-31.58,2-8.48,2.83-17,5-25.4s2.69-17,5-25.4c0.28-1,1.11-5.24,1.25-6.26,1.19-8.39,3.34-16.75,4.93-25.11,1.64-8.59,3.09-17,5-25.4,0.26-1.13.2-2.3,0.48-3.43,1.28-5.07,1.62-10.32,3.06-15.53l5-25.37c0.48-1.93.82-4.31,1.33-6.18a32.71,32.71,0,0,0,.51-3.46c0.2-1.19.54-1.64,0.74-2.75,0.37-2.27.91-4.34,1.13-6.35,0.74-6.49,4.48-13,.45-18.85-3.32-4.88-4.82-5.41-9.61-5.41H530c-3,0-4.05-.34-6.07,1.45-4.85,4.25-4.56,10.26-6.12,16.41L516,187.35c-0.2,1.11-.54,1.62-0.74,2.83-0.74,4.48-1.47,8.7-2,13.38-0.4,3.37-1.53-.09-2.49-1.47l-6.18-8.84C493.16,178.5,475.9,163.76,459,155.91c-26.45-12.27-44.11-16.16-73.67-17-4.79-.14-10.18-0.06-15,0.06l-13.52,1.39c-4.37.91-9.18,0.79-13.35,2-1.76.51-4.39,1-6.12,1.36-2.07.45-4.2,0.85-6.26,1.25l-11.68,3.32c-3.86,1.42-7.4,2.38-11.2,3.86A227,227,0,0,0,268,172.3a262.22,262.22,0,0,0-22.45,15.76c-7.68,6-13.21,11.59-20.18,17.69-2.58,2.27-4.39,4.45-7.43,7.57-25.51,26.25-38.07,50.37-53.74,82-3.17,6.94-5.92,14.51-8.62,21.77-2.78,7.54-4.82,15.36-7.26,23.1-2.52,8-3.54,16.61-5.64,24.69-1.19,4.56-3.34,21.15-3.68,26.45-0.14,2.18-.71,4.22-0.85,6.52s-0.11,4.88-.28,7.34c-0.71,10.49-.77,18.85-0.79,29.42,0,7.28.74,14.23,1.08,21.46,0.11,2.52.68,4.11,0.88,6.46,2.21,29.2,17.29,74.52,39.43,97.14l7.31,7.68A95.15,95.15,0,0,0,197.63,578c6.92,5.27,15.28,11.05,23.13,14.74,23.53,11.08,46.29,16.81,72.71,17.6,4.9,0.14,10.18.65,15,.48s9.61-.43,14.46-0.65c7.51-.37,18.68-2.49,25.77-4.22a175.19,175.19,0,0,0,43.57-16.78c9.69-5.3,28.91-17.72,35.89-24.46,6.21-6,7.68-5.87,15.85-14.51,3.63-3.83,7.6-7.51,10.86-11.65,1-1.22,2.1-3.17,3.74-3.71v0Z" transform="translate(-0.08 0.02)"/></g></svg>