<?xml version="1.0" encoding="utf-8"?>
<!-- Generator: Adobe Illustrator 21.1.0, SVG Export Plug-In . SVG Version: 6.00 Build 0)  -->
<svg version="1.1" id="Camada_1" xmlns="http://www.w3.org/2000/svg" xmlns:xlink="http://www.w3.org/1999/xlink" x="0px" y="0px"
	 viewBox="0 0 1000 1000" style="enable-background:new 0 0 1000 1000;" xml:space="preserve">
<title>users2</title>
<title>contract</title>
<title>users2</title>
<title>contract</title>
<g>
	<path d="M52,942.6c0-18.2,0.1-36.3,0.1-54.5c0-32-0.1-64-0.2-96c-0.1-41.5-0.4-83-0.5-124.5c-0.1-96.5-0.3-193-0.2-289.5
		c0-33.8,0.5-67.6,0.9-101.4c0.1-9.6,3.2-18.4,10.1-25.4c38.3-38.7,75.4-78.7,114.3-116.8c12.7-12.5,25.8-24.6,39-36.6
		c10-9.1,21.8-13.6,35.5-13.5c64.2,0.1,128.3,0.1,192.5,0c4.8,0,6.9,0.8,6.4,6.2c-0.5,5.6-0.3,11.3-0.1,17c0.1,3.2-1.1,4-4.1,3.9
		c-6.7-0.2-13.3-0.1-20-0.1c-56.7,0-113.3,0-170,0c-8,0-7.3-0.9-7.3,7.1c0,30.3,0,60.7,0,91c0,13.7-2.5,26.9-9.9,38.7
		c-12.8,20.6-31.3,31.2-55.6,31.4c-32.2,0.2-64.3,0-96.5,0c-6.7,0-6.7,0-6.7,6.4c0,207.3,0,414.6,0,622c0,6.5,0,6.5,6.6,6.5
		c195.5,0,391,0,586.5,0c20.6,0,35.3-9.7,40.6-26.7c1.4-4.5,1.7-9.1,1.7-13.8c0-82.2,0-164.3,0-246.5c0-8.8,0-8.8,9-8.8
		c4.8,0,9.7,0.1,14.5,0c2.7-0.1,4.1,0.8,3.8,3.6c-0.1,0.7,0,1.3,0,2c0,83.2,0,166.3,0,249.5c0,17.6-5.2,33.4-17.1,46.8
		c-10.6,11.9-23.9,18.9-39.7,20.9c-1.3,0.2-2.7,0-3.7,1.1C472,942.6,262,942.6,52,942.6z M100.6,252.3c0.5,0.2,1,0.4,1.4,0.4
		c27.1,0,54.3,0.5,81.4-0.1c21.8-0.5,36.9-16.7,37-38.4c0.1-25.6,0-51.3,0-76.9c0-1.5,0.8-3.3-0.6-4.2
		C180.1,172.8,140.5,212.5,100.6,252.3z"/>
	<path d="M945,328.6c-2.1,4.7-1.3,9.8-1.9,14.6c-6,53.3-25.5,101.1-59.1,142.9c-41.1,51.2-94,84.2-158.1,98
		c-136.2,29.3-272.2-46.3-319.6-177.2C354.1,262.5,430.6,102,575.7,51.5C609.9,39.6,645.1,34,681.2,36
		c69.2,3.9,129.2,29.6,179.1,77.8c44.6,43.1,71.4,95.6,81.2,156.7c1.3,7.9,1.7,15.9,2.5,23.8c0.1,1.1-0.1,2.4,1,3.2
		C945,308,945,318.3,945,328.6z M666.1,564.9c13.6-0.2,25.8-1.1,38-2.9c58.1-8.8,107.7-34.2,147.2-77.5
		c53.2-58.2,74.9-127,64.7-205.2c-6.4-48.8-26.5-91.7-58.5-129.1c-2.7-3.2-4.1-2.3-6.5,0.1C735.5,265.9,619.8,381.6,504,497.3
		c-2.8,2.8-2.9,4.1,0.2,6.8C551.3,544,605.8,563.8,666.1,564.9z M417.6,315.3c-0.2,8.3,0.2,18.1,1.5,27.8
		c6.4,50.4,25.8,95,58.7,133.8c3.1,3.7,4.7,3.2,7.8,0.1c115.3-115.4,230.6-230.8,346.1-346c3.3-3.3,3.3-4.9-0.3-7.8
		c-63-51.9-134.7-71.1-214.7-54.6C499.9,92.6,417.6,194.8,417.6,315.3z"/>
	<path d="M392,715.2c-65,0-130,0-195,0c-6.6,0-6.6,0-6.6-6.5c0-5.8,0.1-11.7,0-17.5c0-2.5,0.9-3.7,3.5-3.5c1.2,0.1,2.3,0,3.5,0
		c129.5,0,259,0,388.5,0c8.1,0,6.8-1,6.9,6.8c0.1,5-0.4,10,0.1,15c0.5,4.9-1.6,5.7-5.9,5.7c-18.3-0.2-36.7-0.1-55-0.1
		C485.4,715.2,438.7,715.2,392,715.2z"/>
	<path d="M348.3,571.6c50.5,0,101,0.1,151.5-0.1c4.9,0,6.9,0.9,6.5,6.3c-0.5,5.5-0.2,11-0.1,16.5c0.1,3.1-0.7,4.8-4.2,4.3
		c-0.8-0.1-1.7,0-2.5,0c-100.8,0-201.6,0-302.4,0c-6.6,0-6.6,0-6.6-6.8c0-4.8,0.3-9.7-0.1-14.5c-0.4-4.8,1.6-5.8,6-5.7
		c25.3,0.2,50.6,0.1,76,0.1C297.6,571.6,323,571.6,348.3,571.6z"/>
	<path d="M295.5,454.9c33.2,0,66.3,0.1,99.5-0.1c3.9,0,5.2,1,5,5c-0.3,6.1-0.2,12.3,0,18.5c0.1,3.1-1,4.3-4,4c-0.8-0.1-1.7,0-2.5,0
		c-65.5,0-131,0-196.5,0c-6.5,0-6.5,0-6.5-6.5c0-4.8,0.3-9.7-0.1-14.5c-0.4-4.8,0.8-6.5,6.2-6.4C229.5,455,262.5,454.9,295.5,454.9z
		"/>
</g>
</svg>
