<?xml version="1.0" encoding="utf-8"?>
<!-- Generator: Adobe Illustrator 21.1.0, SVG Export Plug-In . SVG Version: 6.00 Build 0)  -->
<svg version="1.1" id="Camada_1" xmlns="http://www.w3.org/2000/svg" xmlns:xlink="http://www.w3.org/1999/xlink" x="0px" y="0px"
	 viewBox="0 0 1000 1000" style="enable-background:new 0 0 1000 1000;" xml:space="preserve">
<title>users2</title>
<title>contract</title>
<title>users2</title>
<title>contract</title>
<g>
	<path d="M535.1,95.6c3.1,1.8,6.5,0.9,9.8,1c62.7,2.5,122.4,17.2,178.7,44.9c92.7,45.5,162.3,114.6,208.6,206.9
		c23.7,47.1,38.2,97,43.9,149.5c1.7,15.7,2.8,31.5,2.9,47.3c0,3.2-0.8,4.4-4.2,4.2c-5.2-0.3-10.3-0.3-15.5,0
		c-3.4,0.2-4.1-1.1-4.1-4.3c-0.1-28-3.1-55.8-8.9-83.2c-16.7-79.3-52.8-148.6-108.4-207.5c-59-62.4-130.5-103.5-214-123.5
		c-30.5-7.3-61.6-10.9-92.9-11.4c-4.4-0.1-5.9-1.2-5.5-5.6c0.6-6.1-0.6-12.3,0.6-18.4C529.1,95.6,532.1,95.6,535.1,95.6z"/>
	<path d="M354.8,876.5c-90,0-180,0-270,0c-33.3,0-59.7-25.6-59.8-58.9c-0.2-116.5-0.2-233,0-349.5c0-33.4,26.6-58.9,60.8-59
		c34-0.1,68,0,102,0c144.8,0,289.6,0,434.5,0c29.3,0,53,17.7,60,44.8c1.3,5,1.8,10.1,1.8,15.3c0,115.8,0,231.7,0,347.5
		c0,33.9-26,59.8-59.8,59.8C534.5,876.5,444.7,876.5,354.8,876.5z M354.7,654.5c-100,0-200,0-299.9-0.1c-4.6,0-6.3,0.9-6.3,5.9
		c0.2,51.2,0.4,102.3,0,153.5c-0.2,24.4,19.3,39.3,39.2,39.3c178.1-0.4,356.2-0.4,534.4,0c18.9,0,39.2-13.8,39-38.9
		c-0.2-51-0.1-102-0.1-153c0-6.7,0-6.7-6.9-6.7C554.3,654.5,454.5,654.5,354.7,654.5z M354.6,521.8c100.2,0,200.3,0,300.5,0.1
		c4.3,0,5.7-0.9,5.6-5.5c-0.3-15.2-0.1-30.3-0.1-45.5c0-3.1-0.1-6.4-0.8-9.4c-4.2-18-18.7-29.1-37.9-29.1c-178.3,0-356.6,0-534.9,0
		c-1.2,0-2.3,0-3.5,0c-18.9,0.8-35.4,17-35.4,34.8c0,16,0.1,32,0.2,48c0,6.5,0,6.5,6.5,6.5C154.6,521.8,254.6,521.8,354.6,521.8z
		 M354.6,631.1c100,0,200,0,300,0.1c4.8,0,6.2-1.2,6.1-6c-0.3-24.7-0.2-49.3,0-74c0-4.4-1-5.9-5.7-5.9c-200.3,0.1-400.6,0.1-600.9,0
		c-5,0-6,1.6-6,6.2c0.2,24.2,0.1,48.3,0.1,72.5c0,7.1,0,7.1,7,7.1C155,631.1,254.8,631.1,354.6,631.1z"/>
	<path d="M890.2,548.4c-3.7,0-8,1.3-10.8-0.3c-3.3-1.9-1.3-6.7-1.4-10.2c-1.1-24.2-4.1-48.1-9.8-71.6
		c-31.9-131-135.5-232.4-267.1-261.5c-23.3-5.2-46.9-7.7-70.8-8.1c-3.7-0.1-5-1-4.8-4.8c0.3-4.8,0.2-9.7,0-14.5
		c-0.1-3.3,1-4.4,4.3-4.3c104.1,2.6,193.3,40.2,266.1,114.7c53.7,55,86.9,120.9,100.2,196.7c3.5,19.7,5,39.6,5.6,59.6
		c0.1,3.9-0.9,5.1-4.6,4.7c-2.3-0.2-4.7,0-7,0C890.2,548.6,890.2,548.5,890.2,548.4z"/>
	<path d="M538.5,250.6c137.6,5.6,253.8,105.1,280.2,239.9c3.4,17.3,5.2,34.9,5.5,52.5c0.1,4.4-1.1,6-5.6,5.5c-4.5-0.4-9-0.4-13.5,0
		c-3.9,0.3-4.9-1.3-4.9-4.8c0-14.3-1.5-28.6-4-42.7c-9.5-53.6-32.8-100.3-69.9-140c-41.8-44.7-93.2-72.3-153.4-83.4
		c-13.8-2.5-27.7-3.9-41.7-3.9c-5,0-6.4-1.6-6-6.3c0.4-4.5,0.2-9,0.1-13.5c-0.1-2.6,1-3.6,3.5-3.5
		C532.2,250.7,535.4,250.6,538.5,250.6z"/>
	<path d="M461.5,777.4c-33.5,0-67-0.1-100.4,0.1c-5.3,0-6.6-1.6-6.2-6.4c0.4-4,0.3-8,0-12c-0.4-4.3,1-5.8,5.5-5.7
		c13.8,0.3,27.6,0.1,41.5,0.1c53.6,0,107.3,0.1,160.9-0.1c4.9,0,7,1,6.4,6.3c-0.5,4.3-0.3,8.7,0,13c0.2,3.7-0.9,4.8-4.7,4.8
		c-16.7-0.2-33.3-0.1-50-0.1C496.9,777.4,479.2,777.4,461.5,777.4z"/>
</g>
</svg>
