<svg id="Camada_1" data-name="Camada 1" xmlns="http://www.w3.org/2000/svg" viewBox="0 0 11.20831 8.53386"><defs><style>.cls-1{fill:#989798;}</style></defs><title>Co2</title><g id="Camada_1-2" data-name="Camada_1"><path class="cls-1" d="M1.97877,6.10561h-0.013a1.96567,1.96567,0,0,1-.36929-3.89634C1.59263,2.15614,1.59,2.103,1.59,2.04859a1.96577,1.96577,0,0,1,3.79009-.7321,1.96549,1.96549,0,0,1,3.82119.64788c0,0.04276-.0013.08422-0.00389,0.12569H9.24278a1.96567,1.96567,0,1,1-.73729,3.7888,1.9666,1.9666,0,0,1-2.804,1.45A1.96613,1.96613,0,0,1,1.923,6.5669a1.91119,1.91119,0,0,1,.05442-0.46Z" transform="translate(-0.00014 0.0013)"/></g></svg>