<?xml version="1.0" encoding="utf-8"?>
<!-- Generator: Adobe Illustrator 21.1.0, SVG Export Plug-In . SVG Version: 6.00 Build 0)  -->
<svg version="1.1" id="Camada_1" xmlns="http://www.w3.org/2000/svg" xmlns:xlink="http://www.w3.org/1999/xlink" x="0px" y="0px"
	 viewBox="0 0 1000 1000" style="enable-background:new 0 0 1000 1000;" xml:space="preserve">
<title>users2</title>
<title>contract</title>
<title>users2</title>
<title>contract</title>
<g>
	<path d="M36.4,240c3.3,0,6.7-0.1,10-0.1c214.5,0,428.9,0,643.4,0c1.8,0,3.7,0.1,5.5,0c2.4-0.1,3.3,1,3.2,3.3c-0.1,1.3,0,2.7,0,4
		c0,147.1,0,294.3,0,441.4c0,8.4,0.7,7.2-7.2,7.2c-217.6,0-435.3,0-652.9,0c-0.7,0-1.3,0.1-2,0.1C36.4,544,36.4,392,36.4,240z
		 M367.4,675.1c101.3,0,202.6,0,303.9,0c6.5,0,6.5,0,6.5-6.4c0-133.8,0-267.6,0-401.4c0-6.4,0-6.4-6.6-6.4c-202.1,0-404.2,0-606.4,0
		c-6.7,0-6.7,0-6.7,6.7c0,133.6,0,267.3,0,400.9c0,6.6,0,6.6,6.8,6.6C165.8,675.1,266.6,675.1,367.4,675.1z"/>
	<path d="M963.4,91c0,93.7,0,187.3,0.1,281c0,21.5-0.1,43,0.1,64.5c0,4-0.8,5.4-5.1,5.4c-76.8-0.1-153.7-0.1-230.5,0
		c-3.8,0-5.5-0.8-5.1-4.9c0.3-4.3,0.2-8.7,0.1-13c-0.1-2.5,0.9-3.7,3.5-3.5c1.3,0.1,2.7,0,4,0c68.5,0,137,0,205.5,0
		c6.7,0,6.7,0,6.7-6.8c0-98.3,0-196.7,0-295c0-6.6,0-6.6-6.5-6.6c-147.5,0-295,0-442.5,0c-6.4,0-6.4,0-6.4,6.6
		c0,30.8-0.1,61.7,0.1,92.5c0,4-1.1,5.3-5,5c-3.8-0.3-7.7-0.3-11.5,0c-3.6,0.2-4.5-1.3-4.5-4.6c0.1-40.2,0.1-80.3,0.1-120.5
		C632.1,91,797.8,91,963.4,91z"/>
	<path d="M204.4,842c11.7-17.4,23.4-34.8,35.1-52.2c6.5-9.7,13.2-19.2,19.6-29c1.9-2.9,3.3-3,5.8-1c3.3,2.5,6.7,4.9,10.3,7
		c3,1.7,2.7,3.3,1,5.8c-9.9,14.4-19.6,29-29.4,43.5c-0.8,1.2-2.4,2.5-1.9,3.9c0.8,1.9,3,0.9,4.5,0.9c73.1,0,146.3,0,219.4,0
		c1.5,0,3.7,0.9,4.5-1c0.6-1.5-1.1-2.7-1.9-3.9c-9.6-14.4-19.3-28.8-29.1-43c-1.9-2.8-2-4.4,1.1-6.2c4.6-2.7,9.1-8.3,13.3-8
		c4.4,0.3,6.5,7.6,9.5,12c15.6,22.8,31.1,45.7,46.6,68.5c0.6,0.8,1,1.7,1.4,2.6C411.1,842,307.8,842,204.4,842z"/>
	<path d="M715.1,144.9c63.2,0,126.3,0,189.5,0c6.4,0,6.4,0,6.4,6.6c0,60-0.1,120,0.1,180c0,4.8-0.8,7.1-6.2,6.4
		c-3.6-0.5-7.3-0.2-11-0.1c-2.5,0.1-3.8-0.7-3.6-3.4c0.1-1.5,0-3,0-4.5c0-52.5,0-105,0-157.5c0-6.6,0-6.6-6.4-6.6
		c-112.6,0-225.3,0-337.9,0c-6.5,0-6.5,0-6.5,6.6c0,12.8-0.1,25.7,0.1,38.5c0.1,3.7-0.8,5.5-4.9,5.2c-4.1-0.3-8.3-0.1-12.5-0.1
		c-2.4,0.1-3.6-0.6-3.6-3.3c0.1-21.5,0.1-43,0-64.5c0-2.3,0.7-3.4,3.1-3.3c1.5,0.1,3,0,4.5,0C589.1,144.9,652.1,144.9,715.1,144.9z"
		/>
	<path d="M824.5,551.4c-1.5,0.9-3,0.5-4.4,0.5c-30.7,0-61.3-0.1-92,0.1c-4.8,0-6.1-1.5-5.6-5.9c0.3-3.5,0.3-7,0-10.5
		c-0.3-3.8,1.1-4.8,4.8-4.8c17.5,0.2,35,0.1,52.5,0c1.6,0,3.7,0.9,4.6-0.8c0.9-1.7-1.1-3-1.9-4.3c-5.8-8.7-11.7-17.4-17.7-26
		c-1.9-2.7-2.3-4.3,1-6.2c3.9-2.2,7.5-4.9,11.2-7.5c1.8-1.3,3-1.6,4.4,0.6c14.2,21.1,28.6,42.2,42.8,63.3
		C824.4,550.3,824.4,550.9,824.5,551.4z"/>
	<path d="M779.5,366.9c17.3,0,34.7,0.1,52-0.1c3.7,0,5.1,1,4.7,4.8c-0.3,3.6-0.3,7.4,0,11c0.4,4-1.1,5-5,5c-25-0.2-50-0.1-75-0.1
		c-9.8,0-19.7-0.1-29.5,0c-3.2,0-4.5-0.8-4.3-4.2c0.3-4,0.3-8,0-12c-0.2-3.6,1.1-4.5,4.6-4.5C744.5,367,762,366.9,779.5,366.9z"/>
	<path d="M885.2,372.3c0,1.5-0.2,3,0,4.5c0.9,5.1-1.5,6.2-6.1,5.9c-3.3-0.2-4.9-0.8-4.6-4.5c0.3-4,0.4-8,0-12
		c-0.5-4.8,2.1-4.8,5.6-4.9c3.7-0.1,5.7,0.8,5.1,4.9C885,368.2,885.2,370.3,885.2,372.3z"/>
	<path d="M367.9,311.1c84.8,0,169.6,0,254.5,0c7.6,0,7.1-1.2,7.1,6.8c0,79.3,0,158.6,0,238c0,6.6,0,6.6-6.9,6.6
		c-13.7,0-13.7,0-13.7-13.8c0-70.2,0-140.3,0-210.5c0-6.5,0-6.5-6.4-6.5c-156.3,0-312.6,0-468.9-0.1c-5,0-6.4,1.1-6.4,6.3
		c0.2,86.7,0.2,173.3,0,260c0,5.1,1.4,6.3,6.4,6.3c131.3-0.1,262.6-0.1,394-0.1c7.8,0,6.6-0.8,6.7,6.6c0,3.3-0.3,6.7,0.1,10
		c0.5,4.2-1.4,4.9-5.1,4.9c-139.2-0.1-278.3-0.1-417.5,0c-4.6,0-5.4-1.6-5.4-5.7c0.1-101,0.1-202,0-303c0-5,1.6-5.9,6.2-5.9
		C197.6,311.2,282.8,311.1,367.9,311.1z"/>
	<path d="M599.2,607.6c0,0.2,0,0.3,0,0.5c0,10.9-0.4,11.2-11.4,10c-2.1-0.2-3-1-3-3.1c0-5,0-10,0-15c0-2.1,0.9-2.7,3-2.9
		C599.2,596.3,599.2,596.2,599.2,607.6z"/>
</g>
</svg>
