<?xml version="1.0" encoding="utf-8"?>
<!-- Generator: Adobe Illustrator 21.1.0, SVG Export Plug-In . SVG Version: 6.00 Build 0)  -->
<svg version="1.1" id="Camada_1" xmlns="http://www.w3.org/2000/svg" xmlns:xlink="http://www.w3.org/1999/xlink" x="0px" y="0px"
	 viewBox="0 0 1000 1000" style="enable-background:new 0 0 1000 1000;" xml:space="preserve">
<title>users2</title>
<title>contract</title>
<title>users2</title>
<title>contract</title>
<g>
	<path d="M422.9,605c0-63.5-0.6-127,0.2-190.5c0.8-73.4,45.7-118.3,119.3-118.9c80.8-0.7,161.7-0.8,242.5,0
		c70.5,0.7,117.3,46,117.9,116.2c1.2,128.5,1.1,256.9,0.1,385.4c-0.5,70.4-46.8,116.1-117.4,117c-82.3,1-164.6,1.1-246.8-0.1
		c-69.8-1-114.9-47.9-115.7-118.5C422.3,732,422.9,668.5,422.9,605z M838.9,606.6c0-66.3-1.2-132.7,0.5-199
		c0.9-35.5-12.7-49-48.1-48.4c-85,1.5-170.1,1.5-255.2,0.1c-34.5-0.6-49.7,10.7-49.3,47.2c1.3,132.6,1,265.3,0,397.9
		c-0.3,33.3,12.3,46.6,45.9,46.1c86.5-1.3,173-1.4,259.5,0.2c36.4,0.7,48.1-14.9,47.2-49.4C837.9,736.4,839,671.5,838.9,606.6z"/>
	<path d="M209.9,396.8c0,64.9,1.3,129.8-0.5,194.7c-1,36.7,11.4,54.4,49.8,50.9c18.6-1.7,37.5-0.9,56.2,0.7
		c17.7,1.5,30.4,12.1,31.1,30.1c0.7,18.3-11.7,29.6-29.1,31.9c-101.7,13.5-175.6-25.3-172.6-135.1c3.2-118.2,0.6-236.5,0.8-354.8
		c0.2-83.7,44.2-127.7,128-127.9c79.3-0.2,158.7-0.7,238,0.3c53.5,0.7,96.3,34.2,109.6,81.5c6.4,22.7,3.7,41.8-20.9,48.3
		c-23.3,6.2-35.9-9.8-37.7-30.4c-2.5-28.6-18.3-35.7-43.5-35.6c-88,0.5-176,1-263.9-0.3c-33.8-0.5-46.3,13.3-45.6,46.4
		C210.9,264,209.9,330.4,209.9,396.8z"/>
	<path d="M866.1,139.7c11.3-20.7,5.7-36.8,7.9-52c2.8-19.4,12.8-33.6,33.1-33.1c18.2,0.4,29.2,14.2,29.7,31.6
		c1.3,46.1,1.8,92.4,0.2,138.5c-0.8,22.6-17.4,31.2-39,31.1c-39-0.2-77.9-0.1-116.9-0.1c-22.2,0-43.1-6-44-31
		c-0.9-25,18.8-32.6,41.6-33.4c12.4-0.4,25.6,3.6,49.7-13.2c-37.2-33.1-72.5-64-107.3-95.6c-15.8-14.3-29.6-31.5-11.1-51.8
		c20.5-22.3,38.5-8.3,54.9,8.2C798.1,72.1,831.3,105.1,866.1,139.7z"/>
	<path d="M176.6,869.7c-0.7,15.7-0.4,31.6-2.5,47.1c-2.3,17.4-12.8,30.2-31,30.2c-18.1,0-30.5-12.4-31.1-29.9
		c-1.4-47.5-2.1-95.2,0.2-142.6c1.1-22.5,20.1-28.8,41.2-28.5c37.5,0.5,75,0.3,112.4,0c23.9-0.2,46.1,5.7,45.5,33.5
		c-0.5,25-21.7,30.9-43.9,31c-11.4,0.1-22.8,1.1-45.7,2.3c37.9,38,69.8,70,101.7,102c16.5,16.6,37.1,34.8,13.2,57.9
		c-23.8,23-41.8,1.6-57.8-15c-30.5-31.9-60.4-64.4-90.6-96.6C184.4,863.9,180.5,866.8,176.6,869.7z"/>
	<path d="M661.7,497.9c-21.7,0-43.4,1.2-65-0.4c-19.2-1.4-34-12.1-33.3-32.7c0.6-17.9,13.9-29.5,31.5-29.9
		c46.2-1.1,92.4-1.2,138.6,0.5c17.4,0.7,29.3,13.4,29.2,31.8c-0.1,16.9-13.2,27.4-27.5,29c-24.2,2.7-49,0.7-73.5,0.7
		C661.7,497.3,661.7,497.6,661.7,497.9z"/>
	<path d="M661.6,573.1c21.7,0,43.4-0.5,65,0.1c19.5,0.6,34.7,10,35.8,30.3c1.2,21.1-15.2,31.9-33.3,32.5
		c-44.7,1.7-89.5,1.3-134.3-0.1c-17.3-0.5-31.1-11.8-31.6-29.8c-0.5-20.4,14.1-31.3,33.4-32.7C618.2,572,639.9,573.1,661.6,573.1z"
		/>
	<path d="M629.8,712.3c11.4,0,23-1.4,34.2,0.3c17.3,2.6,29.4,13.4,29.2,31.4c-0.2,18-12.8,28.9-30.1,30.5c-19.8,1.9-39.9,1.2-59.9,1
		c-20.6-0.2-38.9-8.4-39.7-30.3c-0.8-24.6,17.9-33.3,40.6-33.7c8.6-0.1,17.1,0,25.7,0C629.8,711.8,629.8,712.1,629.8,712.3z"/>
</g>
</svg>
