<?xml version="1.0" encoding="utf-8"?>
<!-- Generator: Adobe Illustrator 21.1.0, SVG Export Plug-In . SVG Version: 6.00 Build 0)  -->
<svg version="1.1" id="Camada_1" xmlns="http://www.w3.org/2000/svg" xmlns:xlink="http://www.w3.org/1999/xlink" x="0px" y="0px"
	 viewBox="0 0 1000 1000" style="enable-background:new 0 0 1000 1000;" xml:space="preserve">
<title>users2</title>
<title>contract</title>
<title>users2</title>
<title>contract</title>
<g>
	<path d="M869.2,562.7c0,105,0.1,210,0,315c0,57.3-38.8,98.4-95.8,98.8c-136.3,0.8-272.6,0.7-408.9,0c-51.6-0.3-85.3-35.7-86.6-87.4
		c-0.1-2.1,0.1-4.2-0.1-6.3c-1.5-17.1,7.6-39.2-4.1-49.9c-11.4-10.5-33.2-3-50.5-3.1c-58-0.6-92.1-34.3-92.1-92.3
		c-0.1-160.6,0.1-321.3-0.3-481.9c-0.1-16.6,4.8-28.8,16.6-40.5c63.9-63,127.4-126.4,190.3-190.3c13.2-13.4,26.4-18.5,45.7-18.2
		C462,8.1,540.6,7.3,619.1,7.3c64.9,0,98.1,32.8,98.5,97c0.3,50.4,0.3,50.4,51.4,50.4c67.8,0,100.1,32,100.1,99.2
		C869.2,356.9,869.2,459.8,869.2,562.7z M669.9,417.5c0-106.4,0.1-212.7-0.1-319.1c0-30.5-12.2-42.9-42.8-43
		c-72.3-0.2-144.6,0.2-216.9-0.4c-13.4-0.1-18.2,3.6-17.8,17.5c0.9,35.4,0.7,70.9,0.2,106.4c-0.8,55.2-35.6,89.7-90.5,90.1
		c-34.8,0.2-69.6,0.9-104.3-0.4c-15.9-0.6-19.8,4.5-19.8,19.9c0.5,149.5,0.2,298.9,0.4,448.4c0,34.3,12.3,45.9,47,45.9
		c132.8,0.1,265.6,0.1,398.4,0c35,0,46.1-11.2,46.1-46.2C669.9,630.2,669.9,523.8,669.9,417.5z M816.8,565.1c0-62.6,0-125.2,0-187.9
		c0-43.1,0.1-86.3-0.1-129.4c-0.2-33.9-11.6-45.3-44.7-45.5c-10.4-0.1-21.1,1.3-31.3-0.3c-19.5-3-22.4,5.8-22.4,23.2
		c0.6,169.1,0.4,338.2,0.3,507.2c0,65-33.8,98.5-99.5,98.5c-80.7,0.1-161.4,0-242.1,0c-51.6,0-51.6,0-51.1,52.7
		c0.3,34.6,11.5,45.6,46.7,45.6c131.5,0,263,0,394.5,0c39.3,0,49.6-10.1,49.6-49.1C816.8,775.2,816.8,670.1,816.8,565.1z
		 M344.8,94.5C302.2,137.1,259.4,180,217,222.4c30,0,62.3,1.1,94.5-0.4c18.2-0.8,32.3-11.6,33-31.3
		C345.7,157.8,344.8,124.7,344.8,94.5z"/>
	<path d="M425,399c-60.5,0-121-0.6-181.4,0.4c-16,0.3-17.4-6.4-17.6-19.6c-0.2-13.9,2.9-19.1,18.1-19c122.4,0.6,244.7,0.7,367.1,0
		c16-0.1,17.5,6.4,17.7,19.5c0.2,14-3,19.2-18.2,19C548.7,398.5,486.9,399,425,399z"/>
	<path d="M424.9,519.6c-60.4,0-120.9-0.6-181.3,0.4c-16.1,0.3-17.3-6.5-17.7-19.6c-0.4-14.3,3.4-18.8,18.4-18.8
		c122.3,0.6,244.5,0.6,366.8,0c15.8-0.1,17.6,6.2,17.8,19.5c0.2,14.2-3.6,19-18.5,18.8C548.5,519.1,486.7,519.6,424.9,519.6z"/>
	<path d="M429.5,602.2c60.4,0,120.8,0.5,181.2-0.4c15.4-0.2,18.2,5.6,18.1,19.3c-0.1,13.6-2.7,19.5-18.2,19.4
		c-122.2-0.6-244.4-0.6-366.6,0c-15.6,0.1-17.9-6-18-19.5c-0.1-13.8,2.7-19.5,18.1-19.2C305.8,602.7,367.7,602.2,429.5,602.2z"/>
</g>
</svg>
