<?xml version="1.0" encoding="utf-8"?>
<!-- Generator: Adobe Illustrator 21.1.0, SVG Export Plug-In . SVG Version: 6.00 Build 0)  -->
<svg version="1.1" id="Camada_1" xmlns="http://www.w3.org/2000/svg" xmlns:xlink="http://www.w3.org/1999/xlink" x="0px" y="0px"
	 viewBox="0 0 1000 1000" style="enable-background:new 0 0 1000 1000;" xml:space="preserve">
<title>users2</title>
<title>contract</title>
<title>users2</title>
<title>contract</title>
<g>
	<path d="M938.1,782.9c-1.9,4.3-1.7,9.1-2.7,13.6c-6.9,30.6-25.3,52.5-51.2,69.1c-26.4,17-55,27.3-86.1,30.8
		c-3.8,0.4-4.5,1.9-4.5,5.3c0.1,21,0,42,0.2,63c0,4.2-1.2,5.6-5.3,5.3c-6.1-0.3-12.3-0.3-18.5,0c-3.9,0.2-4.7-1.2-4.7-4.9
		c0.2-20.3-0.1-40.7,0.2-61c0.1-4.5-1.3-5.5-5.6-5.5c-45.9-0.5-89.3-10.7-129.5-33.6c-4.2-2.4-5-4.1-2.1-8.1
		c3.7-5.1,6.9-10.6,10.1-16c1.4-2.3,2.4-2.8,5-1.3c24.8,14.7,51.7,23.5,80,28.1c12.5,2,25.1,2.7,37.8,3.2c3.7,0.1,4.9-1.2,4.9-4.9
		c-0.1-66-0.1-132,0-198c0-3.6-1.2-4.8-4.7-5.5c-35.4-7.6-67.3-22.7-95.9-44.9c-25.2-19.5-42-44.8-47.9-76.1
		c-5.9-31.2,3.8-58.9,24.8-82.1c20.4-22.5,46.7-36,75.3-45.4c13.2-4.3,26.7-7,40.5-8.2c7.9-0.7,7.9-0.8,7.9-8.8
		c0-19.8,0.1-39.7-0.1-59.5c0-4.2,1.2-5.6,5.3-5.3c6,0.3,12,0.3,18,0c3.7-0.2,4.8,1,4.8,4.8c-0.2,20.3,0.1,40.7-0.2,61
		c-0.1,4.7,1.4,5.8,5.9,5.9c44.6,0.9,86.5,11.7,125.3,34c3.3,1.9,4.2,3.2,1.8,6.6c-3.8,5.5-7.1,11.3-10.5,17c-1.2,2-2,2.9-4.6,1.4
		c-25.4-14.9-52.8-24.4-81.9-28.8c-10.5-1.6-21.1-2.5-31.8-2.8c-3.5-0.1-4.6,1-4.6,4.5c0.1,66.7,0.1,133.3,0,200
		c0,3.4,1.4,4.5,4.4,5.2c33.2,7.8,63.3,22.4,90.3,43.1c26,19.9,42,46,48.3,78c0.6,3.2-0.5,6.7,1.4,9.7
		C938.1,775.6,938.1,779.2,938.1,782.9z M765,533.7c0-31.3,0-62.7,0-94c0-7.3,0-7.1-7.1-6.3c-6.6,0.7-13.2,1.8-19.7,3.4
		c-28,6.9-53.5,18.8-74,39.4c-16,16.1-23.4,36.3-19.9,58.9c3.1,20.4,13.1,38.2,28.4,52.1c25.1,22.9,54.8,37.4,87.6,45.8
		c4.1,1,4.7-0.6,4.7-4.2C765,597.1,765,565.4,765,533.7z M793.6,768.4c0,31.5,0,63,0,94.5c0,0.2,0,0.3,0,0.5
		c-0.7,4.2,1.3,5.1,5.1,4.5c30.3-4.5,57.6-15.8,81.9-34.4c21.9-16.8,39.5-51,22.4-87.1c-8.5-18-20.5-32.5-37.3-43.8
		c-20.4-13.7-41.7-24.8-65.3-31.7c-6.9-2-6.9-2-6.9,5C793.6,706.8,793.6,737.6,793.6,768.4z"/>
	<path d="M700.1,29.9c5.9,1.9,12.1,1.4,18.1,2.7c53.8,11.7,89.3,57.2,86.9,112.2c-1.4,30.9-14.5,56.3-37.4,76.8
		c-4.3,3.9-4.2,3.7,1,5.7c58.4,21.8,92.4,63.5,102.1,125c0.7,4.6,0.7,9.3,1.2,13.9c0.4,3.3-0.5,4.8-4.3,4.6
		c-5.8-0.3-11.7-0.4-17.5,0c-5,0.4-6.8-1-7-6.3c-0.7-22.9-8-43.8-21.1-62.5c-22.4-32-53.2-50.6-92.3-53.2c-25.4-1.7-51-2.4-76.3,1
		c-50.5,6.9-93.9,50.2-101.7,100.7c-0.9,5.6-1.8,11.2-1.8,16.9c0,2.6-0.8,3.5-3.5,3.4c-6.5-0.2-13-0.3-19.5,0.1
		c-4.4,0.3-5.3-1.5-5.1-5.4c1.2-30.4,10.7-58.1,28.3-82.9c18.9-26.5,44.2-44.4,74.7-55.2c1.3-0.4,2.5-0.8,3.8-1.3
		c0.2-0.1,0.4-0.5,0.8-0.9c-6-5.7-12.3-11-17.5-17.6c-51.6-64.8-14.7-161.5,67-175.1c4.4-0.7,8.9-0.8,13.4-1.3
		c1.6-0.2,3.4,0.5,4.6-1.1C698.1,29.9,699.1,29.9,700.1,29.9z M616.6,140.2c0,44,36.5,80.3,80.6,80.2c43.5-0.1,79.3-36.1,79.3-79.8
		c0-45.3-35.5-81.8-79.6-81.6C652.8,59.1,616.6,95.7,616.6,140.2z"/>
	<path d="M409.4,374.5c11.3,2.9,21.5,5.4,31.4,9.4c78.7,31.5,126.9,88.8,144.2,171.8c2.4,11.6,3.2,23.4,3.9,35.2
		c0.3,4.3-1.3,5.4-5.4,5.2c-6.1-0.3-12.3-0.2-18.5,0c-3.4,0.1-4.5-1-4.6-4.5c-1.6-56.2-23.3-103.4-64.5-141.3
		c-31.9-29.4-69.9-46.6-113.3-50.5c-31.2-2.8-62.6-0.5-93.9-1.1c-19.5-0.4-38.7,2-57.1,8.1c-76.5,25.3-122.9,77.5-138.8,156.7
		c-1.9,9.5-2.7,19.1-2.8,28.8c0,2.8-0.9,3.8-3.7,3.8c-6.2-0.1-12.3-0.3-18.5,0.1c-4.6,0.3-6-1.2-5.8-5.8
		c0.8-28.3,6.4-55.6,17.7-81.4c30.6-69.6,83.1-113.7,156.7-132.9c1.1-0.3,2.3-0.6,3.4-1c0.3-0.1,0.4-0.4,0.9-0.8
		c-47.2-32.1-73.7-76.1-75.4-133.5c-1.4-44.1,13.7-82.4,44-114.3c59.2-62.3,159.6-68.2,224-7.9c38.5,36.1,56.5,81,51.9,133.8
		C480.4,305,453.7,344.8,409.4,374.5z M457.5,236.9c0-73-59.1-132.1-132.1-132.2c-73.1,0-132.2,58.8-133,130.9
		c-0.7,73.3,59,133.8,132.1,133.8C398.1,369.3,457.5,310.1,457.5,236.9z"/>
</g>
</svg>
