<?xml version="1.0" encoding="utf-8"?>
<!-- Generator: Adobe Illustrator 21.1.0, SVG Export Plug-In . SVG Version: 6.00 Build 0)  -->
<svg version="1.1" id="Camada_1" xmlns="http://www.w3.org/2000/svg" xmlns:xlink="http://www.w3.org/1999/xlink" x="0px" y="0px"
	 viewBox="0 0 1000 1000" style="enable-background:new 0 0 1000 1000;" xml:space="preserve">
<title>users2</title>
<title>contract</title>
<title>users2</title>
<title>contract</title>
<g>
	<path d="M963.2,511.1c-4.2,146.6-100.3,266.9-240.9,301.3c-19,4.6-39.6,18.8-54-8.6c-31.6-59.8-91.1-90.7-140.6-131.2
		c-32.4-26.5-46-53-37.3-94.9c19.2-92.2-4.5-174.3-69.7-242.3c-20.5-21.4-22.1-36.2-0.5-57.1C468,232,524,202.4,588.8,188.5
		c39.7-8.5,53.6,7.4,52.5,47.3c-2,73.9,0.3,147.9-0.6,221.8c-0.5,36.6,10.1,50.1,49.2,38c61.6-19,124.8-33.1,187.1-49.8
		C963.1,422.6,965.7,424.4,963.2,511.1z"/>
	<path d="M236.7,299.9c127.7,2.2,233.7,118.4,210.3,246.4c-15.3,83.9,8.1,137.3,75.9,180.3c25.1,16,46.8,37.4,70.2,56.2
		c41.8,33.7,46.1,73.7,13.8,114.4c-29.4,37-85.1,33.4-120.1-5.8c-26.1-29.2-52.8-58.5-74.3-91.1c-36.3-54.7-82.1-69.2-147.5-61.6
		C87,759.2-36.2,592.4,33.9,432C68.8,352.4,151.6,298.4,236.7,299.9z M80.1,524.3c0.8,86.2,67.4,154.5,151.9,155.7
		c84.8,1.2,158.9-73.5,157.7-159.1c-1.1-82.3-72.9-155-154.4-156.4C150.1,363,79.2,435.9,80.1,524.3z"/>
	<path d="M739,110.3c119.5,21.4,200.8,82,249.7,186.2c13.4,28.5,14.3,45.8-23.1,54.6c-74,17.4-147.7,36.9-220.3,59.4
		c-39.1,12.1-43.8-5.5-43.6-36.3c0.5-74,0.4-147.9,0.1-221.9C701.5,122,708.4,100.8,739,110.3z"/>
</g>
</svg>
