<?xml version="1.0" encoding="utf-8"?>
<!-- Generator: Adobe Illustrator 21.1.0, SVG Export Plug-In . SVG Version: 6.00 Build 0)  -->
<svg version="1.1" id="Camada_1" xmlns="http://www.w3.org/2000/svg" xmlns:xlink="http://www.w3.org/1999/xlink" x="0px" y="0px"
	 viewBox="0 0 1000 1000" style="enable-background:new 0 0 1000 1000;" xml:space="preserve">
<title>users2</title>
<title>contract</title>
<title>users2</title>
<title>contract</title>
<g>
	<path d="M59,173.5c0-0.7,0-1.3,0-2c1.8-8.3,7.8-11.4,15.2-13.8c53.2-17.2,106.2-34.6,159.3-51.9c61.8-20.2,123.6-40.3,185.4-60.6
		c14.5-4.8,29.5-8.5,43.3-14.9c17.2-8,34.5-9.2,52.3-2.8c3.6,1.3,7,3,10.7,4.2C655.8,73,786.4,114.5,917.2,155.3
		c11.8,3.7,17.7,10.4,20.9,21.2c1.5,5,2.4,10,2.8,15.2c0.6,7.9-1.8,15.5-2.3,23.3c-1.3,18.4-2.1,36.9-3.1,55.3
		c-1.9,34.4-3.8,68.8-5.7,103.2c-1.1,20.1-2.2,40.2-3.3,60.3c-1.9,33.4-3.8,66.8-5.6,100.2c-1.5,26.9-2.9,53.9-4.4,80.8
		c-1.9,34.4-3.9,68.8-5.6,103.2c-0.3,7-2.8,11.8-8.8,15.6c-23.3,14.6-46.3,29.5-69.5,44.4c-96.4,61.7-192.7,123.3-289.1,185
		c-18.6,11.9-38.9,15.8-60.7,12.4c-14.7-2.3-27-9.4-39.3-17.4c-55.4-36.1-111-71.8-166.5-107.7c-60.4-39-120.9-78.1-181.3-117
		c-4.7-3-7.6-6.7-7.9-12.4c-1-20.9-2.3-41.9-3.4-62.8c-2.1-39.7-4.1-79.5-6.2-119.2c-2-38.2-3.9-76.5-5.8-114.7
		c-1.5-30.8-3-61.5-4.5-92.3c-2.2-44.2-4.4-88.5-6.9-132.7C60.5,190.6,61.1,181.9,59,173.5z M485.9,473.7c0-27.5,0-55,0.1-82.4
		c0-3.1-0.7-5.2-3.8-6.7c-38.9-18.8-77.9-37.6-116.7-56.6c-4.4-2.1-4.6-0.5-4.5,3.2c0.6,20,1.1,39.9,1.5,59.9
		c0.6,33.5,1.1,66.9,1.5,100.4c0,4,1.2,6.3,4.9,8.2c37.2,19.6,74.4,39.4,111.5,59.2c5.5,2.9,5.6,2.9,5.6-3.1
		C485.9,528.3,485.9,501,485.9,473.7z M512.5,473.9c0,27.7,0,55.3-0.1,83c0,3.8,0.4,5.2,4.5,3c37.8-20.3,75.8-40.4,113.7-60.5
		c2.5-1.3,3.5-2.9,3.5-5.8c0-12.7,0.3-25.3,0.6-37.9c1-41.3,1.5-82.6,2.4-123.9c0.1-4.5-1-5-4.9-3c-38.4,18.8-76.9,37.4-115.4,55.9
		c-3.4,1.6-4.4,3.6-4.4,7.3C512.6,419.2,512.5,446.5,512.5,473.9z M485.9,675.1c0-25.6-0.1-51.3,0.1-76.9c0-3.7-1.2-5.6-4.4-7.3
		c-37.4-19.7-74.7-39.5-111.9-59.3c-3.8-2-5-1.9-4.8,2.8c0.7,24.8,1.2,49.6,1.7,74.4c0.5,25.6,1,51.3,1.3,76.9c0,3,1,4.8,3.6,6.3
		c36.6,21.1,73.2,42.3,109.7,63.5c4.6,2.6,4.8,2.5,4.8-2.8C485.9,726.7,485.9,700.9,485.9,675.1z M512.5,674.6c0,25.7,0,51.3,0,77
		c0,5.7,0.1,5.8,4.8,3c36.4-21.1,72.9-42.2,109.4-63.3c2.4-1.4,3.5-2.9,3.6-5.8c0.4-22.8,1.2-45.6,1.6-68.4
		c0.5-27.6,0.9-55.3,1.3-82.9c0.1-5.5,0-5.6-4.8-3c-37.2,19.7-74.4,39.5-111.6,59.1c-3.3,1.7-4.4,3.7-4.3,7.4
		C512.6,623.3,512.5,649,512.5,674.6z M664,399.1c-0.7,0-1.3,0-2,0c0,12.1,0.1,24.3,0,36.4c-0.1,13.8-0.4,27.6-0.5,41.5
		c0,1.7-1.5,4,0.4,5.1c1.7,1,3.3-1,4.9-1.8c34-18,67.9-36,101.9-53.9c3-1.6,4.3-3.5,4.4-7c0.3-15.1,0.8-30.3,1.3-45.4
		c1.3-36.3,2.6-72.5,3.9-108.8c0.2-6.6,0.1-6.6-5.7-3.8c-33.5,16.2-67,32.6-100.7,48.4c-6.1,2.9-7.7,6.5-7.7,12.5
		C664.1,347.8,664,373.4,664,399.1z M336.4,456.1c-0.3,0-0.7,0-1,0c0-8.7,0.1-17.3,0-26c-0.6-37.5-1.4-74.9-1.9-112.4
		c-0.1-4.3-1.4-6.5-5.3-8.3c-23.4-11.1-46.8-22.5-70.2-33.7c-11.2-5.4-22.5-10.8-33.7-16.2c-4.8-2.3-4.9-2.3-4.9,2.8
		c0,0.5,0,1,0,1.5c1,27.6,2,55.2,3,82.9c0.8,23.8,1.6,47.6,2.3,71.4c0.1,3.4,1.2,5.4,4.3,7c7,3.4,13.9,7.2,20.8,10.9
		c27.2,14.4,54.4,28.9,81.6,43.3c4.9,2.6,4.9,2.6,4.9-3.1C336.4,469.4,336.4,462.7,336.4,456.1z M485.9,866.2c0-24-0.1-48,0.1-72
		c0-3.8-1.2-6-4.5-7.9c-36-20.6-71.8-41.4-107.7-62c-1.4-0.8-2.9-2.7-4.4-1.8c-1.8,1-0.8,3.4-0.8,5.1c0.3,22.8,0.8,45.6,1.2,68.4
		c0.4,23.6,0.8,47.3,1.1,70.9c0,3.3,0.6,5.8,3.9,7.8c35.6,21.9,71,44.1,106.5,66.2c1.2,0.7,2.4,2.4,3.9,1.5c1.4-0.9,0.7-2.8,0.7-4.2
		C485.9,914.2,485.9,890.2,485.9,866.2z M512.5,865.3c0,24.3,0,48.7,0,73c0,3.9,0.7,4.7,4.3,2.4c35.6-22.3,71.2-44.4,106.8-66.5
		c2.5-1.6,3.7-3.3,3.7-6.4c0-9.5,0.5-19,0.6-28.5c0.7-37.5,1.4-74.9,2-112.4c0.1-6.2,0-6.3-5.4-3.2c-35.7,20.6-71.5,41.3-107.3,61.9
		c-3.5,2-4.9,4.1-4.8,8.2C512.6,817.7,512.5,841.5,512.5,865.3z M225.5,454.2c0.3,8,0.7,14.7,0.9,21.5c1.5,42.9,3,85.8,4.2,128.7
		c0.1,4.1,1.5,6.3,4.9,8.2c28.9,16.5,57.7,33.2,86.5,49.8c4.8,2.7,9.5,5.5,14.2,8.3c2.3,1.4,3.6,1.5,3.5-1.9
		c-0.9-36.9-1.7-73.9-2.4-110.8c-0.3-12.3-0.5-24.6-0.5-37c0-5.2-1.4-8.6-6.6-11.3c-22.9-11.8-45.6-24.1-68.3-36.2
		C250.3,467.3,238.5,461.1,225.5,454.2z M769.9,456.2c-0.1,0-0.6,0.1-1,0.3c-35.3,18.7-70.5,37.5-105.8,56.2c-2.7,1.4-3,3.5-3.1,6.2
		c-0.3,16.5-0.4,33-0.9,49.5c-1,33.3-1.4,66.6-2.1,99.9c-0.1,4.8,0.3,5.1,4.5,2.7c33.6-19.3,67.2-38.7,100.9-58
		c2.5-1.4,3.6-3.1,3.7-5.9c0.5-17.6,1.2-35.3,1.8-52.9c0.6-18.3,1.5-36.6,1.9-54.9C770.1,484.9,769.9,470.6,769.9,456.2z M910,203.2
		C910,203.2,910.1,203.2,910,203.2c0.1-0.5,0.1-1,0.1-1.5c0.1-7.2,0.1-7.2-6.2-4.2c-28.6,13.8-57,28-85.9,41.2
		c-8.8,4-14.6,8.4-12.6,18.8c0.2,1.3-0.3,2.6-0.4,4c-1.7,47.6-3.3,95.1-5.1,142.7c-0.2,4.6,0.9,4.6,4.5,2.7
		c31.4-16.7,62.9-33.4,94.4-49.9c2.6-1.4,3.5-3.1,3.6-5.8c0.2-6.5,0.6-13,0.9-19.4C905.6,289,907.8,246.1,910,203.2z M87.7,200.5
		c1.9,38.4,3.6,73.1,5.3,107.9c0.7,14.1,1.6,28.2,2.3,42.4c0.1,2.7,1.1,4.1,3.5,5.3c31.7,16.7,63.3,33.4,94.9,50.2
		c3.4,1.8,4.3,1.1,4.2-2.6c-0.9-20-1.7-39.9-2.5-59.9c-1.2-31.8-2.3-63.6-3.2-95.3c-0.1-3.3-1.2-5-4.2-6.4
		c-30.5-14.6-60.9-29.3-91.3-43.9C87.6,193.8,87.6,193.9,87.7,200.5z M764,656.5c0.1,0,0.1,0,0.2,0c0-2.7-0.2-5.3,0-8
		c0.3-4-0.3-5.1-4.4-2.8c-33.2,19.4-66.5,38.6-99.8,57.7c-2.2,1.3-3.3,2.7-3.3,5.4c-0.5,25.6-1.1,51.3-1.6,76.9
		c-0.4,21.5-0.7,42.9-1.1,64.4c0,1.3-0.7,3,0.5,3.8c1.5,1,2.7-0.7,3.9-1.4c32.4-20.1,64.8-40.2,97.2-60.2c2.7-1.6,4.1-3.4,4-6.7
		c-0.1-5.3,0.4-10.6,0.6-16C761.4,732,762.7,694.3,764,656.5z M343.2,833.4c-0.3,0-0.5,0-0.8,0c0-8.8,0.1-17.6,0-26.4
		c-0.5-32.8-1-65.6-1.5-98.4c0-2.6-0.8-4.3-3.1-5.7c-33.7-19.4-67.4-38.9-101.1-58.4c-2.9-1.7-4.1-1.5-3.9,2.2
		c0.4,7.6,0.7,15.3,1,22.9c1.3,36.9,2.8,73.8,3.7,110.7c0.2,6.6,2.5,10,7.9,13.2c21.6,13.1,43,26.6,64.5,40
		c9.7,6.1,19.5,12.1,29.3,18.2c1.1,0.7,2.2,2.1,3.5,1.3c1.2-0.8,0.6-2.4,0.6-3.7C343.2,844,343.2,838.7,343.2,833.4z M628.3,301.4
		c-1.9-0.9-2.8-1.4-3.7-1.8c-42.1-17.4-84.3-34.7-126.4-52.1c-2.6-1.1-4.7-0.6-7.1,0.4c-39.9,16.6-79.9,33.2-119.8,49.8
		c-1.4,0.6-3.3,0.6-3.9,2.7c0.7,0.4,1.4,0.9,2.2,1.3c41.9,20.3,83.9,40.5,125.8,60.8c2.5,1.2,4.6,0.9,7-0.2
		c27.7-13.4,55.4-26.8,83.1-40.1C599.4,315.3,613.3,308.6,628.3,301.4z M204,593.2c0-2.6,0.1-5.2,0-7.8c-0.8-23-1.8-45.9-2.6-68.9
		c-0.8-23.8-1.6-47.6-2.4-71.4c-0.1-2.6,0-5.1-3.1-6.7c-31.6-16.7-63.2-33.6-94.7-50.5c-3.4-1.8-3.9-0.7-3.7,2.6
		c0.5,7.6,0.7,15.3,1.1,22.9c2,40.2,4.1,80.5,6,120.7c0.2,3.3,2.4,4.1,4.5,5.3c30,17.3,59.9,34.7,89.9,52
		C200.5,592.2,201.8,593.5,204,593.2z M900.2,399.9C900.1,399.9,900.1,399.9,900.2,399.9c0.1-2.7,0.2-5.3,0.5-8
		c0.1-1.2,0.7-2.5-0.3-3.3c-1.3-1.1-2.5,0.1-3.6,0.7c-31.4,16.7-62.8,33.5-94.2,50.2c-2.2,1.2-3,2.6-3.1,5.1
		c-0.3,10.8-1,21.6-1.4,32.4c-1.4,37.7-2.7,75.5-4,113.2c-0.2,4.8,0.4,5.1,4.5,2.7c30.6-17.6,61.1-35.3,91.6-52.9
		c2.2-1.2,3-2.6,3.1-5.1c0.2-7.3,0.7-14.6,1.1-21.9C896.3,475.3,898.2,437.6,900.2,399.9z M210.9,766.2c-0.5,0-1,0-1.5,0
		c0-12.3,0.3-24.6-0.1-36.9c-0.9-32.8-2.2-65.5-3.1-98.3c-0.1-3-0.9-4.8-3.6-6.4c-30.4-17.5-60.8-35.2-91.1-52.8
		c-1.2-0.7-2.6-2.3-4-1.4c-1.4,0.9-0.4,2.8-0.5,4.2c0,0.5,0,1,0,1.5c2.3,43.7,4.6,87.4,6.7,131.1c0.2,3.4,1.4,5.4,4.2,7.2
		c29.3,18.1,58.6,36.2,87.9,54.4c1.4,0.8,2.8,2.6,4.4,1.9C212,769.8,210.5,767.7,210.9,766.2z M788.5,771.9c0.4,0.2,1.2-0.6,2-1.2
		c30.1-18.7,60.3-37.3,90.4-56c2.1-1.3,2.9-2.8,3-5.2c1-20.9,2.1-41.9,3.1-62.8c1.2-23.8,2.4-47.5,3.6-71.3c0.1-1.3,0.6-2.8-0.6-3.7
		c-1.4-0.9-2.5,0.4-3.6,1.1c-30.4,17.6-60.7,35.2-91.2,52.8c-2.5,1.4-3.4,3.1-3.5,6c-0.2,9-0.6,18-0.9,26.9
		c-0.8,25.6-1.8,51.2-2.4,76.9C788.3,747.5,788.5,759.5,788.5,771.9z M530.6,230.8c1.8,0.9,2.6,1.5,3.5,1.9
		c41.5,17,83.1,34,124.6,51.1c2.3,0.9,4,0.7,6.1-0.3c32.6-15.9,65.2-31.7,97.9-47.5c1.1-0.5,2.5-0.7,3-2.1c-0.6-1.1-1.6-1.2-2.5-1.6
		c-41.3-14.7-82.7-29.4-124-44.3c-2.7-1-4.8-0.4-7.2,0.6c-17.2,7.2-34.4,14.3-51.6,21.5C564.1,216.8,547.8,223.6,530.6,230.8z
		 M227.9,231.4c3.2,1.6,5.1,2.6,7,3.5c31.3,15,62.7,30,93.9,45.2c3.5,1.7,6.3,1.8,9.8,0.3c36-15.1,72.1-30,108.2-45
		c3.8-1.6,7.6-3.3,12.1-5.2c-2.1-1.1-3.4-1.8-4.7-2.3c-32.9-13.5-65.8-26.9-98.7-40.5c-2.9-1.2-5.3-0.9-8.1,0.1
		c-19.3,7.2-38.7,14.2-58,21.3C269.4,216.1,249.5,223.5,227.9,231.4z M887.8,175.4c-2.1-0.9-2.9-1.2-3.7-1.5
		c-40.3-12.6-80.6-25.2-120.9-37.9c-2.4-0.7-4.2-0.2-6.2,0.7c-14.1,5.9-28.3,11.7-42.4,17.6c-13.2,5.5-26.4,10.9-40.2,16.6
		c1.5,0.8,2.3,1.4,3.2,1.8c40.6,14.4,81.2,28.8,121.7,43.2c2.3,0.8,4,0.5,6.1-0.5c20.8-10.1,41.6-20.2,62.4-30.3
		C874.2,182,880.4,179,887.8,175.4z M596.3,172.2c-0.8-1.8-1.9-1.8-2.8-2.1c-32.9-11.7-65.8-23.3-98.7-35.1c-2.8-1-5.1-0.6-7.7,0.4
		c-31.1,11.4-62.2,22.7-93.2,34c-1.1,0.4-2.6,0.4-3.2,2.1c0.8,0.4,1.4,0.9,2.2,1.2c33.2,13.6,66.5,27.2,99.7,40.9
		c2.3,1,4.1,0.4,6.1-0.5c13.6-5.8,27.3-11.5,41-17.2C558.5,188,577.3,180.2,596.3,172.2z M313.4,171c-1.3-1-1.6-1.4-2-1.6
		c-27.2-11.1-54.5-22.2-81.7-33.4c-1.9-0.8-3.5-0.4-5.2,0.1c-36.8,12-73.6,24-110.4,36c-1.3,0.4-2.7,0.7-3.8,2.1
		c0.9,0.6,1.6,1,2.3,1.4c26,12.6,52.1,25.2,78,37.9c2.6,1.3,4.7,0.7,7.1-0.2c25.4-9.3,50.9-18.5,76.3-27.8
		C287,180.8,299.9,176,313.4,171z M532.9,119.1c1.2,0.9,1.5,1.3,1.9,1.5c32.7,11.6,65.4,23.3,98.1,34.9c2.2,0.8,4.1,0.2,6.2-0.6
		c25.2-10.5,50.3-20.8,75.5-31.3c1.3-0.5,3-0.6,3.7-2.6c-1.2-0.5-2.3-1-3.5-1.4c-24.7-7.8-49.4-15.6-74.1-23.3
		c-8.2-2.6-16.6-7.1-24.7-6.9c-8.2,0.2-16.3,5.2-24.4,8.1C572.3,104.5,553,111.7,532.9,119.1z M268.3,121.5c1.5,0.9,1.9,1.2,2.4,1.4
		c26.3,10.8,52.6,21.5,78.9,32.3c2.4,1,4.4,0.4,6.7-0.4c30.1-11.1,60.2-22,90.3-33c1.3-0.5,2.9-0.5,3.8-2.2
		c-1.6-0.7-3.1-1.4-4.7-1.9c-25.2-8.9-50.4-17.8-75.6-26.8c-3-1.1-5.6-1-8.6-0.1c-20.2,6.6-40.4,13.2-60.6,19.8
		C290.3,114,279.8,117.6,268.3,121.5z M408.8,75.4c2.1,1,2.7,1.3,3.3,1.5c25.7,9.1,51.4,18.2,77.1,27.3c2.2,0.8,4.1,0.4,6.2-0.4
		c24.3-9,48.7-17.9,73-26.8c1.3-0.5,2.9-0.5,3.6-2.4c-1.1-0.4-2.2-0.9-3.3-1.2C543.8,65.6,518.9,57.9,494,50
		c-2.7-0.9-5.1-0.7-7.7,0.1c-18.9,6.2-37.9,12.3-56.9,18.4C423,70.6,416.6,72.8,408.8,75.4z"/>
</g>
</svg>
