<?xml version="1.0" encoding="utf-8"?>
<!-- Generator: Adobe Illustrator 21.1.0, SVG Export Plug-In . SVG Version: 6.00 Build 0)  -->
<svg version="1.1" id="Camada_1" xmlns="http://www.w3.org/2000/svg" xmlns:xlink="http://www.w3.org/1999/xlink" x="0px" y="0px"
	 viewBox="0 0 1000 1000" style="enable-background:new 0 0 1000 1000;" xml:space="preserve">
<style type="text/css">
	.st0{fill:#666666;}
</style>
<title>users2</title>
<title>contract</title>
<title>users2</title>
<title>contract</title>
<path class="st0" d="M494.3,960.4c-19.6,0-35.5-15.9-35.5-35.5c0-19.6,15.9-35.5,35.5-35.5h16c19.6,0,35.5,15.9,35.5,35.5
	c0,19.6-15.9,35.5-35.5,35.5H494.3L494.3,960.4z M751.3,960.4c-19.6,0-35.5-15.9-35.5-35.5c0-19.6,15.9-35.5,35.5-35.5h16
	c19.6,0,35.5,15.9,35.5,35.5c0,19.6-15.9,35.5-35.5,35.5H751.3L751.3,960.4z M594.2,971.1V521.2H300.6l0.1,224.5H130.4v225.4H83.1
	V698.4h170.4l0-224.5h220.7V272.4h445.5v698.7h-47.3V319.7h-351v154.2h120v497.2H594.2L594.2,971.1z M163.2,651.9V23.1h405.5v185.1
	h-47.3V70.4h-311v581.5H163.2L163.2,651.9z M751.3,835.6c-19.6,0-35.5-15.9-35.5-35.5c0-19.6,15.9-35.5,35.5-35.5h16
	c19.6,0,35.5,15.9,35.5,35.5c0,19.6-15.9,35.5-35.5,35.5H751.3L751.3,835.6z M751.3,710.8c-19.6,0-35.5-15.9-35.5-35.5
	c0-19.6,15.9-35.5,35.5-35.5h16c19.6,0,35.5,15.9,35.5,35.5c0,19.6-15.9,35.5-35.5,35.5H751.3L751.3,710.8z M751.3,586
	c-19.6,0-35.5-15.9-35.5-35.5c0-19.6,15.9-35.5,35.5-35.5h16c19.6,0,35.5,15.9,35.5,35.5c0,19.6-15.9,35.5-35.5,35.5H751.3
	L751.3,586z M751.3,461.2c-19.6,0-35.5-15.9-35.5-35.5c0-19.6,15.9-35.5,35.5-35.5h16c19.6,0,35.5,15.9,35.5,35.5
	c0,19.6-15.9,35.5-35.5,35.5H751.3L751.3,461.2z M494.3,835.6c-19.6,0-35.5-15.9-35.5-35.5c0-19.6,15.9-35.5,35.5-35.5h16
	c19.6,0,35.5,15.9,35.5,35.5c0,19.6-15.9,35.5-35.5,35.5H494.3L494.3,835.6z M494.3,710.8c-19.6,0-35.5-15.9-35.5-35.5
	c0-19.6,15.9-35.5,35.5-35.5h16c19.6,0,35.5,15.9,35.5,35.5c0,19.6-15.9,35.5-35.5,35.5H494.3L494.3,710.8z M373.3,960.4
	c-19.6,0-35.5-15.9-35.5-35.5c0-19.6,15.9-35.5,35.5-35.5h16c19.6,0,35.5,15.9,35.5,35.5c0,19.6-15.9,35.5-35.5,35.5H373.3
	L373.3,960.4z M373.3,835.6c-19.6,0-35.5-15.9-35.5-35.5c0-19.6,15.9-35.5,35.5-35.5h16c19.6,0,35.5,15.9,35.5,35.5
	c0,19.6-15.9,35.5-35.5,35.5H373.3L373.3,835.6z M373.3,710.8c-19.6,0-35.5-15.9-35.5-35.5c0-19.6,15.9-35.5,35.5-35.5h16
	c19.6,0,35.5,15.9,35.5,35.5c0,19.6-15.9,35.5-35.5,35.5H373.3L373.3,710.8z"/>
</svg>
