<?xml version="1.0" encoding="utf-8"?>
<!-- Generator: Adobe Illustrator 21.1.0, SVG Export Plug-In . SVG Version: 6.00 Build 0)  -->
<svg version="1.1" id="Camada_1" xmlns="http://www.w3.org/2000/svg" xmlns:xlink="http://www.w3.org/1999/xlink" x="0px" y="0px"
	 viewBox="0 0 1000 1000" style="enable-background:new 0 0 1000 1000;" xml:space="preserve">
<title>users2</title>
<title>contract</title>
<title>users2</title>
<title>contract</title>
<g>
	<path d="M490.3,93.1c91.5,0,183,0.2,274.5-0.1c27.8-0.1,51.8,9.2,71.1,30.1c16.8,18.2,26.1,40.8,26.1,66.3
		c0.4,110.2,0.1,220.5,0.3,330.7c0,6.7-1.4,7.7-6.8,4.6c-15.2-9-31.1-16.3-48.1-20.7c-5.5-1.4-4.8-5.5-4.8-9.6
		c0-66.9,0-133.7,0-200.6c0-32.5-0.7-64.9,0.2-97.4c0.6-22.2-12.8-40.2-37.2-40.1c-184.1,0.7-368.1,0.4-552.2,0.4
		c-25.4,0-36.5,11.8-36.5,38.7c0,184.1,0.2,368.2-0.3,552.3c-0.1,25.3,14.3,39.8,37.1,39.7c91.2-0.7,182.5-0.2,273.7-0.4
		c6.2,0,9.3,1.1,10.2,8.6c2,16.3,6.1,32.2,11.7,47.7c1.8,4.9,1.7,7.4-4.5,7.3c-99.9-0.2-199.9,0.3-299.8-0.5
		c-46.1-0.4-86.7-43.2-87.5-92.2c-1-66.6-0.5-133.2-0.5-199.7c0-120.3,0.1-240.6-0.1-360.9c0-23.7,5.2-45.2,18.7-64.2
		c16.7-23.5,39.1-38.3,66.7-39c58.5-1.4,117.1-0.7,175.6-0.8C415.5,93.1,452.9,93.1,490.3,93.1z"/>
	<path d="M918.6,752.9C917,863,834.4,944,738.7,943.4c-103.9-0.6-182.5-90.5-179.3-196.5c3.2-105.4,84.8-187.4,184.3-184.5
		C843.6,565.4,917.9,652.1,918.6,752.9z M644,752.7c0,9,0.3,17.9-0.1,26.8c-0.3,6,2,7.7,7.4,7.6c15.8-0.3,31.6,0.2,47.4-0.2
		c5.9-0.2,7.8,1.8,7.7,8c-0.3,17.1,0,34.1-0.2,51.2c-0.1,5.4,1.5,7.4,6.8,7.3c17.1-0.3,34.3-0.2,51.4,0c5,0.1,6.9-1.6,6.8-7.2
		c-0.3-17.3,0.1-34.7-0.2-52c-0.1-5.5,1.6-7.3,6.8-7.2c16.3,0.3,32.7-0.1,49,0.2c5.3,0.1,6.9-1.9,6.8-7.2c-0.2-18.2-0.2-36.4,0-54.5
		c0.1-5.5-1.8-7.3-6.9-7.2c-16.3,0.2-32.7-0.1-49,0.1c-5.1,0.1-6.9-1.7-6.8-7.3c0.3-17.1-0.1-34.1,0.2-51.2c0.1-5.7-1.4-8-7.1-7.9
		c-16.9,0.3-33.7,0.3-50.6,0c-5.6-0.1-7.3,2-7.2,7.7c0.2,16.8-0.1,33.6,0.2,50.3c0.1,6.2-1.9,8.4-7.8,8.3
		c-15.8-0.3-31.6,0.1-47.5-0.2c-5.4-0.1-7.6,1.7-7.3,7.7C644.3,734.8,644,743.8,644,752.7z"/>
	<path d="M567.4,339.1c-45.3,0-90.7,0-136,0c-20.9,0-33.8-13.7-33.9-35.8c0-7.6,0.5-15.1-0.1-22.6c-1.6-21.1,11.3-19.3,35.5-19.2
		c39.5,0.2,86.8-4,126.3-4c49.6,0,94.1,1.9,143.7,2c18.9,0,34.4-2.4,33.2,7.4c1.7,5.8,1.1,11.6,1.2,17.5c0.1,7,0.1,14,0,21
		c-0.2,20.6-12.7,33.7-32.3,33.8C659.2,339.2,613.3,339.1,567.4,339.1z"/>
	<path d="M567.5,451c44.8,0,96.7-5,141.5-6c22-0.5,30.3-4.1,28.5,18.9c-0.6,7.2-0.3,14.5,0,21.8c0.2,5.1-1.1,7.2-6.5,7.6
		c-21.5,1.3-42.9,4.2-63.6,11.2c-12,4-23.7,9.2-35.2,14.5c-4.3,2-8.4,2.7-12.9,2.7c-62.7-0.1-125.4-0.5-188.2,0.2
		c-19.2,0.2-35-15.8-33.6-35.4c0.6-8.9,0.1-17.9,0.1-26.8c0.1-20.1,16.4-10.5,35.4-10.6C479.1,448.8,521.4,451,567.5,451z"/>
	<path d="M547.2,590.6c-9.1,13.3-17.1,25.6-23.6,38.8C515.9,645,509,661,505.1,678c-1.7,7.4-4.8,9.6-11.9,9.4
		c-21.1-0.5-42.1-0.1-63.2-0.2c-18.8-0.1-32.2-14.2-32.4-34c-0.1-8.9,0-17.9,0-26.8c0.1-21.4,12.5-35.5,32.6-35.7
		C468.6,590.4,507.1,590.6,547.2,590.6z"/>
	<path d="M242.1,637.2c0.6-7-1.3-15.5,1.1-23.7c4.5-14.9,15.3-21.7,29.1-22.6c11.5-0.7,23.1-1.4,34.6,0.8
		c13.5,2.6,24.7,15.5,25.2,30c0.4,12,0.4,24,0,36c-0.5,13.7-12.2,27.7-26.1,29c-13.3,1.3-26.8,2.1-40.1-0.6
		c-14.4-2.9-23.6-15.3-23.8-30.8C242,649.7,242.1,644.1,242.1,637.2z"/>
	<path d="M242.1,306.2c0-5.3-0.1-10.6,0-15.9c0.2-15.1,9.2-27.7,23.1-30.6c14-2.8,28.3-2.8,42.3-0.2c14.5,2.6,24.3,15.6,24.6,31.1
		c0.2,10,0.2,20.1,0,30.2c-0.2,17.8-10.2,31.2-26.8,33.4c-12.7,1.7-25.7,2.1-38.5-0.5c-16-3.2-24.7-15-24.8-32.4
		C242.1,316.2,242.1,311.2,242.1,306.2z"/>
	<path d="M242.1,473.5c0-5.3-0.1-10.6,0-15.9c0.2-17,12.6-30.9,28.7-31.6c11.1-0.5,22.2-0.5,33.2,0c15.4,0.7,27.7,14.1,28.2,30.4
		c0.3,11.5,0.3,22.9,0,34.4c-0.5,16.9-13.6,30.4-29.6,30.7c-10.3,0.2-20.6,0.2-30.8,0c-17.2-0.3-29.4-13.6-29.6-32
		C242.1,484.2,242.1,478.8,242.1,473.5z"/>
</g>
</svg>
