<?xml version="1.0" encoding="utf-8"?>
<!-- Generator: Adobe Illustrator 21.1.0, SVG Export Plug-In . SVG Version: 6.00 Build 0)  -->
<svg version="1.1" id="Camada_1" xmlns="http://www.w3.org/2000/svg" xmlns:xlink="http://www.w3.org/1999/xlink" x="0px" y="0px"
	 viewBox="0 0 1000 1000" style="enable-background:new 0 0 1000 1000;" xml:space="preserve">
<style type="text/css">
	.st0{fill:#424242;}
</style>
<title>users2</title>
<title>contract</title>
<title>users2</title>
<title>contract</title>
<g>
	<path class="st0" d="M280.2,35.8c4.4-2.6,8.7-1.6,12.7-1.6c88.2-0.1,176.4-0.1,264.6,0c21.5,0,27.4,5.8,27.4,27
		c0,68.7-0.2,137.5,0.3,206.2c0.1,11.2-3.4,14-14.2,13.8c-26.9-0.7-53.8-0.4-80.7-0.1c-30.5,0.3-45.4,15.6-45.4,46.2
		c0,201.2,0,402.4,0,603.7c0,1.7,0,3.3,0,5c0.4,18,0.4,18-17.4,18c-45.5,0-91.1-0.2-136.6,0.2c-9.1,0.1-11.7-1.9-8.8-10.9
		c1.5-4.6,1.1-9.8,1.1-14.8c0.1-289.8,0-579.6,0.1-869.5C283.2,50.9,282.1,43.2,280.2,35.8z"/>
	<path class="st0" d="M261.1,494.4c0,143.6,0,287.3,0,430.9c0,22.8-5.6,28.4-28.8,28.4c-60.4,0-120.9,0-181.3,0
		c-21.7,0-27.9-6.2-27.9-28.1c0-273.6,0-547.3,0-820.9c0-21.3,4-26.3,24.3-30.5c62.4-12.9,124.8-25.8,187.2-38.8
		c17.2-3.6,26.5,4.9,26.5,24.3c0,117.2,0,234.3,0,351.5C261.1,439,261.1,466.7,261.1,494.4z M84.9,513.8c-0.1,0-0.3,0-0.4,0
		c0,9.5-0.2,19,0,28.5c0.4,17.9,12.9,28.3,30.3,24.9c20.6-4,41.2-8.5,61.8-12.8c15.5-3.3,22-10.6,22.5-26.3c0.6-19,0.9-38,0.9-57
		c0-20.1-12.6-30.4-32.4-26.5c-20.2,4-40.4,8.2-60.6,12.4c-14.4,3.1-21.4,11-22.1,25.8C84.6,493.2,84.9,503.5,84.9,513.8z
		 M199.2,180.5c0.3,0,0.6,0,0.9,0c0-8.7-0.1-17.4,0-26.1c0.2-21.5-12.5-31.9-33.7-27.6c-19.4,4-38.9,8-58.3,12
		C92.6,142,85.3,150.2,85,166.3c-0.4,19.5-0.6,38.9-0.3,58.4c0.3,17.8,13.1,27.8,30.8,24.3c20.7-4.1,41.3-8.4,61.9-12.9
		c14.8-3.2,21.1-10.6,21.7-25.8C199.5,200.4,199.2,190.4,199.2,180.5z M199.1,658.5c0.3,0,0.7,0,1,0c0-8.7-0.1-17.3,0-26
		c0.4-22.4-12.2-33-33.8-28.5c-19.4,4-38.8,8-58.2,11.9C92.7,619,85.3,627.4,85,643.4c-0.4,19.4-0.6,38.8-0.3,58.2
		c0.2,17.8,13,28.1,30.4,24.6c21-4.1,42-8.6,63-13c13.4-2.8,20.1-10.2,20.9-23.7C199.5,679.1,199.1,668.8,199.1,658.5z M198.8,340.8
		c0.4,0,0.7,0,1.1,0c0-9.1-0.1-18.2,0-27.3c0.2-21.5-12.5-31.9-33.6-27.5c-19.4,4.1-38.8,8.1-58.2,12c-14.9,3-22.6,11.1-23,26.3
		c-0.5,19.8-0.7,39.7-0.4,59.6c0.2,17.7,13,27.6,30.8,24.1c21.1-4.1,42.1-8.5,63.1-13c13.3-2.8,19.6-10.6,20.1-24.4
		C199,360.6,198.8,350.7,198.8,340.8z"/>
	<path class="st0" d="M466.6,629c0-99.4,0-198.8,0-298.1c0-22.2,5.9-28.2,27.8-28.2c87.4,0,174.7-0.1,262.1,0
		c22.4,0,28.8,6.5,28.8,28.8c0,197.5,0,395,0,592.6c0,24.5-5.3,29.8-30,29.8c-87.4,0-174.7,0-262.1,0c-20.5,0-26.6-6.2-26.7-26.6
		C466.6,827.8,466.6,728.4,466.6,629z M624.9,852.4c14.9,0,29.8,0.1,44.7,0c15-0.2,22.9-7,23.2-21.5c0.5-30.2,0.5-60.5,0-90.7
		c-0.2-13-7.3-21-19.7-21.3c-31.5-0.7-62.9-0.6-94.4-0.1c-12.1,0.2-19.6,8-19.7,19.8c-0.5,31-0.6,62.1-0.1,93.1
		c0.2,13.9,8.2,20.5,22.6,20.6C595.9,852.5,610.4,852.4,624.9,852.4z M559.2,612c0,13.7-0.1,27.3,0,41c0.1,17.1,7.8,24.8,25,24.9
		c27.7,0.1,55.4,0.1,83.2,0c16.5-0.1,25.1-7.4,25.4-23.6c0.5-28.9,0.5-57.9-0.1-86.9c-0.3-14.8-7.9-22.9-22.1-23.2
		c-29.8-0.6-59.6-0.6-89.4-0.1c-13.8,0.2-21.8,9.4-21.9,23.2C559,582.2,559.2,597.1,559.2,612z M559.2,436.7c0,14.1-0.1,28.1,0,42.2
		c0.1,15.6,7.8,24.1,23.4,24.3c29,0.4,57.9,0.4,86.9,0c14.2-0.2,22.3-7.4,22.7-21.1c0.7-30.2,0.7-60.4,0.1-90.6
		c-0.3-14.4-8.7-21.6-23.3-21.7c-29-0.2-57.9-0.2-86.9,0c-14.7,0.1-22.6,8.5-22.8,23.4C559,407.8,559.2,422.3,559.2,436.7z"/>
	<path class="st0" d="M975.9,658.1c0,89,0,178.1,0,267.1c0,22.6-6.1,28.6-28.7,28.6c-43.9,0-87.8-0.3-131.7,0.2
		c-9.7,0.1-12.4-2.1-9.6-11.7c1.7-5.8,1.3-12.3,1.3-18.5c0.1-197.5,0-395.1,0-592.6c0-16.1,0-16,15.1-11.3
		c43.8,13.6,87.7,27.1,131.6,40.7c19.4,6.1,21.9,9.7,21.9,30.3C975.9,480,975.9,569,975.9,658.1z"/>
</g>
</svg>
