<?xml version="1.0" encoding="utf-8"?>
<!-- Generator: Adobe Illustrator 21.1.0, SVG Export Plug-In . SVG Version: 6.00 Build 0)  -->
<svg version="1.1" id="Camada_1" xmlns="http://www.w3.org/2000/svg" xmlns:xlink="http://www.w3.org/1999/xlink" x="0px" y="0px"
	 viewBox="0 0 1000 1000" style="enable-background:new 0 0 1000 1000;" xml:space="preserve">
<style type="text/css">
	.st0{fill:#202020;}
</style>
<title>users2</title>
<title>contract</title>
<title>users2</title>
<title>contract</title>
<g>
	<path class="st0" d="M975.4,500.2c-0.2,262.4-213.8,475.7-475.9,475.1C236.8,974.8,23.8,761.2,24.6,499.2
		C25.5,236.8,237.9,24.8,499.9,24.6C762.2,24.5,975.6,238,975.4,500.2z M97.2,499.9c-0.5,222,179.9,402.7,402.4,403
		c222.4,0.3,402.8-179.6,403.3-402.1C903.3,278.3,723.3,97.6,501,97.2C277.8,96.7,97.7,276.4,97.2,499.9z"/>
	<path class="st0" d="M692.1,384.4c-2,2.2-4.2,4.8-6.6,7.2c-33.4,33.4-66.6,67-100.4,100.1c-6.9,6.8-6.5,10.3,0.2,16.9
		c34,33.3,67.4,67.3,101.3,100.8c5.7,5.6,5.7,8.8,0,14.4c-21.3,20.7-42.4,41.7-63,63c-5.8,6-9,5.2-14.4-0.3
		c-33.7-34.2-67.9-67.8-101.6-102.1c-6.1-6.2-9.3-5.9-15.2,0.1c-33.7,34.2-67.9,67.9-101.6,102.1c-5.6,5.7-8.8,5.8-14.4,0.1
		c-20.7-21.3-41.7-42.4-63-63c-5.9-5.7-5.4-8.9,0.2-14.4c33.9-33.4,67.3-67.4,101.3-100.7c6.8-6.7,6.7-10.3-0.1-16.9
		c-34-33.3-67.4-67.3-101.3-100.7c-5.7-5.6-5.7-8.8,0-14.4c21.3-20.7,42.4-41.7,63-63c5.8-6,9-5.2,14.4,0.3
		c33.4,33.9,67.4,67.3,100.8,101.3c6.8,6.9,10.3,6.5,16.9-0.2c33.3-34,67.3-67.4,100.8-101.3c5.7-5.8,8.9-5.6,14.4,0.1
		c20.7,21.3,41.9,42.1,62.9,63.2C688.7,378.7,691.5,380.4,692.1,384.4z"/>
</g>
</svg>
