<?xml version="1.0" encoding="utf-8"?>
<!-- Generator: Adobe Illustrator 21.1.0, SVG Export Plug-In . SVG Version: 6.00 Build 0)  -->
<svg version="1.1" id="Camada_1" xmlns="http://www.w3.org/2000/svg" xmlns:xlink="http://www.w3.org/1999/xlink" x="0px" y="0px"
	 viewBox="0 0 1000 1000" style="enable-background:new 0 0 1000 1000;" xml:space="preserve">
<style type="text/css">
	.st0{fill:#010101;}
</style>
<title>users2</title>
<title>contract</title>
<title>users2</title>
<title>contract</title>
<g>
	<path class="st0" d="M614.4,522.9c103.4,0,206.8,0.5,310.2-0.4c21.5-0.2,48.5,24.7,46.8,46.8c-1.9,24.4-0.4,49.1-0.4,73.6
		c0,19.7-21.8,42.3-41.5,43c-2,0.1-3.9,0-5.9,0c-205.5,0-411-0.2-616.5,0.2c-25.9,0.1-50.5-23.4-49.4-49.9c0.9-21.9,0.8-43.9,0-65.8
		c-0.8-23.2,23.1-48,47.4-47.9C408.2,523.2,511.3,522.9,614.4,522.9z"/>
	<path class="st0" d="M615,911.8c-103.1,0-206.1,0-309.2,0c-25.6,0-47.4-21.2-47.7-46.8c-0.3-22.9-0.3-45.8,0-68.7
		c0.4-26,22.4-47.4,48.5-47.5c205.5,0,410.9,0.1,616.4-0.2c25.7,0,50,25.2,48.3,48.4c-1.6,22.8-1.6,45.9,0,68.7
		c1.4,19.6-22.2,46.5-46.2,46.3C821.8,911.5,718.4,911.8,615,911.8z"/>
	<path class="st0" d="M389.4,71.1c102.8,0,205.6,0,308.3,0c26.3,0,47.3,20.7,47.4,46.9c0.1,22.3,0,44.5,0,66.8
		c0,27.9-20.8,48.6-49.1,48.6c-75.9,0.1-151.9,0.1-227.8,0.1c-127.6,0-255.3-0.1-382.9,0c-33.2,0-53-19.6-53-52.8
		c0-20.6-0.1-41.2,0-61.9c0.2-27,20.9-47.6,47.9-47.6C183.2,71.1,286.3,71.1,389.4,71.1z"/>
	<path class="st0" d="M615.6,297c102.4,0,204.9,0.5,307.3-0.4c24.6-0.2,50.2,24.8,48.4,48.6c-1.6,21.8-1.5,43.9,0,65.7
		c1.6,22.5-20.4,49-49.2,48.9c-94.6-0.4-189.2-0.1-283.8-0.1c-109,0-218,0-327,0c-33.3,0-53-19.7-53.1-52.9c0-20.3-0.1-40.6,0-60.9
		c0.2-28.2,20.9-48.8,48.9-48.8C410,297,512.8,297,615.6,297z"/>
	<path class="st0" d="M83.3,532c0-85.4,0.1-170.9-0.2-256.3c0-8.6,2.2-11.1,10.9-10.9c22,0.6,22.1,0.1,22.1,22.1
		c0,16.7,0.4,33.4-0.2,50.1c-0.3,8.6,1.6,11.8,11.1,11.5c29.4-0.7,58.9,0,88.4-0.4c7-0.1,9.6,1.4,9.5,9c-0.3,23.9,0.1,23.9-23.9,24
		c-25.5,0-51.1,0.2-76.6-0.1c-6.2-0.1-8.5,1.5-8.5,8.1c0.2,59.2,0.3,118.5,0,177.7c0,6.3,2.2,7.7,8,7.6c30.1-0.2,60.2,0.1,90.3-0.3
		c7.8-0.1,10.8,1.3,10.6,10c-0.5,23-0.1,23-23,23c-25.9,0-51.7,0.2-77.6-0.1c-6.3-0.1-8.4,1.7-8.4,8.2c0.2,58.6,0.2,117.2,0,175.8
		c0,9.4,4.1,12.8,13,12.7c29.1-0.2,58.3,0.1,87.4-0.2c6.1-0.1,8.4,1.2,8.5,8c0.1,24,0.4,24-23.8,24c-23.6,0-47.1,0.1-70.7,0
		c-26.7-0.1-47-20.6-47-47.2C83.3,702.9,83.3,617.4,83.3,532z"/>
</g>
</svg>
