<?xml version="1.0" encoding="utf-8"?>
<!-- Generator: Adobe Illustrator 21.1.0, SVG Export Plug-In . SVG Version: 6.00 Build 0)  -->
<svg version="1.1" id="Camada_1" xmlns="http://www.w3.org/2000/svg" xmlns:xlink="http://www.w3.org/1999/xlink" x="0px" y="0px"
	 viewBox="0 0 1000 1000" style="enable-background:new 0 0 1000 1000;" xml:space="preserve">
<title>users2</title>
<title>contract</title>
<title>users2</title>
<title>contract</title>
<g>
	<path d="M534,65.9c9.3,6.3,18.1,12.3,26.8,18.2c28.1,19.2,70.4,1,76-32.7c5.5-32.9,25.6-45.5,57.1-34.7C706.5,21,712.1,31,713.6,45
		c4.6,42.3,43.9,59.2,80.4,36.4c8.8-5.5,17.8-19.8,29.7-11.3c14.2,10.2,29.4,22,36.1,38.2c4.3,10.5-8.8,20.2-14.9,29.6
		c-19.1,29.6-1.9,71.2,32.6,76.9c32.3,5.3,45.3,26.6,34.1,57.6c-4.1,11.5-13.2,17.4-26.3,19.1c-44.5,5.7-61.6,43.6-37.9,80.9
		c5.4,8.5,18.6,17.7,11.8,27.7c-9.7,14.4-23.3,26.8-37.4,37.3c-6.9,5.2-15.8-3.1-21.7-8.9c-25.1-25.3-50-11.8-74.6,0.3
		c-12.6,6.2-9.6,19.9-11.5,30.4c-4.7,25.8-10.9,31.8-38.3,31.8c-27.7,0-35.3-6.1-38.6-31.2c-5.3-40.4-44.5-57.3-79.3-35.3
		c-9,5.7-18.6,19.9-29.7,12.4c-14.4-9.7-26.8-23.4-37.1-37.6c-4.9-6.7,4.5-14.8,9.2-21.7c18.7-27.7,18.3-46.7-0.5-74.5
		c-7.6-11.3-20.1-9.5-30.7-11.3c-25.1-4.2-31.4-11.1-31.3-38.6c0.1-27.6,6-34.7,31.6-38.1c42-5.6,57.8-47.4,32.1-84.5
		c-5.3-7.7-18.3-14.5-9.7-25.3C503.5,90.5,516,75.6,534,65.9z M674.3,347.3c53.3,0.3,94.6-39.9,95-92.6
		c0.5-54.4-40.2-95.7-94.3-95.7c-52.7,0-93.9,41.1-94,93.8C581,306,621.5,347.1,674.3,347.3z"/>
</g>
<g>
	<path d="M208.9,621.4c3-40.2,2.4-79.9,1.6-119.6c-1.5-80.8-2.4-161.5,0.8-242.3c0.8-20.1,6.1-39.1,19.3-54.9
		c15.8-19,36.3-27.2,60.7-23.4c27.8,4.3,45.2,21.6,54.9,47.5c5.4,14.4,5.2,29.4,5.2,44.4c0,45.8,0,91.5-0.2,137.3
		c-0.1,17.6-0.3,17.2,17.2,15c26.6-3.3,47.2,7.4,62.8,28.5c4.9,6.6,8.7,14,12.4,21.3c2.3,4.6,5.4,7.9,11.2,6.4
		c33.3-8.2,58,9.2,72.7,34.5c8.4,14.4,8.2,13.1,22.1,11.1c34.6-5,65.5,17.4,75.6,54c2.4,8.7,3.5,17.6,3.7,26.7
		c1.6,73.5,2,147-2.4,220.5c-1.8,30.4-2.5,61-10.1,90.8c-11.5,45.4-40.8,69.6-87.6,69.9c-91,0.6-182.1,0.4-273.1,0.1
		c-20.2-0.1-35.6-9.9-44.4-28.1c-13.3-27.4-25.7-55.2-38.4-82.8c-40.1-87.5-80.2-175.1-120.2-262.6c-3.7-8.2-7.8-16.2-9.7-25.1
		c-6.2-29.8,8.5-56.7,37.8-69.5c34-14.9,70.5-2.9,90.1,31c11.9,20.5,21.8,42.1,32.7,63.1C204.7,617.3,205,620.4,208.9,621.4z
		 M304.2,407.5C304.2,407.5,304.2,407.5,304.2,407.5c0.1-46.5,0.1-93,0.1-139.5c0-6.8-0.1-13.5-2.3-20c-3.2-9.5-9.9-14.8-19.2-15.1
		c-9.7-0.4-16.5,3.9-20.6,13.2c-3.2,7.3-3.3,15-3.3,22.8c-0.2,99-0.5,198-0.7,297.1c0,18.8,0.1,37.5,0.2,56.3
		c0,8.5-0.8,16.9-3.6,25.1c-11.6,34.9-51.6,43.8-76.3,16.8c-3.7-4-6.8-8.6-9.8-13.2c-11.2-17.2-19.6-35.9-28.1-54.5
		c-3.6-8-7.3-15.9-14-21.9c-9.9-8.8-21.7-9.3-32.2-1.6c-5.3,3.9-6.7,8.4-3.3,14.2c2.8,5,5.9,9.9,8.3,15.1
		c26.4,57.3,52.7,114.7,79,172c22.3,48.5,44.7,96.9,67,145.5c4.7,10.3,12.2,15.1,23.5,15c88.5-0.3,177.1-0.5,265.6-0.7
		c23-0.1,32.4-8.2,36.8-31c2.9-14.7,4.8-29.6,5.7-44.6c3.8-65.2,6.8-130.4,6.3-195.7c-0.2-21.3-1.5-42.5-3.1-63.7
		c-1-13.2-8.6-20-21.5-19.7c-11.8,0.3-18.4,7.4-18.7,20.6c-0.2,8.2,0,16.5-0.2,24.7c-0.2,6.6-1.7,12.9-4.9,18.7
		c-4.2,7.7-10.8,11.6-19.6,11.5c-8.7-0.1-15.4-3.7-19.6-11.5c-2.6-4.7-4-9.7-4.2-15c-0.2-7,0.1-14,0-21c-0.3-19,1.1-38-1.2-56.9
		c-1.1-9.1-6.2-14.5-14.2-16.2c-15.1-3.4-25.1,3.7-26.2,19.4c-0.7,11-0.4,22-0.5,33c-0.1,7.1-1,13.9-4.1,20.4
		c-4.3,8.9-11.8,12.9-21.2,12.7c-9.8-0.3-17.1-5.2-20.7-14.6c-2.4-6.1-3.2-12.5-3.1-19.1c0.1-26,0-52,0-78c0-6-0.5-12-2.9-17.6
		c-4.2-9.6-12.3-13.8-24.7-12.7c-9,0.7-15,6.2-17.6,15.8c-1.2,4.4-1.5,8.9-1.5,13.4c0,12.3,0,24.5-0.3,36.8
		c-0.2,7.5-0.4,15-2.7,22.3c-3.5,10.7-12.8,17.1-23.9,16.7c-10-0.4-17.8-6.8-20.8-17.5c-1.3-4.6-1.7-9.3-1.7-14.1
		C304.2,503.1,304.2,455.3,304.2,407.5z"/>
</g>
</svg>
