<?xml version="1.0" encoding="utf-8"?>
<!-- Generator: Adobe Illustrator 21.1.0, SVG Export Plug-In . SVG Version: 6.00 Build 0)  -->
<svg version="1.1" id="Camada_1" xmlns="http://www.w3.org/2000/svg" xmlns:xlink="http://www.w3.org/1999/xlink" x="0px" y="0px"
	 viewBox="0 0 1000 1000" style="enable-background:new 0 0 1000 1000;" xml:space="preserve">
<style type="text/css">
	.st0{fill:#202020;}
</style>
<title>users2</title>
<title>contract</title>
<title>users2</title>
<title>contract</title>
<g>
	<path class="st0" d="M490.5,34.7c255.5,1,463.9,210.5,462.4,464.7c-1.6,256.1-210,463.4-464.7,462.4
		c-255.5-1-463.4-210-462.4-464.7C26.8,241.5,235.7,33.7,490.5,34.7z M489.4,100.6C268.8,100.7,91.8,277.8,91.6,498.4
		c-0.2,217.6,174.2,394,390.9,397.6c225.4,3.7,408.3-179.2,404.6-404.7C883.4,274.8,707.1,100.2,489.4,100.6z"/>
	<path class="st0" d="M280.4,466c3.6,0.8,5,3.8,6.9,6c34.7,39.7,69.4,79.5,104,119.3c9.3,10.7,9.2,10.8,18.6,0.8
		C503.9,491.7,598,391.3,691.9,290.7c5.6-6,8.6-7.2,14.9-0.7c12.7,13.1,26.3,25.4,40.1,37.4c5.9,5.1,5.9,7.9,0.6,13.6
		c-55.8,59.2-111.3,118.8-166.9,178.2C522.3,581.4,464,643.5,406,705.9c-5.3,5.7-8,6.9-13.8,0.2C338.7,644.3,284.9,582.8,231,521.4
		c-4.9-5.6-5.4-8.5,0.9-13.6c14.7-11.9,28.7-24.8,42.9-37.3C276.6,468.9,278.6,467.4,280.4,466z"/>
</g>
</svg>
