<svg id="Camada_1" data-name="Camada 1" xmlns="http://www.w3.org/2000/svg" viewBox="0 0 7.59274 13.59067"><defs><style>.cls-1{fill:#e0a82b;}</style></defs><title>Energy</title><g id="Camada_1-2" data-name="Camada_1"><path class="cls-1" d="M4.2338,5.55336H7.26124a0.33251,0.33251,0,0,1,.28754.14542,0.23817,0.23817,0,0,1-.00992.28424L1.93677,13.4657a0.36191,0.36191,0,0,1-.41644.10246A0.26459,0.26459,0,0,1,1.34516,13.231L3.391,7.80411H0.33051A0.3436,0.3436,0,0,1,.04627,7.6686,0.23829,0.23829,0,0,1,.03966,7.391L4.6899,0.14957A0.3512,0.3512,0,0,1,5.0865.02067a0.27167,0.27167,0,0,1,.21483.31068L4.23049,5.55666Z" transform="translate(0.00169 -0.00407)"/></g></svg>