<svg id="Camada_1" data-name="Camada 1" xmlns="http://www.w3.org/2000/svg" viewBox="0 0 238.55 241.25"><defs><style>.cls-1{fill:#4d4d4d;}</style></defs><title>enter-pin</title><g id="Camada_1-2" data-name="Camada_1"><path class="cls-1" d="M164,164.3L163.9,164l-13-38.1a12.91,12.91,0,0,0-6.58-7.43l-0.17-.09a12.92,12.92,0,0,0-9.72-.54l-0.11.06-0.23.06a13,13,0,0,0-7.09,6.46,12.74,12.74,0,0,0-.65,9.75h0l0,0.11,0.06,0.26,25.57,73,0.06,0.23,14.2,40.59c5.58,16,14.09,27,24.41,34.19s22.62,10.8,35.69,11.85h0c4.62,0.37,10.29-.51,16.36-2.49a80.86,80.86,0,0,0,32.43-20.75c9.47-9.95,16.58-22.85,17.8-38v0h0a64.14,64.14,0,0,0-3.2-25.14l-23.53-54a12.1,12.1,0,0,0-5.67-6.07l-0.2-.09a9.45,9.45,0,0,0-7.06-.4,9.93,9.93,0,0,0-5.78,5.1v0l0,0.06A10.05,10.05,0,0,0,247,160l0.09,0.26,5.24,15.39a3.77,3.77,0,1,1-7.14,2.44l-5.24-15.39-0.09-.2-3.23-9.41a13.62,13.62,0,0,0-6.94-7.85,13.73,13.73,0,0,0-19.11,16.58l0.06,0.17,6.21,18.14a3.77,3.77,0,0,1-7.14,2.44l-6.21-18.14-0.09-.26-4.05-11.88a14.74,14.74,0,0,0-7.54-8.5,14.84,14.84,0,0,0-20.64,17.94l0.06,0.17L181,190.63a3.77,3.77,0,1,1-7.14,2.44L164,164.32ZM165.71,146a22.45,22.45,0,0,1,39.46.85,21.31,21.31,0,0,1,36.91.09,17.5,17.5,0,0,1,8.79-6.66,16.89,16.89,0,0,1,12.76.71l0.28,0.14a19.67,19.67,0,0,1,9.27,9.86l23.56,54.09h0l0.11,0.31a71.77,71.77,0,0,1,3.63,28.37h0c-1.36,17.09-9.3,31.52-19.84,42.63a88.63,88.63,0,0,1-35.55,22.71,50.15,50.15,0,0,1-19.3,2.83h0c-14.34-1.16-27.89-5.1-39.43-13.18a65.24,65.24,0,0,1-13-12.08c-12.93-12.25-25.43-21.4-37.62-27.86h0a107,107,0,0,0-35.38-11.85l-0.51-.09A3.77,3.77,0,0,1,97,232.33a65.83,65.83,0,0,1,2.64-8.73c3.49-9,8.73-15.42,15.56-19l0.14-.09c6.89-3.57,15.31-4.25,25-2l2,0.51-23.07-65.91-0.11-.31-0.06-.11h0a20.49,20.49,0,0,1,12.39-25.77l0.28-.11,0.11-.06a20.44,20.44,0,0,1,15.39.88l0.28,0.11A20.51,20.51,0,0,1,158,123.45L165.71,146v0ZM145.5,211.86a61.13,61.13,0,0,0-6.83-2c-7.94-1.84-14.6-1.36-19.87,1.36l-0.09.06c-5.19,2.72-9.24,7.77-12,15.08-0.45,1.19-.88,2.47-1.3,3.8a116,116,0,0,1,33.85,12h0a157.9,157.9,0,0,1,22.11,14.37c-0.77-1.81-1.47-3.69-2.15-5.61l-13.66-39v0Zm-45.21,25.06-0.17,0ZM67.92,146.1h26a5.81,5.81,0,0,1,5.78,5.78v17.35A5.81,5.81,0,0,1,93.94,175h-26a5.81,5.81,0,0,1-5.78-5.78V151.88A5.81,5.81,0,0,1,67.92,146.1Zm0-42.66h26a5.81,5.81,0,0,1,5.78,5.78v17.35a5.81,5.81,0,0,1-5.78,5.78h-26a5.81,5.81,0,0,1-5.78-5.78V109.22A5.81,5.81,0,0,1,67.92,103.44Zm0-42.66h26a5.81,5.81,0,0,1,5.78,5.78V83.91a5.81,5.81,0,0,1-5.78,5.78h-26a5.81,5.81,0,0,1-5.78-5.78V66.56A5.81,5.81,0,0,1,67.92,60.77Zm52,0h26a5.81,5.81,0,0,1,5.78,5.78V83.91A5.81,5.81,0,0,1,146,89.69H120a5.81,5.81,0,0,1-5.78-5.78V66.56A5.81,5.81,0,0,1,120,60.77Zm52,0h26a5.81,5.81,0,0,1,5.78,5.78V83.91A5.81,5.81,0,0,1,198,89.69H172a5.81,5.81,0,0,1-5.78-5.78V66.56A5.81,5.81,0,0,1,172,60.77Zm0,42.66h26a5.81,5.81,0,0,1,5.78,5.78v17.35a5.83,5.83,0,0,1-5.19,5.75,32,32,0,0,0-23.78-1.25,30.43,30.43,0,0,0-3.15,1.28,6.05,6.05,0,0,1-2.15-.57l-2.44-7.09a22,22,0,0,0-.88-2.27V109.22A5.81,5.81,0,0,1,172,103.44Zm-52,0h26a5.82,5.82,0,0,1,5.41,3.77l-0.14-.06A29.92,29.92,0,0,0,128.83,106l-0.77.28a29.61,29.61,0,0,0-13.92,10.63v-7.65a5.81,5.81,0,0,1,5.78-5.78h0Zm1,71.57h-1a5.81,5.81,0,0,1-5.78-5.78V155.76Z" transform="translate(-62.14 -60.77)"/></g></svg>