<?xml version="1.0" encoding="utf-8"?>
<!-- Generator: Adobe Illustrator 21.1.0, SVG Export Plug-In . SVG Version: 6.00 Build 0)  -->
<svg version="1.1" id="Camada_1" xmlns="http://www.w3.org/2000/svg" xmlns:xlink="http://www.w3.org/1999/xlink" x="0px" y="0px"
	 viewBox="0 0 975 1037.9" style="enable-background:new 0 0 975 1037.9;" xml:space="preserve">
<style type="text/css">
	.st0{fill:none;}
	.st1{stroke:#000000;stroke-width:4;stroke-miterlimit:10;}
</style>
<title>users2</title>
<title>contract</title>
<title>users2</title>
<title>contract</title>
<path d="M233.1,602.2c9.8-115.9,53.5-216.4,143.3-295.3c72.4-63.4,156.6-101.6,255-106.3c28.5-1.3,43.9-8.9,42.3-41.5
	c-1.7-34.6-5-69.7,4.6-104.5c11-39.8,50.6-58,83.9-33.8c63.5,46.3,113.5,106.7,170.9,159.5c10.9,10.1,22,20.5,30.7,32.3
	c29.5,39.9,26.5,61-9.6,95.4c-55.6,53.3-110.5,107.2-165.5,161c-31.1,30.3-60.4,34.7-92,14.6c-23-14.7-21.8-38.5-23.4-60.1
	c-2.1-29.4-1.2-59-0.3-88.5c0.5-16.4-6.2-21.3-22.6-21.2c-79.4,0.5-150.7,25-217.8,65.1C345.3,430.8,293.7,511.8,243,593.8
	C240.5,597.8,238.7,601.7,233.1,602.2z"/>
<line class="st0" x1="435.8" y1="692.7" x2="568.3" y2="692.7"/>
<g>
	<path class="st1" d="M504.5,1008.8c-30.4,0.2-59.2-4.5-84.8-20.6c-29.4-18.5-45.7-44.6-53-75.8c-3-12.4-4.7-24.9-4.5-37.6
		c0.1-10.5,6-16,17.7-16.6c14.4-0.7,28.7-1.6,43.2-2.5c11-0.6,16.4,3.8,17.4,13.9c0.6,6.4,1.5,13,2.9,19.3c9.1,44.4,68.9,51.1,96,33
		c16.6-10.9,21.7-40.8-3.4-51.6c-14.8-6.3-30.2-10.7-45.8-15.1c-24-6.8-48.4-12.8-69.6-25.9c-28.1-17.5-42.8-42.3-46.7-72.5
		c-4-31.1,2.9-60,24.9-84.6c19.4-21.7,45.9-33.6,75.8-38.1c49.8-7.6,91.3,7.9,124.2,41.7c16.8,17.1,22.2,39.2,24.8,61.5
		c0.7,6.4,1.4,13,1.4,19.6c-0.1,9.2-5.4,13.3-15.3,13.6c-15.4,0.6-30.9,1.4-46.4,2.4c-10.3,0.6-17-4.3-17.5-13.9
		c-0.4-7.7-1.7-15.1-4.4-22.4c-1.5-4.2-3.7-8.1-6.6-11.5c-14.6-17.6-60.2-18.5-75.3-1.2c-11.2,12.9-8.1,30,8.8,37.1
		c20.2,8.4,41.7,13,62.6,18.8c26.1,7.3,51.1,16.4,70.7,34.7c19.3,18.2,29.1,40.2,30.7,65.1c1.5,22.6-0.5,44.9-11.4,65.7
		c-18.5,35.2-49.7,55.4-91.7,62.1c-2.6,0.4-5.2,1-7.8,1.1C515.5,1008.9,509.9,1008.8,504.5,1008.8z"/>
	<path class="st1" d="M101.5,833.9c0.2,14.8,4.1,38.4,13.1,61.1c5.5,13.9,14.4,25.7,28.4,33.6c26.8,15.1,60.9,12.6,81.8-17.2
		c9.5-13.5,13.9-28.5,16.8-44c0.5-2.6,0.6-5.3,1.6-7.7c2.1-4.7,6-7.6,11.8-6c18.8,5.2,37.6,10.4,56.3,15.9c4.6,1.4,7.3,4.5,6.5,8.9
		c-4.9,24.7-11.9,48.9-26.3,70.5c-23.8,36.2-58.9,56.4-105.3,60.1c-46.2,3.7-85.1-9.2-114.7-42.4c-18.5-20.7-29.1-44.9-36-70.4
		c-7.1-26.3-11.2-53.1-10.3-80.1C26.5,774.9,35.2,735,60,699.4c24.5-35.3,60.5-54.2,106.2-58.5c42.7-4.1,78.7,7.9,107.4,36.7
		c19.9,20.1,30.2,44.6,37.2,70.4c0.2,1,0.5,2.1,0.7,3.2c3.2,11.8,1.6,14.4-11.4,17.7c-14.6,3.7-29,7.4-43.6,11
		c-11.3,2.9-16.2,0.2-18.8-9.9c-2.4-9.5-5.8-18.7-10.6-27.6c-16.2-30.5-44.9-36.1-76.8-24.2c-21.2,7.9-32.1,24.3-38.5,43.3
		C105,782.1,101.4,803.2,101.5,833.9z"/>
	<path class="st1" d="M803.1,872.5c3.7-11.3,7.2-21.2,10.5-31.1c20.7-62.1,41.2-124.2,61.9-186.4c3.4-10,6.7-12,18-11.9
		c21.2,0.1,42.3,0.2,63.5,0c5.7-0.1,6.2,1.5,4.6,6C922,762.3,882.7,875.5,843.4,988.7c-4.2,12-9.6,15.3-23.9,15.1
		c-12.1-0.1-24,0-36.1-0.1c-13.8,0-17.5-2.5-21.8-14.6c-9.6-27.8-19.2-55.5-28.7-83.2c-27.9-80.7-55.8-161.6-83.6-242.3
		c-1.7-5.2-3-10.5-4.6-15.7c-1-3.5,0.2-4.7,4.2-4.6c23.4,0.1,46.7,0,70.1,0.1c8,0,11.7,4.5,13.8,11c14.2,44.9,28.6,89.6,42.9,134.4
		c8.2,25.8,16.4,51.7,24.6,77.5C800.9,867.9,801.7,869.4,803.1,872.5z"/>
</g>
</svg>
