<?xml version="1.0" encoding="utf-8"?>
<!-- Generator: Adobe Illustrator 21.1.0, SVG Export Plug-In . SVG Version: 6.00 Build 0)  -->
<svg version="1.1" id="Camada_1" xmlns="http://www.w3.org/2000/svg" xmlns:xlink="http://www.w3.org/1999/xlink" x="0px" y="0px"
	 viewBox="0 0 1000 1000" style="enable-background:new 0 0 1000 1000;" xml:space="preserve">
<title>users2</title>
<title>contract</title>
<title>users2</title>
<title>contract</title>
<g>
	<path d="M14.5,689.1c2.1-7.5,1.8-15.4,3-23.1c8.5-57.2,32.4-107,72.1-149c38.2-40.5,84.6-66.7,138.9-79.1c5-1.1,10-2.1,15.8-3.3
		c-66.4-38.6-102-95.3-103-171.5c-0.6-52.8,19-98.8,56.7-135.9c77.1-75.9,200.5-74.5,273.9,3c43.7,46.1,61,101.4,51.1,164
		c-10,62.6-44.9,108.7-101,140.3c12.1,2.4,22.9,4.6,33.5,7.8c5.1,1.6,10.1,3.4,15.2,4.9c2.4,0.8,3.1,1.8,2,4.4
		c-2.2,5.2-4.3,10.5-6,15.9c-1,3.2-2.4,3.5-5.4,2.5c-14.4-5.1-29.2-9.2-44.3-11.5c-10.5-1.6-21.1-2.6-31.8-2.6
		c-34.3,0-68.7-0.6-103,0.2c-62.6,1.5-117.3,23.8-163.2,66.3C76,562,50.6,611.1,41.6,668.7c-1.6,10.2-2.5,20.5-2.4,30.8
		c0,3.6-1.3,4.5-4.7,4.4c-6.7-0.2-13.3,0.1-20,0.1C14.5,699.1,14.5,694.1,14.5,689.1z M166.4,263.2c-0.2,90.3,72,167.6,167.6,167.8
		c92.1,0.3,167.4-75.4,167.4-167.2c0-92.5-75.4-168-167.8-167.9C241.7,96,166.4,171.3,166.4,263.2z"/>
	<path d="M699.5,835.1c-7.2-2-14.8-1.8-22.1-2.9c-48-7.4-89.8-27.6-125.2-60.6c-39.4-36.8-63.8-82.1-72.2-135.3
		c-19.6-125.1,60.9-239.5,179.9-267c15.8-3.6,31.8-5.4,48-6c3.4-0.1,4.8,0.7,4.6,4.4c-0.3,5.1-0.3,10.3,0,15.5
		c0.2,3.4-0.9,4.6-4.4,4.7c-19.4,0.2-38.5,2.8-56.9,9.1c-80.8,27.3-131,82.8-146.5,166.5c-20.9,113.1,54.7,221,167.8,243
		c113.4,22.1,224.5-51.8,247.5-164.6c2.6-12.6,3.9-25.3,4.4-38.1c0.2-4,1.8-4.6,5.1-4.4c4.5,0.2,9,0.3,13.5,0
		c4.2-0.3,5.7,0.8,5.6,5.4c-0.8,34.1-8.2,66.7-23.5,97.2c-35,69.5-90.9,112.4-167.1,128.7c-8.8,1.9-17.7,3.1-26.7,3.5
		c-1.6,0.1-3.4-0.4-4.7,1C717.5,835.1,708.5,835.1,699.5,835.1z"/>
	<path d="M985.4,536.3c0.3,3.3-2.4,3-4.1,3.4c-22,6-44,11.8-66,17.7c-71.6,19.2-143.2,38.4-214.8,57.5c-5.1,1.4-5.1,1.3-3.8-3.7
		c25-93.5,50.1-186.9,75-280.4c1-3.6,1.9-5.2,6.3-3.9c108.1,30,177.8,98.2,206.8,207.1C985.1,534.9,985.3,535.7,985.4,536.3z
		 M955.6,519.8c-0.4-1.3-0.7-2.5-1.1-3.6c-28.4-77.8-81.6-130.7-159.3-159.1c-3.5-1.3-4.8-0.7-5.8,3c-19.3,72.2-38.6,144.4-58,216.7
		c-1.4,5.1-1.3,5.1,3.8,3.8c53.3-14.3,106.5-28.6,159.8-42.8c18.9-5.1,37.9-10.2,56.8-15.3C953.4,522,955.7,522.3,955.6,519.8z"/>
</g>
</svg>
