<?xml version="1.0" encoding="utf-8"?>
<!-- Generator: Adobe Illustrator 21.1.0, SVG Export Plug-In . SVG Version: 6.00 Build 0)  -->
<svg version="1.1" id="Camada_1" xmlns="http://www.w3.org/2000/svg" xmlns:xlink="http://www.w3.org/1999/xlink" x="0px" y="0px"
	 viewBox="0 0 1000 1000" style="enable-background:new 0 0 1000 1000;" xml:space="preserve">
<style type="text/css">
	.st0{fill:#010101;}
	.st1{fill:#040404;}
</style>
<title>users2</title>
<title>contract</title>
<title>users2</title>
<title>contract</title>
<g>
	<path d="M507.3,962.9c-118.4,0-236.7,0-355.1,0c-66.1,0-107.9-42-108-108.4c-0.1-58.3,0.2-116.6-0.4-174.9
		c-0.1-13.1,4.4-22.3,13.9-31c43.9-40.2,87-81.1,131-121.1c7.7-7,8.7-14.4,8.7-23.6c-0.1-132.7-0.1-265.3-0.1-398
		c0-45.1,22.8-67.7,68.2-67.8c116.6,0,233.2,1.7,349.7-1.1c33.8-0.8,55.9,10.1,77.6,33.1c34.4,36.2,70.8,70.5,106.5,105.5
		c13.9,13.6,20,29.3,19.9,49.3c-0.8,95.2-0.3,190.3-0.6,285.5c0,8.1,3.4,13.2,8.9,18.2c42.8,39.5,85.3,79.5,128.4,118.7
		c11.1,10.1,15.4,20.7,15.2,35.8c-1,57.1-0.5,114.2-0.6,171.3c-0.2,66.4-41.8,108.2-108.1,108.3C744,962.9,625.6,962.9,507.3,962.9z
		 M249.1,367c0,86.2,0.5,172.4-0.5,258.5c-0.2,17.8,5.1,22.3,22,21.2c20.7-1.5,41.6-0.7,62.4-0.3c22,0.4,30.9,9.7,31.6,31.9
		c0.9,31.9,11.7,42.8,43.2,42.9c66.6,0.2,133.2,0.2,199.7,0c33.2-0.1,43-9.7,44.8-43.4c1.2-22.6,9.6-31.1,32-31.4
		c23.2-0.4,46.4-0.5,69.5,0.1c10.5,0.3,14.4-2.5,14.4-13.8c-0.4-125.4-0.4-250.8,0-376.3c0-11.6-3.3-15.3-15-15
		c-34.5,0.7-69,0.4-103.4,0.2c-25.3-0.2-34.2-9.2-34.4-34.6c-0.2-33.9-0.7-67.8,0.3-101.6c0.4-13.8-4.2-16.7-17.2-16.6
		c-110.6,0.5-221.1,0.5-331.7,0c-14.1-0.1-18.1,4-18,17.9C249.4,193.5,249.1,280.3,249.1,367z M505.7,911.2
		c120.8,0,241.5,0.1,362.3-0.1c36.5-0.1,50.5-14.5,50.6-51.1c0.1-48.8-0.2-97.6,0.2-146.3c0.1-11-2.1-15.7-14.5-15.5
		c-63,0.6-126.1,0.4-189.2,0.2c-8.8,0-13.1,1.9-16.5,11.3c-14.7,40.8-48,63.6-91.5,63.8c-66,0.2-132.1,0.2-198.1,0
		c-42.8-0.2-76.1-22.9-90.6-62.5c-3.4-9.3-7.3-12.8-17.5-12.7c-63,0.5-126.1,0.6-189.1,0c-12.4-0.1-16.2,3.4-16,15.9
		c0.7,47,0.2,94,0.3,141c0.1,43.7,12.4,56.1,56.3,56.1C270.2,911.2,387.9,911.2,505.7,911.2z M729.3,189.5
		c-19-20.8-40-43.8-61.9-67.7c0,20,0.1,38.9-0.1,57.8c-0.1,6.3,1.7,10,8.9,10C696.1,189.4,715.9,189.5,729.3,189.5z M195,590.8
		c-19.6,18.3-37.9,35.3-57.3,53.4c56.6,9.8,62.2,5.1,59.4-47.4C197.1,595.7,196.5,594.7,195,590.8z M873.7,646.4
		c0.4-1.4,0.8-2.9,1.1-4.3c-17.5-16.1-35.1-32.3-55.8-51.4c0,18.5,0.1,32.4-0.1,46.3c-0.1,6.8,2.8,9.6,9.5,9.5
		C843.5,646.3,858.6,646.4,873.7,646.4z"/>
	<path class="st0" d="M502.3,442.5c54,0,108.1,0,162.1,0c7.1,0,14.4-0.6,20.7,3.5c7.4,4.9,12.2,11.5,11.1,20.8
		c-1,9-5.5,15.8-14.5,18.3c-5.1,1.4-10.5,2.2-15.7,2.2c-108.1,0.1-216.2,0.1-324.3,0.1c-1.8,0-3.6,0-5.3,0
		c-14-0.7-24.4-6.2-25.7-21.6c-1.1-13,9.9-22.9,25.8-23.2c25.5-0.4,51.1-0.1,76.6-0.1C442.9,442.5,472.6,442.5,502.3,442.5z"/>
	<path d="M502.7,567.5c-55.2,0-110.4,0.1-165.7,0c-17.9-0.1-27.8-9.1-26.2-23.8c1.7-15.7,12.3-20,26.5-20c60,0.1,119.9,0,179.9,0
		c49.9,0,99.8-0.1,149.6,0.1c18.6,0.1,29,7.8,29.5,21.1c0.5,14-10.5,22.5-29.9,22.6C611.9,567.6,557.3,567.5,502.7,567.5z"/>
	<path class="st0" d="M446.8,317.1c-35.7,0-71.4,0.2-107,0c-19-0.1-28.4-7.5-28.8-21.7c-0.4-14.4,8.7-22,28.1-22.1
		c71.4-0.2,142.7-0.2,214.1,0c19.3,0,28.9,7.5,29.3,21.3c0.3,13.5-11.9,22.5-30.3,22.5C517,317,481.9,317,446.8,317.1z"/>
	<path class="st1" d="M409.6,241.4c-23.2,0-46.4,0.2-69.6-0.1c-18.2-0.2-28.8-8.4-29.1-22c-0.3-14.1,10.8-22.9,29.9-23
		c45.2-0.1,90.4-0.1,135.6,0c19.4,0.1,30.5,8.8,30.3,22.9c-0.3,14.1-11.1,21.9-31.1,22.1C453.6,241.6,431.6,241.4,409.6,241.4z"/>
</g>
</svg>
