<?xml version="1.0" encoding="utf-8"?>
<!-- Generator: Adobe Illustrator 21.1.0, SVG Export Plug-In . SVG Version: 6.00 Build 0)  -->
<svg version="1.1" id="Camada_1" xmlns="http://www.w3.org/2000/svg" xmlns:xlink="http://www.w3.org/1999/xlink" x="0px" y="0px"
	 viewBox="0 0 1000 979" style="enable-background:new 0 0 1000 979;" xml:space="preserve">
<title>users2</title>
<title>contract</title>
<title>users2</title>
<title>contract</title>
<g>
	<path d="M945.1,116.2C843.5,216.5,742.2,317.2,640,416.9c-16.2,15.8-22.7,31.8-22.5,54.2c1.1,85.9-0.1,171.8,0.8,257.7
		c0.2,22.3-6.6,39-22.8,54.6c-50,47.9-98.9,96.9-148.3,145.4c-12.6,12.3-25.8,24.4-45.7,16.9c-21.2-8.1-23.4-26-23.4-45.4
		c0.1-143.2-0.4-286.3,0.5-429.5c0.1-22.5-6.6-38.3-22.7-54.1C261.6,325,168.2,232.4,74.7,139.8c-30-29.7-29.9-39.6-2.7-71.8
		c274.7,0,549.4,0,824.1,0C945.1,68,945.1,68,945.1,116.2z M178.5,138.2c4,14.6,14.5,20.6,22.3,28.4
		c73,72.4,145.9,144.9,219.9,216.3c19.9,19.2,28.1,39.6,27.8,66.9c-1.1,113.5-0.6,227-0.2,340.6c0,10.5-4.8,22.6,9.5,36.4
		c22.4-23.9,43.1-48.6,66.6-70.4c17.4-16.2,24.7-33,24.2-56.9c-1.5-82.5,0.3-165.1-1.1-247.7c-0.5-28.5,8-49.9,28.9-70
		c72.5-69.6,143.6-140.7,215-211.3c9.3-9.2,18-19,30.4-32.2C604.3,138.2,392.9,138.2,178.5,138.2z"/>
</g>
</svg>
