<?xml version="1.0" encoding="utf-8"?>
<!-- Generator: Adobe Illustrator 21.1.0, SVG Export Plug-In . SVG Version: 6.00 Build 0)  -->
<svg version="1.1" id="Camada_1" xmlns="http://www.w3.org/2000/svg" xmlns:xlink="http://www.w3.org/1999/xlink" x="0px" y="0px"
	 viewBox="0 0 1000 1000" style="enable-background:new 0 0 1000 1000;" xml:space="preserve">
<title>users2</title>
<title>contract</title>
<title>users2</title>
<title>contract</title>
<g>
	<path d="M51,532.4c2.1-6.1,1.3-12.4,1.8-18.7c4.3-50.3,16.5-98.5,38.7-143.8c59.5-121.7,155.2-199.4,286.8-232.5
		c11.5-2.9,23.1-4.7,34.8-6.8c4.3-0.7,6.8-0.4,7,5.1c0.2,6.1,1.3,12.2,2.4,18.3c0.5,3-0.1,3.9-3.2,4.4c-36.9,5.3-72.7,15-106.5,30.9
		c-118.5,56-193.2,147.9-224,275.3c-8.6,35.5-11.1,71.8-8.7,108.2c6.5,97.8,43.1,182.6,111.5,253c56.9,58.7,125.9,95.9,205.9,112.3
		c41.7,8.6,83.9,9.9,126.2,4.5c84.5-10.8,158.4-44.9,220.7-102.9c65.6-61.2,105.8-136.4,121-224.9c3.5-20.6,5.3-41.3,5.4-62.1
		c0-15.6,0-31.3-2.3-46.8c-0.7-4.5,0.2-6.6,5.3-6.7c5.6-0.2,11.3-1.1,16.8-2.3c3.8-0.8,4.7,0.7,5,3.9c1,12.1,2.3,24.2,2.6,36.3
		c3.1,119.2-37,222-119.3,307.9c-62.6,65.3-139.1,106.8-228.3,121.7C410.9,990,287.6,953.9,183.7,857.3
		c-68.5-63.7-109.8-143-126.3-235.1c-3-16.9-4.9-33.9-5.5-51.1c0-1.3,0.2-2.7-0.9-3.7C51,555.7,51,544,51,532.4z"/>
	<path d="M460.4,297.6c0-88.2,0-176.3,0-264.5c0-7.7-0.4-6.5,6.8-6.6c79.8-1,156.1,14.9,228.3,48.9
		c106.1,50,186.8,126.9,242.2,230.3c20,37.4,34.6,77,45.2,118.1c1,3.8,0.1,4.7-3.4,5.7c-112.9,30.2-225.8,60.5-338.7,90.8
		c-58,15.5-115.9,31.1-173.9,46.7c-6.6,1.8-6.6,1.8-6.6-5.3C460.4,473.6,460.4,385.6,460.4,297.6z M488.8,292.9
		c0,77.7,0,155.3-0.1,233c0,4.7,1,5.6,5.5,4.3c14.2-4.1,28.5-7.8,42.8-11.6c135.9-36.4,271.7-72.8,407.6-109.1
		c3.9-1,4.4-2.6,3.3-6.2C924.2,328,885.1,261.7,830.1,205C782.1,155.5,726,117.6,662.1,91.5c-53.6-21.9-109.4-34.1-167.4-36.4
		c-4.8-0.2-6,0.9-6,5.8C488.8,138.2,488.8,215.6,488.8,292.9z"/>
</g>
</svg>
