<?xml version="1.0" encoding="utf-8"?>
<!-- Generator: Adobe Illustrator 21.1.0, SVG Export Plug-In . SVG Version: 6.00 Build 0)  -->
<svg version="1.1"
	 id="svg4692" inkscape:version="0.91pre4 r13712" sodipodi:docname="users.svg" xmlns:cc="http://creativecommons.org/ns#" xmlns:dc="http://purl.org/dc/elements/1.1/" xmlns:inkscape="http://www.inkscape.org/namespaces/inkscape" xmlns:rdf="http://www.w3.org/1999/02/22-rdf-syntax-ns#" xmlns:sodipodi="http://sodipodi.sourceforge.net/DTD/sodipodi-0.dtd" xmlns:svg="http://www.w3.org/2000/svg"
	 xmlns="http://www.w3.org/2000/svg" xmlns:xlink="http://www.w3.org/1999/xlink" x="0px" y="0px" viewBox="0 0 1000 1000"
	 style="enable-background:new 0 0 1000 1000;" xml:space="preserve">
<defs>
	
	
		<inkscape:perspective  id="perspective3413" inkscape:persp3d-origin="656.38765 : 542.5844 : 1" inkscape:vp_x="156.38767 : 709.2511 : 1" inkscape:vp_y="0 : 1000 : 0" inkscape:vp_z="1936.1233 : 226.87225 : 1" sodipodi:type="inkscape:persp3d">
		</inkscape:perspective>
</defs>
<sodipodi:namedview  bordercolor="#666666" borderopacity="1.0" id="base" inkscape:current-layer="layer1" inkscape:cx="175.11013" inkscape:cy="500" inkscape:guide-bbox="true" inkscape:pageopacity="0.0" inkscape:pageshadow="2" inkscape:window-height="1057" inkscape:window-maximized="1" inkscape:window-width="1920" inkscape:window-x="1592" inkscape:window-y="-8" inkscape:zoom="0.454" pagecolor="#ffffff" showgrid="false" showguides="true">
	<sodipodi:guide  id="guide5596" orientation="horizontal" position="200"></sodipodi:guide>
</sodipodi:namedview>
<g>
	<path d="M497.9,975C240.6,974.7,26.3,760.1,27,503.6C27.7,240.6,240.9,27.7,502.5,28.5c258.5,0.8,471.1,214.9,471,474.2
		C973.4,762,758.6,975.3,497.9,975z M512.6,283.1c-12.8,1.3-26,4.5-26.6-13.7c-0.2-7-4.2-5.4-8.6-5.6c-12.8-0.5-22.7,3.6-31.5,14.2
		c-0.5,0.6-1.6,0.9-2.4,0.9c-23.2-0.3-30.7,22.9-48.2,32.3c-28.9,15.5-40,51.5-69,69.1c-3.4,2.1-2.4,11.3-3.6,17.1
		c-2.2,11-7.7,10-14.2,3.6c-30.3-29.7-80.7-16.8-93.8,23.7c-3.3,10.2-3,19.1,5.3,26.2c8.3,7.1,17.1,5.9,26.6,0.8
		c8.4-4.5,14.9-14.6,26.9-12.2c-2.5,14.9-1.4,17.5,12.7,29.1c5.4,4.4,5.5,10.3,6.5,16.3c1.5,9.2-4.3,22,12.3,24.4
		c13,1.9,25.6,5.8,34.8-8.7c4.1-6.5,9.4-13.4,18.9-11.2c20.7,5,38.5,23.4,62.8,13.1c1.7-0.7,6.8,4.8,9.3,8.2
		c16.3,22.6,55.6,22.8,57.9,59.5c0.1,2.3,9,4,13.7,6.2c11.5,5.4,23.9,3.7,36,4.9c22.2,2.2,43.4,29.8,32.4,42.9
		c-13.4,16-17.2,33.8-18,53.1c-0.8,19.9-9.8,31.2-30.3,30.9c-14.6-0.2-20.6,6.8-19.9,20.8c1.5,30.5-22.6,73.8-51.9,79.7
		c-27.6,5.6-8.2,27.4-18.9,37c23.7,11.1,2.9,42.7,30.3,52.7c-18.6,8.2-29.2,4.1-40.7-4.5c-39.6-29.6-33.5-76.4-43.6-116.4
		c-7.3-28.7-7.5-59.6-6-89.8c0.3-6.9-4.8-12-10.2-14.1c-26.2-10.2-36.8-35.1-52.6-54.9c-16.5-20.6-14.7-46.7,5-63.7
		c8.1-7,9-14,7.6-23c-1.7-10.2-9.6-11.7-17.6-11.9c-12.3-0.3-20.9-5.8-29.1-14.8c-18.2-20.1-40.9-31.3-68.6-33.7
		c-22.1-1.9-38.6-9.5-40-38c-1.1-22.1-23.4-37.2-29-59.5c-6.3,16.2,1.8,27.6,9.2,39.2c2.6,4.2,7.4,9.2,1.3,13.5
		c-6.2,4.4-12,0.8-15.4-4.7c-4.9-8.1-12.7-17.1-12.4-25.4c1-21.7-9.2-36.8-23.9-51.9c-3.3,8.4-7.3,16.2-9.6,24.4
		c-45.9,161.2-15,305.6,98.6,429.5c168.7,184.1,469.9,181.1,634.6-5c4.3-4.9,13.7-9,10.9-16.3c-11.5-29.9-22.3-59.8-29.9-91.2
		c-3.4-14.1-9.4-25.4-0.7-38.3c8-11.8,5.9-22-0.9-33.8c-7.7-13.4-18.8-25.4-19.7-42.1c-0.8-13.7,10-32.2-17.6-34
		c-14.4-0.9-26-13.1-44-4.8c-16.4,7.5-38,11.5-55.3,1.8c-30.4-17-41.3-47.5-32.9-83.5c1.1-4.7,1.9-8.7-1.6-11.9
		c-13.8-12.6-3.3-18.6,6.1-26.1c15-11.9,36.2-18.4,35.2-44.2c-0.4-9.5,11.9-14.8,19.3-14.7c26.5,0.4,50.6-12.1,76.8-12.2
		c8.1,0,15.4-1.4,17.8,9.7c5.8,26.6,39.2,28.9,46.3,24c21.4-14.8,34.2-5,51.7,3.3c9.2,4.4,28,9.3,31.6-4.7
		c3-11.7-0.6-30.3-22.8-29.9c-11,0.2-16.4-8.4-19.5-18.2c-1.2-3.8-0.3-9.5-6.4-9.5c-5.2,0-7.2,4.3-8.4,8.6
		c-6.4,21.9-13.8,8.5-19.3,0c-3.6-5.6-2.7-14.3-6.8-19.2c-6.5-7.8-13.6-16.3-25-17.6c-3.4-0.4-7.4,0.8-7.8,5
		c-1.4,12.6,9.9,15.3,17.4,20.2c6.2,4.1,7.4,8.6,6.1,15.4c-1.6,8.3-6.5,13.9-14.2,10.9c-13.7-5.3,2.1-7.8,1.7-10.8
		c-1.8-15.3-17.4-17.9-27.1-24.6c-12.2-8.5-26.1-0.6-36.7,7.6c-6.6,5.1-10.8,13.5-15.7,20.7c-10.6,15.5-25.9,12.7-40,8.8
		c-14.3-3.9-13.5-17.7-11.6-28.4c3-17.1,17.9-12.5,29.5-13.3c5.8-0.4,17.6,4.8,14.2-7.2c-6-21.1-3.4-44.5-17-63.5
		c-3.6-5-3.2-9.9,1.8-13.6c4.9-3.6,12.6-3.5,13.3,1.6c2.4,17.4,21.4,26.4,20.4,48.3c11.4-13,18.9-27.3,36.9-24.2
		c5.7,1,13.7,2,14.4-6.5c0.6-7.8-6.3-7.7-12.6-9.3c-11.1-2.8-18.7-12-22.3-22.2c-1.8-4.9,5.3-10.5,11.3-12.7
		c27.3-9.8,15.8-19.1,0.6-30.5c-120.4-90.7-253-115.5-397.2-72.6c-40.2,12-79.5,28.4-115.7,59.4c25.2,3.2,41.5,22,65.3,16.7
		c-14-4.9-21.5-17.6-35.4-23.7c14.1-13.1,29.6-22.8,43.3-10.4c14.8,13.3,27.1,15.9,46.2-0.4c-4.4,18.1-12.6,21.3-22.3,23.1
		c-7,1.3-13.4,5.3-5.3,11.5c10.9,8.5,21.2-1,31.6-4.4c7.7-2.5,14.4-2.1,9-15c-5.6-13.5,8.4-11.1,16.2-11.5
		c7.8-0.4,15.1,0.7,8.7,11.5c-3.5,5.9-5.1,11.8,3.1,14.8c8.3,3,10.8-2.3,11-9.5c0.2-8.6,6.5-11.5,13.1-14.4
		c26.6-11.6,66.4,3.3,76.1,30.4c7.9,22.1-18.5,12.5-25.5,23.3c-3.9,6-19.8,2.6-27.4-6.1c-2.2-2.5,1.3-5.9,4.5-8
		c4.7-3,13.9-4.4,10.6-12c-3.7-8.7-12.8-6.8-20.8-5.5c-15.2,2.5-27.2,9.9-37.1,21.5c-4.2,4.9-8.8,14.5-16.2,9.4
		c-22.5-15.8-35.4,4.9-50.6,12.8c-16.5,8.5-11.3,22.2,2.7,26.5c15.7,4.7,24.2,13,27.4,35.3c11.9-27.3,41.8-31.9,40.4-62.3
		c-0.5-10.8,33.5-12.7,36.9,0c6.3,23.6,19.6,10.4,31.5,8.7c2.3,11.9,1.6,23.8,13.6,30.3c4.5,2.4,7.1,10.5,2.8,13.7
		C490.6,267,506.7,273.1,512.6,283.1z M310.3,309.8c16.4-0.8,15.4-16.9,24.6-22.4c4.3-2.6,10.9-3.3,8.3-10.3
		c-2.1-5.7-8.2-6.1-13.3-5.6c-5.6,0.5-15.9,0.4-13.9,7.2C319.3,290.2,308.2,297.4,310.3,309.8z M803.2,237.9
		c11.7,2.6,23.7,8.4,29.8-5.7c3.3-7.6-3.3-16.4-8-16.6C812.1,214.9,811.9,230.8,803.2,237.9z"/>
</g>
</svg>
