<?xml version="1.0" encoding="utf-8"?>
<!-- Generator: Adobe Illustrator 21.1.0, SVG Export Plug-In . SVG Version: 6.00 Build 0)  -->
<svg version="1.1" id="Camada_1" xmlns="http://www.w3.org/2000/svg" xmlns:xlink="http://www.w3.org/1999/xlink" x="0px" y="0px"
	 viewBox="0 0 1796 1339" style="enable-background:new 0 0 1796 1339;" xml:space="preserve">
<title>users2</title>
<title>contract</title>
<title>users2</title>
<title>contract</title>
<g>
	<path d="M550.3,676.9c-103.9,0-207.8,2.3-311.6-0.8c-69.7-2-126.4,45.1-122.9,124c3.1,69.6,1,139.4,0.8,209.2
		c-0.1,43.7-37,65.4-75.6,44.7c-12.2-6.6-14.5-17.7-14.5-29.9c0-83.3-1.9-166.7,0.7-249.9c2.9-90.2,62.8-161.4,150.1-181.4
		c20.7-4.7,26.9-12.3,26.3-33.7c-1.5-70.6,0.1-141.3-0.7-211.9c-0.3-25.7,9.3-35.1,34.9-35c207.7,0.6,415.4,0.3,623.1,0.4
		c30.5,0,35.3,5,35.4,36.7c0.1,70.7,0.4,141.3-0.5,211.9c-0.2,17.7,3,26.1,22.5,31c95.8,23.8,150.3,91.3,153.9,192.8
		c2.7,77.7,1.4,155.7,0.8,233.7c-0.2,32.3-11.4,40.3-49.8,39.2c-35.1-1-40.9-6.8-41-41.1c-0.1-74.3,0.1-148.5-0.1-222.8
		c-0.2-72.7-43.5-116.8-115.2-116.9C761.6,676.7,656,676.9,550.3,676.9z M548.7,584.8c0,0.1,0,0.2,0,0.3c78.8,0,157.7-0.3,236.5,0.3
		c15.4,0.1,22.5-3.2,22.1-20.8c-1.1-47-0.8-94.2-0.1-141.3c0.2-15.6-5.1-20-20.1-20c-158.5,0.4-317.1,0.4-475.7,0
		c-15.9,0-19.5,5.8-19.2,20.6c0.8,46.2,1.2,92.5-0.1,138.6c-0.5,18.5,5.6,22.8,22.7,22.6C393,584.4,470.9,584.8,548.7,584.8z"/>
	<path d="M549.2,1029.8c97.5,0,195.1-0.1,292.6,0c37.8,0,46.1,8.2,46.3,45.7c0.2,66,0.3,132.1,0,198.2c-0.2,34-9.4,43.4-43.5,43.5
		c-196.9,0.2-393.7,0.2-590.6,0c-32.6,0-42.9-11.1-42.9-44.6c-0.1-66,0-132.1,0.5-198.2c0.3-35.8,9.4-44.7,45.1-44.8
		c97.5-0.2,195.1-0.1,292.6-0.1C549.2,1029.7,549.2,1029.7,549.2,1029.8z M548.4,1226.1c60.8,0,121.6,0.1,182.5-0.1
		c21.4-0.1,48.6,6.8,62.6-3.9c15.3-11.7,2.6-40.7,5-62c0.4-3.5-0.2-7.3,0.4-10.8c4.2-23.6-4.8-30.6-28.8-30.4
		c-136.8,1.2-273.7,0.5-410.5,0.5c-59,0-59,0-59.2,60.9c0,6.3,0.6,12.8-0.3,19c-3.2,20.7,3.8,27.8,25.7,27.4
		C400,1225.2,474.2,1226.1,548.4,1226.1z"/>
	<path d="M549.9,975.6c-54.5,0-109,0.2-163.5-0.1c-32-0.1-42.2-9.3-43.3-38c-1.4-37.4,9-52.7,40.9-53c110.8-1,221.6-1.1,332.4-0.4
		c31.1,0.2,40,13.3,39.3,50.7c-0.5,31.6-8.9,40.6-39.7,40.8C660.7,975.8,605.3,975.6,549.9,975.6z"/>
	<path d="M278,844.5c-32.4,0-53.3-17.6-52.7-44.2c0.7-25.9,22.6-42.8,54.8-42.4c32.5,0.4,47.5,14.6,47.5,44.6
		C327.6,830.6,311.3,844.4,278,844.5z"/>
</g>
<g>
	<path d="M1431.3,268.6c-70.8,0-141.6,1.5-212.3-0.5c-47.5-1.4-86.1,30.7-83.7,84.5c2.1,47.4,0.6,95,0.6,142.5
		c-0.1,29.8-25.2,44.6-51.5,30.4c-8.3-4.5-9.9-12.1-9.9-20.3c0-56.8-1.3-113.6,0.5-170.3c1.9-61.5,42.8-110,102.2-123.6
		c14.1-3.2,18.3-8.4,17.9-23c-1-48.1,0.1-96.3-0.5-144.4c-0.2-17.5,6.3-23.9,23.8-23.9c141.5,0.4,283,0.2,424.5,0.3
		c20.8,0,24.1,3.4,24.1,25c0.1,48.1,0.3,96.3-0.4,144.4c-0.1,12.1,2,17.8,15.3,21.1c65.3,16.2,102.4,62.2,104.8,131.3
		c1.9,53,0.9,106.1,0.6,159.2c-0.1,22-7.8,27.4-33.9,26.7c-23.9-0.7-27.9-4.6-28-28c-0.1-50.6,0.1-101.2-0.1-151.8
		c-0.1-49.5-29.6-79.6-78.5-79.7C1575.2,268.5,1503.3,268.6,1431.3,268.6z M1430.2,205.8c0,0.1,0,0.1,0,0.2
		c53.7,0,107.4-0.2,161.1,0.2c10.5,0.1,15.3-2.2,15.1-14.2c-0.7-32-0.6-64.2-0.1-96.3c0.1-10.6-3.5-13.6-13.7-13.6
		c-108,0.3-216,0.3-324.1,0c-10.8,0-13.3,4-13.1,14c0.6,31.5,0.8,63-0.1,94.5c-0.4,12.6,3.8,15.5,15.5,15.4
		C1324.1,205.5,1377.2,205.8,1430.2,205.8z"/>
	<path d="M1430.5,509c66.4,0,132.9-0.1,199.4,0c25.7,0,31.4,5.6,31.6,31.2c0.1,45,0.2,90,0,135.1c-0.1,23.2-6.4,29.6-29.6,29.6
		c-134.2,0.1-268.3,0.1-402.4,0c-22.2,0-29.3-7.5-29.3-30.4c-0.1-45,0-90,0.4-135.1c0.2-24.4,6.4-30.4,30.7-30.5
		c66.4-0.1,132.9-0.1,199.4-0.1C1430.5,508.9,1430.5,508.9,1430.5,509z M1430,642.8c41.4,0,82.9,0.1,124.4-0.1
		c14.6-0.1,33.1,4.6,42.7-2.6c10.4-8,1.8-27.7,3.4-42.2c0.3-2.4-0.1-5,0.3-7.4c2.9-16.1-3.2-20.9-19.6-20.7
		c-93.2,0.8-186.5,0.4-279.7,0.4c-40.2,0-40.2,0-40.4,41.5c0,4.3,0.4,8.7-0.2,13c-2.2,14.1,2.6,18.9,17.5,18.7
		C1328.8,642.2,1379.4,642.8,1430,642.8z"/>
	<path d="M1431,472.1c-37.1,0-74.3,0.1-111.4-0.1c-21.8-0.1-28.8-6.4-29.5-25.9c-0.9-25.5,6.1-35.9,27.9-36.1
		c75.5-0.7,151-0.7,226.5-0.3c21.2,0.1,27.2,9.1,26.8,34.5c-0.4,21.5-6.1,27.7-27,27.8C1506.5,472.2,1468.7,472.1,1431,472.1z"/>
	<path d="M1245.7,382.8c-22,0-36.3-12-35.9-30.1c0.5-17.6,15.4-29.2,37.3-28.9c22.1,0.3,32.4,10,32.4,30.4
		C1279.5,373.3,1268.4,382.7,1245.7,382.8z"/>
</g>
</svg>
