<?xml version="1.0" encoding="utf-8"?>
<!-- Generator: Adobe Illustrator 21.1.0, SVG Export Plug-In . SVG Version: 6.00 Build 0)  -->
<svg version="1.1" id="Camada_1" xmlns="http://www.w3.org/2000/svg" xmlns:xlink="http://www.w3.org/1999/xlink" x="0px" y="0px"
	 viewBox="0 0 1000 1000" style="enable-background:new 0 0 1000 1000;" xml:space="preserve">
<title>users2</title>
<title>contract</title>
<title>users2</title>
<title>contract</title>
<g>
	<path d="M998.8,766.1c1.4,34.5-15.5,35.7-40.9,25.3c-148.3-60.9-294.8-61.8-438.7,13.9c-19.2,10.1-36.6,5.3-54.8-3.5
		c-134.6-64.8-271.9-65.1-410-13.3C8.3,805.8-7,803.1,4.9,746.9c34.9-164.7,65.5-330.4,95.7-496.1c7.9-43.4,27.1-68,71.8-76.1
		c84.7-15.4,169.4-26.2,253.7-2.3c51,14.5,99.3,13.2,150.2-1.1c90.6-25.5,181.9-16.2,272.6,3.3c21.8,4.7,40.9,13.4,45.6,38.6
		C929.2,397.4,964,581.8,998.8,766.1z M522.4,220.4c1.1,6,2.3,12,3.4,18c41.4-6.1,82.8-12.1,124.1-18.5c23-3.5,35.4,2,37.3,28.9
		c8.2,119.3,17.6,238.6,28.1,357.8c3,33.6-11.1,47.6-42.5,48.7c-41.3,1.4-79.7,14.8-117.2,30.2c-17,7-42,14.7-31.1,39.4
		c10.3,23.4,30.9,4.7,44.2-0.4c103.6-39.6,208.6-45.3,313.8-11.2c51.8,16.8,58.2-2.2,50.2-46.9C912,550.7,891.5,435.1,874.3,319
		C852.6,172.9,864,206.3,735.5,188.3C662.5,178.2,589.9,190.7,522.4,220.4z M475,231.9c-90.2-50.2-185.7-43.8-282.3-30.9
		c-35.9,4.8-50.4,23.9-55.9,57.5c-23,141.1-46,282.3-72.1,422.9c-8.2,44.4,5,47.3,42.4,36.8c105.4-29.7,210.6-29.3,315.2,7
		c14.6,5.1,37.4,27.3,47.1-2.8c8.4-26.1-19.7-29.6-36-35.8c-88-33.5-179.1-41.4-270.9-21.6c-42.8,9.2-54-2.6-46.8-44.2
		c19.3-111.5,38.2-223,54.1-335c6.3-44.1,25.9-60.4,70.3-62.6C318.7,219.4,396.4,223.7,475,231.9z"/>
</g>
</svg>
