<?xml version="1.0" encoding="utf-8"?>
<!-- Generator: Adobe Illustrator 21.1.0, SVG Export Plug-In . SVG Version: 6.00 Build 0)  -->
<svg version="1.1" id="Camada_1" xmlns="http://www.w3.org/2000/svg" xmlns:xlink="http://www.w3.org/1999/xlink" x="0px" y="0px"
	 viewBox="0 0 1000 1000" style="enable-background:new 0 0 1000 1000;" xml:space="preserve">
<title>users2</title>
<title>contract</title>
<title>users2</title>
<title>contract</title>
<g>
	<path d="M502.8,19.1c35.7,41.3,77.4,76.6,116.6,114.3c117.5,113,235.6,225.4,353.9,337.5c12.7,12.1,16.1,20.5,0.5,31.8
		c-5.8,4.2-10.6,10-15,15.8c-6.8,9-12.7,6.8-19.5,0c-8.1-8.2-16.6-15.9-29.4-28.1c0,12.8,0,20.3,0,27.8c0,146.4-0.5,292.8,0.5,439.1
		c0.1,20-5.8,23.7-24.3,23.5c-91-1-182.1-1-273.1,0c-18.7,0.2-22.7-5.5-22.5-23.2c0.9-96.1,0-192.3,0.8-288.4
		c0.1-16.6-3.5-22.6-21.4-22.1c-48,1.3-96.1,1.2-144.2,0c-17.2-0.4-20.2,5.6-20.1,21.2c0.7,96.8-0.1,193.7,0.7,290.6
		c0.1,16.8-3.9,22.2-21.5,22c-91.7-0.9-183.5-0.9-275.3,0c-17.9,0.2-23.1-4-23-22.5c0.8-145.6,0.4-291.3,0.4-436.9c0-8,0-16,0-25.9
		c-13.1,3.2-19.6,13.1-27,21c-8.9,9.3-15.5,10.4-24.4-0.2C27.7,507,20.5,496.6,9,491c0-2.9,0-5.8,0-8.7c6,0.1,8.5-5,12-8.4
		c120-114.4,240.3-228.6,359.7-343.6c38.1-36.7,78.7-71,113.3-111.2C497,19.1,499.9,19.1,502.8,19.1z M143.7,677.5
		c0,75.7,0.4,151.4-0.3,227.1c-0.2,15.2,4,19.7,19.4,19.4c55.3-0.9,110.6-1,166,0c16.2,0.3,20.9-4,20.8-20.5
		c-0.8-97.5,0-195.1-0.8-292.6c-0.1-16.6,4.7-20.6,20.8-20.5c85.2,0.8,170.3,0.9,255.5,0c17.8-0.2,23.4,4,23.2,22.6
		c-1,96.8-0.1,193.6-0.8,290.4c-0.1,16.3,4.2,21,20.6,20.7c55.3-1,110.6-0.9,165.9,0c15.2,0.2,19.6-3.9,19.5-19.3
		c-0.6-151.4-0.4-302.8-0.1-454.2c0-10.4-3.2-17.5-10.6-24.6c-110.6-105.4-221-211-331.1-317c-9.9-9.5-16.3-9.8-26.4-0.1
		C375.7,214.3,265.9,319.4,155.8,424.3c-9.4,8.9-12.4,18-12.3,30.5C144,529,143.7,603.2,143.7,677.5z"/>
</g>
</svg>
