<?xml version="1.0" encoding="utf-8"?>
<!-- Generator: Adobe Illustrator 21.1.0, SVG Export Plug-In . SVG Version: 6.00 Build 0)  -->
<svg version="1.1" id="Camada_1" xmlns="http://www.w3.org/2000/svg" xmlns:xlink="http://www.w3.org/1999/xlink" x="0px" y="0px"
	 viewBox="0 0 1000 1000" style="enable-background:new 0 0 1000 1000;" xml:space="preserve">
<title>users2</title>
<title>contract</title>
<title>users2</title>
<title>contract</title>
<g>
	<path d="M41,982c-2.8-5-7.5-8.3-11.4-12.3c-1.7-1.8-2.8-3.6-2.5-6.1c0.1-1,0-2,0-3c0-229.8,0-459.6,0-689.5
		c0-8.1,2.8-14.7,8.5-20.5C92.3,194,149,137.3,205.7,80.6c5.4-5.4,12-8.2,19.7-8.2c72.2,0,144.3,0.1,216.5-0.1
		c5.1,0,6.7,1.3,6.3,6.4c-0.4,6-0.4,12,0,18c0.3,4.3-1.4,5.2-5.4,5.2c-36.5-0.1-73-0.1-109.5-0.1c-31.2,0-62.3,0.1-93.5-0.1
		c-4.1,0-5.3,1-5.3,5.2c0.2,34,0.2,68,0.1,102c-0.1,23.2-8.8,42.5-27.2,56.9c-11.8,9.3-25.3,14-40.3,14c-35,0.1-70,0.1-105-0.1
		c-4.8,0-6.1,1.4-6.1,6.2c0.1,220.2,0.1,440.3,0,660.5c0,4.8,1.3,6.1,6.1,6.1c208.3-0.1,416.6-0.2,625,0c26.6,0,42.5-21.3,42.4-42.5
		c-0.5-88-0.2-176-0.4-264c0-5.2,1.4-6.6,6.3-6.3c6.3,0.4,12.7,0.2,19,0.1c2.9-0.1,4.5,0.8,4.1,3.9c-0.1,0.8,0,1.7,0,2.5
		c0,88.3,0,176.7,0,265c0,17.8-5.6,33.7-17.5,47.1c-11.3,12.7-25.6,19.9-42.3,22.5c-1.3,0.2-2.7-0.2-3.7,1.1C477,982,259,982,41,982
		z M205.2,123.3c-7.7,5.8-124.9,123.8-126.5,127.1c1.5,0.9,3.2,0.5,4.8,0.5c26.8,0,53.6,0.1,80.4,0c23.7-0.1,41.2-17.6,41.2-41.4
		c0-26.8,0-53.6,0-80.4C205.2,127.4,205.2,125.8,205.2,123.3z"/>
	<path d="M680.1,612.9c-161.3-0.1-295.6-129.6-295.4-295.6c0.2-166.3,133.9-295.8,295.4-295.6c166.4,0.2,296,134.8,295.7,295.9
		C975.6,481.1,843.5,612.9,680.1,612.9z M680.5,51.6C538.1,50.8,418.2,165.2,414.9,311c-3.3,147.4,113.9,271.7,265.6,271.6
		c151.3-0.1,265.7-122.3,265.7-265.6C946.2,168.4,824.8,50.8,680.5,51.6z"/>
	<path d="M387,712.2c69,0,138,0.1,207-0.1c4.9,0,6.3,1.2,6,6c-0.4,6.5-0.3,13-0.1,19.5c0.1,3.1-1.1,4.2-4,3.9c-1-0.1-2,0-3,0
		c-137.3,0-274.7,0-412,0c-7,0-7,0-7-7c0-5.2,0-10.3,0-15.5c0.1-8-0.4-6.8,6.6-6.8C249.3,712.2,318.2,712.2,387,712.2z"/>
	<path d="M341,618.6c-54,0-108-0.1-162,0.1c-4.9,0-6.3-1.3-6-6.1c0.4-6.6,0.2-13.3,0.1-20c-0.1-2.7,0.9-3.7,3.5-3.4
		c0.8,0.1,1.7,0,2.5,0c107.8,0,215.6,0,323.4-0.1c4.7,0,6.5,1,6.1,6c-0.4,6.1-0.3,12.3,0,18.5c0.2,4-1.2,5.1-5.1,5.1
		c-34-0.1-68-0.1-102-0.1C381.4,618.6,361.2,618.6,341,618.6z"/>
	<path d="M285,495.8c-35.2,0-70.3-0.1-105.5,0.1c-4.2,0-6-0.8-5.7-5.4c0.4-6.5,0.3-13,0-19.5c-0.1-3.4,1-4.7,4.5-4.6
		c12.3,0.2,24.7,0.1,37,0.1c58.2,0,116.3,0.1,174.5-0.1c4.8,0,6.4,1.1,6.1,6c-0.4,6.1-0.3,12.3,0,18.5c0.2,3.9-1,5-5,5
		C355.7,495.7,320.3,495.8,285,495.8z"/>
	<path d="M679.5,338.4c-1.1,1-2.3,2.1-3.5,3.3c-35.8,35.8-71.7,71.6-107.4,107.6c-3.5,3.6-5.3,3.4-8.4-0.2c-4-4.6-8.5-9-13.1-13.1
		c-2.9-2.6-2.9-4.1-0.1-7c23.1-22.9,46-45.9,69-68.9c13.2-13.2,26.3-26.5,39.7-39.5c3.1-3,2.7-4.6-0.1-7.4
		c-36-35.8-71.9-71.9-108-107.7c-3.2-3.2-3.5-5,0-8c4.8-4.2,9.2-8.7,13.4-13.4c2.7-3.1,4.3-2.5,7,0.1
		c33.7,33.9,67.6,67.7,101.4,101.5c2.5,2.5,5.1,4.8,7.4,7.5c2.3,2.6,3.9,2.6,6.3,0.1c11.8-12,23.7-23.9,35.7-35.8
		c24.3-24.3,48.6-48.5,72.7-72.9c3.3-3.4,5.1-3.1,8,0.2c4.3,4.8,9,9.4,13.8,13.8c2.3,2.2,2.5,3.6,0.1,5.9
		c-8.3,8-16.3,16.2-24.4,24.3c-28,28-56,56.2-84.2,84c-3.6,3.5-3.2,5.2,0.2,8.5c35.9,35.7,71.7,71.6,107.6,107.3
		c3.1,3.1,3.4,4.7,0,7.7c-4.9,4.3-9.5,8.9-13.8,13.8c-2.6,2.9-4.1,2.4-6.6-0.1c-36.1-36.3-72.3-72.4-108.5-108.6
		C682.5,340.3,681.7,338.7,679.5,338.4z"/>
</g>
</svg>
