<?xml version="1.0" encoding="utf-8"?>
<!-- Generator: Adobe Illustrator 21.1.0, SVG Export Plug-In . SVG Version: 6.00 Build 0)  -->
<svg version="1.1" id="Camada_1" xmlns="http://www.w3.org/2000/svg" xmlns:xlink="http://www.w3.org/1999/xlink" x="0px" y="0px"
	 viewBox="0 0 1000 1000" style="enable-background:new 0 0 1000 1000;" xml:space="preserve">
<title>users2</title>
<title>contract</title>
<title>users2</title>
<title>contract</title>
<g>
	<path d="M534.5,990c-3.3-1.9-7.1-1.2-10.7-2c-29.3-6.2-51.1-32.7-51.1-62.7c0-72.8-0.3-145.6,0.1-218.4c0.2-34.5,27.8-63,62.5-63.2
		c27.6-0.2,55.3,0.1,82.9,0.1c9,0,17.9-1.5,26.8,0.7c17.2,4.4,30.6,14.1,38.6,30c8.5,17.2,27.8,26.2,43.2,22.8
		c1.3-0.3,2.7-0.1,4-0.1c36.2,0,72.3,0,108.5,0c33.5,0,61.4,25.7,64.2,59.1c0.1,1.3-0.2,2.7,1,3.7c0,55.3,0,110.7,0,166
		c-1,1.3-0.9,2.8-1,4.3c-2.2,28.5-23.2,52-51.4,57.9c-3.2,0.7-6.7-0.1-9.6,1.9C739.9,990,637.2,990,534.5,990z M688.1,965.2
		c49.5,0,99,0,148.4,0c25.7,0,43-17.1,43.1-42.8c0.1-52.5,0.1-105,0-157.4c0-25.9-17.5-43.1-43.5-43.1c-34.7,0-69.3,0-104,0
		c-2,0-4,0-6,0.3c-7.3,1.2-14.6,0.8-21.8-0.9c-18.1-4.3-31.5-14.6-40.2-31c-5.5-10.4-13.5-17.6-24.8-20.9
		c-5.5-1.6-11.2-1.2-16.8-1.1c-28.2,0.1-56.3-0.3-84.5,0c-23.5,0.2-40.8,18-40.8,41.4c0,71.3,0,142.6,0,213.9
		c0,24.4,17.3,41.8,41.8,41.8C588.8,965.3,638.5,965.2,688.1,965.2z"/>
	<path d="M95.5,513.5c0-117.5,0-235,0-352.5c0-8-0.6-6.9,7-6.9c39.7,0,79.3-0.1,119,0.1c3.9,0,5.7-0.7,6.5-5.2
		c6.8-36.2,34.3-63.8,70.5-71c4-0.8,6.2-1.9,7.1-6.4c7.2-36.1,40.8-62.6,79-61.6c35.1,0.9,66.2,26.5,74,62.4c0.6,2.9,1.6,4.4,5,5
		c36.5,6.1,66.2,35.5,72.8,71.9c0.7,4.1,2.2,5.1,6.1,5.1c40.2-0.1,80.3,0,120.5-0.2c4.4,0,5.9,1,5.9,5.7c-0.1,140.5-0.1,281,0,421.5
		c0,4.6-1.2,6.2-5.8,5.8c-4.8-0.4-9.7-0.3-14.5,0c-3.1,0.1-4.2-1.1-3.9-4.1c0.1-1.7,0-3.3,0-5c0-130.7,0-261.3,0-392
		c0-7.4,0-7.4-7.2-7.4c-31.7,0-63.3,0.1-95-0.1c-3.8,0-5.4,0.9-6.1,5c-7.2,39.5-42.1,70.4-82.1,72.4c-32.6,1.6-65.3,0.4-98,0.6
		c-15.5,0.1-31,0.5-46.5-0.5c-39.7-2.4-74.5-32.9-81.9-72.2c-0.8-4.1-2.1-5.4-6.4-5.4c-31.8,0.2-63.7,0.2-95.5,0
		c-5,0-6.4,1.2-6.4,6.4c0.1,219.6,0.1,439.3,0,658.9c0,5.3,1.7,6.3,6.6,6.3c97.7-0.1,195.3-0.1,293-0.1c8.4,0,7.5-0.9,7.6,7.4
		c0,4.3-0.1,8.7,0,13c0.1,2.8-1.1,4-3.8,3.7c-1-0.1-2,0-3,0c-105.8,0-211.6,0-317.5,0c-6.9,0-6.9,0-6.9-7.1
		C95.5,749.1,95.5,631.3,95.5,513.5z M382.6,231.5c22,0,44,0,66,0c3.2,0,6.4,0,9.5-0.5c33.9-5.2,58.3-36.4,55.6-70.7
		c-2.6-33.2-31.7-59.9-65.5-60.1C436,100,436,100,436,87.8c0-27.5-20-50.1-47.4-53.7c-26-3.4-51.2,13.8-58.4,39.7
		c-2.1,7.4-1.9,14.8-1.7,22.3c0.1,3-0.8,4.1-3.9,4.1c-5.2-0.1-10.3,0-15.5,0.5c-34.4,3.7-60,33.7-58.4,68.7
		c1.6,33.9,30.9,62,65,62.1C337.9,231.5,360.2,231.5,382.6,231.5z"/>
	<path d="M382.1,462.9c-45.3,0-90.6-0.1-135.9,0.1c-4.2,0-6-0.8-5.6-5.4c0.4-5,0.3-10,0-15c-0.2-3.5,1.3-4.5,4.4-4.1
		c0.8,0.1,1.7,0,2.5,0c89.8,0,179.5,0,269.3,0c6.8,0,6.8,0,6.9,6.6c0,4-0.2,8,0.1,12c0.4,4.4-0.9,6-5.7,5.9
		c-27.8-0.2-55.6-0.1-83.4-0.1C417.1,462.9,399.6,462.9,382.1,462.9z"/>
	<path d="M382.1,598.9c-45.3,0-90.6-0.1-135.9,0.1c-4.2,0-6.1-0.7-5.6-5.4c0.4-5,0.3-10,0-15c-0.2-3.5,1.2-4.5,4.3-4.2
		c0.8,0.1,1.7,0,2.5,0c89.8,0,179.5,0,269.3,0c6.9,0,6.9,0,6.9,6.6c0,3.8-0.3,7.7,0.1,11.5c0.5,4.8-0.9,6.5-6.2,6.5
		c-26.8-0.3-53.6-0.1-80.4-0.1C418.7,598.9,400.4,598.9,382.1,598.9z"/>
	<path d="M587.1,744.8c-9.8,0-19.7-0.1-29.5,0.1c-3.1,0.1-4-0.9-3.9-4c0.2-5.7,0.2-11.3,0-17c-0.1-2.7,0.7-3.8,3.6-3.7
		c19.8,0.1,39.6,0.1,59.5,0c2.8,0,3.8,0.9,3.7,3.7c-0.2,5.5-0.2,11,0,16.5c0.2,3.4-0.8,4.6-4.4,4.5
		C606.4,744.7,596.7,744.8,587.1,744.8z"/>
</g>
</svg>
