<?xml version="1.0" encoding="utf-8"?>
<!-- Generator: Adobe Illustrator 21.1.0, SVG Export Plug-In . SVG Version: 6.00 Build 0)  -->
<svg version="1.1" id="Camada_1" xmlns="http://www.w3.org/2000/svg" xmlns:xlink="http://www.w3.org/1999/xlink" x="0px" y="0px"
	 viewBox="0 0 1000 1000" style="enable-background:new 0 0 1000 1000;" xml:space="preserve">
<style type="text/css">
	.st0{fill:#4D4D4D;}
</style>
<title>users2</title>
<title>contract</title>
<title>users2</title>
<title>contract</title>
<g>
	<path class="st0" d="M508.3,72.4c100.4,0,200.8,0,301.2,0c93.4,0.1,168.4,73.7,168.8,167.1c0.6,126.2,0.4,252.4,0.1,378.6
		c-0.2,83.2-64.4,169.6-178,168.7c-71.4-0.6-142.8,0.3-214.2-0.4c-15.5-0.1-22.1,3.2-21.3,20.3c1.7,39.9-4.5,33.9,34.2,34.4
		c15.6,0.2,31.2-0.3,46.7,0.2c32.6,0.9,55,22.6,55,52.8c0,30.4-22.6,52.3-55.2,52.3c-97.7,0.2-195.5,0.2-293.2,0
		c-33-0.1-54.8-21.4-54.8-52.5c0-30,21.6-51.7,53.3-52.6c22.5-0.6,45.1-0.5,67.7-0.1c10.2,0.2,14.5-3.4,14.3-14
		c-0.9-49.6,6.1-39.9-39.1-40.5c-65-0.8-130,1.7-194.8-1.6c-97-4.9-162.3-74.8-163.1-172.6c-1-123-0.9-245.9,0-368.9
		c0.8-115.5,96.6-174.4,174.6-172.1C309.5,74.7,408.9,72.4,508.3,72.4z M508.6,682.1c99.3,0,198.6,0,297.9,0
		c41.6,0,67.2-25.2,67.3-67.2c0.2-124,0.2-248,0-372c-0.1-41.7-25.9-66.8-67.8-66.8c-199.2,0-398.3,0-597.5,0c-42,0-68,24-68.2,66.4
		c-0.7,124.5-0.7,249.1,0,373.6c0.2,42.1,26.3,65.9,68.7,65.9C308.9,682.1,408.7,682.1,508.6,682.1z"/>
</g>
</svg>
