<?xml version="1.0" encoding="utf-8"?>
<!-- Generator: Adobe Illustrator 21.1.0, SVG Export Plug-In . SVG Version: 6.00 Build 0)  -->
<svg version="1.1" id="Camada_1" xmlns="http://www.w3.org/2000/svg" xmlns:xlink="http://www.w3.org/1999/xlink" x="0px" y="0px"
	 viewBox="0 0 1000 1000" style="enable-background:new 0 0 1000 1000;" xml:space="preserve">
<title>users2</title>
<title>contract</title>
<title>users2</title>
<title>contract</title>
<g>
	<path d="M479,27c14.8,0,29.7,0,44.5,0c1.1,1.1,2.6,0.9,3.9,1.1c5.5,0.7,11.1,1.2,16.6,2.1c23.6,3.7,46.5,10.1,68.4,19.7
		c61.4,26.7,109.2,68.9,143.4,126.3c27.7,46.5,41.3,96.9,40.5,151.2c-0.5,35.9-0.2,71.7-0.3,107.6c0,1.9,0,3.7,0.3,5.6
		c0.8,6.4,4.2,10,10.4,11.4c2.9,0.6,5.8,0.9,8.7,1.1c9.3,0.6,18.4,2.2,27.2,5.5c15.7,6,26.9,16.7,33,32.5c1.3,3.3,2.3,6.7,3.1,10.2
		c2.1,8.8,2.6,17.7,2.6,26.7c0,94.2,0,188.3,0,282.5c0,24.7,0,49.5-0.1,74.2c0,9.8-0.9,19.5-3.5,28.9c-2.8,10.1-7.3,19.3-14.7,27
		c-7.9,8.1-17.5,13-28.3,16c-9.6,2.6-19.5,3.4-29.4,3.4c-21.6,0.1-43.3,0.1-64.9,0.1c-179.5,0-359,0-538.6,0
		c-6.7,0-13.3-0.2-19.9-0.9c-9.1-0.9-18-2.7-26.5-6.2c-14.1-5.9-24.1-15.9-29.9-30c-2.8-6.8-4.4-13.8-5.5-21
		c-1.2-8.1-1.3-16.3-1.3-24.5c0-105.9,0-211.8,0-317.8c0-11.1,0-22.3,0-33.4c0-9.5,0.7-18.8,3.2-28c5.8-21.2,19.1-35.2,40.3-41.6
		c7-2.1,14.1-3.2,21.4-3.7c2.9-0.2,5.9-0.4,8.7-1c6.7-1.3,10.2-5.1,11.1-11.9c0.4-2.9,0.6-5.9,0.7-8.8c0.3-13,0.1-26-0.2-39
		c-0.5-27.1-1.2-54.1,0.3-81.1c0.7-12.8,2-25.6,4.1-38.2c4.3-25.8,12.1-50.5,23.4-74C255.3,149.6,290,109.8,334.9,79
		c31.2-21.4,65.2-36.3,102.1-44.8c12.2-2.8,24.6-4.7,37-6C475.7,27.9,477.5,28.1,479,27z M500.3,451.4c0,0.1,0,0.1,0,0.2
		c2.2,0,4.3,0,6.5,0c47.3-0.2,94.6-0.6,141.9,0.3c2,0,4,0,6,0c2.3,0,4.6-0.3,6.9-0.7c6.2-1.3,9.3-4.5,10.6-10.7
		c0.8-3.7,0.7-7.4,0.6-11.1c-0.5-15-0.6-30-0.4-45c0.3-20.4,0.3-40.8-0.2-61.2c-0.4-15.8-2.5-31.4-6.7-46.7
		c-8.1-29.7-22.7-55.7-44.8-77.2c-19.5-19-42.5-32.2-68.3-40.6c-26-8.5-52.6-10.9-79.6-6.5c-24.1,3.9-46.5,12.6-66.9,26
		c-30.9,20.3-53.3,47.5-66.6,82.1c-6.7,17.4-9.4,35.5-10.7,53.9c-0.9,13.7-1.2,27.5-1.1,41.2c0,15.5,0.2,30.9,0.1,46.4
		c0,10.4,0.1,20.7-0.6,31.1c-0.2,2.3,0.1,4.6,0.5,6.9c1,6.6,4.4,10.1,11,11.3c3.1,0.6,6.1,0.7,9.2,0.7c15.3-0.2,30.6-0.4,45.9-0.4
		C429.2,451.4,464.7,451.4,500.3,451.4z M605,698.7C605,698.7,605,698.7,605,698.7c0-8.3,0.1-16.7,0-25c-0.2-18.1,0.4-36.2-0.6-54.3
		c-0.2-3.7-0.5-7.4-1.1-11.1c-2-12.5-7-23.6-15.5-33.1c-14.6-16-32.5-26.5-53.5-31.5c-7.8-1.9-15.7-3.2-23.7-4.5
		c-5.6-0.9-11.4-1.4-17.1-0.7c-6.8,0.8-13.5,1.9-20.1,3.3c-18.2,3.7-34.6,11.2-49.4,22.3c-8.5,6.3-15,14.2-19.8,23.6
		c-5.9,11.6-9,24-9,37c-0.1,23.3-0.2,46.7-0.2,70c0,21.8,0.1,43.6,0.2,65.4c0,7.7,0,15.5,0,23.2c0,2.6,0,5.3,0.3,7.9
		c1.2,10.6,4.5,20.5,9.6,29.8c7.1,13,16.8,23.2,29.9,30.2c6,3.2,12.1,6.2,18.5,8.7c17,6.6,34.5,9.6,52.7,8.5
		c15.9-1,31.1-4.8,45.9-10.5c12.2-4.7,22.7-11.8,31.6-21.4c9.8-10.5,16.8-22.5,19.3-36.8c1.3-7.2,1.9-14.4,2-21.7
		C605.1,751.5,605,725.1,605,698.7z"/>
</g>
</svg>
