<?xml version="1.0" encoding="utf-8"?>
<!-- Generator: Adobe Illustrator 21.1.0, SVG Export Plug-In . SVG Version: 6.00 Build 0)  -->
<svg version="1.1" id="Camada_1" xmlns="http://www.w3.org/2000/svg" xmlns:xlink="http://www.w3.org/1999/xlink" x="0px" y="0px"
	 viewBox="0 0 1000 1000" style="enable-background:new 0 0 1000 1000;" xml:space="preserve">
<title>users2</title>
<title>contract</title>
<title>users2</title>
<title>contract</title>
<g>
	<path d="M500.6,91c143,0,286,0,429,0c10.1,0,20.2-0.1,30.3,0.6c5.6,0.4,11.1,1.3,16.4,3.4c6.6,2.6,11,7.3,13.4,14
		c2.7,7.6,3.6,15.5,3.8,23.6c0.6,27.1,0.3,54.3,0.3,81.4c0.1,154.7,0.1,309.4,0.1,464.1c0,30.2,0,60.4-0.1,90.5
		c0,7.8,0,15.6-0.9,23.4c-0.6,5.1-1.6,10.2-3.4,15c-1.9,4.7-5,8.5-9.4,11.1c-4.7,2.7-9.8,4-15.2,4.6c-9.1,1-18.2,1.1-27.4,1.1
		c-75.1,0-150.2,0-225.3,0c-28.3,0-56.5,0.1-84.8,0.1c-11.6,0-23.2,0.1-34.8,0.2c-5.8,0.1-11.6-0.3-17.4-1.1
		c-2.6-0.3-5.1-0.4-7.7-0.2c-4.1,0.4-7.1,2.4-8.4,6.3c-2.6,7.9-2.7,15.9-0.3,23.9c1.3,4.2,3.7,5.9,8.2,6.2c4.1,0.2,8.2-0.4,12.2-0.8
		c2.8-0.3,5.5-0.3,8.2,0.4c4.7,1.3,9.4,0.9,14.2,0.2c5.4-0.7,10.7-1.8,16.2-1.5c5.5,0.3,10.2,2.2,13.8,6.5c2,2.4,3,5.3,3.8,8.2
		c2.7,10.1,3.5,20.4,3.8,30.8c0.3,10.8-0.5,21.5-1.4,32.2c-0.5,6.2-1.1,12.3-1.8,18.4c-0.9,7-5,11.7-11.4,12.9
		c-1.9,0.4-3.8,0.6-5.7,0.5c-4-0.1-8-0.4-12-0.7c-2.9-0.2-5.9-0.2-8.8,0c-0.9,0.1-1.9,0.2-2.8,0.2c-17.8,0-35.6,0.3-53.4-0.1
		c-27.6-0.5-55.2-0.3-82.8-0.2c-21.6,0-43.2,0.4-64.8,0.7c-5.6,0.1-11.2-0.1-16.6-2.1c-8.1-2.9-13.1-8.4-14.9-16.9
		c-1.3-6.1-1.3-12.1-0.7-18.2c0.8-8.8,0.8-17.7-0.5-26.5c-1.4-9.1-1.2-18.2,1.8-27.1c2.4-7,6.8-12.2,13.6-15.4
		c7.1-3.3,14.7-3.9,22.3-3c6.8,0.8,13.6,1.7,20.5,1c2.8-0.3,5.7,0.2,8.5,0.2c2.8,0,5.5-0.1,8.2-1c2.6-0.8,4.4-2.5,5.4-5
		c0.6-1.4,1.1-2.8,1.3-4.4c0.7-6.1,0.9-12.1-1.1-18.1c-1.4-4.4-4.6-6.4-8.9-6.8c-1.9-0.2-3.8-0.2-5.7-0.2c-23.5,0.3-47,0.1-70.5,0.1
		c-95.5,0-191,0-286.5,0c-8.9,0-17.7,0-26.5-0.5c-5.8-0.3-11.6-0.8-17.2-2.5c-8.6-2.6-14.2-8.1-16.8-16.7c-2-6.9-2.8-14-3-21.1
		c-0.6-25.5-0.3-51-0.3-76.5C6.3,526.4,6.3,346.5,6.3,166.7c0-13-0.1-26.1,0.6-39.1c0.4-7,1.4-13.9,4.1-20.3
		c2.3-5.5,6.3-9.5,11.8-11.8c7-3,14.5-3.9,22-4.1c22-0.6,44-0.3,66-0.3C240.7,91,370.6,91,500.6,91C500.6,91,500.6,91,500.6,91z
		 M501.8,768.9c0,0,0-0.1,0-0.1c30.9,0,61.9,0,92.8,0c10.2,0,20.4,0,30.6,0c66.5,0,133.1,0.1,199.6,0.1c11,0,22.1,0,33.1,0.1
		c20.1,0.1,40.2,0.3,60.2,0.4c4.9,0,9.7-0.4,14.4-1.9c5.2-1.7,8.2-5.3,9.8-10.3c1.3-4.1,1.7-8.4,1.9-12.7c0.3-6.1,0-12.2,0-18.3
		c0-17.2-0.1-34.5-0.2-51.7c-0.1-26.7-0.2-53.3-0.3-80c-0.2-63.3-0.1-126.6-0.1-189.9c0-29.2,0-58.4,0.2-87.7
		c0.4-46.6,0.4-93.3,0.5-139.9c0-6.2-0.2-12.4-1.9-18.4c-1.9-6.8-6.2-11-13.1-12.5c-3.8-0.8-7.7-1.2-11.6-1.2
		c-18.5,0.1-36.9,0.1-55.4,0.2c-30,0.2-60,0.1-89.9,0.3c-48.3,0.4-96.5,0.2-144.8,0.2c-80.2,0.1-160.3,0.2-240.5-0.1
		c-51-0.2-102,0.2-153.1-0.3c-31.6-0.3-63.2-0.2-94.8-0.2c-18.8,0-37.7,0-56.5-0.1c-4.1,0-8.2,0.4-12.2,1.2
		c-6.8,1.5-11.1,5.5-13,12.1c-1.7,5.8-2.1,11.8-2.1,17.8c0,14.4,0.2,28.7,0.3,43.1c0.1,14,0.1,28,0.2,42c0.1,21.8,0.1,43.6,0.3,65.4
		c0.2,25.8,0.1,51.6,0.1,77.4c-0.1,70,0.3,139.9-0.3,209.9c-0.2,25.2-0.3,50.4-0.4,75.7c-0.1,15-0.3,30.1-0.4,45.1
		c-0.1,6.8,0.3,13.5,2.3,20.1c1.9,6.2,5.6,10.6,12.1,12.6c5.7,1.7,11.4,2,17.2,2c15.3-0.1,30.6-0.3,46-0.4
		c18.3-0.1,36.6-0.2,54.8-0.2c50.6,0,101.1-0.1,151.7,0c40.2,0,80.3,0.1,120.5,0.1C473.8,768.9,487.8,768.9,501.8,768.9z M524,909.2
		c0-0.2,0.1-0.3,0.1-0.5c-1.2-0.8-2.4-1.5-3.5-2.3c-8-5.8-11.6-14.1-12.9-23.6c-1.2-8.3-0.6-16.7,0.6-25c0.4-2.7,0.6-5.5,0.4-8.2
		c-0.2-2.8-0.3-5.7-0.5-8.5c-0.2-3.4,0-6.8-0.6-10.2c-0.7-3.8-2.4-5.4-6.3-5.5c-7.1-0.2-9.1,1.7-9.6,8.8c-0.4,5.3,0,10.6-0.4,16
		c-0.8,10.2-1.6,20.5-3,30.6c-0.7,5.1-2,10.1-4.4,14.7c-3.7,7.2-10,11-17.7,12.7c-0.9,0.2-1.9,0-2.7,1
		C483.8,909.2,503.9,909.2,524,909.2z"/>
	<path d="M459.5,573.6c46.6,0,93.1,0,139.7,0c18,0,36-0.1,54-0.3c10.8-0.1,21.5-0.2,32.3-0.5c7.1-0.2,14.3-0.3,21.4-0.5
		c20.3-0.7,40.5-1.5,60.8-2.3c5.5-0.2,11-0.6,16.5-0.5c3.2,0,6.2,0.6,9.3,1.4c7.2,1.9,11.8,6.6,14.4,13.5c1.7,4.5,2.4,9.2,2.6,14
		c0.5,16.7,1.1,33.5,0.5,50.2c-0.2,7-0.6,14.1-2.1,21c-1.3,5.8-3,11.4-6.7,16.2c-2.4,3.1-5.4,5.6-8.9,7.5
		c-6.3,3.5-13.3,4.6-20.3,5.5c-11.7,1.5-23.6,1.3-35.4,1.3c-34.1,0.1-68.1,0.3-102.2,0.3c-62.4,0-124.7,0.2-187.1-0.1
		c-35.2-0.2-70.4-0.1-105.7-0.3c-17.9-0.1-35.8-0.2-53.7,0.1c-22.6,0.3-45.3,0.4-67.9,0.5c-4.8,0-9.5-0.5-14.1-1.9
		c-8.9-2.6-14-8.9-16.2-17.6c-1.3-5-1.8-10.1-1.8-15.3c0.1-11.9-0.1-23.8,0.1-35.7c0.1-8.8,0.5-17.7,2.2-26.4
		c1.1-5.8,2.8-11.4,6.6-16.3c2.6-3.4,5.8-6,9.6-7.9c6.3-3.1,13-4.2,19.8-4.8c9.4-0.9,18.8-1.1,28.2-1.1
		C323.5,573.6,391.5,573.6,459.5,573.6C459.5,573.6,459.5,573.6,459.5,573.6z M504,651.9C504,651.9,504,651.9,504,651.9
		c77.4,0,154.8,0,232.2,0c2.9,0,5.7,0.1,8.6,0.2c3.4,0.1,6.8,0.2,10.3-0.2c4.4-0.6,7.6-2.6,8.7-7c1.9-7.5,1.9-15.1-1.2-22.4
		c-1-2.4-2.9-3.8-5.4-4.2c-1.8-0.3-3.6-0.6-5.4-0.5c-6.7,0.3-13.4,0.7-20.2,0.6c-20.2-0.4-40.4-0.3-60.5-0.3c-14.8,0-29.5,0-44.3,0
		c-113.7,0-227.3,0.1-341,0.1c-10.4,0-20.7,0.2-31.1-0.1c-3.6-0.1-7.2-0.3-10.8,0.6c-3.2,0.8-5.4,2.8-6.3,5.9
		c-2.2,7.1-1.9,14.3,0.2,21.3c1,3.4,3.5,5.3,7,6c2.2,0.4,4.4,0.4,6.5,0.2c4.1-0.3,8.2-0.5,12.3-0.5c23.2,0,46.5,0.1,69.7,0.1
		C390.1,651.9,447.1,651.9,504,651.9z"/>
	<path d="M876.1,254c0.2,10.2,0.4,20.4,0.5,30.5c0,4.3-0.1,8.6-1,12.8c-1.2,6.2-4.8,10.1-10.9,11.9c-3.5,1-7.1,1.4-10.7,1.4
		c-20,0.2-40,0.2-59.9,0c-3.7,0-7.4-0.4-11-1.5c-5.1-1.6-8.6-4.7-10.1-9.9c-1-3.5-1.5-7.1-1.5-10.7c0-9.2,0.2-18.5,0.2-27.7
		c0-13.7-0.1-27.4-0.2-41.1c0-3.7,0.4-7.4,1.3-11c1.4-5.6,4.9-9.1,10.5-10.5c3.3-0.9,6.7-1.3,10.2-1.2c13.5,0.1,27,0.2,40.5,0.1
		c7.7,0,15.4-0.3,23.1,0c2.8,0.1,5.5,0.6,8.1,1.4c5.2,1.6,8.4,5,9.9,10.1c1.5,4.8,1.4,9.8,1.4,14.7c0.1,10.2,0,20.4,0,30.5
		C876.4,254,876.2,254,876.1,254z"/>
</g>
</svg>
