<?xml version="1.0" encoding="utf-8"?>
<!-- Generator: Adobe Illustrator 21.1.0, SVG Export Plug-In . SVG Version: 6.00 Build 0)  -->
<svg version="1.1" id="Camada_1" xmlns="http://www.w3.org/2000/svg" xmlns:xlink="http://www.w3.org/1999/xlink" x="0px" y="0px"
	 viewBox="0 0 1000 1259.3" style="enable-background:new 0 0 1000 1259.3;" xml:space="preserve">
<title>users2</title>
<title>contract</title>
<title>users2</title>
<title>contract</title>
<g>
	<path d="M497.6,1197.3c-151.2,0-302.4-0.4-453.6,0.4c-23.8,0.1-33.2-2.5-27.4-29.8C53,998,87.8,827.8,122.1,657.6
		c4-19.8,11.4-29.9,33.3-27.1c9.5,1.2,19.5-1.1,28.9,0.4c66.9,10.3,121.4-7.5,160.3-63.7c11.4-16.5,21.4-17,36,0.8
		c25.9,31.7,55.1,60.8,83.9,90.1c14.4,14.6,19.4,29.2,16.9,50.2c-17,138.1-31.4,276.5-48.6,414.6c-3.6,28.7,4.8,37.9,33.3,34.1
		c29.3-3.9,69.3,13.2,85.3-7.8c13.1-17.2,0.1-53.7-2.3-81.5c-10.8-121-21.9-242-33-362.9c-1.5-16.1,1.9-29.4,13.4-42.8
		c26-30.2,49.7-62.2,74-93.8c8.8-11.5,17.2-18.7,29.7-4c3.3,3.9,9.7,5.4,12.6,9.4c41.8,58.6,102.8,60.7,168,57.8
		c69.6-3.1,69.2-0.6,81.5,65.5c28.3,152.3,57,304.5,85.5,456.7c8.2,43.7,8.2,43.7-36,43.7C795.8,1197.3,646.7,1197.3,497.6,1197.3z"
		/>
	<path d="M760.7,270.2c-0.2,136.3-120,252.2-260.8,252.4c-140.6,0.2-263.3-119.1-262.6-255.2C238,132.9,360.1,15.4,499.5,15
		C641.4,14.6,760.9,131.4,760.7,270.2z"/>
</g>
</svg>
