<?xml version="1.0" encoding="utf-8"?>
<!-- Generator: Adobe Illustrator 21.1.0, SVG Export Plug-In . SVG Version: 6.00 Build 0)  -->
<svg version="1.1" id="Camada_1" xmlns="http://www.w3.org/2000/svg" xmlns:xlink="http://www.w3.org/1999/xlink" x="0px" y="0px"
	 viewBox="0 0 1000 1000" style="enable-background:new 0 0 1000 1000;" xml:space="preserve">
<style type="text/css">
	.st0{fill:#3F3F3F;}
</style>
<title>users2</title>
<title>contract</title>
<title>users2</title>
<title>contract</title>
<g>
	<path class="st0" d="M505.5,665c-127.8,0-255.6,0-383.3,0c-57.9,0-80.7-23-80.7-80.9c0-31.1,0-62.1,0-93.2
		c0-53.6,23.5-76.9,77.9-76.9c223.8,0,447.6,0,671.4,0c35.3,0,70.6-0.3,105.9,0.1c49.2,0.6,72.8,24.3,72.9,72.9
		c0.1,34.6,0.1,69.2,0,103.8c-0.1,49.7-24,73.9-74.3,74.1c-85.4,0.3-170.8,0.1-256.3,0.1C594.5,665,550,664.9,505.5,665z"/>
</g>
</svg>
