<svg id="Camada_1" data-name="Camada 1" xmlns="http://www.w3.org/2000/svg" viewBox="0 0 283.46429 235.27543"><defs><style>.cls-1{fill:#56b46f;fill-rule:evenodd;}</style></defs><title>Money</title><path class="cls-1" d="M255.63029,53.6468l11.3267,3.4223-11.3267-1.8125V53.6468h0Zm0,181.6234V220.051a12.68123,12.68123,0,0,0,0-25.3624v-15.215c0.8541,0,1.6954.0502,2.5285,0.1259V128.6223c-0.8331.0757-1.6744,0.1262-2.5285,0.1262V113.5332a12.68333,12.68333,0,0,0,0-25.3666V72.9516h12.479a15.41648,15.41648,0,0,1,15.359,15.3913v131.536a15.41654,15.41654,0,0,1-15.359,15.3913h-12.479ZM148.8436,21.3826l106.7867,32.2642v1.6098L148.8436,38.1702V21.3826h0Zm106.7867,51.569v15.215h-0.002a12.68334,12.68334,0,0,0,0,25.3666h0.002v15.2153h-0.002a27.86729,27.86729,0,0,1-27.8399-27.9029c0-.8521.0502-1.6959,0.1256-2.5316H188.4229a72.26644,72.26644,0,0,0-39.5793-16.6788V72.9516h106.7867Zm0,106.522v15.215h-0.002a12.68123,12.68123,0,0,0,0,25.3624h0.002v15.2192H148.8436v-8.6873a72.2556,72.2556,0,0,0,39.5793-16.6751H227.914c-0.0754-.8357-0.1256-1.6795-0.1256-2.5359a27.8663,27.8663,0,0,1,27.8399-27.8983h0.002ZM148.8436,214.757a61.07788,61.07788,0,0,0,0-121.2922v17.4881a22.15179,22.15179,0,0,1,10.8555,5.4479,23.03494,23.03494,0,0,1,6.6028,13.1536l-13.9096,1.7968a12.17179,12.17179,0,0,0-3.5487-6.7989v20.3315c7.1435,2.2289,12.1192,5.0171,14.915,8.3245q4.789,5.6802,4.7846,14.556a24.27867,24.27867,0,0,1-6.0205,16.7136,25.87653,25.87653,0,0,1-13.6791,7.8576V214.757h0Zm0-35.0203a11.53274,11.53274,0,0,0,3.6408-2.8661,10.60387,10.60387,0,0,0,2.5976-7.1541,9.60665,9.60665,0,0,0-2.1869-6.3145,11.04162,11.04162,0,0,0-4.0515-2.9625v19.2972h0Zm0-119.0739h90.2778L148.8436,48.4226V60.6628ZM134.3353,16.9991l14.5083,4.3835V38.1702l-14.5083-2.3216V16.9991h0Zm14.5083,31.4235V60.6628H134.3353V46.4556l14.5083,1.967h0Zm0,24.529v8.6836q-3.5088-.34185-7.1096-0.3455a73.34363,73.34363,0,0,0-7.3987.3733V72.9516h14.5083Zm0,20.5132v17.4881q-1.4742-.31725-3.0666-0.5055v-5.3991h-7.9645v5.3991a29.12644,29.12644,0,0,0-3.4772.5508V93.4988a61.06133,61.06133,0,0,1,14.5083-.034h0Zm0,31.0875v20.3315q-1.4721-.4596-3.0666-0.8869V122.5851a10.87152,10.87152,0,0,1,3.0666,1.9672h0Zm0,35.8872v19.2972a12.9322,12.9322,0,0,1-3.0666,1.0678V159.317a21.83009,21.83009,0,0,1,3.0666,1.1225h0Zm0,31.896V214.757a61.06133,61.06133,0,0,1-14.5083-.034V192.4432a32.68424,32.68424,0,0,0,3.4772.612v10.1183h7.9645V192.9461q1.5852-.25,3.0666-0.6106h0Zm0,34.2474v8.6873H134.3353v-8.7151a73.344,73.344,0,0,0,7.3987.373q3.59835,0,7.1096-.3452h0Zm-14.5083-49.1437V155.8219q1.65525,0.61305,3.4772,1.1355v22.9485a13.49144,13.49144,0,0,1-3.4772-2.4667h0Zm0-38.166v-14.913a10.67191,10.67191,0,0,1,3.4772-2.0019v18.9936A13.843,13.843,0,0,1,134.3353,139.2732ZM80.0042,0.5837l54.3311,16.4154V35.8486L58.566,23.7251,62.7347,9.8748A13.89125,13.89125,0,0,1,80.0042.5837h0Zm54.3311,45.8719L45.6202,34.4271A13.902,13.902,0,0,0,30.0266,46.3294L28.0911,60.6628H134.3353V46.4556h0Zm0,26.496V81.663A72.26874,72.26874,0,0,0,95.0491,98.314H55.5579c0.0754,0.8357.1259,1.6795,0.1259,2.5316a27.87,27.87,0,0,1-27.8399,27.9029V113.5332a12.68333,12.68333,0,0,0,0-25.3666V72.9516H134.3353Zm0,20.5472a61.08046,61.08046,0,0,0,0,121.2242V192.4432a24.26359,24.26359,0,0,1-11.8525-6.3909c-3.9425-3.917-6.452-9.4632-7.5538-16.5963l14.2447-1.6917a18.18487,18.18487,0,0,0,3.2887,7.5529,18.49821,18.49821,0,0,0,1.8729,2.122V155.8219q-8.0529-2.9841-12.1709-8.1346a23.37162,23.37162,0,0,1-4.994-15.1016,21.413,21.413,0,0,1,17.1649-21.5875V93.4988h0Zm0,30.8614a10.19686,10.19686,0,0,0-1.609,1.7852,9.7622,9.7622,0,0,0-1.8686,5.8062,9.36,9.36,0,0,0,1.7011,5.391,9.7508,9.7508,0,0,0,1.7765,1.9306v-14.913h0Zm0,102.1949v8.7151H27.8439V220.051a12.68122,12.68122,0,0,0,0-25.3624v-15.215a27.869,27.869,0,0,1,27.8399,27.8983c0,0.8564-.0505,1.7002-0.1259,2.5359H95.0491A72.25555,72.25555,0,0,0,134.3353,226.5551ZM27.8439,72.9516v15.215a12.68333,12.68333,0,0,0,0,25.3666v15.2153c-0.855,0-1.6968-.0505-2.5308-0.1262v50.9772c0.834-.0757,1.6758-0.1259,2.5308-0.1259v15.215a12.68122,12.68122,0,0,0,0,25.3624v15.2192H15.3629A15.41652,15.41652,0,0,1,.004,219.8789V88.3429A15.41646,15.41646,0,0,1,15.3629,72.9516h12.481Z" transform="translate(-0.004 0.00523)"/></svg>