<?xml version="1.0" encoding="utf-8"?>
<!-- Generator: Adobe Illustrator 21.1.0, SVG Export Plug-In . SVG Version: 6.00 Build 0)  -->
<svg version="1.1" id="Camada_1" xmlns="http://www.w3.org/2000/svg" xmlns:xlink="http://www.w3.org/1999/xlink" x="0px" y="0px"
	 viewBox="0 0 1000 1055" style="enable-background:new 0 0 1000 1055;" xml:space="preserve">
<title>users2</title>
<title>contract</title>
<title>users2</title>
<title>contract</title>
<path d="M498.8,1026.2c-138.8,0-277.6-0.8-416.4,0.5c-36.4,0.3-68-29-67.9-68.3c0.9-257.7,0.9-515.4,0.1-773.1
	c-0.1-38.2,30-68.9,67.2-67.5c44.8,1.6,89.7,0.2,134.5,0.5c7.7,0,10.8-1.8,10.4-10.1c-0.4-8.4,2.9-17,0.8-25.5
	C221,56,242.9,24.4,259,26c16.1,1.6,36,12,30.7,63.9c-0.9,9-4.4,20.8,2,26.5c6.2,5.5,17.7,1.8,26.9,1.8
	c126.4,0.1,252.7-0.1,379.1,0.3c10.9,0,14.8-2.8,13.3-13.6c-0.8-5.6,1.1-11.5-0.1-17.1C705,60,725,38.4,741,38
	c15.5-0.4,40,20,32,47.2c0.8,7.8,0.8,15.7,0.3,23.5c-0.5,7.5,2.3,9.7,9.7,9.6c45.2-0.3,90.4,1.1,135.6-0.5c36-1.3,67,27.3,66.9,66.8
	c-0.6,258.4-0.3,516.8-0.3,775.2c0,41.1-25.5,66.3-66.7,66.3C778.6,1026.2,638.7,1026.2,498.8,1026.2z M500,381.2
	c-136.7,0-286,6.3-422.7,6c-9.7,0,0.4-23.2,0.4-13.3C78,559.3,77.9,744.7,78,930.2c0,22.9,10.4,33.5,33.1,33.5
	c259.1,0,518.1,0,777.2,0c23.6,0,34.2-10.9,34.2-34.8c0-184.3,0-368.7,0-553c0,0,0,11.4-14.6-0.6C783,375.2,537,385.2,500,381.2z
	 M500.3,299.3c83.6,0,167.2,0,250.8,0c53.7,0,107.5,0,161.2,0c5.4,0,10.6,0.8,10.4-7.7c-0.4-27.7,0.1-55.5-0.3-83.3
	c-0.3-15.5-12.4-27.6-28.1-27.7c-37.7-0.4-75.4,0-113.1-0.3c-6.2,0-8.1,2.3-7.9,8.2c0.3,7.8,0.5,15.7-0.2,23.5
	c-1.1,12.9-8.3,21.9-20,26.6c-12,4.8-22.7,1.9-32.5-6.7c-11.9-10.6-9.6-24.4-9.7-37.7c-0.1-13.6,0-13.6-13.9-13.6
	c-131.3,0-262.6,0-393.9,0c-2.1,0-4.3,0.2-6.4,0c-5.5-0.4-7.6,2-7.5,7.5c0.2,8.9,1.1,17.8-0.6,26.6c-2.8,15.3-14.3,25.6-29.3,26.2
	c-15.3,0.7-27.8-9.1-31.8-24.5c-2.2-8.5-1.4-17-0.9-25.5c0.5-8.8-2.9-10.6-11-10.6c-35.2,0.4-70.4,0.1-105.7,0.2
	c-21.1,0.1-32.2,11.1-32.4,32.3c-0.2,24.2-0.1,48.4,0,72.6c0,13.9,0,14,13.7,14C227.7,299.3,364,299.3,500.3,299.3z"/>
<path d="M799.8,663.8c-1.1,38-2.7,73.6-14.4,107.9c-8.6,25.4-21.8,47.7-43,64.6c-25,19.9-54,26.6-85.2,25.4
	c-18.7-0.7-37.1-3.7-54.4-11.3c-30.8-13.6-48.6-38.2-58.5-69.3c-7.2-22.6-10.9-45.9-13.5-69.5c-2.9-27-2.9-54,0.1-80.9
	c3-27,7.8-53.7,17.7-79.2c14-36.1,39.3-59.7,76.7-70.9c42.2-12.6,81.7-8.8,118.6,16.1c20.4,13.8,32.1,33.8,40.3,56.3
	c8.2,22.7,12.1,46.4,13.6,70.5C798.5,637.6,799.2,651.8,799.8,663.8z M723.1,671.2c0.6-13.7-0.3-28-1.3-42.2
	c-1.4-19.9-4.3-39.6-11.9-58.3c-5.7-14-14.7-23.8-30.3-27.3c-29.3-6.4-50,4-61.4,31.6c-8.5,20.5-10.3,42.2-11.7,64
	c-1.6,24.3-0.8,48.5,1.2,72.7c1.4,17,3.8,33.8,9.9,49.8c11.9,31.6,46.7,43.4,74.3,25c12.4-8.3,18.5-20.9,22.4-34.6
	C721.7,725.7,723.9,698.8,723.1,671.2z"/>
<path d="M304.5,630.9c16.3,0.1,32.5,0,48-6.5c29.9-12.7,32.9-47.1,22.6-65.3c-6.7-11.8-18-15.9-30.7-17c-15.9-1.4-30.8,2.6-45,9.4
	c-9,4.3-17.5,9.6-26.1,14.7c-17.6,10.3-31.2,4.1-34.9-15.9c-1.4-7.5-1.1-15.1,0-22.7c1.7-12.2,8.5-20.8,18.9-27.2
	c31.1-19.2,64.5-29.6,101.2-26c26.1,2.5,51,9.2,71.2,27.3c17.3,15.6,26.8,35.3,29,58.2c2.5,26.4-1.8,51.6-16.6,74.3
	c-3.2,5-7.2,9.4-11.4,13.6c-7.4,7.3-7.1,9.7,1.7,15.8c9.4,6.4,17.7,14,24.7,23c12.4,15.9,18.2,34.2,18.2,54.2
	c0.1,24.9-5.4,48.4-19.6,69.3c-16.3,23.9-39.6,38.1-67,45.2c-46.7,12.2-92.1,7.7-136.1-12.7c-21.3-9.9-30.4-41.3-22.8-60.5
	c5.5-14,17.5-18.8,30.9-11.9c15.3,7.9,30.3,16.1,47.1,20.4c17.7,4.5,35.4,5.5,53.1,0.6c20.1-5.6,32-19.4,33.7-39.2
	c1.8-21.2-7.7-38-26.7-46.7c-13.1-6.1-27-8.8-41.4-8.7c-10.9,0-21.9,0-32.8,0c-17.6,0-27.1-7.6-29.9-24.8c-1.4-8.4-1.1-17,2.1-25.2
	c3.7-9.4,10.6-15,20.9-15.6C292.6,630.7,298.5,630.9,304.5,630.9z"/>
</svg>
