<?xml version="1.0" encoding="utf-8"?>
<!-- Generator: Adobe Illustrator 21.1.0, SVG Export Plug-In . SVG Version: 6.00 Build 0)  -->
<svg version="1.1" id="Camada_1" xmlns="http://www.w3.org/2000/svg" xmlns:xlink="http://www.w3.org/1999/xlink" x="0px" y="0px"
	 viewBox="0 0 1180 1072" style="enable-background:new 0 0 1180 1072;" xml:space="preserve">
<title>users2</title>
<title>contract</title>
<title>users2</title>
<title>contract</title>
<g>
	<path d="M275.1,473.5c3.1,0,4.8,0,6.5,0c81.3,0,162.6,0,243.9,0c1.7,0,3.5,0,5.2-0.1c0.8,0,1.2-0.6,1.3-1.3c0.1-0.5,0.1-1,0.1-1.5
		c-0.1-16.5-0.1-33.1-0.2-49.6c0-2.1-0.1-4.1-0.1-6.2c0-62.9-0.1-125.8-0.1-188.6c0-1.4,0-2.8,0-4.1c0-0.7,0.1-1.4-0.6-1.8
		c-0.8-0.5-1.3,0.3-1.7,0.7c-2.4,2.3-4.7,4.6-7,6.9c-4.7,4.9-9.9,9.1-15.6,12.8c-9.4,6.3-19.9,9.7-31.1,10.8
		c-11.9,1.2-23.1-1.5-33.6-7c-11-5.7-19.8-14-25.6-25c-6.8-12.8-9.2-26.4-6.3-41c2.9-14.4,10.1-26.2,20.4-36.4
		c28.5-28.2,57-56.4,85.4-84.7c9.8-9.7,19.5-19.6,29.2-29.5c4.5-4.6,9.5-8.5,14.8-12.1c9.1-6.2,19.2-9.6,30.1-10.5
		c13.7-1.2,26.4,2.5,38.1,9.8c6.2,3.9,11.7,8.6,16.9,13.7c34.2,34.2,68.5,68.3,102.8,102.5c3.7,3.7,7.3,7.4,11,11
		c4.3,4.3,8.1,9,11.3,14.1c7.6,12.2,11.2,25.6,9.7,40c-1.9,17.6-10,32-24.3,42.8c-12.8,9.6-27.3,13.4-43,12
		c-15.1-1.4-28.5-7-39.5-17.6c-3.8-3.7-7.6-7.5-11.4-11.3c-0.7-0.7-1.5-1.5-2.3-2.1c-0.4-0.3-1-0.1-1.2,0.5c-0.1,0.5-0.2,1-0.2,1.5
		c0,1.2,0,2.4,0,3.6c0,80.3-0.1,160.6-0.1,240.8c0,1.7,0,3.4,0.1,5.2c0.1,1.9,0.6,2.3,2.6,2.3c6.4,0,12.8,0,19.2,0
		c12.1-0.1,24.3-0.2,36.4-0.2c63.6,0,127.2-0.1,190.9-0.1c2,0,4.1,0.2,6-0.3c0.4-1.3-0.5-1.7-1-2.3c-3.8-3.8-7.6-7.6-11.4-11.3
		c-3.8-3.8-7.1-8-10-12.5c-7.6-12.1-11.2-25.2-9.6-39.4c1.7-15.9,8.9-29.1,20.7-39.9c10.6-9.7,23.3-14.7,37.5-16.1
		c3.5-0.3,6.9-0.1,10.4,0.3c15.6,1.9,28.7,8.3,39.8,19.4c15.9,15.8,32.1,31.4,48.1,47.3c23,22.9,45.9,46,68.9,68.9
		c4.5,4.5,8.9,9.2,12.4,14.6c8.8,14,12,29.1,8.7,45.5c-2.8,14-9.7,25.7-19.7,35.7c-26.9,26.8-53.9,53.6-80.8,80.4
		c-12.2,12.2-24.5,24.4-36.7,36.6c-3.7,3.7-7.6,7-12,9.9c-14.1,9.3-29.4,12.5-46.1,9.3c-3.4-0.7-6.8-1.4-10.1-2.4
		c-19.7-6.2-32.4-19.2-38-39c-1.4-4.8-2.6-9.7-3-14.7c-1.7-18.8,4.3-34.9,17.4-48.5c3.8-4,8-7.6,12-11.5c1.2-1.2,2.5-2.4,3.6-3.7
		c0.4-0.5,0.2-1-0.4-1.2c-0.5-0.1-1-0.1-1.5-0.1c-1.4,0-2.8,0-4.2,0c-79.2,0-158.4-0.1-237.7-0.1c-3.1,0-6.2-0.1-9.4,0
		c-2.9,0-3.1,0.2-3.1,3.3c0,5.5,0,11,0,16.5c0.1,11.5,0.2,23.1,0.2,34.6c0.1,63.7,0.1,127.5,0.1,191.2c0,1.4-0.1,2.8,0,4.1
		c0.1,1.3-0.6,3.3,0.6,3.8c1.7,0.8,2.4-1.4,3.5-2.4c3.1-3,6.1-6.1,9.2-9.1c11.8-11.6,26.1-18,42.5-19.7c4.9-0.5,9.7-0.1,14.5,0.7
		c13.2,2.2,24.7,7.9,34,17.5c7.8,8.1,13.4,17.5,15.9,28.6c1.1,4.7,2.2,9.4,2.2,14.3c0,16.9-5.4,31.7-17.4,43.9
		c-38.5,39-77.2,77.8-116.3,116.2c-3,2.9-5.9,5.8-8.9,8.7c-11.6,11.1-25.7,17-41.7,17.4c-12.1,0.3-23.7-2.8-34-9.6
		c-4.2-2.8-8.1-5.9-11.7-9.4c-15.6-14.7-30.5-30.1-45.7-45.2c-23.2-23.2-46-46.8-70-69.3c-2.5-2.4-5.1-4.6-7.5-7.2
		c-8.7-9.3-14.1-20.4-16.3-32.9c-3.5-20,0.9-38,14.5-53.4c7.8-8.8,17.6-15,29.3-17.8c2.7-0.6,5.4-1.5,8.1-1.8
		c16.3-2.2,31.3,1.3,44.8,10.7c4.4,3.1,8.5,6.5,12.3,10.3c3.1,3,6.1,6.1,9.2,9.2c0.6,0.6,1.1,1.6,2,1.3c1.3-0.4,0.8-1.7,0.9-2.6
		c0.1-1.5,0-3.1,0-4.6c0-73.2,0-146.4,0-219.6c0-7.6,0.1-15.2,0.1-22.7c0-1.2,0-2.4-0.1-3.6c0-0.8-0.5-1.3-1.3-1.4
		c-1.2-0.1-2.4-0.1-3.6-0.1c-82.7,0-165.4,0.1-248.1,0.1c-1.6,0-3.4-0.9-4.8,0.8c0.5,1.6,2,2.4,3.1,3.4c3.2,2.9,6.4,5.8,9.6,8.7
		c15.8,13.9,22.6,31.6,20.8,52.2c-1.8,19.7-10.6,35.8-27.2,47.3c-3.6,2.5-7.4,4.5-11.6,5.7c-8.2,2.4-16.5,4-25.1,3.8
		c-7.7-0.2-15.1-1.8-22.4-4.2c-2.8-0.9-5.4-2.4-7.8-4.1c-4.5-3.2-8.8-6.7-12.8-10.6c-30.4-30.2-60.8-60.4-91.2-90.6
		c-9.2-9.1-18.4-18.3-27.6-27.4c-4.8-4.8-8.9-10.1-12.6-15.7c-5.4-8.3-8.3-17.4-9.2-27.1c-1.2-12.6,2.1-24.3,8.5-35.1
		c3.5-5.9,7.8-11.4,12.7-16.3c39.7-39.5,79.4-78.9,119.2-118.3c6.4-6.4,13.7-11.6,22.3-14.8c6.5-2.4,13.3-3.8,20.2-4.5
		c3.6-0.4,7.3,0.1,10.9,0.6c19.3,2.8,34.3,12.3,44.9,28.5c1.9,2.9,3.5,6,4.7,9.2c6.2,16.6,5.8,33.1-0.8,49.4
		c-2.8,7-7.1,13-12.3,18.4c-3.6,3.7-7.4,7.3-11.1,10.9C278.3,470.1,277.2,471.3,275.1,473.5z"/>
</g>
</svg>
