<?xml version="1.0" encoding="utf-8"?>
<!-- Generator: Adobe Illustrator 21.1.0, SVG Export Plug-In . SVG Version: 6.00 Build 0)  -->
<svg version="1.1" id="Camada_1" xmlns="http://www.w3.org/2000/svg" xmlns:xlink="http://www.w3.org/1999/xlink" x="0px" y="0px"
	 viewBox="0 0 1120.9 912.1" style="enable-background:new 0 0 1120.9 912.1;" xml:space="preserve">
<style type="text/css">
	.st0{fill:#4D4D4D;}
</style>
<title>users2</title>
<title>contract</title>
<title>users2</title>
<title>contract</title>
<path class="st0" d="M514,38.1c87.3,0,174.7-0.2,262,0.1c64.8,0.2,119.5,41.3,141,105.3c4.1,12.1,4,11.8-7.6,11.7
	c-27.9-0.1-55.9,0.2-83.8,0.5c-4.1,0.1-7.5-0.5-10.8-3.6c-11-10.1-24.1-14-38.2-14.1c-19-0.2-38.1-0.1-57.1-0.1
	c-155.3,0-310.7,0-466,0c-5.6,0-11.3-0.2-16.8,0.7c-31.9,5-48.9,26.9-49.1,63.9c-0.3,59.3-0.4,118.6-0.4,177.9c0,59,0.1,118,0.3,177
	c0.2,43.8,21.1,66.6,61.4,66.7c130.1,0.1,260.3,0.1,390.4,0.1c13.1,0,13.1,0,13.1,14c0,26-0.2,52,0.1,77.9c0.1,6.8-1.7,9.1-8,9
	c-20.1-0.4-40.3-0.3-60.5-0.3c-20.1,0-22.5,2.7-22.2,25c0.1,4.9,0,9.8,0.3,14.7c0.6,10.5,2.6,12.9,12.3,13
	c20.4,0.3,40.9-0.2,61.3,0.5c21.2,0.7,38.1,14.7,43.6,35c9.2,33.8-11.5,64.6-44.5,65.7c-15.4,0.5-30.8,0.2-46.2,0.2
	c-70,0-139.9,0-209.9-0.1c-5,0-10.1-0.2-15-1.2c-25.2-5.1-38.9-25.2-37.3-54.1c1.4-25.2,19.5-44.4,43.7-45.4
	c19.6-0.8,39.2-0.3,58.8-0.4c14.1-0.1,16.5-2.7,16.5-18.3c0-7.3,0.1-14.7-0.3-22c-0.6-10.7-2.4-12.5-12.5-12.5
	c-31.3,0-62.7,0.2-94,0.2c-34.7,0-69.4,0.5-104.1-1.8c-75.4-5-132.7-66.2-138-148.6c-2.8-44.2-1.4-88.6-1.5-132.9
	c-0.2-78.3,0-156.5,0.3-234.8c0.4-86.2,47.9-150.3,123.2-167c10.2-2.3,20.5-3.2,30.9-2.8C337.6,40.3,425.8,38.2,514,38.1z"/>
<path class="st0" d="M840.7,209c67.4,0,120.5,0,173.5,0c55.9,0,94.4,38.4,94.6,94.4c0.1,66,0.2,132,0,198
	c-0.1,51.2-38.7,91-89.9,91.9c-39.2,0.7-78.5,0.1-117.7,0.1c-5,0-11.4-1.3-13.4,4.8c-2.4,7.2-2.1,15,0.8,22.2
	c1.1,2.8,4.7,2.3,7.3,2.3c11.6,0.1,23.3-0.2,34.9,0.2c16.2,0.6,27.5,11,28.7,25.5c1.5,18-10.6,30.8-29.5,30.9
	c-29.8,0.2-59.5,0.1-89.3,0.1c-23.3,0-46.5,0.2-69.8-0.2c-14-0.2-24.3-8.8-27-21.4c-2.9-13.5,3.1-26.4,14.9-32
	c4.7-2.2,9.7-3.2,15-3.1c11.1,0,22.2-0.1,33.3,0c6.2,0.1,8.6-2.9,9-8.8c1.1-20.1,0.8-20.5-18.9-20.5c-34.6-0.1-69.3,0.3-103.9-0.7
	c-35.9-1.1-64.1-16.2-80.8-49.3c-6.8-13.5-9.8-28.1-9.8-43.2c-0.1-66.6-0.4-133.1,0.1-199.7c0.4-53.2,41-92.6,94.2-91.8
	C749.6,209.7,802.4,209.2,840.7,209z M855.7,537.1C855.7,537.1,855.7,537.1,855.7,537.1c52.2,0.1,104.4,0.1,156.6,0.1
	c28.3,0,40.1-11.8,40.1-39.9c0-63.8,0-127.7,0-191.5c0-28.8-11.7-40.5-40.3-40.5c-104.4,0-208.8,0-313.3,0
	c-28.3,0-40.1,11.6-40.1,39.9c-0.1,63.8-0.1,127.7,0,191.5c0,28.9,11.6,40.4,40.3,40.5C751.3,537.1,803.5,537.1,855.7,537.1z"/>
</svg>
