<?xml version="1.0" encoding="utf-8"?>
<!-- Generator: Adobe Illustrator 21.1.0, SVG Export Plug-In . SVG Version: 6.00 Build 0)  -->
<svg version="1.1" id="Camada_1" xmlns="http://www.w3.org/2000/svg" xmlns:xlink="http://www.w3.org/1999/xlink" x="0px" y="0px"
	 viewBox="0 0 1000 1000" style="enable-background:new 0 0 1000 1000;" xml:space="preserve">
<title>users2</title>
<title>contract</title>
<title>users2</title>
<title>contract</title>
<path d="M460.1,951.1c-44.9,0-89.7-0.4-134.6,0.2c-21.6,0.3-36.3-10-46.2-31.9c-41.6-91.5-83.6-182.8-125.5-274.2
	c-10.7-23.3-21.6-46.5-32-70c-9.9-22.5-4.5-47.8,12.8-62.6c37-31.7,83.9-20,106.7,26.4c8.5,17.3,17.1,34.6,26,51.7
	c2.4,4.6,4.4,11.6,10.9,9c5.4-2.2,2.9-8.5,3.3-13.1c4.8-56.1-0.2-112.2,0.2-168.3c0.4-59.9-1.4-119.9,2-179.8
	c2.3-41.1,27.6-70.8,63.5-71.2c36.1-0.4,64.2,30.2,64.7,71.7c0.5,50.7,0.4,101.4,0.1,152.2c-0.1,13.7,0.6,20.6,16.3,17.1
	c31.4-7,57.6,9.3,73.7,43.3c4.2,9,8.1,12.7,17.1,10.7c30.6-7.1,53.3,7.4,69.1,36.7c5.3,9.8,10,10.8,19.5,8.7
	c40.4-8.8,75.7,25.2,76.5,72.4c1.6,92.1,2.1,184.1-6.9,275.9c-6.4,65.2-35.1,95.1-91.8,95C543.6,951.1,501.8,951.1,460.1,951.1z
	 M321.1,420.2c-0.2,0-0.3,0-0.5,0c0,59.3-0.2,118.5,0.1,177.8c0.1,22.6-8.8,38.6-26.4,47.1c-17.6,8.5-36.6,1.1-49.7-17.7
	c-11.3-16.2-20-34.3-28.3-52.7c-4.5-10.1-8.8-20.7-16.7-28.1c-12.1-11.2-25.8-11.3-38.2-2.3c-14.6,10.5-1.8,21.7,2.4,30.9
	c47.5,104.1,95.8,207.8,143.3,311.9c6.2,13.6,13,19.6,27.1,19.5c87.2-0.8,174.4-0.4,261.6-0.4c25.5,0,36.5-9.9,41.4-38.2
	c7.2-42.1,7.2-85.1,9.1-127.7c2.4-55.6,3.7-111.3-1-166.9c-1.5-18.1-13.1-24.5-26.2-23.9c-13.8,0.6-23,9.9-22.1,28
	c0.3,6.4,0.2,12.9-0.1,19.3c-0.7,15.2-6.6,27.9-20.8,27.1c-12.7-0.7-18.5-12-18.2-27.3c0.5-20.7,0.1-41.4,0-62.1
	c-0.1-18.8-7.7-29.4-24.9-29.7c-16.2-0.3-24.4,9-25,29c-0.3,9.3-0.5,18.6-0.2,27.8c0.4,16.1-6.3,27.9-19.9,27.6
	c-13.5-0.3-19.6-12-19.2-28.4c0.6-25.7,0-51.4,0-77.1c0-22-9.6-33.7-27.9-34c-17.4-0.3-26.4,10.5-26.8,32.1
	c-0.3,16.4,0.3,32.9-0.9,49.2c-0.8,10.3-5.4,19.2-15.7,21.1c-7.9,1.5-14.8-0.2-19.5-8.7c-4.4-7.8-3.1-16.6-3.1-25
	c-0.1-90.7,0-181.4-0.1-272.1c0-23.3-9.2-35.9-25.9-36.4c-17.3-0.5-27.6,12.8-27.7,36.7C321,304.5,321.1,362.4,321.1,420.2z"/>
<path d="M698.6,28.7c115.4-0.1,212.2,93.1,212.5,204.9c0.4,112-95.9,206.4-210.9,206.6c-116.8,0.3-213.7-93.2-213.5-206
	C487,122.1,583.1,28.9,698.6,28.7z M537.8,231.3c-2,86.4,67.8,156.8,158.5,159.8C783,394,857.2,324.8,860,238.6
	c2.8-86.9-68.8-159.1-159.6-160.9C613.3,76,539.8,145.4,537.8,231.3z"/>
<path d="M790.6,290.2c-10.9,10.2-20.5,20.9-31.8,29.2c-8.4,6.1-11.6-5-16.6-8.9c-15.5-12.1-26.8-38-44.2-36.4
	c-15.1,1.3-29.4,22.8-42.2,36.9c-20.9,23.1-26-4.4-37.2-10.9c-15-8.7-6-16.2,2.1-24.1c13.7-13.3,36.2-26.5,37.5-41.3
	c1.4-15.6-23.8-27.3-36.8-41.2c-7.1-7.6-19.1-14.4-3.3-24.1c11.6-7.2,17.8-35.2,38.7-10.3c9.6,11.4,21.8,20.6,31.9,31.6
	c7.7,8.4,13.5,7.8,20.7-0.4c7.1-8,15.2-15,22.9-22.5c23.9-23.1,33-21.7,52.6,6c5,7.1,1.5,9.9-2.7,13.9c-12.3,11.9-24.1,24.3-37,35.6
	c-9,7.9-10,13.6-0.4,21.8c12.4,10.7,23.7,22.7,35.4,34.2C783.3,282.3,786.1,285.4,790.6,290.2z"/>
</svg>
