<?xml version="1.0" encoding="utf-8"?>
<!-- Generator: Adobe Illustrator 19.2.1, SVG Export Plug-In . SVG Version: 6.00 Build 0)  -->
<svg version="1.0" id="Camada_1" xmlns="http://www.w3.org/2000/svg" xmlns:xlink="http://www.w3.org/1999/xlink" x="0px" y="0px"
	 viewBox="0 0 218.6 237.3" style="enable-background:new 0 0 218.6 237.3;" xml:space="preserve">
<style type="text/css">
	.st0{fill:#4D4D4D;}
</style>
<g id="Camada_x0020_1">
	<path class="st0" d="M191.9,191.2c0.4,0.2,0.7,0.6,0.6,1.1c0,0.5-0.4,1.4-1.1,2.7c-0.7,1.3-1.3,2-1.8,2.3c-0.5,0.3-0.9,0.3-1.3,0
		l-10.1-7.3l1.3,12.4c0.1,0.5-0.1,0.8-0.6,1.1c-0.5,0.3-1.5,0.4-2.9,0.4c-1.4,0-2.4-0.1-2.9-0.4c-0.5-0.3-0.7-0.6-0.6-1.1l1.3-12.4
		l-10,7.3c-0.4,0.3-0.8,0.3-1.3,0c-0.5-0.3-1.1-1-1.8-2.3c-0.7-1.2-1.1-2.1-1.1-2.7c0-0.6,0.2-0.9,0.7-1.1l11.4-5l-11.4-5
		c-0.5-0.2-0.7-0.6-0.7-1.1c0-0.6,0.4-1.4,1.1-2.7c0.7-1.2,1.3-2,1.8-2.3c0.5-0.3,0.9-0.3,1.3,0l10,7.3l-1.3-12.3
		c-0.1-0.5,0.1-0.9,0.6-1.2c0.5-0.2,1.5-0.4,2.9-0.4c1.4,0,2.4,0.1,2.9,0.4c0.5,0.3,0.7,0.7,0.6,1.2l-1.3,12.3l10.1-7.3
		c0.4-0.3,0.8-0.3,1.3,0c0.5,0.3,1,1,1.8,2.3c0.7,1.2,1.1,2.1,1.1,2.6c0.1,0.5-0.2,0.9-0.6,1.1l-11.4,5L191.9,191.2L191.9,191.2z
		 M147.4,191.2c0.4,0.2,0.7,0.6,0.6,1.1c0,0.5-0.4,1.4-1.1,2.7c-0.7,1.3-1.3,2-1.8,2.3c-0.5,0.3-0.9,0.3-1.3,0l-10.1-7.3l1.3,12.4
		c0.1,0.5-0.1,0.8-0.6,1.1c-0.5,0.3-1.5,0.4-2.9,0.4c-1.4,0-2.4-0.1-2.9-0.4c-0.5-0.3-0.7-0.6-0.6-1.1l1.3-12.4l-10,7.3
		c-0.4,0.3-0.8,0.3-1.2,0c-0.5-0.3-1.1-1-1.8-2.3c-0.7-1.2-1.1-2.1-1.1-2.7c0-0.6,0.2-0.9,0.7-1.1l11.4-5l-11.4-5
		c-0.5-0.2-0.7-0.6-0.7-1.1c0-0.6,0.4-1.4,1.1-2.7c0.7-1.2,1.3-2,1.8-2.3c0.5-0.3,0.9-0.3,1.2,0l10,7.3L128,170
		c-0.1-0.5,0.1-0.9,0.6-1.2c0.5-0.2,1.5-0.4,2.9-0.4s2.4,0.1,2.9,0.4c0.5,0.3,0.7,0.7,0.6,1.2l-1.3,12.3l10.1-7.3
		c0.4-0.3,0.8-0.3,1.3,0c0.5,0.3,1,1,1.8,2.3c0.7,1.2,1.1,2.1,1.1,2.6c0.1,0.5-0.2,0.9-0.6,1.1l-11.4,5L147.4,191.2L147.4,191.2z
		 M102.9,191.2c0.4,0.2,0.7,0.6,0.6,1.1c0,0.5-0.4,1.4-1.1,2.7c-0.7,1.3-1.3,2-1.8,2.3c-0.5,0.3-0.9,0.3-1.2,0L89.2,190l1.3,12.4
		c0.1,0.5-0.1,0.8-0.6,1.1c-0.5,0.3-1.5,0.4-2.9,0.4s-2.4-0.1-2.9-0.4c-0.5-0.3-0.7-0.6-0.6-1.1l1.3-12.4l-10,7.3
		c-0.4,0.3-0.8,0.3-1.2,0c-0.5-0.3-1.1-1-1.8-2.3c-0.7-1.2-1.1-2.1-1.1-2.7c0-0.6,0.2-0.9,0.7-1.1l11.4-5l-11.4-5
		c-0.4-0.2-0.7-0.6-0.7-1.1c0-0.6,0.4-1.4,1.1-2.7c0.7-1.2,1.3-2,1.8-2.3c0.5-0.3,0.9-0.3,1.2,0l10,7.3L83.5,170
		c-0.1-0.5,0.1-0.9,0.6-1.2c0.5-0.2,1.5-0.4,2.9-0.4s2.4,0.1,2.9,0.4c0.5,0.3,0.7,0.7,0.6,1.2l-1.3,12.3l10.1-7.3
		c0.4-0.3,0.8-0.3,1.2,0c0.5,0.3,1,1,1.8,2.3c0.7,1.2,1.1,2.1,1.1,2.6c0.1,0.5-0.2,0.9-0.6,1.1l-11.4,5L102.9,191.2L102.9,191.2z
		 M58.3,191.2c0.4,0.2,0.7,0.6,0.6,1.1c0,0.5-0.4,1.4-1.1,2.7c-0.7,1.3-1.3,2-1.8,2.3c-0.5,0.3-0.9,0.3-1.3,0L44.7,190l1.3,12.4
		c0.1,0.5-0.1,0.8-0.6,1.1c-0.5,0.3-1.5,0.4-2.9,0.4c-1.4,0-2.4-0.1-2.9-0.4c-0.5-0.3-0.7-0.6-0.6-1.1l1.3-12.4l-10,7.3
		c-0.4,0.3-0.8,0.3-1.3,0c-0.5-0.3-1.1-1-1.8-2.3c-0.7-1.2-1.1-2.1-1.1-2.7c0-0.6,0.2-0.9,0.7-1.1l11.4-5l-11.4-5
		c-0.4-0.2-0.7-0.6-0.7-1.1c0-0.6,0.4-1.4,1.1-2.7c0.7-1.2,1.3-2,1.8-2.3c0.5-0.3,0.9-0.3,1.3,0l10,7.3L38.9,170
		c-0.1-0.5,0.1-0.9,0.6-1.2c0.5-0.2,1.5-0.4,2.9-0.4c1.4,0,2.4,0.1,2.9,0.4c0.5,0.3,0.7,0.7,0.6,1.2l-1.3,12.3l10.1-7.3
		c0.4-0.3,0.8-0.3,1.3,0c0.5,0.3,1,1,1.8,2.3c0.7,1.2,1.1,2.1,1.1,2.6c0.1,0.5-0.2,0.9-0.6,1.1l-11.4,5L58.3,191.2L58.3,191.2z
		 M17.8,135h183c4.9,0,9.4,2,12.6,5.2v0c3.2,3.2,5.2,7.7,5.2,12.6v66.7c0,4.9-2,9.3-5.2,12.6l0,0c-3.2,3.2-7.7,5.2-12.6,5.2h-183
		c-4.9,0-9.3-2-12.6-5.2h0C2,228.8,0,224.4,0,219.5v-66.7c0-4.9,2-9.4,5.2-12.6C8.4,137,12.9,135,17.8,135z M200.8,148.6h-183
		c-1.2,0-2.2,0.5-3,1.2c-0.8,0.8-1.2,1.8-1.2,3v66.7c0,1.2,0.5,2.2,1.2,3l0,0c0.8,0.8,1.9,1.2,3,1.2h183c1.2,0,2.3-0.5,3-1.2l0,0
		c0.8-0.8,1.2-1.8,1.2-3v-66.7c0-1.2-0.5-2.3-1.2-3l0,0C203,149.1,201.9,148.6,200.8,148.6L200.8,148.6z M75.1,78.1
		c-2-0.4-3.2-1.4-3.5-2.6c-0.3-1.4,0.9-3,3.6-4.6c8.6-5,14.3-14.5,14.3-25.2c0-16.2-13.1-29.4-29.3-29.4C43.5,16.4,30,28.8,30,45.7
		c0,10.7,5.7,20.2,14.3,25.2c2.7,1.6,3.9,3.2,3.6,4.6c-0.3,1.2-1.6,2.2-3.5,2.6c-11.2,2.6-30.1,15-29.2,27.8
		c-0.7,12.9,31,18.2,56.7,15.9c5.4-11.2,16.2-21.1,27.7-28C93.5,86,82.5,79.9,75.1,78.1L75.1,78.1z M172.2,95.4
		c-3-0.7-4.9-2.2-5.4-4c-0.5-2.2,1.4-4.7,5.6-7.1c13.3-7.8,22.1-22.4,22.1-38.9c0-25.1-20.3-45.4-45.4-45.4
		c-25.8,0-46.6,19.2-46.6,45.4c0,16.6,8.8,31.2,22.1,38.9c4.2,2.5,6.1,4.9,5.6,7.1c-0.5,1.8-2.4,3.3-5.4,4
		c-13.5,3.1-34.4,15.6-42.1,30.4h119.3c4.8,0,9.1,1.9,12.2,4.9v0c1.1,1.1,2.1,2.3,2.9,3.7C214.8,116.1,188.3,99.1,172.2,95.4
		L172.2,95.4z"/>
</g>
</svg>
