<?xml version="1.0" encoding="utf-8"?>
<!-- Generator: Adobe Illustrator 21.1.0, SVG Export Plug-In . SVG Version: 6.00 Build 0)  -->
<svg version="1.1" id="Camada_1" xmlns="http://www.w3.org/2000/svg" xmlns:xlink="http://www.w3.org/1999/xlink" x="0px" y="0px"
	 viewBox="0 0 1000 1000" style="enable-background:new 0 0 1000 1000;" xml:space="preserve">
<title>users2</title>
<title>contract</title>
<title>users2</title>
<title>contract</title>
<g>
	<path d="M28.4,533.7c0-76.6-0.1-153.1,0.1-229.7c0.1-47.6,28.7-76.5,75.9-78.2c21.5-0.8,47.8,8.6,63.1-3.9
		c15.1-12.4,12.2-39.9,17.7-60.7c13.3-50.4,46.2-70.3,97.4-58.6c173.9,39.8,347.8,79.2,521.6,119.3c30,6.9,60,3.3,90.1,3.8
		c54.7,0.9,79.2,22.9,81.9,76.8c7.6,149.9,1.7,299.9,2.9,449.8c0.1,15.8-3.8,32.4-9.1,47.4c-6.4,18.2-20.1,31.2-39.8,35.4
		c-8.2,1.8-16.8,2.5-25.3,2.6c-265.2,4.6-530.3,3.3-795.5,3.3c-52,0-80.6-28.4-80.9-80.1C28.1,685.3,28.4,609.5,28.4,533.7z
		 M503.6,267.8c-130.6,0-261.3-0.1-391.9,0c-33,0-41.5,8.5-41.5,40.8c-0.1,150-0.1,299.9,0,449.9c0,32.3,8.5,40.7,41.6,40.7
		c260.5,0.1,521,0,781.5-0.1c36.4,0,44.4-8.2,44.4-45.4c0.1-146.9,0.1-293.7,0-440.6c0-37.7-8.1-45.3-46.8-45.3
		C761.8,267.9,632.7,267.9,503.6,267.8z M613,225.9c-0.1-1.7-0.3-3.3-0.4-5c-107.3-24.7-214.5-49.5-321.8-74.1
		c-53.9-12.4-57.3-10.1-70,44.7c-0.3,1.5-0.7,3-1,4.5c-6.7,29.8-6.7,29.8,23,29.8c110.4,0,220.8,0,331.2,0
		C586.9,225.9,599.9,225.9,613,225.9z"/>
	<path d="M240.9,520.8c3.6,3.3,7.1,6.3,10.4,9.6c14.3,14.1,29.3,27.6,42.6,42.6c10,11.2,16.2,9.1,25.8-0.7
		c45.9-47,92.8-92.9,138.4-140.1c11.3-11.6,17.9-12.6,28.8-0.1c9.5,10.9,19.2,16.8,3.2,32.3c-57.1,55.4-112.6,112.4-168,169.5
		c-11.4,11.8-18.1,14.7-30.5,0.9c-22.7-25.3-47.7-48.4-71.4-72.8c-4.2-4.3-14.2-8.3-6.8-16.5C221.6,536.5,228.9,526.3,240.9,520.8z"
		/>
	<path d="M701.9,735.8c0-5.4-0.5-10.8,0.1-16.1c1.3-12.2,8.4-20.8,20.4-20.9c12.1-0.1,19.5,8.5,20.6,20.6c0.9,9.1,0.2,18.4,0.3,27.6
		c0.1,14.2-6,25.1-20.6,25.3c-14.8,0.2-20.8-10.8-20.9-25C701.8,743.5,701.8,739.7,701.9,735.8C701.8,735.8,701.8,735.8,701.9,735.8
		z"/>
	<path d="M743.2,433.3c0,5.4,0.5,10.9-0.1,16.2c-1.4,12.5-8.9,20.5-21.2,20.2c-10.9-0.3-18.6-8.1-19.7-19.4
		c-1-10.7-0.5-21.6-0.2-32.5c0.4-13.7,7.2-22.3,21.4-21.9c12.9,0.3,19.3,8.5,19.8,21.1C743.4,422.4,743.2,427.9,743.2,433.3z"/>
	<path d="M743.3,641c-0.1,1.2,0.8,8.4-1,15c-2.7,9.6-9.6,16-20.4,15.5c-10.4-0.5-18-5.9-19.2-16.6c-1.2-10.7-0.9-21.6-0.9-32.4
		c-0.1-14.5,7.1-25.2,21.5-24.8c14.4,0.4,20.8,11.5,20.1,26C743.1,627.5,743.3,631.3,743.3,641z"/>
	<path d="M743.2,331.1c0,5.4,0.4,10.8-0.1,16.1c-1.2,12.2-8.2,20.8-20.2,21.1c-12.2,0.3-19.6-8.4-20.8-20.4
		c-1-9.1-0.3-18.4-0.3-27.6c-0.1-14.1,5.7-25.2,20.5-25.4c14.8-0.2,20.8,10.8,21.2,24.8c0.1,3.8,0,7.7,0,11.5
		C743.4,331.1,743.3,331.1,743.2,331.1z"/>
	<path d="M742.8,535.5c0,6.1,0.8,12.4-0.2,18.4c-1.8,10.3-9,16.5-19.1,16.9c-11.1,0.4-19.8-5.9-21-17.2c-1.4-12.9-1.2-26.1-0.2-39
		c0.9-11.6,9.5-18.1,20.4-18.1c10.9,0,18.8,6.8,20.1,18.3c0.8,6.8,0.1,13.8,0.1,20.7C743,535.5,742.9,535.5,742.8,535.5z"/>
</g>
</svg>
