<?xml version="1.0" encoding="utf-8"?>
<!-- Generator: Adobe Illustrator 21.1.0, SVG Export Plug-In . SVG Version: 6.00 Build 0)  -->
<svg version="1.1" id="Camada_1" xmlns="http://www.w3.org/2000/svg" xmlns:xlink="http://www.w3.org/1999/xlink" x="0px" y="0px"
	 viewBox="0 0 1000 873" style="enable-background:new 0 0 1000 873;" xml:space="preserve">
<g>
	<path d="M496.3,848c-151.2,0-301.1-1-452.3-1c-4.8,0-13.3,1-18,0c-14.5-3.1-19.9,1.2-19.4-12.2C7.4,814.4,5.2,794,9,773.7
		c5-27,17.7-50.4,40-69.5c11.3-9.7,24.6-16.9,37.8-24.4c29.8-16.8,59.7-33.4,89.6-50.1c16.6-9.3,21.7-23.4,21.2-39.9
		c-0.3-9.9-5.5-17.8-12.2-25.3c-17.6-19.5-32-40.8-40.8-64.7c-2.6-6.9-6.9-12.9-12.3-18.4c-10-10.4-14-22.8-14.2-36.2
		c-0.3-17.8-0.1-35.6,0-53.5c0-6.5,1.7-12.6,6.1-18c6.7-8.4,9.2-18,9.5-28.1c0.2-7.6,0-15.2-0.4-22.8c-2.4-43,10.9-81.5,43.3-114
		c22.6-22.7,51.3-36.1,84.1-43.9c47.8-11.3,94.7-8.7,141.2,5.2c3.9,1.2,5.1,0.5,6.1-2.9c7.2-24.8,21.1-46.3,42.2-63.8
		c20.7-17.2,45.5-28.1,73-34.2c31.9-7,64.2-11.2,97.1-10.2c38,1.1,74.6,8.1,108.7,23.5c45.9,20.7,72.7,53.9,80.3,99.4
		c3.5,21,2.8,42.1,2.1,63.1c-0.7,19.5,2,38.4,9,57c10.7,28.4,10.5,57.5,4.8,86.7c-1.1,5.5-2.3,11-3.5,16.4
		c-2.8,12.6-10.5,22-22.8,28.7c-8,4.4-12.9,11.1-16.5,18.6c-4.6,9.6-9,19.3-13.7,28.9c-6.6,13.7-15.6,26.1-26.3,37.6
		c-6.5,7-10,15.1-10.6,24.3c-0.9,14.2,1.5,28.2,3,42.3c0.4,4.1,4.2,6.6,7.7,8.8c3.2,2,6.8,3.7,10.3,5.2
		c46.5,20.7,93.1,41.1,139.4,62c34.6,15.6,62.5,37.6,78.6,69.7c10.9,21.8,15.1,44.9,14.5,68.8c-0.3,10.6-0.4,21.2,0.5,31.8
		c1.2,13.1-5.9,13.8-21.8,16.2c-5.2,0.8-12.8,0-18,0c-45.1,0-86.9,0-132,0C708.6,848.1,601.8,848,496.3,848L496.3,848z M606.5,806.1
		L606.5,806.1c81.3-0.1,162.7-0.1,244-0.1c23.2,0,46.5,0,69.7,0.2c3.3,0,4.7-0.7,4.5-3.8c-0.3-3.9,0-7.9-0.2-11.8
		c-1.4-29.7-15-53.7-42.3-71.1c-10.9-6.9-23.1-11.6-35-16.8c-39.6-17-78.3-35.5-118.1-52.3c-14.3-6-26.9-14.5-37-25.6
		C675,606,669.8,584.1,671,560.6c0.4-8.7,0.6-17.4,0-26.1c-0.9-12.6,2.5-23.9,11.6-33.8c10.1-11,18.9-22.7,26.6-35.1
		c9.8-15.6,16.9-32.2,23.9-48.9c4.5-10.6,12.3-18.8,24.6-22.8c3.9-1.2,5.6-3.3,6.4-6.6c1.9-8.8,3.7-17.7,4.3-26.6
		c1-13.9,0.5-27.7-6.1-40.8c-6.6-13.4-10.3-27.6-11.3-42.2c-1.2-17.9-0.3-35.9-0.3-53.8c0-13.5,0.8-27-3-40.2
		c-9.2-31.7-32.1-52-67.3-60.8c-48.1-12-96.6-11.9-144.9-0.7c-21.2,4.9-39.4,14.6-53,30.3c-14.6,16.9-20.2,36.1-19.7,57.2
		c0.6,24.9,0.4,49.8,0.4,74.7c0,13.5-3.1,26.2-13.4,36.8c-1.3,1.3-1.9,2.7-1.9,4.5c-0.1,19.6-0.2,39.2-0.2,58.8
		c0,1.8,0.4,3.4,2.2,4.7c9.7,6.8,15.7,15.8,19.5,26.1c3.2,8.7,5.9,17.4,9.1,26.1c5.4,14.4,12.1,28.1,23.4,39.8
		c10.5,10.9,16.7,23.8,20.4,37.9c4.5,17.3,4.9,34.8,4.2,52.3c-1.4,33.6-18.4,59-51.8,75c-42,20.2-83.4,41.5-126,60.8
		c-20.1,9.2-36.6,22-47.5,40c-10.2,16.8-13,34.9-12.6,53.7c0.1,4.1,1.2,5.4,6.1,5.4C398.6,806,502.6,806.1,606.5,806.1z M147.8,806
		C147.8,805.9,147.8,805.9,147.8,806c24.8-0.1,49.5,0,74.3-0.1c7,0,6.5,1.1,6.3-5.6c-0.4-13.4,0.7-26.6,3.5-39.8
		c5.5-25.4,17.6-47.9,37.4-67c15.8-15.3,34.9-26.7,55.3-36.5c40.4-19.4,80.8-38.9,121.2-58.4c11.8-5.7,18.8-14.7,19.9-26.6
		c0.9-9.3,0.5-18.7-0.4-28.1c-1.1-11-5.1-21.2-12.4-29.8c-14.5-17.1-23.7-36.3-32.1-56.1c-6.9-16.1-13.7-32.3-25.2-46.5
		c-5.6-6.9-8.1-14.7-8.5-22.9c-0.8-17.1-1.2-34.3-1.2-51.4c0-18.6,4.1-36.5,15.6-52.4c0.9-1.2,1-2.5,1-3.9c0-15.8,0-31.6,0.2-47.3
		c0-2.6-1-4-3.5-5.1c-11.2-5-22.8-9.3-35-11.8c-23.8-4.9-47.9-5.1-72-2.2c-31.6,3.8-58.2,15.9-77.6,39c-16,19-22.1,40.6-20.2,64.1
		c1.1,13.7,0.3,27.5,0.4,41.2c0.1,10.4-1.4,21.1-9.2,29.3c-5.7,6-7.2,12.1-6.9,19.6c0.4,8.9-0.7,17.9-0.8,26.9
		c-0.1,8.6,3.1,16,10.6,21.7c4.6,3.5,7.2,7.8,8.6,13.1c6.7,24.1,19.3,45.3,38.5,63.5c15.3,14.5,23.5,31.6,22,51.8
		c-0.4,5.6-0.5,11.1-0.5,16.7c0.4,30.1-12.2,54.5-41.1,70.8c-32.2,18.2-64.7,36-96.9,54.2c-11.9,6.7-24,13.1-32.9,23.1
		c-13.9,15.5-18.5,33.6-18.5,53c0,3.2,1.3,3.7,4.5,3.7C97.3,805.9,122.5,806,147.8,806z"/>
</g>
</svg>
