<?xml version="1.0" encoding="utf-8"?>
<!-- Generator: Adobe Illustrator 21.1.0, SVG Export Plug-In . SVG Version: 6.00 Build 0)  -->
<svg version="1.1" id="Camada_1" xmlns="http://www.w3.org/2000/svg" xmlns:xlink="http://www.w3.org/1999/xlink" x="0px" y="0px"
	 viewBox="0 0 1000 1000" style="enable-background:new 0 0 1000 1000;" xml:space="preserve">
<title>users2</title>
<title>contract</title>
<title>users2</title>
<title>contract</title>
<g>
	<path d="M136.6,946.3c-5-6.4-13-5.8-19.5-8.1C52,915.8,7.7,848.3,14.6,780.2c2-20.2,11.2-36.9,26.5-50.9
		c87.9-80.9,184.2-151.5,276.8-226.7c3.4-2.8,7-5.2,10.2-8.2c2.9-2.8,8.1-5,5.8-10.2c-1.9-4.5-6.3-5.7-11.1-4.6
		c-28,6.6-46.9-8-64.8-26.8c-21.5-22.7-44.4-44.1-66.2-66.6c-27.4-28.2-27.1-56,0.5-83.7c74.4-74.8,148.8-149.6,223.3-224.3
		c32.2-32.3,58.2-32.4,90.1-0.7c24.3,24.1,48.3,48.5,72.5,72.6c13,12.9,21.2,27.9,18.9,46.7c-1.2,9.4,3.4,14.9,9.3,20.7
		c45.9,45.7,91.7,91.5,137.3,137.4c6.1,6.1,12,9.2,20.9,8.3c17.9-1.8,32.2,5.9,44.6,18.6c24.9,25.5,50.5,50.3,75.5,75.8
		c27.8,28.3,27.7,55.9,0.2,83.6C810.7,616,736.3,690.8,661.8,765.5c-32.6,32.6-57.6,32.8-89.8,0.8c-24.8-24.6-49.2-49.6-74.2-74
		c-13.4-13.1-19.7-28.5-17.9-47.1c0.6-6.4,4.2-14.3-3.9-17.2c-7.9-2.8-10.6,6.1-14.4,10.8C389.2,727.1,316.8,815.4,245,904.2
		c-15.3,19-31.9,35.2-55.9,42.1C171.6,946.3,154.1,946.3,136.6,946.3z M325.7,428.4c28.5-6.9,39.4,17.4,55.1,32.1
		c16.2,15.1,14.1,42.7-3.2,56.9c-96.1,79.1-192.2,158.1-288.4,237.1c-30,24.7-33.3,36.7-19.8,73.1c7,18.9,18.1,34.8,33.2,47.8
		c36.6,31.6,76.7,28.8,106.7-7.8c77.6-94.5,155.1-189.1,232.7-283.6c4-4.9,6.9-11.1,13.8-13.3c27.9-8.8,78,24.4,75.3,53.3
		c-2.4,25.8,7.4,41.7,25.3,57.3c17,14.7,32.5,31.3,47.9,47.8c8.2,8.7,13.7,9.7,22.7,0.5c72.6-73.6,145.6-146.8,218.9-219.7
		c9.3-9.3,7.4-14.7-0.9-22.7c-21-20.1-41.9-40.5-61.7-61.9c-9.3-10-19.1-15.1-32.5-12.8c-13.7,2.4-22.9-4.2-32.2-13.6
		c-50.6-51.3-101.4-102.5-153-152.8c-12.3-12-20.8-23.7-17.8-41.5c1.8-10.3-3-17.7-10.3-24.8c-22-21.2-43.9-42.6-64.8-64.9
		c-9.1-9.7-14.6-10.1-24.2-0.3c-72,73.2-144.4,145.9-217.2,218.3c-9.3,9.3-7.7,14.5,0.8,22.6c20,19.1,39.8,38.4,58.6,58.8
		C300.7,425,309.7,434.4,325.7,428.4z"/>
	<path d="M569.2,946.3c2.6-48.8,2.6-48.8,51.3-48.8c114.7,0,229.4-0.1,344.1,0.1c33.3,0.1,27.8-4.2,28.4,29.1c0.1,6.5,0,13.1,0,19.6
		C851.7,946.3,710.4,946.3,569.2,946.3z"/>
</g>
</svg>
