<?xml version="1.0" encoding="utf-8"?>
<!-- Generator: Adobe Illustrator 21.1.0, SVG Export Plug-In . SVG Version: 6.00 Build 0)  -->
<svg version="1.1" id="Camada_1" xmlns="http://www.w3.org/2000/svg" xmlns:xlink="http://www.w3.org/1999/xlink" x="0px" y="0px"
	 viewBox="0 0 767 595" style="enable-background:new 0 0 767 595;" xml:space="preserve">
<g>
	<path d="M379.3,548c-88.5,0-176.9,0-265.4,0c-12.4,0-24.4-1.7-35.4-7.5c-15.5-8.3-22.3-22-24.5-38.4c-0.7-5.4-0.9-10.8-0.9-16.3
		c0-117.4,0-234.7,0-352.1c0-11.9,1.7-23.5,7.8-34c8.5-14.8,22.5-21.4,39.1-23.8c4.8-0.7,9.6-0.9,14.4-0.9c176.8,0,353.6,0,530.4,0
		c8.2,0,16.3,0.8,24.1,2.9c20.6,5.6,33.4,20.8,36.2,42.6c0.6,4.7,1,9.3,1,14.1c0,118.5,0,237.1,0,355.6c0,11.6-1.9,22.9-7.8,33.1
		c-8.6,14.8-22.5,21.5-39.1,23.8c-5.2,0.7-10.5,0.9-15.8,0.9C555.3,548,467.3,548,379.3,548z M379.5,512.6c87.1,0,174.2,0,261.3,0
		c5.1,0,10.2-0.3,15.3-0.9c7.5-0.9,11.3-4.4,12.8-11.5c0.7-3.5,0.9-7,0.9-10.5c0-118.8,0-237.6,0-356.5c0-3.5-0.2-7-0.9-10.5
		c-1.5-6.9-5.2-10.6-12.4-11.4c-4.8-0.5-9.6-0.9-14.4-0.9c-175.1,0-350.3,0-525.4,0c-4.7,0-9.3,0.4-14,0.8
		c-7.5,0.8-11.2,4.3-12.8,11.5c-0.9,4.2-0.9,8.5-0.9,12.7c0,117.3,0,234.7,0,352c0,4.3,0,8.5,0.9,12.7c1.6,7.1,5.4,10.6,12.8,11.5
		c4.9,0.6,9.9,0.8,14.9,0.8C205,512.6,292.2,512.6,379.5,512.6z"/>
</g>
<g>
	<path d="M521.8,207.1c35.3,0,70.6,0,105.9,0c3.5,0,7,0.1,10.4,1c4.7,1.3,7,4.7,6.9,9.8c-0.1,4.8-2.6,8-7.2,9.2
		c-3.1,0.8-6.3,1-9.5,1c-71.3,0-142.6,0-214,0c-2.3,0-4.6-0.1-6.9-0.8c-5.3-1.4-7.6-4.3-7.6-9.7c0-5.5,2.4-8.6,7.8-10
		c2.4-0.6,4.9-0.5,7.4-0.5C450.7,207.1,486.2,207.1,521.8,207.1z"/>
</g>
<g>
	<path d="M522,255.2c25,0,50.1,0,75.1,0c2.5,0,5,0.1,7.4,1.1c3.3,1.4,5,5.1,4.9,10.5c-0.1,5.1-1.8,8.6-5.1,9.9c-2.2,0.9-4.5,1-6.7,1
		c-50.6,0-101.1,0-151.7,0c-1.7,0-3.3-0.2-4.9-0.8c-2.9-1.2-4.5-3.3-5.1-6.8c-1.2-6.9,2.1-13.9,6.7-14.8c1.3-0.2,2.5-0.2,3.8-0.2
		C471.5,255.2,496.8,255.2,522,255.2z"/>
</g>
<g>
	<path d="M292,470.2c-36.4-0.7-72.8-2-108.5-10.5c-7.8-1.9-15.6-4-22.5-8.3c-7.9-4.9-12.2-11.7-12-21.4c0.4-13.9,1.2-27.6,11.3-38.8
		c5.9-6.5,13-11.3,20.9-14.9c15.4-6.9,30.7-13.9,46.4-20.1c11.1-4.4,13.6-12.2,7.6-22.6c-5.7-10.1-11.4-20.4-17.8-29.9
		c-4.7-7-7.7-13.7-9-21.6c-1.6-9.7-1-19.1,3.7-28c1.8-3.4,2.1-6.9,2.1-10.6c0.1-8.6-0.8-17.3,0.7-25.8c3.1-17.9,14.2-29.8,30.5-35.9
		c31.3-11.7,63.1-12.1,94.3,0.4c21.9,8.7,31.4,24.4,31,48.1c-0.2,10.2,0.4,20,4.1,29.9c4.5,11.9,2.5,24.2-2,35.9
		c-1.1,2.8-2.9,5-5.6,6.3c-5,2.4-7.8,6.5-10.1,11.3c-3.1,6.4-6.9,12.2-12.1,17.3c-7.9,7.9-4.9,20.9,5.4,25
		c17.1,6.8,34.2,13.6,51.2,20.5c26.1,10.6,37.5,31.4,33,59.2c-1.5,9.4-7.2,14.9-15.5,18.3c-13,5.4-26.7,8.1-40.6,10.2
		c-9.8,1.5-19.8,2.6-29.7,3.4C329.9,469.1,311,470.4,292,470.2z M287.3,446.1c21.7,0.6,45.5,0,69.1-2.6c15.2-1.7,30.4-3.9,45.2-8.1
		c4.4-1.3,6.5-3.5,6.6-8.5c0.4-15.5-4.8-24-19.2-29.9c-17.4-7.1-34.6-14.5-52.2-21c-24.4-8.9-24.8-28-22-48.6
		c0.3-1.9,1.7-3.4,3.1-4.7c8-7.6,14-16.7,18.5-26.8c1.5-3.4,3.2-7.1,6.8-8.1c5.9-1.7,6.4-5.6,5.9-10.5c-0.5-4.5,1.7-9.5-1.3-13.4
		c-3.7-4.8-4.6-9.9-4.5-15.6c0.1-6.9,0.1-13.8,0.1-20.7c0-12.8-5.3-21.5-17.4-25.5c-22.3-7.4-45-7.3-67.3-0.1
		c-12.7,4.1-17.9,13-17.9,26.4c0,7.3,0,14.6,0.1,21.9c0.1,4.3-1,8.3-3.1,12.1c-5,8.9-4.1,18.3,2.3,26.3c1.5,1.9,2.6,4.3,3.4,6.6
		c2.5,7.8,6.6,14.5,11.8,20.8c17.6,21.1,10.8,49.1-14.2,59.9c-16.5,7.1-33,14.4-49.4,21.9c-10,4.5-15.3,12.4-15.5,23.5
		c-0.3,12.4-0.3,12.5,11.7,15.4C220.1,444.6,252.6,446.1,287.3,446.1z"/>
</g>
</svg>
