<?xml version="1.0" encoding="utf-8"?>
<!-- Generator: Adobe Illustrator 21.1.0, SVG Export Plug-In . SVG Version: 6.00 Build 0)  -->
<svg version="1.1" id="Camada_1" xmlns="http://www.w3.org/2000/svg" xmlns:xlink="http://www.w3.org/1999/xlink" x="0px" y="0px"
	 viewBox="0 0 1000 1000" style="enable-background:new 0 0 1000 1000;" xml:space="preserve">
<title>users2</title>
<title>contract</title>
<title>users2</title>
<title>contract</title>
<g>
	<path d="M30.7,566.5c2-5.2,1.7-10.7,2.8-16.1c11.4-52.8,53.4-91.4,106.7-98c5.7-0.7,11.3-0.9,16.9-0.7c3.7,0.2,4.9-1,4.8-4.8
		c-0.2-14.7-0.1-29.3-0.1-44c0-48.3,0.1-96.6-0.1-145c0-4.5,1.2-5.5,5.5-5.5c153.3,0.1,306.6,0.1,459.9,0c5,0,5.6,1.9,5.6,6
		c-0.1,61.8-0.1,123.6-0.1,185.5c0,8.7-0.4,7.6,7.4,7.6c61.9,0,113.8,45.2,122.6,106.6c0.7,4.6,1,9.3,1,13.9c0,61,0,122,0.1,183
		c0,4.8-0.9,7.1-6.2,6.4c-5.4-0.7-12.5,2.3-15.8-1.2c-3.1-3.2-0.9-10.1-0.9-15.4c-0.1-55.8,0-111.6,0-167.5c0-50-32.3-90-81.1-100.5
		c-7-1.5-14.2-1.8-21.4-1.8c-160.3,0-320.6-0.1-480.9,0c-50,0-90,32.3-100.4,80.6c-1.4,6.5-1.8,13.2-1.8,19.8c0,59.7,0,119.3,0,179
		c0,8,0.4,6.8-7.1,6.9c-5.8,0.1-11.7,0.1-17.5,0.1C30.7,696.5,30.7,631.5,30.7,566.5z M397.8,451.7c68.8,0,137.6,0,206.4,0.1
		c4.5,0,5.8-1.1,5.8-5.8c-0.2-55-0.2-110,0-164.9c0-4.7-1.4-5.7-5.9-5.7c-137.6,0.1-275.2,0.1-412.9,0c-4.7,0-6.2,1.1-6.2,6
		c0.2,54.6,0.1,109.3,0.1,163.9c0,6.4,0,6.4,6.6,6.4C260.5,451.7,329.1,451.7,397.8,451.7z"/>
	<path d="M895.7,58.5c0.2,2.1,0.5,4.3,0.5,6.4c0,39.2,0.1,78.3-0.1,117.5c0,4,0.9,5.2,5.1,5.5c45.2,2.9,79.4,39.6,79.5,84.9
		c0,37.7,0,75.3,0,113c0,6.6,0,6.6-6.8,6.6c-3.8,0-7.7-0.3-11.5,0.1c-3.9,0.4-4.6-1.2-4.6-4.8c0.2-23.2,0.1-46.3,0.1-69.5
		c0-14.7-0.2-29.3,0-44c0.7-37.7-30.8-63.5-63.1-63.3c-104,0.6-208,0.3-312,0.2c-20.1,0-36.1,7.8-48.3,23.6c-2.1,2.8-3.6,3-6.4,1
		c-4.1-3.1-8.5-5.9-12.9-8.6c-2.2-1.4-2.4-2.5-0.8-4.6c13.6-18.1,31.4-29.4,53.7-33.7c3.1-0.6,6.3-1.2,9.4-1c4.8,0.2,5.6-2,5.6-6.3
		c-0.1-38.8-0.1-77.7-0.1-116.5c0-2.1,0.3-4.3,0.5-6.4C687.7,58.5,791.7,58.5,895.7,58.5z M739.7,187.7c42.7,0,85.3-0.1,128,0.1
		c4.1,0,5.3-0.9,5.3-5.2c-0.2-31.8-0.2-63.7,0-95.5c0-4.3-1.3-5.2-5.3-5.2c-85.3,0.1-170.6,0.1-256,0c-4.1,0-5.3,1-5.3,5.2
		c0.2,31.8,0.2,63.7,0,95.5c0,4.3,1.3,5.1,5.4,5.1C654.4,187.7,697,187.7,739.7,187.7z"/>
	<path d="M397.7,941.4c-75,0-149.9,0-224.9,0c-6.6,0-6.4,0-5.5-6.3c4.3-29.8,8.4-59.6,12.6-89.4c3.1-22.2,6.2-44.5,9.2-66.7
		c0.4-3.1,1.8-4.4,4.9-4c0.8,0.1,1.7,0,2.5,0c134.1,0,268.2,0,402.3-0.2c5.4,0,7,1.7,7.6,6.7c5.3,39.2,10.8,78.4,16.2,117.6
		c1.8,12.8,3.6,25.7,5.6,38.5c0.4,2.9-0.1,4.1-3.1,3.8c-1.3-0.1-2.7,0-4,0C546.6,941.4,472.1,941.4,397.7,941.4z M397.1,917.7
		c66.3,0,132.6,0,198.9,0.1c4.4,0,5.4-1.3,4.7-5.4c-1.2-6.2-1.9-12.5-2.8-18.7c-4.2-29.6-8.5-59.3-12.4-88.9c-0.7-5.5-2.6-6.8-8-6.8
		c-120.3,0.2-240.6,0.1-360.9,0.1c-1,0-2,0.1-3,0c-3.3-0.5-4.4,1.2-4.7,4.1c-0.5,4.5-1.2,8.9-1.8,13.4c-4.5,32.1-9,64.2-13.7,96.3
		c-0.7,4.9,0.2,6,5.3,6C264.8,917.7,331,917.7,397.1,917.7z"/>
	<path d="M778.3,397c35.8,0,71.6,0.1,107.5-0.1c4.3,0,6,0.8,5.9,5.7c-0.2,35.2-0.2,70.3,0,105.5c0,3.9-0.7,5.4-5.1,5.4
		c-33.5-0.2-67-0.2-100.5,0c-3.9,0-5.3-1-5.1-5c0.3-4.5,0.3-9,0-13.5c-0.3-4.1,1.3-5.1,5.2-5c24.7,0.1,49.3,0.1,74,0
		c10,0,8.5,1.3,8.6-8.8c0.1-18.2-0.1-36.3,0.1-54.5c0.1-4.8-1.3-6.2-6.1-6.2c-64,0.2-127.9,0.1-191.9,0.1c-6.7,0-6.7,0-6.7-6.8
		c0-3.7,0.3-7.4-0.1-11c-0.4-4.5,1-6,5.8-6c23.5,0.2,47,0.1,70.5,0.1C753,397,765.6,397,778.3,397z"/>
	<path d="M397.2,692.1c-44.5,0-89-0.1-133.5,0.1c-4.9,0-6.4-1.4-6-6.2c0.4-4.3,0.2-8.7,0-13c-0.1-3,0.8-4.4,3.9-4.1c1,0.1,2,0,3,0
		c88.7,0,177.3,0,266,0c8.2,0,6.7-0.4,6.8,7c0.1,3.7-0.3,7.4,0.1,11c0.5,4.4-1.4,5.4-5.4,5.1c-4.6-0.3-9.3-0.1-14-0.1
		C477.9,692.1,437.5,692.1,397.2,692.1z"/>
	<path d="M746.7,328.7c25.8,0,51.6,0.1,77.5-0.1c4.8,0,6,1.5,5.7,5.9c-0.3,4.1-0.3,8.3,0,12.5c0.3,3.9-1.3,4.8-4.9,4.7
		c-21.8-0.1-43.6-0.1-65.5-0.1c-29.8,0-59.6-0.1-89.4,0.1c-4.4,0-6.5-0.9-6-5.7c0.4-4,0.4-8,0-12c-0.5-4.6,1.5-5.5,5.7-5.4
		C695.4,328.7,721,328.7,746.7,328.7z"/>
	<path d="M160.2,567.7c0,0.5,0,1,0,1.5c0,10.7,0,10.6-10.6,9.9c-2.5-0.2-3.6-0.9-3.6-3.5c0.1-5.6,0.1-11.3,0-16.9c0-2,0.6-3.2,2.9-3
		c0.2,0,0.3,0,0.5,0C160.2,555.1,160.2,555.1,160.2,567.7z"/>
	<path d="M264.5,567.5c0,1.5,0,3,0,4.5c-0.2,7.7,1.4,7.1-7.2,7.1c-6.5,0-6.5,0-6.5-6.4c0-4.5,0.1-9,0-13.4c-0.1-2.4,0.5-3.5,3.3-3.6
		C264.5,555.2,264.5,555.1,264.5,567.5z"/>
</g>
</svg>
