<?xml version="1.0" encoding="utf-8"?>
<!-- Generator: Adobe Illustrator 21.1.0, SVG Export Plug-In . SVG Version: 6.00 Build 0)  -->
<svg version="1.1" id="Camada_1" xmlns="http://www.w3.org/2000/svg" xmlns:xlink="http://www.w3.org/1999/xlink" x="0px" y="0px"
	 viewBox="0 0 1000 1000" style="enable-background:new 0 0 1000 1000;" xml:space="preserve">
<title>users2</title>
<title>contract</title>
<title>users2</title>
<title>contract</title>
<g>
	<path d="M499.3,969.7c-97.8,0-195.7-1-293.5,0.6c-29.6,0.5-39.1-9.6-37.9-38.4c1.1-25.5,13.1-61.6-36.2-56.8
		c-2.3,0.2-7.4-5-7.2-7.4c4.2-53.4-35.8-35.2-61-35.8c-25.2-0.6-34.2-8.6-34-34.4c0.9-156.5,1.1-313.1-0.1-469.6
		c-0.2-30.3,12-37.4,39.6-37.5c31.9-0.2,73.4,15.1,93.4-7.6c19.3-21.9,5-62.5,5.8-94.9c1-41.7,1-83.5,0-125.2
		c-0.5-22.4,5.9-33.2,30.8-33.1c200.9,0.7,401.8,0.7,602.7,0c26-0.1,29.9,12.9,29.7,34.2c-0.6,63.9,0.8,127.9-0.7,191.8
		c-0.6,26.3,6.3,39.9,34.5,35.6c1.3-0.2,2.6,0,3.9,0c100.6,1.2,100.6,1.2,100.6,100.6c0,130.5-1.3,260.9,0.8,391.4
		c0.6,36.7-8.2,53.1-47.3,48.8c-23-2.6-53.3-9-47.3,33.2c0.7,5.2-3.1,11.3-9,10.5c-43.5-5.8-38.1,24.9-35.2,49.7
		c4.3,37.6-11.6,46.1-46.8,45.3C689.8,968.2,594.5,969.7,499.3,969.7z M503.8,338c-131.7,0-263.4,0.4-395.1-0.4
		c-22.5-0.1-32.8,4.4-32,30c1.8,57.3,1.3,114.7,0.2,172.1c-0.4,21,4.3,29.9,27.8,29.8c263.4-0.8,526.8-0.7,790.2,0
		c23.3,0.1,28.3-8.6,27.9-29.7c-1.2-56-2-112.2,0.3-168.2c1.1-28.7-9.6-34.4-35.9-34.2C759.4,338.7,631.6,338,503.8,338z M500,922.3
		c82.1,0,164.3-0.9,246.4,0.5c25.6,0.5,36.8-4.1,36.1-33.4c-2-80.8-1.5-161.6-0.2-242.4c0.4-23.4-5.5-31.5-30.2-31.3
		c-168.2,1-336.3,1.1-504.5,0c-25.1-0.2-30.3,8.5-30,31.6c1.2,80.8,1.4,161.7-0.1,242.5c-0.4,24.9,5.8,33.7,32.2,33.2
		C333.1,921.3,416.5,922.3,500,922.3z M500.6,77.2c-84.7,0-169.3,0.6-253.9-0.4c-21.6-0.3-29.8,5.3-29.1,28.2
		c1.5,52,1.8,104.2-0.1,156.2c-0.9,25.1,8.7,30.3,31.6,30.2c168-0.8,336-0.7,504,0c21.7,0.1,29.7-6.1,29.1-28.7
		c-1.4-50.8-2.2-101.6,0.2-152.3c1.4-28.8-9.5-34.3-35.6-33.8C664.7,78.2,582.7,77.2,500.6,77.2z M156.5,833.8c4-1.8,8-3.6,12-5.3
		c0-59.2-1.3-118.4,0.6-177.6c0.9-27.3-7.7-38.5-35.1-34.8c-9,1.2-18.3,1-27.3,0c-20.9-2.2-30.9,4-29.8,27.6
		c1.7,37.7,1.2,75.6,0.2,113.4c-0.5,18.3,5.3,27.1,24.3,24.5C137.3,776.7,165.9,781.1,156.5,833.8z M831.2,709.3c-0.8,0-1.5,0-2.3,0
		c0,22.1-0.3,44.1,0.2,66.2c0.1,5.8,3.1,16.8,3.9,16.7c27-2.3,55-2.3,80.4-10.2c17.7-5.5,7.6-27.2,8.5-41.5c1.5-24.6-2-49.6,1-73.9
		c4.8-39.7-7.9-53.3-49.7-51.9c-34.4,1.2-47.1,9.8-42.4,44C833.1,675.3,831.2,692.4,831.2,709.3z"/>
	<path d="M808.5,368.9c45.3,0.5,84.5,40.9,83.5,86.1c-0.9,43.4-40.1,83-82.7,83.6c-44.9,0.7-84.9-39.1-85.1-84.9
		C724,408,763.3,368.4,808.5,368.9z M807.7,415.3c-22.2,3.9-34.2,14.9-34,39.3c0.2,25,13.2,36.7,35.6,36c22.3-0.7,35.5-14.5,35.3-38
		C844.3,428.6,829.2,418.8,807.7,415.3z"/>
	<path d="M496.9,738.7c-54.7,0-109.4,0-164.1,0c-17.6,0-38.3-1-37.7-23.4c0.5-21.8,19.3-27.6,39.7-27.6
		c109.4,0.3,218.8,0.3,328.2-0.1c20-0.1,39.8,4.1,41.3,25.7c1.8,25.8-20.9,25.2-39.4,25.3C608.9,738.8,552.9,738.7,496.9,738.7z"/>
	<path d="M497.1,815.7c-54.8,0-109.6,0.1-164.4-0.1c-17.2-0.1-37,0.3-37.9-23.3c-0.9-25.5,21.1-23,36.9-23.1
		c112.2-0.6,224.4-0.7,336.6,0.1c14,0.1,34.8-3.8,35.5,19.8c0.8,26.5-19.7,26.6-38.5,26.6C609.3,815.8,553.2,815.7,497.1,815.7z"/>
</g>
</svg>
