<?xml version="1.0" encoding="utf-8"?>
<!-- Generator: Adobe Illustrator 21.1.0, SVG Export Plug-In . SVG Version: 6.00 Build 0)  -->
<svg version="1.1" id="Camada_1" xmlns="http://www.w3.org/2000/svg" xmlns:xlink="http://www.w3.org/1999/xlink" x="0px" y="0px"
	 viewBox="0 0 1000 1000" style="enable-background:new 0 0 1000 1000;" xml:space="preserve">
<title>users2</title>
<title>contract</title>
<title>users2</title>
<title>contract</title>
<g>
	<path d="M689,56c0,68.2,0,136.3,0.1,204.5c0,9.1-0.7,7.7,7.7,7.7c64.9,0,120.8,48.4,129.9,112.5c0.7,5.3,1.2,10.6,1.2,15.9
		c-0.1,65.2-0.1,130.3,0.1,195.5c0,4.4-0.9,6.2-5.7,5.8c-5.1-0.4-10.3-0.2-15.5,0c-2.9,0.1-3.9-0.9-3.6-3.7c0.1-1.2,0-2.3,0-3.5
		c0-62.8,0-125.6,0-188.5c0-54.4-35.6-97.6-88.9-107.9c-5.7-1.1-11.5-1.5-17.4-1.5c-172.3,0-344.6,0-516.9,0
		c-52.7,0-97.9,39.5-105.4,91.8c-0.8,5.6-1.1,11.3-1.1,16.9c0,63.2,0,126.3,0,189.5c0,8.2,0.4,6.7-7,6.8c-4.5,0.1-9-0.2-13.5,0.1
		c-3.2,0.2-3.9-1-3.9-4c0.1-66.3-0.6-132.7,0.3-199c0.8-61.8,48.6-115.1,109.9-124.9c8.2-1.3,16.5-2.1,24.9-1.8
		c2.9,0.1,4.1-0.6,4.1-3.8c-0.1-69.3-0.1-138.6-0.2-207.9c0-0.2-0.1-0.3-0.1-0.5C355,56,522,56,689,56z M439,268.2
		c73.2,0,146.3,0,219.5,0c6.5,0,6.5,0,6.5-6.5c0-58,0-116,0-174c0-6.7,0-6.7-7-6.7c-146.1,0-292.3,0-438.4,0c-6.6,0-6.6,0-6.6,6.4
		c0,58.2,0.1,116.3-0.1,174.5c0,4.9,1.1,6.4,6.3,6.4C292.3,268.1,365.7,268.2,439,268.2z"/>
	<path d="M755.5,944c-49.5,0-99-0.1-148.5,0c-28.1,0.1-49-11.9-62.2-36.7c-4.6-8.6-6.7-18-6.7-27.9c0-73.7-0.1-147.3,0-221
		c0-32.8,27.2-61.4,60-63.6c14.7-1,29.3-0.4,44-0.5c19.8-0.2,39.7-0.8,59.5-0.2c22.1,0.6,38.8,11.3,49.3,30.6
		c9.5,17.6,23.5,24.9,43.6,24.5c39.1-0.8,78.3-0.3,117.5-0.3c3,0,6,0.5,8.9,1c30.4,5.5,53.1,32.6,53.1,63.6c0,55.3,0,110.7,0,166
		c0,34.4-28.4,63.8-62.9,64.1c-51.8,0.4-103.6,0.1-155.5,0.1C755.5,943.9,755.5,944,755.5,944z M755.8,919.2c51,0,102,0,153,0
		c22.5,0,40.4-17.8,40.4-40.2c0.1-55,0-110,0-164.9c0-22.5-17.8-40.3-40.2-40.3c-35.3,0-70.6,0-106,0c-4,0-8-0.1-12,0.3
		c-7.1,0.8-14,0-20.7-1.9c-17.3-4.7-30.1-15.2-38.4-31.1c-6.3-12.2-16.2-19.6-29.7-22c-5.7-1-11.3,0.4-16.9,0.4
		c-26.5,0-53,0.6-79.5-0.2c-19.6-0.6-42.7,13.6-42.7,42.3c-0.1,71.8-0.2,143.6,0,215.4c0.1,25.2,17.6,42.1,42.7,42.1
		C655.9,919.2,705.8,919.2,755.8,919.2z"/>
	<path d="M346.7,789c-49.2,0-98.3,0-147.5,0.1c-4.5,0-6.2-0.3-5.4-5.9c7.1-48.7,13.7-97.5,20.5-146.3c0.9-6.8,2.1-13.5,2.8-20.3
		c0.4-3.5,1.9-4.4,5.1-4.3c10.7,0.1,21.3,0.1,32,0.1c79.8,0,159.6,0,239.5,0c6.8,0,6.8,0,6.8,6.7c0,4.3-0.2,8.7,0.1,13
		c0.3,4.1-1.4,5.4-5.2,4.9c-1.5-0.2-3,0-4.5,0c-81.7,0-163.3,0-245-0.1c-4.7,0-6.8,0.7-7.6,6.2c-5.2,39.1-10.8,78.1-16.5,117.1
		c-0.7,4.9,2,4.6,5.2,4.6c42.8,0,85.7,0,128.5,0c46.3,0,92.7,0.1,139-0.1c4.9,0,6.5,1.4,6,6.2c-0.4,4-0.4,8,0,12
		c0.4,4.7-1.1,6.2-6,6.2c-32.2-0.2-64.3-0.1-96.5-0.1C381,789,363.8,789,346.7,789z"/>
	<path d="M439.5,499.9c47.3,0,94.7,0.1,142-0.1c4.8,0,7,0.8,6.4,6.2c-0.5,4.9-0.2,10-0.1,15c0.1,2.6-0.8,3.7-3.4,3.5
		c-1.2-0.1-2.3,0-3.5,0c-94.7,0-189.3,0-284,0c-6.8,0-6.8,0-6.8-6.6c0-4.7,0.1-9.3-0.1-14c-0.1-3,0.8-4.2,3.9-4.1
		c5.5,0.2,11,0,16.5,0C353.5,499.9,396.5,499.9,439.5,499.9z"/>
	<path d="M171.4,391.6c0-0.7,0-1.3,0-2c0-11.4,0-11.3,11.5-10.4c2.1,0.2,3,0.7,3,2.9c-0.1,6.3-0.1,12.7,0,19c0,2.1-0.8,3.1-2.9,3
		c-0.2,0-0.3,0-0.5,0C171.4,404.8,171.4,404.8,171.4,391.6z"/>
	<path d="M296.9,391.8c0,1.7,0,3.3,0,5c-0.1,7.9,1.2,7.2-7.2,7.2c-8,0-7.2,0.8-7.2-7.2c0-4.7,0.1-9.3,0-14c-0.1-2.9,1.1-3.6,3.8-3.7
		c10.7-0.2,10.7-0.3,10.7,10.2C296.9,390.1,296.9,391,296.9,391.8z"/>
	<path d="M654.4,696.7c-10.2,0-20.3-0.1-30.5,0.1c-2.8,0-3.8-0.7-3.7-3.6c0.2-5.8,0.2-11.7,0-17.5c-0.1-2.9,1-3.6,3.8-3.6
		c20.2,0.1,40.3,0.1,60.5,0c2.5,0,3.6,0.7,3.5,3.4c-0.1,5.8-0.2,11.7,0,17.5c0.1,3.2-1.1,3.9-4.1,3.9
		C674,696.6,664.2,696.7,654.4,696.7z"/>
</g>
</svg>
