<?xml version="1.0" encoding="utf-8"?>
<!-- Generator: Adobe Illustrator 21.1.0, SVG Export Plug-In . SVG Version: 6.00 Build 0)  -->
<svg version="1.1" id="Camada_1" xmlns="http://www.w3.org/2000/svg" xmlns:xlink="http://www.w3.org/1999/xlink" x="0px" y="0px"
	 viewBox="0 0 1000 1000" style="enable-background:new 0 0 1000 1000;" xml:space="preserve">
<title>users2</title>
<title>contract</title>
<title>users2</title>
<title>contract</title>
<g>
	<path d="M1000,456.9c-6,0-12-0.2-18,0.1c-4.4,0.2-5.9-0.9-6-5.7c-0.4-47.2-8.8-93-24.9-137.3C930.9,258.3,900.2,208.8,859,166
		C799.1,103.8,726.9,63.6,642.5,45.2c-23.5-5.1-47.2-8.1-71.2-8.8c-2-0.1-4-0.3-6-0.4c-10.1-0.7-10.1-0.7-10.1-10.8
		c0-12.5,0-12.6,12.5-12.2c111.4,3.8,208.3,43.5,290,119.1c70.8,65.6,115.1,146.5,133.9,241.2c4.3,21.6,6.8,43.4,7.5,65.4
		c0,1.4-0.5,3,0.9,4.2C1000,447.6,1000,452.3,1000,456.9z"/>
	<path d="M450.4,522c-77.3,0-154.6,0.1-232,0c-18.7,0-37,1.6-53.9,10.2c-36.3,18.5-56,48.3-56.5,89c-0.8,60-0.2,120-0.2,180
		c0,7.4,1.1,6.8-7.1,6.8c-4.3,0-8.7-0.1-13,0c-2.7,0.1-4.2-0.7-3.9-3.6c0-0.2,0-0.3,0-0.5c0.1-63.7-1.4-127.4,0.7-191
		c1.8-54,42.3-98.8,94.5-110.8c9.4-2.2,19-3.6,28.7-2.9c4.9,0.3,6.4-1,6.4-6.2c-0.2-61.7-0.1-123.3-0.1-185c0-7.8,0-7.8,7.9-7.8
		c151.8,0,303.6,0,455.4,0c6.5,0,6.5,0,6.5,6.4c0,61.7,0,123.3,0,185c0,7.5,0,7.5,7.5,7.5c62,0,114.2,46,122,107.5
		c0.8,5.9,1.1,12,1.1,17.9c0.1,59.2,0,118.3,0.2,177.5c0,5.4-1.7,6.6-6.5,6.1c-3.8-0.4-7.7-0.3-11.5,0c-4.4,0.4-6-0.9-5.9-5.7
		c0.3-21,0.1-42,0.1-63c0-38.8,0.1-77.7,0-116.5c-0.1-48.2-32-88-79-98.6c-8.3-1.9-16.8-2.3-25.3-2.3C608.1,522,529.3,522,450.4,522
		z M449,323.7c-68.8,0-137.6,0-206.5-0.1c-4.4,0-5.6,1.2-5.6,5.6c0.1,54.7,0.1,109.3,0,164c0,4.4,0.9,6,5.7,6
		c137.3-0.1,274.6-0.1,411.9,0c4.8,0,5.7-1.6,5.7-5.9c-0.1-54.7-0.2-109.3,0-164c0-4.8-1.5-5.7-5.9-5.7
		C586,323.8,517.5,323.7,449,323.7z"/>
	<path d="M448.7,987c-74.6,0-149.3,0-223.9,0c-6.8,0-6.7,0-5.8-6.7c6.5-46.8,12.9-93.6,19.4-140.4c0.6-4.3,1.5-8.5,1.8-12.8
		c0.3-4.3,1.8-5.9,6.4-5.8c71.6,0.2,143.3,0.1,214.9,0.1c62.8,0,125.6,0.1,188.4-0.1c4.8,0,6.2,1.5,6.8,5.9
		c5.3,39.4,10.8,78.8,16.2,118.2c1.8,12.7,3.4,25.4,5.4,38c0.5,3.2-0.4,3.7-3.2,3.7c-8.3-0.1-16.7,0-25,0
		C583,987,515.9,987,448.7,987z M448.4,964.2c66.2,0,132.3,0,198.5,0c3.1,0,5.9,0.6,5.2-4.4C646.9,923.8,642,887.9,637,852
		c-1-7.2-1-7.2-8.6-7.2c-119.8,0-239.7,0-359.5,0c-1.3,0-2.7,0.1-4,0c-2.8-0.2-3.7,1.2-4.1,3.8c-5,36.6-9.9,73.2-15.3,109.7
		c-0.8,5.4,0.7,5.9,5.3,5.9C316.7,964.1,382.6,964.2,448.4,964.2z"/>
	<path d="M569.2,88.9c96,4.7,178.8,40.1,247,108c55.2,55,88.9,121.4,102.4,198.1c3.3,18.7,4.5,37.6,5.3,56.6
		c0.2,4.6-1.3,5.8-5.6,5.5c-4.6-0.3-9.3-0.3-14,0c-3.4,0.2-4.1-1.2-4.1-4.3c-0.6-53.8-12.7-105-37.9-152.6
		C810,201.7,729.1,140.8,619.9,117.8c-19.9-4.2-40.1-6.2-60.5-6.2c-4.1,0-5.2-1.4-5-5.2c0.3-4.3,0.2-8.7,0-13
		c-0.2-3.3,0.6-4.9,4.3-4.6C562.2,89.1,565.7,88.9,569.2,88.9z"/>
	<path d="M836.9,457.7c-11.5,0-11.4,0-12-11.5c-3.7-69.8-29.6-130-79-179.5c-43.1-43.3-95.6-68.6-156.2-76.8
		c-10.1-1.4-20.2-2.2-30.4-2.1c-3.2,0-4.4-0.8-4.3-4.2c0.3-4.8,0.4-9.7,0-14.5c-0.3-4.2,1.4-5,5.1-4.9c27.9,1,55.5,4.4,82,13.4
		C749.8,214.4,816.5,288.4,842.5,399c4.2,18,5.3,36.5,6.1,55c0.1,2.7-0.6,4-3.6,3.8C842.3,457.6,839.6,457.7,836.9,457.7z"/>
	<path d="M449,716.4c44.3,0,88.7,0.1,133-0.1c4.7,0,6.6,1.1,6.2,6.1c-0.4,4.6-0.2,9.3-0.1,14c0.1,2.5-0.8,3.8-3.4,3.5
		c-1-0.1-2,0-3,0c-88.7,0-177.3,0-266,0c-7.4,0-6.3,0.8-6.4-6.3c0-4,0.3-8-0.1-12c-0.4-4.4,1.4-5.4,5.4-5.2
		c4.8,0.3,9.7,0.1,14.5,0.1C369,716.4,409,716.4,449,716.4z"/>
	<path d="M211.8,615.2c0,0.7,0,1.3,0,2c0,9.7,0,9.6-9.6,9.6c-3.2,0-4.4-0.9-4.3-4.2c0.2-5.1,0.2-10.3,0-15.4
		c-0.1-2.8,0.6-4.1,3.8-4.1c10-0.1,10-0.3,10,9.7C211.8,613.6,211.8,614.4,211.8,615.2z"/>
	<path d="M302.1,614.9c0-0.7,0-1.3,0-2c0-10.8,0-10.7,10.9-9.8c2.1,0.2,2.9,0.8,2.9,2.9c-0.1,6-0.1,11.9,0,17.9
		c0,2.1-0.8,2.7-2.9,2.9C302.1,627.6,302.1,627.7,302.1,614.9z"/>
</g>
</svg>
