<?xml version="1.0" encoding="utf-8"?>
<!-- Generator: Adobe Illustrator 21.1.0, SVG Export Plug-In . SVG Version: 6.00 Build 0)  -->
<svg version="1.1" id="Camada_1" xmlns="http://www.w3.org/2000/svg" xmlns:xlink="http://www.w3.org/1999/xlink" x="0px" y="0px"
	 viewBox="0 0 1000 1000" style="enable-background:new 0 0 1000 1000;" xml:space="preserve">
<title>users2</title>
<title>contract</title>
<title>users2</title>
<title>contract</title>
<g>
	<path d="M607.2,88.5c-0.1,1.8-0.4,3.6-0.4,5.4c0,59.3,0.1,118.6-0.1,178c0,5.3,1.4,6.6,6.6,6.7c57.5,1.2,102.5,37.9,115.2,93.7
		c1.6,7,2.5,14.1,2.5,21.3c0,58.3,0,116.6,0.1,175c0,4.3-0.8,6-5.4,5.6c-4.5-0.4-9-0.2-13.5-0.1c-2.6,0.1-3.7-1-3.5-3.6
		c0.1-1.3,0-2.7,0-4c0-56.5,0-113,0-169.5c0-48.2-33.8-87.9-81.3-95.4c-4.4-0.7-9-1-13.4-1c-154.5,0-308.9,0-463.4,0
		c-48.5,0-89.8,37.5-94.6,85.7c-0.5,5.3-0.8,10.6-0.8,16c0,55.3-0.1,110.6,0.1,166c0,5-1.5,6.5-6.2,5.9c-5.1-0.6-11.9,2.2-14.8-1.2
		c-2.5-3-0.9-9.5-0.9-14.5c0-53.5,0-107,0-160.5c0-59.2,40.1-107.2,98.4-117.9c6.9-1.3,13.9-1.7,20.9-1.5c3.9,0.1,5.1-1.1,5.1-5.1
		c-0.2-26-0.1-52-0.1-78c0-33.7,0-67.3,0-101c0-2-0.3-4-0.4-5.9C307.2,88.5,457.2,88.5,607.2,88.5z M382.2,278.4
		c65.5,0,131,0,196.4,0.1c4.5,0,5.9-1.2,5.8-5.8c-0.2-52.2-0.2-104.3,0-156.5c0-4.7-1.5-5.8-5.9-5.8c-131,0.1-261.9,0.1-392.9,0
		c-4.5,0-5.9,1.2-5.8,5.8c0.2,51.8,0.1,103.6,0.1,155.5c0,6.7,0,6.7,6.8,6.7C251.9,278.4,317.1,278.4,382.2,278.4z"/>
	<path d="M702.2,899.5c-3.6-1.5-7.5-2.6-10.8-4.7c-9.1-5.6-14.3-13.8-14.3-24.8c0-15.5-0.2-31,0.1-46.5c0.1-4.9-1.5-6.1-6.2-6.1
		c-54.2,0.2-108.3,0.1-162.5,0.1c-4.8,0-9.7,0.1-14.3-1.6c-12-4.2-19.9-15.3-19.9-28.3c0-29,0-58,0-87c0-18.9,12.7-31.7,31.6-31.7
		c53.8-0.1,107.6,0,161.5,0c1.5,0,3-0.2,4.5,0c3.7,0.5,4.9-0.9,4.8-4.7c-0.2-14.7-0.1-29.3-0.1-44c0-26.9,23.5-40.8,47.1-27.9
		c73.3,40.1,146.5,80.4,219.9,120.3c11.1,6.1,20.4,13,23.6,25.8c0,3.3,0,6.7,0,10c-3.4,12.5-12.4,19.5-23.4,25.5
		c-55.9,30.2-111.4,61.1-167.3,91.4c-21.6,11.7-42.3,25.1-65.3,34.2C708.2,899.5,705.2,899.5,702.2,899.5z M599.6,795.4
		c31.5,0,63,0.1,94.5-0.1c3.9,0,5.1,1,5,5c-0.2,22.3-0.1,44.7-0.1,67c0,8.8,5.5,12.2,13.1,8c75.5-41.3,150.9-82.6,226.4-124
		c3.3-1.8,6.1-3.9,6-8.4c-0.1-4.3-2.9-6.1-6.1-7.8c-75.3-41.3-150.6-82.5-225.9-123.8c-7.9-4.3-13.5-1.1-13.5,7.9
		c0,21.8-0.2,43.7,0.1,65.5c0.1,5.2-1.3,6.5-6.5,6.5c-62-0.2-124-0.1-186-0.1c-7.1,0-10.5,2.7-10.5,9.1c-0.1,28.7-0.1,57.3,0,86
		c0,6.1,3.4,9.1,9.4,9.1C536.9,795.4,568.2,795.4,599.6,795.4z"/>
	<path d="M382,586.7c64.2,0,128.3,0.1,192.5-0.1c4.7,0,6.2,1.4,6.7,6c1.1,10.7,2.7,21.5,4.5,32.1c0.7,4.3-0.2,6-4.6,6.3
		c-4.6,0.3-9.3,0.9-13.9,1.8c-2.3,0.4-2.8-0.4-3.1-2.4c-0.8-6.1-1.9-12.2-2.6-18.3c-0.3-2.9-1.7-3.7-4.2-3.5c-1.2,0.1-2.3,0-3.5,0
		c-114.5,0-229,0-343.4,0c-8.8,0-7-0.7-8.1,7.1c-4.9,33.6-9.4,67.2-14.1,100.8c-0.9,6.2-0.8,6.2,5.5,6.2c79.2,0,158.3,0.1,237.5-0.1
		c5.2,0,6.7,1.5,6.2,6.4c-0.4,3.8-0.3,7.7,0,11.5c0.3,4.1-1.3,4.9-5.1,4.9c-52.5-0.1-105-0.1-157.5-0.1c-35.7,0-71.3,0-107,0
		c-6,0-6-0.1-5.1-6.2c6.9-49.1,13.8-98.2,20.5-147.3c0.6-4.1,1.9-5.1,5.8-5.1C253.4,586.8,317.7,586.7,382,586.7z"/>
	<path d="M382.2,508.3c-42.6,0-85.3-0.1-127.9,0.1c-4.2,0-5.6-1.2-5.2-5.3c0.3-4,0.3-8,0-12c-0.4-4.3,1.4-5.7,5.4-5.2
		c0.5,0.1,1,0,1.5,0c84.1,0,168.2,0,252.4,0c6.9,0,7.1,0,6.9,7.1c-0.1,4.9,2.2,11.3-1.1,14.4c-3,2.9-9.2,0.8-14,0.8
		C460.8,508.3,421.5,508.3,382.2,508.3z"/>
	<path d="M142.4,389.1c0-1.5,0-3,0-4.5c0.1-7.1-1.3-6.7,6.6-6.7c6.7,0,6.7,0,6.7,6.8c0,3.8-0.1,7.6,0,11.5c0.1,2.8-0.5,4.1-3.8,4.1
		C142.4,400.5,142.4,400.6,142.4,389.1z"/>
	<path d="M255.1,389.5c0,1.5,0,3,0,4.5c-0.1,7.3,0.7,6.3-6.4,6.3c-7.1,0-6.2,1-6.3-6.4c0-4.2,0.1-8.3,0-12.5c-0.1-2.6,1-3.4,3.5-3.5
		C255.1,377.4,255.1,377.3,255.1,389.5z"/>
</g>
</svg>
