<?xml version="1.0" encoding="utf-8"?>
<!-- Generator: Adobe Illustrator 21.1.0, SVG Export Plug-In . SVG Version: 6.00 Build 0)  -->
<svg version="1.1" id="Camada_1" xmlns="http://www.w3.org/2000/svg" xmlns:xlink="http://www.w3.org/1999/xlink" x="0px" y="0px"
	 viewBox="0 0 1000 1000" style="enable-background:new 0 0 1000 1000;" xml:space="preserve">
<style type="text/css">
	.st0{fill:#010101;}
</style>
<title>users2</title>
<title>contract</title>
<title>users2</title>
<title>contract</title>
<g>
	<path d="M816.5,48.2c0,79,0.3,158-0.3,236.9c-0.1,13.2,3.4,18,17,20.1c94.4,15,151.4,82.9,151.4,179c0,70.4-0.5,140.7,0.4,211.1
		c0.2,15.7-3.4,21.3-20,20.6c-42.3-1.8-35.3,4.9-35.5-35.2c-0.4-68.2,0-136.4-0.2-204.6c-0.2-66.5-50.6-117.5-116.9-117.5
		c-207.5-0.2-415-0.2-622.5,0c-65,0.1-116.2,50.6-116.7,115.8c-0.6,72.5-0.8,145,0.3,217.5c0.3,18.5-4,25.2-23.6,24.1
		c-36-2.2-30.4,4.1-30.6-31.2c-0.3-71.1-0.1-142.2-0.1-213.2c0.1-81.3,60.8-153,141.8-164.6c20.7-3,26.5-9.6,26.2-30.6
		c-1.2-76.1-0.1-152.2,0.1-228.3C397,48.2,606.8,48.2,816.5,48.2z M501.8,303.2c80.4,0,160.8-0.3,241.1,0.3
		c14.3,0.1,20.3-2.9,20-18.8c-0.9-54.5-0.8-109.1,0-163.6c0.2-15.3-5.1-19.3-19.8-19.3c-160.8,0.4-321.5,0.4-482.3,0
		c-14.5,0-20.2,3.6-20,19.1c0.8,54.5,0.8,109.1,0,163.6c-0.2,15.6,5.3,19,19.8,18.9C341,302.9,421.4,303.2,501.8,303.2z"/>
	<path d="M500.7,957.6c-95.4,0-190.8-0.3-286.3,0.3c-14.4,0.1-19.9-2.8-19.7-18.6c0.9-66.7,0.8-133.4,0.1-200.2
		c-0.1-14.5,3.1-19.7,18.8-19.7c192.3,0.5,384.6,0.5,576.8,0.1c13.5,0,18.7,3,18.5,17.7c-0.7,67.4-0.9,134.9,0.1,202.3
		c0.2,16.1-5.9,18.4-19.9,18.3C693,957.4,596.8,957.6,500.7,957.6z M502,773c-78.2,0-156.4,0.4-234.6-0.3
		c-15-0.1-19.9,4.2-19.4,19.4c1.1,31.5,0.9,63.1,0.1,94.7c-0.3,13.4,4.7,17.2,17.5,17.2c157.1-0.3,314.2-0.3,471.3,0
		c13,0,17.7-4.1,17.4-17.3c-0.7-31.5-0.9-63.1,0.1-94.7c0.5-15.3-5.1-19.4-19.8-19.2C657,773.3,579.5,773,502,773z"/>
	<path class="st0" d="M500.3,637.9c-53.1,0-106.2-0.6-159.3,0.4c-15.8,0.3-21.1-3.6-20.6-20.1c1-34.8,0-34.8,35.6-34.8
		c101.2,0,202.3,0.4,303.5-0.4c17.4-0.1,25.7,3.8,22.8,22.3c-0.8,4.9-0.7,10.1,0,15c2,14.6-4.8,18.1-18.4,17.9
		C609.3,637.6,554.8,637.9,500.3,637.9z"/>
	<path class="st0" d="M321.6,505c-31.6,0-49.6-14.4-49.8-39.9c-0.2-25.2,18.8-41.2,49.1-41.3c31.1-0.1,49.4,14.8,49.5,40.5
		C370.6,490.2,352.8,505,321.6,505z"/>
	<path class="st0" d="M185,505c-29.5-0.1-48.1-15.3-48.4-39.6c-0.3-25.3,20.1-41.8,51.4-41.6c30,0.2,47,14.7,47.3,40.3
		C235.6,491.6,218.9,505.2,185,505z"/>
</g>
</svg>
