<?xml version="1.0" encoding="utf-8"?>
<!-- Generator: Adobe Illustrator 21.1.0, SVG Export Plug-In . SVG Version: 6.00 Build 0)  -->
<svg version="1.1" id="Camada_1" xmlns="http://www.w3.org/2000/svg" xmlns:xlink="http://www.w3.org/1999/xlink" x="0px" y="0px"
	 viewBox="0 0 1000 1000" style="enable-background:new 0 0 1000 1000;" xml:space="preserve">
<title>users2</title>
<title>contract</title>
<title>users2</title>
<title>contract</title>
<g>
	<path d="M988,859c-2.3,0.8-4.7,0.6-7.1,0.6c-85.7,0-171.4,0-257,0c-8,0-6.9-0.7-6.9,6.7c0,27.3,0,54.5,0,81.8
		c0,7.8,1.2,6.9-7.2,6.9c-128.8,0-257.5,0-386.3,0c-9.2,0-18.4-0.2-27.6,0.1c-3.9,0.1-4.9-1.1-4.8-4.9c0.2-28.3,0-56.5,0.2-84.8
		c0-4.9-1.6-5.9-6.1-5.9c-86,0.1-172,0.1-258,0.1c-7.9,0-6.8,0.4-6.8-6.9c0-5.1,0.1-10.2-0.1-15.3c-0.1-2.9,1-4,3.8-3.7
		c1.3,0.2,2.7,0,4.1,0c84.8,0,169.6,0,254.5,0c8.5,0,8.5,0,8.5-8.8c0-26.9,0.1-53.8-0.1-80.7c0-4.7,1.3-5.9,5.9-5.9
		c62.3,0.1,124.7,0.1,187,0.1c7.5,0,7.5,0,7.5-7.4c0-34.6,0-69.2,0-103.7c0-8.3-1.1-7.1,7.4-7.2c4.3-0.1,8.5,0.3,12.8-0.1
		c4.4-0.4,5.4,1.3,5.4,5.4c-0.2,34.9-0.1,69.8-0.1,104.8c0,1.5,0.1,3.1,0,4.6c-0.1,2.6,1.1,3.8,3.7,3.6c1.5-0.1,3.1,0,4.6,0
		c61.7,0,123.3,0,185,0c6.8,0,6.8,0,6.8,6.9c0,27.9,0.1,55.9-0.1,83.8c0,3.4,0.7,4.7,4.4,4.7c88.4-0.1,176.8-0.1,265.2-0.1
		c0.5,0,1-0.1,1.5-0.2C988,841.9,988,850.4,988,859z M503.6,929.9c60.5,0,120.9-0.1,181.4,0.1c4.9,0,6.2-1.2,6.2-6.2
		c-0.2-51.3-0.2-102.5,0-153.8c0-5.4-1.6-6.4-6.6-6.4c-120.6,0.1-241.2,0.1-361.8,0c-5.2,0-6.5,1.3-6.5,6.5
		c0.2,50.8,0.1,101.5,0.1,152.3c0,8.2-1,7.5,7.3,7.5C383.7,929.9,443.6,929.9,503.6,929.9z"/>
	<path d="M503.8,290.8c-86.9,0-173.7,0-260.6,0c-16.4,0-32.5,2.3-47.8,8.9c-41.5,17.7-68,57.7-68,102.8c0,65.9-0.1,131.8,0.1,197.7
		c0,4.7-1.3,6.3-6,5.9c-4.4-0.4-8.9-0.4-13.3,0c-4.8,0.4-6.4-1-6.3-6.1c0.3-27.1,0.1-54.2,0.1-81.2c0-39.7,0-79.4,0-119
		c0-62.9,46.6-119.4,108.3-131.4c9.9-1.9,19.8-3.3,29.9-2.8c4.4,0.2,5.3-1.3,5.3-5.5c-0.1-68.3-0.1-136.6-0.1-204.9
		c0-8.6-0.8-7.7,7.6-7.7c167.4,0,334.8,0,502.3,0c1.4,0,2.7,0.1,4.1,0c2.6-0.2,3.8,0.8,3.5,3.5c-0.1,1.3,0,2.7,0,4.1
		c0,68.1,0.1,136.3-0.1,204.4c0,5,1.3,6.1,6.2,6.1c67.8-0.1,123.5,46.4,135.7,113.2c1.2,6.7,1.6,13.5,1.6,20.3
		c0,66.9-0.1,133.9,0.1,200.8c0,4.9-1.1,6.7-6.2,6.3c-5.2-0.4-10.6-0.2-15.8-0.1c-2.6,0.1-3.8-0.9-3.5-3.6c0.1-1.3,0-2.7,0-4.1
		c0-66.8,0.1-133.5-0.2-200.3c-0.2-50.7-41.8-98.1-92-105.6c-8.4-1.3-16.9-1.8-25.4-1.8C676.8,290.8,590.3,290.8,503.8,290.8z
		 M504.1,73.1c-75.6,0-151.2,0-226.9,0c-6.8,0-6.8,0-6.8,6.6c0,60,0,119.9,0,179.9c0,6.6,0,6.6,6.8,6.6c150.9,0,301.8,0,452.7,0
		c6.8,0,6.8,0,6.8-7.1c0-59.6,0-119.2,0-178.8c0-7.1,0-7.1-7.3-7.1C654.3,73.1,579.2,73.1,504.1,73.1z"/>
	<path d="M503.4,530.4c-49,0-98.1-0.1-147.1,0.1c-4.5,0-6.5-0.9-6-5.8c0.5-5.4,0.2-10.9,0.1-16.3c-0.1-2.6,0.9-3.8,3.5-3.6
		c1,0.1,2,0,3.1,0c97.9,0,195.8,0,293.7,0c6.8,0,6.8,0,6.8,7c0,4.6-0.2,9.2,0.1,13.8c0.2,3.8-1.2,5-5,4.9
		c-18.6-0.2-37.1-0.1-55.7-0.1C565.7,530.4,534.6,530.4,503.4,530.4z"/>
	<path d="M242.5,393.3c0,1.7,0,3.4,0,5.1c-0.1,8.9,0.8,7.7-7.5,7.7c-8.3,0-7.2,1.1-7.3-7.3c-0.1-4.7,0.2-9.5-0.1-14.2
		c-0.2-3.2,1.1-4.1,4.1-4c13,0.3,10.4-1.5,10.7,10.2C242.5,391.6,242.5,392.5,242.5,393.3z"/>
	<path d="M357.2,393.7c0,1.4,0,2.7,0,4.1c0,8.3,0,8.3-8.3,8.3c-6.6,0-6.6,0-6.6-6.4c0-5.1,0-10.2,0-15.3c0-1.4-0.5-3.5,1.7-3.6
		c3.9-0.2,7.8-0.1,11.7,0c1.6,0.1,1.5,1.6,1.5,2.7C357.2,386.9,357.2,390.3,357.2,393.7z"/>
</g>
</svg>
