<?xml version="1.0" encoding="utf-8"?>
<!-- Generator: Adobe Illustrator 21.1.0, SVG Export Plug-In . SVG Version: 6.00 Build 0)  -->
<svg version="1.1" id="Camada_1" xmlns="http://www.w3.org/2000/svg" xmlns:xlink="http://www.w3.org/1999/xlink" x="0px" y="0px"
	 viewBox="0 0 1000 1055" style="enable-background:new 0 0 1000 1055;" xml:space="preserve">
<title>users2</title>
<title>contract</title>
<title>users2</title>
<title>contract</title>
<g>
	<path d="M500,34.5c264,0.1,494.4,230.8,493,493.9c-1.4,264.4-229.6,492.2-493.2,492.2C236,1020.6,6.1,790.2,6.9,526.6
		C7.7,262.7,236.5,34.4,500,34.5z M89.3,529c1.9,231.6,174,410.1,413.4,408.8c233.4-1.3,406.4-174.6,407.5-408.3
		c1.1-237.4-175.8-412-410.8-412.5C266,116.5,89.3,294.4,89.3,529z"/>
	<path d="M458.8,401c0-38.1-0.1-76.3,0-114.4c0-32.1,15.8-51.3,41.6-51.3c20.4,0,42,18.4,41.2,50.7c-1.5,60.1-0.5,120.2-0.4,180.3
		c0,19.5,0.6,20.1,20.5,20.1c44.4,0,88.8,0,133.3,0c28.1,0,47.1,16.9,47,41.3c-0.1,23.6-20.1,41-47.4,41
		c-62.7,0.1-125.4,0.1-188.1,0c-31.2,0-47.5-16.1-47.6-47C458.7,481.5,458.8,441.3,458.8,401z"/>
</g>
</svg>
