<?xml version="1.0" encoding="utf-8"?>
<!-- Generator: Adobe Illustrator 21.1.0, SVG Export Plug-In . SVG Version: 6.00 Build 0)  -->
<svg version="1.1" id="Camada_1" xmlns="http://www.w3.org/2000/svg" xmlns:xlink="http://www.w3.org/1999/xlink" x="0px" y="0px"
	 viewBox="0 0 1000 1000" style="enable-background:new 0 0 1000 1000;" xml:space="preserve">
<style type="text/css">
	.st0{fill:#3F3F3F;}
	.st1{fill:#404040;}
</style>
<title>users2</title>
<title>contract</title>
<title>users2</title>
<title>contract</title>
<g>
	<path class="st0" d="M486.4,686.3c-23.6,0-47.1,0.2-70.7,0c-26.2-0.2-39.6-11.5-41.7-37.4c-4.2-52.9,7.1-101.1,43.1-142.1
		c32-36.3,67.7-67.4,112.3-87.5c21.5-9.7,41.7-21.6,57.9-39.5c30.6-33.8,24.1-86.4-12.1-113.6c-45.9-34.6-145.6-38.6-190.8,19.7
		c-15.3,19.8-33.1,37.7-50.3,56c-18.1,19.4-27.6,20.2-48.2,4.6c-35.6-27-70.9-54.4-106.7-81.1c-17.6-13.1-20.9-27.2-9.6-46.4
		c116-197.7,373.3-249.7,553.8-109.2c72.5,56.4,117.6,130,112.9,226.7c-4.6,93.3-56.2,154.9-133.8,199.3
		c-28.5,16.3-57.8,31.4-76.8,60.5c-11.3,17.3-20.6,34.7-24.3,55.3c-4.6,25.4-16.3,34.4-42.2,34.7
		C535.1,686.5,510.7,686.3,486.4,686.3z"/>
	<path class="st1" d="M605.1,854.6c0,25.9,0.5,51.8-0.2,77.7c-0.6,24.2-12.2,36.4-36.4,36.7c-52.6,0.7-105.2,0.7-157.7,0
		c-25.3-0.3-36.7-12.7-36.9-38.6c-0.4-51.8-0.5-103.6,0-155.4c0.3-26.6,10.7-37.3,37.4-37.6c51.8-0.6,103.6-0.6,155.4-0.1
		c26.8,0.3,38,12.2,38.4,39.6C605.4,802.7,605.1,828.7,605.1,854.6z"/>
</g>
</svg>
