<?xml version="1.0" encoding="utf-8"?>
<!-- Generator: Adobe Illustrator 21.1.0, SVG Export Plug-In . SVG Version: 6.00 Build 0)  -->
<svg version="1.1" id="Camada_1" xmlns="http://www.w3.org/2000/svg" xmlns:xlink="http://www.w3.org/1999/xlink" x="0px" y="0px"
	 viewBox="0 0 1000 1000" style="enable-background:new 0 0 1000 1000;" xml:space="preserve">
<title>users2</title>
<title>contract</title>
<title>users2</title>
<title>contract</title>
<g>
	<path d="M658.9,25.9c0,7.9-0.6,15.8,0.1,23.6c1.7,18,0.3,31.2-22.3,37c-20.3,5.2-31,30.3-27.5,50.3c4.4,25.1,22.9,44.1,48.5,42.6
		c24.9-1.5,29.5,7.6,28.1,29.9c-2,31.3-0.9,62.8-0.3,94.2c0.2,12.2-2.3,18.1-16.3,17.7c-46.2-1.3-37.6,5.1-38.1-36.5
		c-0.6-50.9-0.1-50.9-51.8-50.9c-136.4,0-272.8,0-409.2,0c-27,0-54.3,2.5-82-11.8c0,10.1,0,17,0,24c0,162.1,0,324.2,0,486.3
		c0,43.7,17,60.7,61,60.8c50,0.1,100,0.5,150-0.3c14.6-0.2,20,3.4,19.4,18.8c-1.4,42.2,4.2,34.6-35.4,35
		c-47.1,0.5-94.3,0.3-141.4,0.1c-65.2-0.3-108.5-43.8-108.6-109c-0.1-195.7,0-391.3,0-587c0-72.4,19.5-100.7,85.7-124.7
		C298.8,25.9,478.9,25.9,658.9,25.9z M564,82.9c-6.2-4.5-12.1-3.4-17.7-3.4c-132.6-0.1-265.3-0.1-397.9,0c-7.1,0-14.3,0.6-21.3,1.9
		c-23.1,4.5-38.5,23.3-39,46.8c-0.6,32.2,20.4,51.8,57,51.8c135.5,0.2,271,0.1,406.5,0c3.9,0,8.4,1.5,13-3.7
		C549.4,145.9,552,114,564,82.9z"/>
	<path d="M362.5,690c0.2-150.1,114.1-275.7,263.8-290.2c9.2-0.9,23.9-6.6,27.2,3.4c4.7,14.3,4.5,31.3-0.6,46.3
		c-1.7,5.2-11.5,3.8-17.9,4.3c-109.7,9.5-197.7,91.1-215.3,199.8c-20.6,126.8,65.9,245.9,196.3,270.3
		c120.6,22.5,244.4-61.2,270.2-182.7c1.6-7.7,2.5-15.5,4.2-23.1c2.1-9.2-3.9-23.8,7-26.7c14-3.7,29.9-2.8,44.5-0.5
		c8.9,1.4,4,12.4,3.9,18.7c-3.3,122.2-98.3,234.8-222.5,264.4C538.3,1017.9,362.2,879.3,362.5,690z"/>
	<path d="M617.2,726.5c9.6-36.5,18.9-72.1,28.4-107.6c22.2-83.3,44.7-166.5,66.5-249.9c3.5-13.5,7.2-18.1,22.7-13.8
		c134.8,37.5,219.9,123.3,255.9,258.4c3,11.1,1,14.9-10,17.8c-118.4,31.4-236.8,63.3-355.1,95C623.8,727,621.7,726.5,617.2,726.5z
		 M692.9,651.6c76.2-20.6,147.7-40,219.4-59.1c9.2-2.4,14-4.4,9.1-15.5c-31.3-71.2-82.2-122.5-153.4-153.7
		c-7.8-3.4-12.5-4.7-15.3,6.1C733.4,502.3,713.6,575,692.9,651.6z"/>
</g>
</svg>
