<svg id="Camada_1" data-name="Camada 1" xmlns="http://www.w3.org/2000/svg" viewBox="0 0 272.13 270.08"><defs><style>.cls-1{fill:#4d4d4d;}</style></defs><title>return_icon</title><g id="Camada_1-2" data-name="Camada_1"><path class="cls-1" d="M109.45,268.81a13.75,13.75,0,1,1,.63-27.5l5.07,0.12,44.5,1.1c26.28,0.65,46.13-6.93,59.88-19,15.89-13.91,24.09-34.11,25-54.57v-1c0.62-18.83-4.9-37.7-16.12-52-11-14.05-27.88-23.83-50.22-24.81v0H47.13l40,40a13.8,13.8,0,1,1-19.52,19.52L4.29,87.37h0l-0.47-.47-0.58-.66-0.12-.14,0,0-0.52-.7-0.19-.28-0.12-.19-0.32-.51-0.25-.43-0.3-.61-0.08-.17L1.16,82.9l0-.1-0.29-.72-0.11-.3L0.48,81,0.4,80.65l-0.18-.87-0.06-.3A15.25,15.25,0,0,1,0,77.36a13.37,13.37,0,0,1,.17-2.11l0.06-.3,0.18-.87,0.08-.33L0.72,73l0.11-.32,0.29-.72,0-.1,0.12-.28,0.08-.17,0.3-.61,0.25-.43,0.32-.51,0.12-.19,0.19-.28,0.52-.7,0,0,0.12-.14,0.58-.66,0.47-.47L67.61,4A13.8,13.8,0,1,1,87.13,23.56l-40,40H178.22v0h0.65l0.57,0C210.6,65,234.39,79,250.11,99c15.34,19.57,22.82,45,21.95,70.07v0.57l0,0.58c-1.23,27.52-12.48,54.86-34.37,74C219,260.59,192.87,270.86,159,270l-49.57-1.23h0Z" transform="translate(0 0)"/></g></svg>