<?xml version="1.0" encoding="utf-8"?>
<!-- Generator: Adobe Illustrator 21.1.0, SVG Export Plug-In . SVG Version: 6.00 Build 0)  -->
<svg version="1.1" id="Camada_1" xmlns="http://www.w3.org/2000/svg" xmlns:xlink="http://www.w3.org/1999/xlink" x="0px" y="0px"
	 viewBox="0 0 1000 1000" style="enable-background:new 0 0 1000 1000;" xml:space="preserve">
<title>users2</title>
<title>contract</title>
<title>users2</title>
<title>contract</title>
<g>
	<path d="M471.9,980.8c-3.3-1.9-7.1-1.3-10.6-2c-32.1-6.4-57.1-35.4-58.3-68c-0.1-2.3-0.2-4.7-0.2-7c0-113.6,0-227.3,0-340.9
		c0-8.1-0.6-7,6.8-7c152.4,0,304.9,0,457.3,0c38.9,0,71.8,32.5,71.9,71.5c0.1,116.5,0,232.9,0,349.4c0,1.3,0,2.7-0.1,4
		C783.3,980.8,627.6,980.8,471.9,980.8z M691.9,956.9c72.3,0,144.6,0,217,0c6.5,0,6.5,0,6.5-6.5c0-106.3,0-212.6,0-319
		c0-30.5-21.4-51.9-51.9-51.9c-143.5,0-287,0-430.4,0c-7.2,0-6.3-0.8-6.3,6.4c0,106.8,0,213.6,0,320.5c0,28.4,21.9,50.4,50.2,50.4
		C548.6,956.9,620.3,956.9,691.9,956.9z"/>
	<path d="M160.2,465.4c2.9,1.3,5.1,0.8,7.2,0.8c223.5,0,446.9,0,670.4,0c8.6,0,7.7-0.8,7.7,7.9c0,19-0.1,38,0.1,57
		c0,4.2-1.3,5.6-5.4,5.3c-4.8-0.3-9.7-0.2-14.5,0c-3.3,0.1-4.4-1.1-4.3-4.3c0.1-12.3-0.1-24.7,0.1-37c0.1-3.7-1-5.3-4.8-4.7
		c-1,0.1-2,0-3,0c-226.8,0-453.6,0-680.4,0c-8.4,0-7.4-0.8-7.4,7.5c0,61.8,0,123.7,0,185.5c0,14.8,9.1,23.9,24,23.9
		c75.7,0,151.3,0,227,0c6.7,0,6.7,0,6.7,6.9c0,4.5-0.1,9,0,13.5c0.1,2.8-1.1,4-3.8,3.8c-0.8-0.1-1.7,0-2.5,0c-75.5,0-151,0-226.5,0
		c-18.6,0-32.7-7.7-42.2-23.7c-4.7-8-6.1-16.8-6.1-25.9c0-66.2,0-132.3,0.1-198.5c0-4-0.9-7.4-2.9-10.8
		c-10.2-17.2-20.2-34.5-30.2-51.8c-15.7-27.1-8.9-57.6,16.5-75.9c23.1-16.6,48.6-29.4,73.2-43.6c157.3-91,314.9-181.6,472.2-272.8
		c24.3-14.1,50.8-11.3,68,3.2c5.3,4.4,9.6,9.7,13,15.7c13.3,23.3,26.5,46.6,40.1,69.7c2.3,4,1.7,5.5-2.1,7.7
		c-119.6,68.9-239.1,137.9-358.5,206.9c-75.5,43.6-151.1,87.2-226.6,130.9C163.6,463.3,162.2,464.2,160.2,465.4z M84.5,390.1
		c-0.1,5.9,1.8,11.2,4.6,16.2c9.4,16.3,18.9,32.5,28,49c2.1,3.7,3.5,4.4,7.4,2.1c65.6-38.1,131.4-76.1,197.1-114.1
		c132-76.3,264-152.6,396-228.8c3.6-2.1,4.1-3.5,2-7.1c-9.4-15.9-18.5-32-27.7-48c-2.5-4.4-5.4-8.4-9.7-11.3
		c-13.1-8.6-25.4-7.4-39,0.5c-142.4,82.6-285,164.7-427.6,247c-37.9,21.9-75.8,43.8-113.7,65.6C90.8,367.7,84.9,377.3,84.5,390.1z"
		/>
	<path d="M537.1,442.6c-77,0-154-0.1-231,0.1c-5.3,0-6.6-1.5-6.1-6.4c0.4-4.6,0.2-9.3,0.1-14c-0.1-2.6,0.8-3.7,3.4-3.4
		c1.2,0.1,2.3,0,3.5,0c153.6,0,307.3,0,460.9,0c7.8,0,7.1-1.2,7.1,7.3c0,4.3-0.1,8.7,0,13c0.1,2.6-0.9,3.7-3.5,3.4
		c-1.3-0.1-2.7,0-4,0C690.7,442.6,613.9,442.6,537.1,442.6z"/>
	<path d="M683.1,744.3c0-13.2,0.1-26.3-0.1-39.5c0-3.4,0.9-4.6,4.5-4.6c26.3,0.1,52.6,0.1,78.9,0c3.5,0,4.5,1.1,4.5,4.6
		c-0.1,26.5-0.1,53,0,79.4c0,3.5-1,4.5-4.5,4.5c-26.3-0.1-52.6-0.1-78.9,0c-3.5,0-4.5-0.9-4.5-4.4
		C683.2,770.9,683.1,757.6,683.1,744.3z M747.1,744.5c0-5.5-0.1-11,0.1-16.5c0.1-2.9-1-3.7-3.8-3.7c-11,0.1-22,0.1-33,0
		c-2.8,0-3.8,0.8-3.8,3.7c0.1,11,0.1,22,0,33c0,2.8,1,3.8,3.8,3.8c11-0.1,22-0.1,33,0c2.8,0,3.9-0.9,3.8-3.8
		C747,755.5,747.2,750,747.1,744.5z"/>
	<path d="M893.8,744.8c0,13-0.1,26,0.1,39c0,3.5-0.5,4.9-4.6,4.9c-26.3-0.2-52.6-0.2-78.9,0c-3.6,0-4.4-1.1-4.4-4.5
		c0.1-26.5,0.1-53,0-79.4c0-3.5,1.1-4.5,4.6-4.5c26.3,0.1,52.6,0.1,78.9,0c3.6,0,4.4,1.3,4.4,4.7
		C893.7,718.2,893.8,731.5,893.8,744.8z M850.1,724.4c-5.5,0-11,0.1-16.5-0.1c-3.1-0.1-4,1-3.9,4c0.1,10.8,0.2,21.7,0,32.5
		c0,3.2,1.2,4,4.1,3.9c10.8-0.1,21.7-0.1,32.5,0c3.1,0,4-1.2,3.9-4.1c-0.1-10.8-0.2-21.7,0-32.5c0.1-3.2-1.3-3.9-4.1-3.8
		C860.8,724.5,855.4,724.4,850.1,724.4z"/>
	<path d="M560.1,872.8c0-13.2,0.1-26.3-0.1-39.5c-0.1-3.8,0.8-5.2,4.9-5.2c26,0.2,52,0.2,77.9,0c3.9,0,5.1,1,5.1,5
		c-0.2,26.3-0.1,52.6,0,78.9c0,3.4-0.8,4.6-4.4,4.5c-26.3-0.1-52.6-0.2-78.9,0c-4,0-4.6-1.4-4.6-4.9
		C560.2,898.8,560.1,885.8,560.1,872.8z M603.9,852.4c-5.5,0-11,0.1-16.5,0c-2.8-0.1-3.8,0.9-3.7,3.7c0.1,11,0.1,22,0,33
		c0,2.9,1.1,3.8,3.8,3.7c11-0.1,22-0.1,33,0c2.8,0,3.8-1,3.7-3.8c-0.1-11-0.1-22,0-33c0-2.9-1.1-3.7-3.8-3.6
		C614.9,852.5,609.4,852.4,603.9,852.4z"/>
	<path d="M727.3,916.6c-13.2,0-26.3-0.1-39.5,0.1c-3.5,0-4.9-0.6-4.9-4.5c0.2-26.5,0.2-53,0-79.4c0-3.6,1.2-4.5,4.6-4.5
		c26.3,0.1,52.6,0.1,78.9,0c3.7,0,4.4,1.4,4.4,4.7c-0.1,26.5-0.1,53,0,79.4c0,3.6-1.2,4.4-4.6,4.4
		C753.3,916.5,740.3,916.6,727.3,916.6z M727.4,852.4c-5.7,0-11.3,0.1-17,0c-2.8-0.1-3.8,0.9-3.7,3.7c0.1,11,0.1,22,0,33
		c0,2.9,1.1,3.8,3.8,3.7c11-0.1,22-0.1,33,0c2.8,0,3.8-1,3.7-3.8c-0.1-11-0.1-22,0-33c0-3-1.1-3.7-3.8-3.6
		C738.1,852.5,732.7,852.4,727.4,852.4z"/>
	<path d="M893.8,872.8c0,13-0.1,26,0.1,39c0,3.5-0.5,4.9-4.6,4.9c-26.3-0.2-52.6-0.2-78.9,0c-3.6,0-4.4-1.1-4.4-4.5
		c0.1-26.5,0.1-53,0-79.4c0-3.5,1.1-4.5,4.6-4.5c26.3,0.1,52.6,0.1,78.9,0c3.6,0,4.4,1.3,4.4,4.7
		C893.7,846.2,893.8,859.5,893.8,872.8z M850,852.4c-5.5,0-11,0.1-16.5,0c-2.6-0.1-3.9,0.6-3.9,3.6c0.1,11,0.1,22,0,33
		c0,2.7,0.8,3.9,3.7,3.9c11-0.1,22-0.1,33,0c2.7,0,3.9-0.8,3.9-3.7c-0.1-11-0.1-22,0-33c0-2.8-0.8-3.9-3.7-3.8
		C861,852.5,855.5,852.4,850,852.4z"/>
</g>
</svg>
