<?xml version="1.0" encoding="utf-8"?>
<!-- Generator: Adobe Illustrator 21.1.0, SVG Export Plug-In . SVG Version: 6.00 Build 0)  -->
<svg version="1.1" id="Camada_1" xmlns="http://www.w3.org/2000/svg" xmlns:xlink="http://www.w3.org/1999/xlink" x="0px" y="0px"
	 viewBox="0 0 1000 1000" style="enable-background:new 0 0 1000 1000;" xml:space="preserve">
<title>users2</title>
<title>contract</title>
<title>users2</title>
<title>contract</title>
<g>
	<path d="M868.9,615.9c-2.6-11.1-9.7-15.1-15-20.3C688.2,430,522.2,264.6,356.4,99.2c-5.4-5.4-11.2-10.7-15.8-16.8
		c-10.6-14.1-10.4-28.6,0.9-42.2c11.3-13.6,27.9-16.5,43.1-7.1c5.9,3.6,11,8.8,16,13.7C591.3,237.2,782,427.8,973,618
		c12.7,12.7,18.9,26.4,18.5,44.4c-0.7,31.4,0.1,62.9-0.3,94.3c-0.8,58.1-40.4,97.8-98.4,97.8c-261.9,0.2-523.8,0.2-785.7,0
		c-60.1,0-100-40.3-100.4-100.2c-0.2-31.5-0.2-62.9,0-94.4c0.2-32.2,12.1-44.1,44.1-44.1c265.7,0,531.5,0,797.2,0
		C854.4,615.9,860.7,615.9,868.9,615.9z M499.1,684.6c-134.8,0-269.6,0.2-404.4-0.3c-14.8-0.1-20.8,3.4-19.4,19.1
		c1.4,15.3,0.3,30.8,0.3,46.2c0.1,28.3,7.8,36,36.7,36c116.2,0,232.3,0,348.5,0c143.1,0,286.3,0,429.4,0c24.1,0,32.1-8.1,32.2-32.1
		c0.1-16-1.2-32.2,0.4-48.1c1.8-17.5-4.7-21.2-21.3-21.1C767.4,684.8,633.2,684.5,499.1,684.6z"/>
</g>
</svg>
