<?xml version="1.0" encoding="utf-8"?>
<!-- Generator: Adobe Illustrator 21.1.0, SVG Export Plug-In . SVG Version: 6.00 Build 0)  -->
<svg version="1.1" id="Camada_1" xmlns="http://www.w3.org/2000/svg" xmlns:xlink="http://www.w3.org/1999/xlink" x="0px" y="0px"
	 viewBox="0 0 1000 1000" style="enable-background:new 0 0 1000 1000;" xml:space="preserve">
<title>users2</title>
<title>contract</title>
<title>users2</title>
<title>contract</title>
<g>
	<path d="M524.3,942.4c-84.6,0-169.2,0-253.8,0c-79.3,0-126.2-46.8-126.2-125.6c0-106.3-0.2-212.7,0-319
		c0.1-55.2,31.2-98.3,80.7-113.3c17.6-5.3,35.9-7.2,54-5.2c17.8,2,21.1-4.9,20.7-21.3c-1.1-56.4-0.5-112.8-0.4-169.2
		C299.5,98,357.2,40.6,448.3,40.5c51.7,0,103.4-0.1,155.1,0c88.3,0.2,146.5,58.6,146.6,147.2c0.1,58.2,0.5,116.3-0.4,174.5
		c-0.2,14.5,4.5,18,17.9,17.1c18.8-1.3,37.6-0.3,55.9,4.9c48.1,13.9,81,56.2,81.4,109.1c0.9,111.6,1.1,223.2-0.1,334.9
		c-0.8,67-50.1,113.8-117.8,114.2C699.4,942.8,611.8,942.4,524.3,942.4z M522.8,886.6c88.7,0,177.4,0.1,266,0
		c37.9,0,60.4-22.2,60.5-59.8c0.1-109.8,0-219.6,0-329.5c0-41.3-21.4-62.6-62.9-62.6c-175,0-350,0-525,0c-39.1,0-61.3,22-61.3,60.6
		c0,110.4,0,220.8,0,331.2c0,37.5,22.5,59.9,60.3,60C347.8,886.7,435.3,886.6,522.8,886.6z M524.6,379
		C524.6,379,524.6,379,524.6,379c51.7-0.1,103.4-0.4,155.1,0.2c11.4,0.1,14.9-3,14.8-14.7c-0.5-64,0.1-128.1-0.4-192.1
		c-0.3-40.3-35.2-75.8-75.1-76.1c-62.9-0.5-125.7-0.6-188.6,0c-40.1,0.4-75,35.6-75.3,76c-0.5,64,0.3,128.1-0.4,192.1
		c-0.1,13.4,5.2,15,16.5,14.9C422.4,378.8,473.5,379,524.6,379z"/>
	<path d="M496.8,707.1c0-7-0.2-14.1,0-21.1c0.6-17.9,0-33.4-15.2-48.6c-20.8-20.8-15.3-56.5,6.8-75.2c22.9-19.4,57.9-17.2,77.5,4.8
		c20,22.5,19.3,57.1-3.5,77.2c-8.3,7.3-10,14.3-9.9,24.1c0.4,27.5,0.3,55.1,0,82.6c-0.2,19.4-4.7,22.5-30.5,22.3
		c-20.4-0.1-25-4-25.2-22.2C496.6,736.4,496.8,721.7,496.8,707.1z"/>
</g>
</svg>
