<?xml version="1.0" encoding="utf-8"?>
<!-- Generator: Adobe Illustrator 21.1.0, SVG Export Plug-In . SVG Version: 6.00 Build 0)  -->
<svg version="1.1" id="Camada_1" xmlns="http://www.w3.org/2000/svg" xmlns:xlink="http://www.w3.org/1999/xlink" x="0px" y="0px"
	 viewBox="0 0 1000 1000" style="enable-background:new 0 0 1000 1000;" xml:space="preserve">
<title>users2</title>
<title>contract</title>
<title>users2</title>
<title>contract</title>
<g>
	<path d="M362.2,31.4c31.2,23,54.2,54.2,81.2,81.3c6.7,6.7,12.4,10.8,22.3,9.6c27.5-3.2,55-2.7,82.4,0.8c11.2,1.4,19.1-1.6,26.8-9.8
		c19.8-21.2,40.4-41.6,60.7-62.3c17.6-17.9,35.6-21.3,56.8-8.6c40.4,24.2,80.5,48.9,120.3,74c20.1,12.7,25.3,28.5,18.4,52.6
		c-8.3,29.2-16.7,58.5-26.1,87.4c-3.1,9.4-1.8,16.2,4,23.9c14.5,19.1,27.4,39.7,35.1,62.3c6,17.6,16.9,24.6,33.7,28.3
		c25.4,5.6,50.6,12.4,75.7,19.5c26.1,7.3,35.9,20.1,35.3,47.4c-0.9,44.9-2.7,89.8-4.2,134.7c-0.9,26.9-11,39.9-36.8,46.2
		c-26.7,6.6-53.5,13-80.4,18.6c-13.7,2.8-22.4,8.7-28.6,22.3c-8.7,19-18.8,38.1-32.1,53.9c-14.2,16.8-15.2,32.2-8.6,51.6
		c7.7,22.6,13.5,45.8,19.4,68.9c7.3,28.1,0.5,43.9-24.8,57.8c-38.7,21.3-77.5,42.4-116.5,63.1c-24.2,12.8-39,10.5-58.4-9.2
		c-20.3-20.7-40-41.9-59.7-63.2c-7.2-7.8-14.6-12.3-26.3-11.2c-28.1,2.7-56.5,3.4-84.5-1.5c-9.9-1.7-14.7,3.4-20.3,9.1
		c-20.8,21.2-41.5,42.6-62.6,63.5c-18.3,18.1-34.6,20.6-56.8,7.2c-40.4-24.2-80.4-49-120.2-74.2c-17.9-11.4-24.1-28.2-18-49
		c8.3-28.5,16-57.2,25.3-85.4c4.1-12.4,2.5-21.6-5.2-32c-15.1-20.4-27.5-42.7-36-66.7c-3.9-11.1-10.9-15.7-21.5-18.3
		c-28.8-7.1-57.5-14.7-86.2-22.2c-21.8-5.7-32.5-19.2-32-42.5c0.9-44.9,0.4-89.9,1-134.9c0.5-32.1,10.1-43.9,41.5-51.8
		c27.4-6.9,54.9-13.4,82.5-19.4c10.2-2.2,16.1-7,20.4-16.7c11-24.5,24.4-47.8,41.5-68.6c7.5-9.1,7.6-17.4,4.5-27.9
		c-8.2-27.8-15.8-55.7-23.2-83.7c-6.9-26.1-0.2-41.2,23.2-54.2c42.2-23.7,86-44.3,126.6-70.8C341.9,31.4,352,31.4,362.2,31.4z
		 M658.6,909.7c3.9-1.9,7.8-3.8,11.6-5.8c29.3-15.9,58.3-32.4,88-47.3c11.9-6,12.7-12.4,9.1-23.9c-8.3-27-14.7-54.5-22.9-81.5
		c-5.1-16.9-2.1-31.5,8.6-44.5c20.5-24.8,36.7-52,49.4-81.5c6.7-15.5,17.7-25.6,34.9-29.4c28.3-6.2,56.2-14.1,84.5-20.2
		c11.1-2.4,15.6-7.4,15.7-18.9c0.4-31.9,1.3-63.8,3-95.6c0.8-15.2-2.4-23.5-19.6-26.7c-26.3-4.8-51.8-13.6-77.8-19.9
		c-17.9-4.3-29.2-15.1-35.2-31.9c-10.4-28.9-24.9-55.5-43.5-79.8c-11.4-15-14.3-30.9-8.6-49c8.5-26.9,15.7-54.3,24.4-81.1
		c3.4-10.6,2.2-16.8-8-22.7c-29.4-17.1-58.5-35-87-53.5c-10.3-6.7-16.2-4.3-23.8,3.8c-18.3,19.6-37.9,38-56.1,57.7
		c-14.1,15.4-30.3,20.7-50.7,17.4c-31.6-5-63.3-6.5-95.2-1.4c-14.8,2.3-28.4-2.4-39.2-13.9c-20.3-21.7-41.1-42.9-61.2-64.9
		c-7.5-8.3-13.6-9.8-23.9-3.8c-28.8,16.8-58,32.8-87.7,47.9c-11.7,5.9-13.3,12.6-9.7,24.2c8,26.3,14.7,53,22.4,79.4
		c5.2,18.1,2.5,33.7-9.5,48.7c-18.6,23.2-35.5,47.7-46.3,75.7c-7.2,18.5-20.2,29.1-39.4,33.4c-27.6,6.2-54.9,13.3-82.5,19.5
		c-10.8,2.4-15.7,7.3-15.6,19.1c0.2,33.3-0.2,66.7-1.5,100c-0.5,12.4,3,18,15.6,20.7c26.9,5.9,53.3,13.6,80,20.2
		c17.4,4.3,29.7,13.7,36.1,30.9c11.2,30,26.4,57.9,45.9,83.5c10.2,13.4,13.2,28.2,7.9,45c-9,28.3-16.4,57.1-25.5,85.4
		c-3.1,9.6-0.9,14.5,7.3,19.4c29.8,17.9,59.7,35.8,88.8,54.8c10.5,6.9,16.1,4,23.6-3.9c18.3-19.6,38.1-37.9,56-57.8
		c14.7-16.3,32.1-21.3,52.8-17.4c29.5,5.7,59.2,5,88.8,1.5c18.1-2.2,32.5,3.1,44.7,16.3c19.2,20.8,38.5,41.5,57.9,61.9
		C648.8,903.9,651.7,909.7,658.6,909.7z"/>
	<path d="M501.3,338.3c88.3,0,159.1,70.6,159,158.6c-0.1,88-71.4,159.6-158.7,159.2c-88.3-0.4-158.7-70.8-159-159
		C342.3,409.3,413.2,338.3,501.3,338.3z M609.6,497c0.2-59.1-48.4-108.2-107.5-108.6c-58.8-0.4-108,48.2-108.7,107.4
		c-0.7,60.1,48.5,109.7,108.6,109.5C561.1,605.1,609.4,556.4,609.6,497z"/>
</g>
</svg>
