<?xml version="1.0" encoding="utf-8"?>
<!-- Generator: Adobe Illustrator 21.1.0, SVG Export Plug-In . SVG Version: 6.00 Build 0)  -->
<svg version="1.1" id="Camada_1" xmlns="http://www.w3.org/2000/svg" xmlns:xlink="http://www.w3.org/1999/xlink" x="0px" y="0px"
	 viewBox="0 0 1120.9 912.1" style="enable-background:new 0 0 1120.9 912.1;" xml:space="preserve">
<style type="text/css">
	.st0{fill:#212121;}
</style>
<title>users2</title>
<title>contract</title>
<title>users2</title>
<title>contract</title>
<path class="st0" d="M514,38.1c87.3,0,174.7-0.2,262,0.1c64.8,0.2,119.5,41.3,141,105.3c4.1,12.1,4,11.8-7.6,11.7
	c-27.9-0.1-55.9,0.2-83.8,0.5c-4.1,0.1-7.5-0.5-10.8-3.6c-11-10.1-24.1-14-38.2-14.1c-19-0.2-38.1-0.1-57.1-0.1
	c-155.3,0-310.7,0-466,0c-5.6,0-11.3-0.2-16.8,0.7c-31.9,5-48.9,26.9-49.1,63.9c-0.3,59.3-0.4,118.6-0.4,177.9c0,59,0.1,118,0.3,177
	c0.2,43.8,21.1,66.6,61.4,66.7c130.1,0.1,260.3,0.1,390.4,0.1c13.1,0,13.1,0,13.1,14c0,26-0.2,52,0.1,77.9c0.1,6.8-1.7,9.1-8,9
	c-20.1-0.4-40.3-0.3-60.5-0.3c-20.1,0-22.5,2.7-22.2,25c0.1,4.9,0,9.8,0.3,14.7c0.6,10.5,2.6,12.9,12.3,13
	c20.4,0.3,40.9-0.2,61.3,0.5c21.2,0.7,38.1,14.7,43.6,35c9.2,33.8-11.5,64.6-44.5,65.7c-15.4,0.5-30.8,0.2-46.2,0.2
	c-70,0-139.9,0-209.9-0.1c-5,0-10.1-0.2-15-1.2c-25.2-5.1-38.9-25.2-37.3-54.1c1.4-25.2,19.5-44.4,43.7-45.4
	c19.6-0.8,39.2-0.3,58.8-0.4c14.1-0.1,16.5-2.7,16.5-18.3c0-7.3,0.1-14.7-0.3-22c-0.6-10.7-2.4-12.5-12.5-12.5
	c-31.3,0-62.7,0.2-94,0.2c-34.7,0-69.4,0.5-104.1-1.8c-75.4-5-132.7-66.2-138-148.6c-2.8-44.2-1.4-88.6-1.5-132.9
	c-0.2-78.3,0-156.5,0.3-234.8c0.4-86.2,47.9-150.3,123.2-167c10.2-2.3,20.5-3.2,30.9-2.8C337.6,40.3,425.8,38.2,514,38.1z"/>
<g>
	<path d="M1101,647.7c0,55.6-41.7,107.7-95.4,119.3c-45.2,9.7-93.8-14-119.5-58.8c-13.2-23.1-19.5-48.1-15.7-75.2
		c0.5-3.9-0.1-6-3.6-7.8c-41.7-21.9-83.3-43.9-124.9-66.1c-3.3-1.8-5.1-1.3-7.7,1.3c-20.2,20.5-44.2,32.8-72.2,35.1
		c-27,2.1-51.4-6.5-73.1-23.2c-29.8-22.9-47.5-53.8-49.5-92.5c-2-38.2,12.9-70.1,39.7-95.4c45.9-43.4,110.5-41.9,154.9,3.3
		c3.1,3.1,5.1,3.9,9.2,1.7c40.9-22,82-43.7,123.1-65.4c2.6-1.4,5.3-2.1,4.5-6.7c-9.4-56.4,30.1-121.7,92.2-135.4
		c44.5-9.8,81.4,6.7,109.8,42.1c64.5,80.5,8.4,180.6-67.1,195.9c-38.3,7.8-70.7-5.1-98.8-32c-3.8-3.7-6.3-4.2-10.8-1.7
		c-40.6,21.8-81.3,43.3-122,64.8c-3.8,2-5.5,3.8-4.6,8.6c2.1,10.3,1.7,20.7-0.2,31c-0.6,3.5-0.1,5.2,3,6.8
		c41.9,22.1,83.7,44.2,125.5,66.5c3.7,2,5.4,0.3,7.6-2c18.6-19,40.6-31.1,66.4-34.6c32.9-4.5,61.4,6.7,86.6,28.4
		C1084.3,577.9,1101,614.3,1101,647.7z M935.8,299.9c-0.2,31.8,18.3,52.1,47.6,52.4c31.2,0.3,50.6-18.9,50.8-50.4
		c0.2-32.4-18.1-52.8-47.7-53C955.1,248.6,936,267.7,935.8,299.9z M605.5,473.9c-0.1,31.9,18.6,51.9,48.6,52
		c30.6,0.1,49.8-19.4,49.8-50.7c0.1-32.8-18.3-52.5-49.3-52.7C624.6,422.2,605.6,442.2,605.5,473.9z M985.5,595.9
		c-30.8,0-49.6,19.6-49.6,51.7c0,31.8,18.8,51.8,48.8,51.8c30.8,0,49.5-19.5,49.6-51.7C1034.4,616,1015.5,596,985.5,595.9z"/>
</g>
</svg>
