<?xml version="1.0" encoding="utf-8"?>
<!-- Generator: Adobe Illustrator 21.1.0, SVG Export Plug-In . SVG Version: 6.00 Build 0)  -->
<svg version="1.1" id="Camada_1" xmlns="http://www.w3.org/2000/svg" xmlns:xlink="http://www.w3.org/1999/xlink" x="0px" y="0px"
	 viewBox="0 0 1000 1000" style="enable-background:new 0 0 1000 1000;" xml:space="preserve">
<style type="text/css">
	.st0{fill:#3F3F3F;}
	.st1{fill:#404040;}
</style>
<title>users2</title>
<title>contract</title>
<title>users2</title>
<title>contract</title>
<g>
	<path class="st0" d="M869.6,500.5c0,140.6,0,281.2,0,421.8c0,38.1-11.1,49.3-49.2,49.3c-213.1,0-426.3,0-639.4,0
		c-40.2,0-50.6-10.6-50.6-51.2c0-280.1,0-560.1,0-840.2c0-40.8,10-50.7,50.9-50.7c212.6,0,425.2,0,637.7,0c40.6,0,50.6,10.2,50.6,51
		C869.6,220.5,869.6,360.5,869.6,500.5z M805.1,502.2c0-129.4-0.2-258.7,0.3-388.1c0-13.9-2.2-19.5-18.1-19.4
		c-191.8,0.6-383.6,0.5-575.3,0.1c-14.4,0-17.7,4.5-17.6,18.2c0.5,95.6,0.3,191.2,0.3,286.8c0,162.5,0,325.1,0,487.6
		c0,9.2-2.7,19,13.3,18.8c59.6-0.7,119.2-0.5,178.8-0.1c10.2,0.1,13.7-3.2,13.5-13.6c-0.5-32-0.3-64.1-0.2-96.2
		c0.1-19.4,5.6-25.3,24.9-25.4c50.1-0.2,100.1-0.2,150.2,0c18.3,0.1,24.3,6.2,24.4,24.2c0.2,30.4,0.8,60.8-0.3,91.1
		c-0.5,14.9,3.1,20.3,19.2,20c55.7-1,111.4-0.9,167-0.1c15,0.2,20-3.4,19.9-19.4C804.8,758.7,805.1,630.4,805.1,502.2z"/>
	<path class="st1" d="M265.2,197.1c0-30.8,2.6-33.6,31.9-33.6c30.1,0,32.7,2.7,32.7,34.5c0,28.4-3.7,32-31.9,32.1
		C268.5,230.1,265.2,226.7,265.2,197.1z"/>
	<path class="st1" d="M464.7,197.8c0,29-3.4,32.3-33.4,32.3c-27.9,0-31.2-3.7-31.2-34.5c0-29.5,2.8-32.2,33.4-32.2
		C461.9,163.5,464.7,166.6,464.7,197.8z"/>
	<path class="st1" d="M535.2,196.3c0-30,2.9-32.9,32.6-32.9c29.6,0,32,2.6,31.9,35.3c0,27.5-4.1,31.4-32.6,31.3
		C538.4,230,535.1,226.6,535.2,196.3z"/>
	<path class="st1" d="M670.1,195.7c0-29.5,2.9-32.2,33.3-32.2c28.8,0,31.3,3,31.2,35.9c0,27.1-3.9,30.7-33.3,30.7
		C673.3,230,670.1,226.5,670.1,195.7z"/>
	<path class="st1" d="M265.2,331.6c0-29.9,3.1-33.1,32.3-33.1c28.7,0,32.2,3.4,32.2,31.6c0,31.7-3,35-32.4,35
		C268.4,365.1,265.2,361.8,265.2,331.6z"/>
	<path class="st1" d="M400.2,330.2c0-28.4,3.5-31.8,32-31.8c29.6,0,32.5,3.2,32.5,34.7c0,28.2-3.8,31.9-32.1,31.9
		C403,365,400.1,362,400.2,330.2z"/>
	<path class="st1" d="M599.7,332.7c-0.1,29.1-3.4,32.4-33.3,32.4c-28.9,0-31.3-3-31.2-37.7c0.1-25.4,4.1-28.9,33.2-28.8
		C596.8,298.5,599.7,301.8,599.7,332.7z"/>
	<path class="st1" d="M734.7,331.2c0,30.4-3.3,33.8-31.8,33.8c-30.1,0-32.7-2.9-32.7-36.3c0-27,3.7-30.3,33.5-30.3
		C731.4,298.5,734.7,302,734.7,331.2z"/>
	<path class="st1" d="M329.7,466.3c0,30.3-3.3,33.7-31.4,33.8c-30.6,0-33.1-2.7-33.1-35.5c0-28.2,3.3-31.2,34-31.1
		C326.4,433.5,329.7,437.1,329.7,466.3z"/>
	<path class="st1" d="M464.7,467.5c0,29.4-3.3,32.6-33.1,32.6c-28.6,0-31.5-3.3-31.5-35.8c0-27.5,3.6-30.8,33.1-30.7
		C461.9,433.5,464.7,436.5,464.7,467.5z"/>
	<path class="st1" d="M535.2,465.2c0-28.4,3.4-31.8,32-31.7c29.4,0,32.5,3.1,32.5,33c0,30.2-3.3,33.6-32,33.6
		C538,500.1,535.2,497,535.2,465.2z"/>
	<path class="st1" d="M734.7,467.2c0,29.5-3.3,32.8-32.8,32.8c-29.1,0-31.7-3-31.7-35.6c0-27.8,3.5-31,32.8-31
		C731.9,433.5,734.7,436.4,734.7,467.2z"/>
	<path class="st1" d="M329.7,602.1c0,30.1-3.1,33-34.3,33c-27.2,0-30.2-3.5-30.2-35.4c0-28.4,3.2-31.2,34.3-31.2
		C326.7,568.5,329.7,571.9,329.7,602.1z"/>
	<path class="st1" d="M464.7,601.3c0,30.9-2.8,33.8-33.1,33.7c-28.6,0-31.5-3.2-31.5-35.4c0-27.7,3.6-31.2,32.3-31.2
		C461.5,568.4,464.7,571.7,464.7,601.3z"/>
	<path class="st1" d="M599.7,602.9c0,29-3.4,32.2-33.5,32.1c-28.2-0.1-31.1-3.4-31-36.3c0.1-27.1,3.7-30.3,33.5-30.3
		C596.7,568.5,599.7,571.9,599.7,602.9z"/>
	<path class="st1" d="M734.7,602.1c0,29.7-3.3,32.9-32.7,32.9c-29.5,0-31.9-2.8-31.8-37.2c0-26,4-29.5,32.7-29.4
		C731.8,568.5,734.7,571.5,734.7,602.1z"/>
	<path class="st1" d="M329.7,736.1c0,30.7-3,33.9-31.7,33.9c-30.3,0-32.8-2.7-32.8-36.2c0-27.2,3.6-30.4,33.4-30.4
		C326.3,703.5,329.7,707,329.7,736.1z"/>
	<path class="st1" d="M734.7,736.6c0,30.5-3.1,33.5-33.9,33.4c-28,0-30.6-3.2-30.6-36.7c0-26.4,3.9-29.9,32.2-29.9
		C731.5,703.5,734.7,706.8,734.7,736.6z"/>
</g>
</svg>
