<?xml version="1.0" encoding="utf-8"?>
<!-- Generator: Adobe Illustrator 21.1.0, SVG Export Plug-In . SVG Version: 6.00 Build 0)  -->
<svg version="1.1" id="Camada_1" xmlns="http://www.w3.org/2000/svg" xmlns:xlink="http://www.w3.org/1999/xlink" x="0px" y="0px"
	 viewBox="0 0 1000 1000" style="enable-background:new 0 0 1000 1000;" xml:space="preserve">
<title>users2</title>
<title>contract</title>
<title>users2</title>
<title>contract</title>
<g>
	<path d="M170.9,587.2c0-96.2-0.3-192.3,0.3-288.5c0.1-13.6-2.8-20.4-18.1-18c-4.1,0.7-8.5-0.1-12.7,0.1
		c-61.7,1.8-83.5-47.5-66.8-96c8.8-25.5,30.1-37.5,57.9-37.9c33-0.4,65.9-0.8,98.9-0.2c12.9,0.2,19.5-2.7,23.9-15.9
		c7.7-22.7,18.1-44.6,29-66.1c9.5-19,26.3-29.2,48.6-29.2c106.3-0.1,212.7-0.1,319,0c23.8,0,40.6,11.2,50.1,31.7
		c10.6,22.8,20.8,45.8,29.8,69.2c3.4,8.7,8.5,10.3,16.7,10.2c36.7-0.2,73.4-0.3,110,0c57.7,0.4,89,45,67.5,96.9
		c-10.7,25.7-32.5,36.5-60.5,37.4c-24.4,0.8-24.5,0.8-24.5,24.4c0,189.7,0,379.5,0,569.2c0,30.6-12.3,47.8-37.6,52.8
		c-5.1,1-10.6,1-15.9,1c-187.1,0-374.3,0.1-561.4,0c-37.5,0-54.3-16.3-54.3-52.8C170.8,779.5,170.9,683.4,170.9,587.2z M377.7,571.5
		c0-80.3,0-160.6-0.1-240.8c0-6.6-0.1-13.4-1.6-19.8c-4.2-18.6-20.2-30.4-40.3-30.7c-20.3-0.3-36,11-40.4,30.2
		c-1.8,7.9-2.2,16.2-2.2,24.4c-0.1,158-0.1,316,0,474c0,6.6,0.1,13.3,1.1,19.9c3.5,21.8,22.9,35.8,45.6,33.4
		c23.8-2.5,37.6-18.5,37.7-45.1C377.8,735.1,377.7,653.3,377.7,571.5z M633,572.5c0,47.6,0,95.1,0,142.7c0,35.8-0.4,71.6,0.2,107.4
		c0.4,22.6,17.7,38.9,40.2,39.7c23.8,0.8,41.4-14.4,43.6-37.8c0.5-5.1,0.5-10.2,0.5-15.3c0-155.5,0-310.9,0-466.4
		c0-9.7,0.2-19.5-1-29.1c-2.2-17.2-17-30.8-34.7-33.3c-18.5-2.6-36.1,6-43.9,21.3c-4.6,9-4.9,18.7-4.9,28.5
		C633,410.9,633,491.7,633,572.5z M463.5,571.2c0,18.9,0,37.8,0,56.8c0,64.4-0.2,128.9,0.1,193.3c0.1,24,16.7,40.3,40.1,41
		c24,0.7,40.9-14,43.4-38c0.6-6.1,0.4-12.3,0.4-18.4c0-145.7,0-291.5,0-437.2c0-15.9,0.2-31.7-0.1-47.6
		c-0.3-14.7-5.7-26.9-19.3-34.8c-30.1-17.4-64.2,1.4-64.4,36.4C463.2,405.5,463.5,488.4,463.5,571.2z"/>
</g>
</svg>
