<svg id="Camada_1" data-name="Camada 1" xmlns="http://www.w3.org/2000/svg" viewBox="0 0 9.88076 11.66976"><defs><style>.cls-1{fill:#093;}</style></defs><title>Tree</title><g id="Camada_1-2" data-name="Camada_1"><path class="cls-1" d="M3.0929,6.69165a1.58513,1.58513,0,0,1-1.53785,1.3211A1.55477,1.55477,0,0,1,.81881,5.08843,1.40372,1.40372,0,0,1,2.133,3.3476a2.06878,2.06878,0,0,1-.0344-0.38876A2.17863,2.17863,0,0,1,4.211.78108,1.24545,1.24545,0,0,1,6.609,1.18361,2.18225,2.18225,0,0,1,8.48741,2.8109,0.75428,0.75428,0,0,1,8.828,2.72834a0.73956,0.73956,0,0,1,.5195,1.26606,0.9465,0.9465,0,0,1,.13417.48853,1.05689,1.05689,0,0,1-.0172.18234,1.848,1.848,0,0,1,.41629,1.17317,1.872,1.872,0,0,1-3.44382.99771,2.1558,2.1558,0,0,1-.9117.59863v3.77065a0.46838,0.46838,0,0,1-.46789.46789h0a0.46838,0.46838,0,0,1-.46789-0.46789V7.538A2.1972,2.1972,0,0,1,3.0929,6.69853V6.69165Z" transform="translate(0 -0.00356)"/></g></svg>