<?xml version="1.0" encoding="utf-8"?>
<!-- Generator: Adobe Illustrator 21.1.0, SVG Export Plug-In . SVG Version: 6.00 Build 0)  -->
<svg version="1.1" id="Camada_1" xmlns="http://www.w3.org/2000/svg" xmlns:xlink="http://www.w3.org/1999/xlink" x="0px" y="0px"
	 viewBox="0 0 1563 1395" style="enable-background:new 0 0 1563 1395;" xml:space="preserve">
<title>users2</title>
<title>contract</title>
<title>users2</title>
<title>contract</title>
<g>
	<path d="M1460.4,188.5c-0.7,39.7-11.2,76.4-34.7,107.5c-14.1,18.7-17.9,28.1,7,41.5c75.6,40.4,115.7,108.4,128.3,195
		c2.9,19.2,7.1,40.2-21.4,42.9c-23.8,2.3-37.8-2.7-41.1-33.7c-10.6-100.3-82.7-166.2-179.4-168c-25.8-0.5-51.6-0.7-77.3,0.2
		c-88.9,3.1-162.2,71.6-171.2,164.5c-3.1,31.5-15.1,40.6-41.9,36.8c-31.1-4.3-22.9-27.7-20-47.2c13-85.4,53.9-150.9,127.9-191.1
		c20.3-11,23.2-17.3,8.8-38.3c-80.3-116.7-24-265.8,110.1-295.1C1359.9-19.3,1460.9,71.9,1460.4,188.5z M1283.5,66.2
		c-63,0.3-112.6,54.1-112.2,121.3c0.3,66.8,51.6,120.7,114.1,120.2c62.5-0.6,112.5-55,112.1-122
		C1397.1,118.6,1346.8,65.7,1283.5,66.2z"/>
</g>
<g>
	<path d="M524.4,746.6c-103.9,0-207.8,2.3-311.6-0.8c-69.7-2-126.4,45.1-122.9,124c3.1,69.6,1,139.4,0.8,209.2
		c-0.1,43.7-37,65.4-75.6,44.7C3,1117.1,0.7,1106,0.7,1093.8c0-83.3-1.9-166.7,0.7-249.9c2.9-90.2,62.8-161.4,150.1-181.4
		c20.7-4.7,26.9-12.3,26.3-33.7c-1.5-70.6,0.1-141.3-0.7-211.9c-0.3-25.7,9.3-35.1,34.9-35c207.7,0.6,415.4,0.3,623.1,0.4
		c30.5,0,35.3,5,35.4,36.7c0.1,70.7,0.4,141.3-0.5,211.9c-0.2,17.7,3,26.1,22.5,31c95.8,23.8,150.3,91.3,153.9,192.8
		c2.7,77.7,1.4,155.7,0.8,233.7c-0.2,32.3-11.4,40.3-49.8,39.2c-35.1-1-40.9-6.8-41-41.1c-0.1-74.3,0.1-148.5-0.1-222.8
		c-0.2-72.7-43.5-116.8-115.2-116.9C735.7,746.4,630,746.6,524.4,746.6z M522.8,654.4c0,0.1,0,0.2,0,0.3c78.8,0,157.7-0.3,236.5,0.3
		c15.4,0.1,22.5-3.2,22.1-20.8c-1.1-47-0.8-94.2-0.1-141.3c0.2-15.6-5.1-20-20.1-20c-158.5,0.4-317.1,0.4-475.7,0
		c-15.9,0-19.5,5.8-19.2,20.6c0.8,46.2,1.2,92.5-0.1,138.6c-0.5,18.5,5.6,22.8,22.7,22.6C367,654,444.9,654.4,522.8,654.4z"/>
	<path d="M523.2,1099.4c97.5,0,195.1-0.1,292.6,0c37.8,0,46.1,8.2,46.3,45.7c0.2,66,0.3,132.1,0,198.2c-0.2,34-9.4,43.4-43.5,43.5
		c-196.9,0.2-393.7,0.2-590.6,0c-32.6,0-42.9-11.1-42.9-44.6c-0.1-66,0-132.1,0.5-198.2c0.3-35.8,9.4-44.7,45.1-44.8
		c97.5-0.2,195.1-0.1,292.6-0.1C523.2,1099.3,523.2,1099.3,523.2,1099.4z M522.5,1295.7c60.8,0,121.6,0.1,182.5-0.1
		c21.4-0.1,48.6,6.8,62.6-3.9c15.3-11.7,2.6-40.7,5-62c0.4-3.5-0.2-7.3,0.4-10.8c4.2-23.6-4.8-30.6-28.8-30.4
		c-136.8,1.2-273.7,0.5-410.5,0.5c-59,0-59,0-59.2,60.9c0,6.3,0.6,12.8-0.3,19c-3.2,20.7,3.8,27.8,25.7,27.4
		C374,1294.9,448.2,1295.7,522.5,1295.7z"/>
	<path d="M523.9,1045.2c-54.5,0-109,0.2-163.5-0.1c-32-0.1-42.2-9.3-43.3-38c-1.4-37.4,9-52.7,40.9-53c110.8-1,221.6-1.1,332.4-0.4
		c31.1,0.2,40,13.3,39.3,50.7c-0.5,31.6-8.9,40.6-39.7,40.8C634.8,1045.4,579.4,1045.2,523.9,1045.2z"/>
	<path d="M252,914.2c-32.4,0-53.3-17.6-52.7-44.2c0.7-25.9,22.6-42.8,54.8-42.4c32.5,0.4,47.5,14.6,47.5,44.6
		C301.6,900.2,285.4,914.1,252,914.2z"/>
</g>
</svg>
