<?xml version="1.0" encoding="utf-8"?>
<!-- Generator: Adobe Illustrator 21.1.0, SVG Export Plug-In . SVG Version: 6.00 Build 0)  -->
<svg version="1.1" id="Camada_1" xmlns="http://www.w3.org/2000/svg" xmlns:xlink="http://www.w3.org/1999/xlink" x="0px" y="0px"
	 viewBox="0 0 1000 1000" style="enable-background:new 0 0 1000 1000;" xml:space="preserve">
<title>users2</title>
<title>contract</title>
<title>users2</title>
<title>contract</title>
<g>
	<path d="M15,580c1-6.9,2-13.8,3.1-20.6c11-70.5,66.4-130.7,136.1-148.2c2.2-0.6,4.4-1.2,7.8-2c-43.9-29.5-65.3-70-62.2-121.9
		c2.2-36.4,18-67,45.8-90.6c54.5-46.3,135.4-41.3,183.4,11.5c27.4,30.2,38.5,66.1,33.1,106.5c-5.4,40.5-26.2,71.5-60.8,94.5
		c5.1,1.5,9.4,2.5,13.6,3.9c73.9,24.6,117.7,75.3,131.3,152c1.3,7.2,1.8,14.5,1.9,21.9c0,3-0.7,4.2-3.9,4c-4.8-0.3-9.7-0.3-14.5,0
		c-3.5,0.2-4.4-1-4.6-4.4c-0.8-19.6-4.3-38.8-12.3-56.7C387,472,343,438.3,280.2,429.7c-15.2-2.1-30.6-1.1-45.9-1
		c-17.1,0.1-34.3-0.9-51.4,1c-35,4-65.7,18-91.5,41.9c-33.2,30.7-50.9,68.9-52.7,114.3c-0.1,3.8-1.1,5.3-5.2,5.1
		c-6.1-0.3-12.3,0-18.5,0.1C15,587.3,15,583.7,15,580z M231.8,406.4c59.8,0,109.1-49,109.1-108.5c0-60.3-49.1-109.9-108.9-109.9
		c-59.9,0-109,49.1-109,109.1C123.1,357.4,171.9,406.4,231.8,406.4z"/>
	<path d="M713,896c-5.2-2.1-10.8-1.3-16.1-1.9C599.6,883.5,519,809,501,712.9c-22.4-119.8,50.8-233.2,169.4-262.4
		c15.7-3.9,31.8-5.3,47.9-6.1c2.5-0.1,3.6,0.7,3.5,3.4c-0.2,5.3-0.2,10.7,0,16c0.1,3-0.8,3.9-3.9,4c-49.4,1-92.8,18-129.7,50.7
		c-39.7,35.2-62.4,79.5-67.6,132.4c-9.9,101.3,57.3,194.7,156.2,217c107.5,24.3,214.2-40.9,241.7-147.7c3.8-14.9,5.7-30.1,6.1-45.4
		c0.1-3.8,1.2-4.9,4.9-4.7c4.6,0.3,9.3,0.3,14,0c3.4-0.2,4.2,1,4.1,4.2c-0.6,25.9-4.8,51.1-14.5,75.1c-31,77-87.3,124.3-168.4,142
		c-9.2,2-18.7,3.2-28.2,3.5c-1.9,0.1-4-0.4-5.8,1C725,896,719,896,713,896z"/>
	<path d="M985,613c-76.7,20.6-153.4,41.2-230.1,61.8c-15.9,4.3-31.8,8.5-47.7,12.8c-1.3-1.3-0.2-2.6,0.1-3.7
		c14.5-58.9,30.9-117.2,46.5-175.8c8.3-31.3,16.9-62.6,25.1-93.9c1-4,2.1-5.2,6.6-4c48.3,12.8,90.8,35.9,126.4,71.2
		c35.2,34.9,58.4,76.9,70.9,124.8c0.5,2,0.6,4.3,2.2,5.9C985,612.3,985,612.7,985,613z M741.2,653.3c0.6-0.1,1.2-0.2,1.9-0.4
		c69.3-18.6,138.7-37.2,208-55.7c3.6-0.9,4-2.4,2.8-5.5c-27.3-74.1-77.9-125-151.8-152.7c-4.8-1.8-6.1-0.4-7.3,4.2
		c-15.1,56.9-30.4,113.6-45.6,170.5c-3.3,12.2-6.5,24.4-9.7,36.6C739,651.7,737.9,653.7,741.2,653.3z"/>
	<path d="M544.8,127.9c29.7,1.5,57.3,19,73,53.8c14.5,32.2,7.3,70.4-17.2,96c-1.8,1.9-3.9,3.6-5.9,5.4c-4.5,3.9-4.5,3.9,1,5.8
		c31.9,11.2,55.2,32.2,70.6,62.1c8,15.6,12.1,32.3,12.8,49.9c0.2,4-1,5.3-5,5c-4.6-0.3-9.3-0.3-14,0c-3,0.2-3.9-0.8-4.1-3.9
		c-2.3-45.6-32.8-82.5-77.3-93.4c-7.1-1.7-14.4-2.7-21.7-2.7c-13.3,0-26.7,0-40,0c-51.4,0-94.5,38.8-100,89.9
		c-1.1,10-1.1,10-10.7,10c-13.7,0-14,0-11.9-13.9c7.6-50.1,35-84.5,82.4-102.8c5.4-2.1,5.4-1.9,1.3-5.7c-13.1-11.7-22.2-26-26.9-43
		C435.3,183.5,477.5,127.9,544.8,127.9z M601.2,217.6c0.2-33.5-24.4-66.2-64.6-66.5c-36.6-0.2-66.8,29.2-66.4,65.1
		c0.4,37.6,28.3,66.7,65.2,66.7C572.2,282.9,601.2,254.1,601.2,217.6z"/>
</g>
</svg>
