<?xml version="1.0" encoding="utf-8"?>
<!-- Generator: Adobe Illustrator 21.1.0, SVG Export Plug-In . SVG Version: 6.00 Build 0)  -->
<svg version="1.1" id="Camada_1" xmlns="http://www.w3.org/2000/svg" xmlns:xlink="http://www.w3.org/1999/xlink" x="0px" y="0px"
	 viewBox="0 0 1000 1000" style="enable-background:new 0 0 1000 1000;" xml:space="preserve">
<title>users2</title>
<title>contract</title>
<title>users2</title>
<title>contract</title>
<g>
	<path d="M796.8,110c28.8,10.6,56.2,23,76.4,47.9c43.8,54.1,40.3,124-10.1,181.8c1.5,8.1,9.6,7.3,14.7,10
		c58.7,30.9,93,78.9,102,144.6c1,7.1,8.1,21.7-8.8,19.7c-12.3-1.4-31.3,12.1-35.8-13.3c-14.8-82-65.3-123.7-149.1-123.6
		c-20,0-40.3-1.4-60.1,1c-63.1,7.7-108.4,52.7-120.6,116.6c-1.2,6.6,3.5,18-8.1,19.2c-11.2,1.2-24.2,3-33.7-1.4
		c-8.7-4-3.6-17.1-2.1-25.7c11-61.8,44.7-107.3,100.3-136.5c5-2.6,10.1-5,17.6-8.7c-15.3-17.2-28.4-34.6-35.5-55.5
		c-24.9-73.5,16.8-151.7,92-172.1c3.3-0.9,7.2-0.4,9.2-4.2C762.4,110,779.6,110,796.8,110z M769.8,153.7
		c-48.4,0.1-88.8,40.3-89.1,88.7c-0.3,49,41.6,91,90,90.4c47.8-0.6,88.5-42.2,88.1-90.1C858.5,194.3,817.8,153.6,769.8,153.7z"/>
	<path d="M219.1,517.2c-109.8-91.8-92.2-225.4-26-293c77.5-79.2,202.1-81,279.1-3.9c72.8,72.9,84.3,209.7-22.8,296.8
		c41.6,13.9,79.4,32.9,111.4,62.3c54.4,49.9,82.5,112.1,88.9,185c0.8,9.5,0.2,18.7-12.7,15.8c-12-2.7-31.3,11.5-33.4-16
		c-5.7-76.6-42.7-135.3-106.9-176.7c-33.1-21.3-69.9-33.7-109.3-34c-54.2-0.5-109.4-8.1-162.1,9.5c-92.7,31-146.7,95.7-160.8,192.9
		c-3.3,22.4-19.6,32.4-40.2,24.2c-9.7-3.9-5.7-12.4-5.2-18.5c5.6-74.1,36.3-136,91.6-185.6C141.6,548.3,177.7,530,219.1,517.2z
		 M483.7,358.5c0.1-83.8-65.5-149.9-149.3-150.3c-82.3-0.5-150.4,66.5-151.5,149.1c-1.1,81.1,67.8,151.1,149.4,151.7
		C416.4,509.6,483.6,442.8,483.7,358.5z"/>
</g>
</svg>
