<?xml version="1.0" encoding="utf-8"?>
<!-- Generator: Adobe Illustrator 21.1.0, SVG Export Plug-In . SVG Version: 6.00 Build 0)  -->
<svg version="1.1" id="Camada_1" xmlns="http://www.w3.org/2000/svg" xmlns:xlink="http://www.w3.org/1999/xlink" x="0px" y="0px"
	 viewBox="0 0 1000 1000" style="enable-background:new 0 0 1000 1000;" xml:space="preserve">
<title>users2</title>
<title>contract</title>
<title>users2</title>
<title>contract</title>
<g>
	<path d="M792.5,155.9c7.3,1.4,14.7,2.5,21.9,4.3c48.4,11.8,87.6,54.9,94,103.7c6.8,52.5-11.7,94.2-54.2,125.5c-0.7,0.5-1.3,1-2,1.5
		c-0.1,0.1-0.1,0.3-0.2,0.5c0.8,1.6,2.5,1.3,3.8,1.7c69.4,20.2,113.1,65.3,131.1,135.2c1.9,7.4,3,15,3.5,22.7c0.1,1.6,0,3.4,1.1,4.8
		c0,3.7,0,7.3,0,11c-6.5,0-13-0.1-19.5,0.1c-3.4,0.1-4.5-0.9-4.7-4.5c-1.3-28.5-9-55.1-24.7-79.1c-27.3-41.6-65.8-66.3-115.5-70.6
		c-32.3-2.8-65.1-4.1-97.2,1c-59.6,9.5-100.7,43.3-123.1,99.4c-6.2,15.6-9.4,31.9-9.4,48.7c0,4-1.4,5.2-5.3,5c-5-0.3-10-0.2-15,0
		c-3,0.1-3.9-0.7-3.8-3.9c1.3-45.9,17.9-85.6,49.1-119.1c23.9-25.6,53.2-42.4,87.1-51c0.9-0.2,1.8-0.6,2.7-0.9
		c-0.1-1.9-1.6-2.2-2.6-2.9c-38.2-27.8-56.9-65.5-54.8-112.5c2.7-62.1,51.9-113.3,113.8-119.6c1.3-0.1,2.7-0.1,3.8-1.1
		C779.1,155.9,785.8,155.9,792.5,155.9z M886.6,284.2c0.9-54.7-46-103.1-100.8-104.2c-58.5-1.1-106.4,44.1-107.5,101.4
		c-1,57.3,44.6,105.7,100.2,106.5C838.1,388.7,885.6,343.1,886.6,284.2z"/>
	<path d="M414.8,575c8.3,1.9,15.4,3.3,22.5,5C540.3,605.3,620,689.1,640.1,793.6c2.9,15.1,4.1,30.3,5,45.6c0.2,3.7-1,5.1-4.8,4.8
		c-4.6-0.3-9.3-0.3-14,0c-4,0.3-5.4-0.9-5.5-5.2c-0.4-29.4-5.7-58-17.1-85.1c-35.4-84.1-98-135.4-187.4-153.7c-15.3-3.2-31-4-46.7-4
		c-29,0-58-0.1-87,0c-62.6,0.4-118,20.4-165.1,61.7c-45.6,40-73.1,90.4-82.3,150.5c-1.6,10.6-2.5,21.2-2.7,31.8
		c-0.1,3.1-1.1,4.1-4.1,4c-4.2-0.2-8.3,0-12.5-0.1c-8.1-0.1-7.4,1.2-7.2-7.6c0.7-27.8,5.2-55.1,15-81.1
		C59.3,660.6,126.5,601.7,224.7,578c4.3-1,8.6-1.8,13.8-2.9c-65.3-37.5-101.2-92.7-103.5-167.3c-1.7-53.9,17.6-100.9,55.8-139.3
		c79.1-79.6,209-74.8,281.9,10.8c39.8,46.7,53.8,101.3,42.3,161.3C503.5,500.6,469.1,544.7,414.8,575z M325.9,572.4
		c91.4,0.9,166.3-73.4,168.9-163.8c2.6-93-72.4-172.9-168.4-173c-91-0.1-168.9,72.7-168.6,168.8
		C158.2,504.4,240.3,573.3,325.9,572.4z"/>
</g>
</svg>
