<?xml version="1.0" encoding="utf-8"?>
<!-- Generator: Adobe Illustrator 21.1.0, SVG Export Plug-In . SVG Version: 6.00 Build 0)  -->
<svg version="1.1" id="Camada_1" xmlns="http://www.w3.org/2000/svg" xmlns:xlink="http://www.w3.org/1999/xlink" x="0px" y="0px"
	 viewBox="0 0 1000 1000" style="enable-background:new 0 0 1000 1000;" xml:space="preserve">
<title>users2</title>
<title>contract</title>
<title>users2</title>
<title>contract</title>
<g>
	<path d="M539.5,70.3c5.8,1,11.8,1.8,17.5,3.1c65.7,15.7,90.4,96,44.9,146c-3.3,3.7-7.2,6.8-11.2,10.6c8.9,3.2,17.4,6.2,25.1,10.7
		c36.8,21.6,58,53.5,62.6,96c1.3,11.4,1.1,11.5-10.4,11.4c-3.8,0-8.6,1.6-11.1-0.7c-2.6-2.4-0.9-7.3-1.4-11
		c-7.2-51.4-48.2-87.6-100.4-88.5c-14.2-0.2-28.3-0.1-42.5,0.2c-46.4,1.2-87.2,36.4-95.2,82c-0.8,4.6-1.6,9.2-1.7,13.9
		c-0.1,3.7-1.5,4.4-4.8,4.3c-4.7-0.2-9.3-0.3-14,0c-3.7,0.2-4.4-1.2-4.3-4.6c1.5-29.9,12.1-56,32.1-78.3
		c14-15.5,30.9-26.6,50.7-33.4c1.6-0.5,3.1-1.1,4.7-1.7c-0.2-2.3-2.2-2.9-3.4-4.1c-27.6-25.6-36.7-56.9-25.9-92.5
		c10.6-35.2,35.7-55.5,71.9-62c2.9-0.5,6,0.4,8.7-1.3C534.1,70.3,536.8,70.3,539.5,70.3z M601.9,160.5c0.2-36.5-29.1-66.4-65.5-66.6
		c-35.7-0.2-66,29.2-66.2,64.4c-0.2,37.3,28.7,67.7,64.7,68C571.7,226.5,601.7,197.1,601.9,160.5z"/>
	<path d="M300.9,352.8c24.5,5.6,46.1,14.5,65.5,28.1c45.4,31.7,72.3,75,80,129.9c0.9,6.6,1.2,13.3,1.8,19.9c0.3,2.6-0.7,3.6-3.3,3.5
		c-5.2-0.2-10.3-0.2-15.5,0c-3.6,0.2-4.5-1.3-4.6-4.6c-0.4-24.6-6.3-47.9-18-69.4c-26.3-48.5-66.8-77.5-121.5-86.2
		c-15.9-2.5-31.9-1.9-47.9-1.8c-19.5,0.1-39-1.2-58.4,1.8c-54.3,8.5-94.6,37.2-121,85.3c-12.1,22-17.8,45.8-18.7,70.8
		c-0.1,3.3-1.1,4.3-4.3,4.2c-4.8-0.2-9.7-0.3-14.5,0c-3.4,0.2-4.2-1.2-4.1-4.3c0.4-22.4,4.7-44.1,13.5-64.6
		c24.6-57.6,67.1-94.9,127.8-111c1.4-0.4,2.9-0.8,5-1.5c-44.8-32-66.8-74.6-60.6-129.6c4.1-36.1,21.6-65.4,50.3-87.7
		c54.6-42.3,133.6-34.5,178.5,17.7c26.4,30.7,36.8,66.4,31.1,106.3C356.4,299.3,335.1,329.7,300.9,352.8z M231.5,131.9
		c-59.3,0-108.1,48.5-108.1,107.4c0,60.6,48.4,109.3,108.5,109.2c59.6-0.1,109-49.3,108.4-109C339.7,174,285.8,130.9,231.5,131.9z"
		/>
	<path d="M983.4,553.3c0.6,3.3-2.2,2.9-3.9,3.4c-22,5.9-44,11.7-66,17.6c-66.6,17.8-133.3,35.6-199.9,53.5c-1,0.3-2,0.3-2.9,0.7
		c-4.4,1.8-4.3-0.2-3.4-3.7c7.4-30.4,15.8-60.4,23.9-90.6c15.7-58.6,31.5-117.2,47.3-175.8c1.8-6.7,1.8-6.7,8.7-4.9
		c76.7,20.1,133.6,65.4,171.6,134.7c10.9,19.9,18.6,41.2,24.2,63.2C983.1,552,983.2,552.6,983.4,553.3z M954.4,537.6
		c-0.4-1.4-0.7-2.5-1.1-3.6c-27-73.8-76.9-124.9-151-151.9c-6-2.2-6-2.1-7.6,3.8c-18.4,68.5-36.8,137.1-55.2,205.6
		c-1.5,5.4-1.4,5.5,3.9,4.1c54.3-14.5,108.5-29.1,162.8-43.6c14.8-4,29.6-7.8,44.3-11.9C951.9,539.7,954.5,540.3,954.4,537.6z"/>
	<path d="M638.1,428.2c0,1.5-1.2,1.7-2.2,2.2c-4.9,2.5-9.8,4.9-14.5,7.6c-2,1.2-2.8,0.5-3.8-1.2c-2.9-5-5.9-10-9-14.9
		c-1.3-2.1-1-3.3,1.1-4.3c5.5-2.8,10.9-5.6,16.3-8.4c1.6-0.9,3.1-1.3,4.1,0.9c2.6,5.7,5.1,11.5,7.7,17.2
		C637.9,427.6,638,427.9,638.1,428.2z"/>
	<path d="M542.2,521c-2.4,5.2-5,11.1-7.8,17c-0.8,1.7-2.1,0.4-3,0c-5.4-2.1-10.8-4.4-16.2-6.4c-2.2-0.8-2.7-1.8-1.7-4.1
		c2.6-5.4,4.8-10.9,7.3-16.4c0.6-1.4,1.1-3.4,3.5-2.1c5.5,3,11.1,5.9,16.7,8.9C541.9,518.4,542.7,519.1,542.2,521z"/>
	<path d="M680,413.5c0.5,2.2-1.1,2.3-2.6,2.7c-5.1,1.3-10.3,2.5-15.3,4.1c-2.2,0.7-3.2,0.5-3.9-1.9c-1.7-5.5-3.6-11-5.5-16.5
		c-0.8-2.2-0.3-3.3,2.1-3.9c6.1-1.5,12.2-3.2,18.2-4.9c1.6-0.4,2.6-0.3,3,1.3c0.2,0.6,0.2,1.3,0.4,2
		C677.6,402.1,678.8,407.8,680,413.5z"/>
	<path d="M520,615.4c0,0.5,0,1,0,1.5c0,9.8,0,9.7-10.1,10.2c-2.3,0.1-4.8-0.1-7,0.5c-4.7,1.2-6.4-0.5-6.2-5.1
		c0.1-5.2,0.1-10.3-0.1-15.5c-0.1-2.6,0.8-3.5,3.4-3.3c5.8,0.4,11.6,0.6,17.4,0.7c2.2,0,2.9,0.9,2.8,3c-0.1,2.7,0,5.3,0,8
		C520.2,615.4,520.1,615.4,520,615.4z"/>
	<path d="M865.7,786.6c-0.5,0.5-1,1.2-1.6,1.6c-5,3.8-10.1,7.6-15,11.5c-1.7,1.3-2.8,1-3.9-0.8c-3.3-5-6.7-9.9-10.1-14.8
		c-1.2-1.7-1.2-2.6,0.7-3.9c4.5-3.1,8.9-6.4,13.3-9.7c1.3-1,2.4-1.8,3.8-0.1c4,4.9,8.1,9.7,12.1,14.6
		C865.2,785.4,865.3,785.9,865.7,786.6z"/>
	<path d="M525.3,721.6c-1.5,0.2-1.8-1.2-2.3-2.1c-2.6-5.5-5.1-11.2-7.8-16.7c-1.1-2.3-0.2-3.3,1.8-4.1c5.1-2.1,10.1-4.2,15.1-6.5
		c2.3-1.1,3.5-0.7,4.6,1.7c2.1,4.9,4.5,9.6,6.9,14.4c0.8,1.6,1,2.8-0.8,3.7c-5.5,3-11.1,6.1-16.6,9.1
		C526,721.3,525.7,721.4,525.3,721.6z"/>
	<path d="M556.4,730.1c1.2-0.3,1.5,0.9,2.1,1.6c3.5,4.4,6.8,9,10.5,13.4c1.4,1.6,0.9,2.5-0.4,3.6c-4.5,3.9-9.1,7.8-13.5,11.9
		c-1.7,1.6-2.8,1-4-0.5c-3.8-4.8-7.6-9.6-11.4-14.5c-1-1.2-1.9-2.5,0-3.8c5.3-3.7,10.6-7.5,15.9-11.2
		C555.7,730.4,556,730.3,556.4,730.1z"/>
	<path d="M936.2,613.2c11.4,0.2,11.4,0.2,11.1,11.7c-0.4,13.7-0.4,13.8-13.7,11.8c-10.3-1.6-10.3-1.6-9.2-12.2c0-0.2,0-0.3,0-0.5
		c0.5-3.4-1.3-8.1,1.2-9.9C928.1,612.4,932.6,613.4,936.2,613.2z"/>
	<path d="M684,814c-1.2,6-2.5,11.9-3.5,17.7c-0.4,2.3-1.4,2.6-3.4,2.2c-5.8-1.4-11.6-2.8-17.4-4.1c-2.6-0.6-3.5-1.7-2.4-4.5
		c1.9-5.1,3.4-10.4,4.9-15.7c0.6-2,1.1-3.2,3.7-2.4c5.2,1.6,10.6,2.7,15.9,4C683.4,811.6,684.7,812,684,814z"/>
	<path d="M717.2,838.4c-12.2-0.3-12.2-0.3-11.4-12.3c0.8-11.6,0.8-11.6,12.5-10.8c3.3,0.2,7.6-1.7,9.5,0.7c1.7,2.1,1,6.3,1.1,9.6
		C729.2,840.9,732.1,838,717.2,838.4z"/>
	<path d="M602.8,777.2c-0.4,0.6-0.9,1.3-1.3,2c-3.2,4.4-6.5,8.8-9.6,13.3c-1.4,2.1-2.5,2.6-4.6,0.9c-4.6-3.8-9.3-7.5-14-11.1
		c-1.9-1.4-2-2.6-0.3-4.4c3.9-4.3,7.7-8.7,11.5-13.1c1.3-1.5,2.4-1.8,4.1-0.4c4.3,3.7,8.7,7.2,13,10.8
		C602.3,775.7,603.1,776.1,602.8,777.2z"/>
	<path d="M630.4,818.9c-5.6-2.8-11.9-6-18.2-9.4c-1.5-0.8-0.5-2,0-3c2.9-5.2,5.8-10.4,8.6-15.7c1-1.9,2.1-2,3.9-0.9
		c4.6,2.6,9.4,5,14.1,7.3c2,0.9,2.9,1.7,1.8,4.1c-2.4,5.2-4.6,10.6-6.9,16C633.2,818.3,632.8,819.5,630.4,818.9z"/>
	<path d="M769.5,809.7c3.1-0.8,3.7,0.3,4.1,2c1.4,5.6,2.8,11.3,4.3,16.9c0.6,2.3-0.4,3.1-2.3,3.4c-6,1.2-12.1,2.2-18.1,3.6
		c-2.3,0.5-3-0.2-3.3-2.2c-0.8-5.7-1.8-11.5-2.6-17.2c-0.2-1.6-0.1-3.1,1.8-3.5C759.2,811.6,764.9,810.6,769.5,809.7z"/>
	<path d="M906.5,699.5c0.9,0.4,1.5,0.6,2.1,0.9c5.2,2.5,10.4,5,15.7,7.5c1.9,0.9,2.4,1.8,1.2,3.8c-3.1,5.5-6.1,11-9.1,16.5
		c-0.8,1.6-1.7,2.2-3.5,1.1c-5-3.2-10.2-6.2-15.3-9.3c-1.2-0.7-2.1-1.4-1.1-3.1c3-5.3,5.9-10.8,8.8-16.2
		C905.6,700.3,906.1,699.9,906.5,699.5z"/>
	<path d="M804.6,823c-2.1,0.5-2.6-0.8-3.1-2.1c-2-5.4-4-10.9-6.2-16.3c-0.9-2.2-0.1-2.9,1.8-3.6c5.1-2.1,10.1-4.3,15-6.6
		c1.7-0.8,2.6-0.6,3.5,1.2c2.7,5.3,5.6,10.5,8.4,15.8c0.5,1,1.3,2.2-0.2,3C817.5,817.8,810.9,820.6,804.6,823z"/>
	<path d="M567.1,482.8c-0.6,0.8-1.1,1.5-1.6,2.2c-3.1,4.1-6.2,8.2-9.2,12.4c-1.2,1.7-2.1,2.7-4.3,1.1c-4.7-3.4-9.5-6.6-14.4-9.8
		c-1.7-1.1-2.3-2.2-0.9-4c3.8-5,7.6-10.1,11.4-15.1c1-1.3,1.8-2.1,3.5-0.5c4.5,4.1,9.3,8,14,12C566.1,481.5,566.6,482.2,567.1,482.8
		z"/>
	<path d="M922.9,657.6c5.6,1.3,11.3,2.7,17,3.9c2.1,0.5,2.7,1.5,2.1,3.5c-1.6,5.7-3.2,11.5-4.7,17.2c-0.6,2.3-1.6,3.3-4.2,2.3
		c-5.1-1.9-10.3-3.6-15.5-5.2c-2.4-0.7-3.3-1.7-2.5-4.3c1.6-5,3.1-10.1,4.4-15.3C919.9,657.7,920.9,657.1,922.9,657.6z"/>
	<path d="M521.4,648.9c1.1-0.3,1.7,0.6,1.9,2.2c0.8,5.4,1.9,10.8,3.6,16c0.7,2.1-0.1,3.1-2,3.6c-5.6,1.6-11.2,3.1-16.7,5
		c-2.3,0.8-3-0.3-3.5-2.1c-1.7-5.9-3.3-11.8-4.2-17.9c-0.3-1.9-0.2-3.2,2.1-3.6C508.7,651.1,514.7,650,521.4,648.9z"/>
	<path d="M882.8,737.4c0.8,0.5,1.4,0.8,1.9,1.2c4.7,3.7,9.4,7.4,14.1,11.1c1.5,1.1,1.8,2.1,0.5,3.6c-4.2,4.7-8.3,9.5-12.4,14.3
		c-1.2,1.4-2.2,1.6-3.6,0.2c-4.3-4.2-8.6-8.3-13-12.3c-1.3-1.2-1.7-2.1-0.3-3.7c3.8-4.2,7.4-8.5,11.2-12.7
		C881.6,738.5,882.2,738,882.8,737.4z"/>
	<path d="M519.8,581.4c-6.1-0.9-11.7-1.7-17.3-2.4c-2.6-0.3-3.4-1.7-2.8-4.1c1.3-5.8,2.7-11.6,3.8-17.5c0.4-2.3,1.3-2.6,3.4-2
		c5.6,1.6,11.2,3,16.8,4.5c1.9,0.5,2.7,1.3,2.1,3.6c-1.3,5.1-2.3,10.4-3.3,15.6C522.2,581,521.5,581.9,519.8,581.4z"/>
	<path d="M598.9,451.6c0.1,1.4-1.2,1.9-2,2.6c-3.9,3.4-8,6.5-11.8,10c-1.9,1.8-3,1.2-4.4-0.4c-3.8-4.2-7.6-8.4-11.5-12.5
		c-1.8-1.8-1.4-3,0.4-4.4c4.6-3.8,9.2-7.6,13.8-11.6c1.6-1.4,2.7-1.3,4,0.5c3.5,4.9,7.1,9.6,10.7,14.4
		C598.4,450.7,598.6,451.1,598.9,451.6z"/>
	<path d="M721.5,399.2c0,11.6,0,11.6-11.8,11.9c-7.1,0.2-7.1,0.2-7.9-6.9c-0.2-1.8-0.2-3.7-0.4-5.5c-1.3-10.4-1.3-10.4,9-11
		C721.5,387.1,721.5,387.1,721.5,399.2z"/>
</g>
</svg>
