<?xml version="1.0" encoding="utf-8"?>
<!-- Generator: Adobe Illustrator 21.1.0, SVG Export Plug-In . SVG Version: 6.00 Build 0)  -->
<svg version="1.1" id="Camada_1" xmlns="http://www.w3.org/2000/svg" xmlns:xlink="http://www.w3.org/1999/xlink" x="0px" y="0px"
	 viewBox="0 0 1000 1000" style="enable-background:new 0 0 1000 1000;" xml:space="preserve">
<title>users2</title>
<title>contract</title>
<title>users2</title>
<title>contract</title>
<g>
	<path d="M195.5,812.6c71-252.3,142-504.6,213.3-757.7c4,4.2,7.5,7.9,10.9,11.6c90.3,98,180.7,195.9,271,293.9
		c5.5,5.9,5.4,5.9,11.2,0.4c52.9-51,105.9-101.9,158.8-152.8c32.2-31,64.3-62,96.4-93c4.9-4.7,4.9-4.8,9.8,0.4
		c3.5,3.6,6.8,7.3,10.5,10.7c2.5,2.3,2.5,3.9-0.1,6.3c-11.8,11.1-23.3,22.4-35,33.6c-36.6,35.2-73.2,70.4-109.8,105.7
		c-43.3,41.7-86.6,83.4-130,125.1c-7.4,7.2-7.6,7.1-14.4-0.4c-87.2-94.5-174.4-189-261.6-283.6c-1.4-1.6-2.9-3.1-5.2-5.4
		c-73.2,260.3-146.1,519.8-219.4,780.5c-4-8.2-7.6-15.3-11.1-22.5C156.4,794.7,122,724.1,87.6,653.6C65.8,608.9,44,564.1,22.1,519.5
		c-2.2-4.5-1.8-6.6,2.9-8.4c4.8-1.9,9.4-4.3,13.9-6.8c3.3-1.9,4.6-1.1,6.2,2.2c11.8,24.4,23.7,48.8,35.6,73.1
		c30.9,63.4,61.8,126.8,92.7,190.2c6.5,13.3,13,26.6,19.5,39.9C193.4,810.7,193.6,811.9,195.5,812.6z"/>
	<path d="M562.9,805.8c-96.5,0-193,0-289.5,0.1c-5.1,0-6.6-1.3-6.2-6.3c0.5-5.5,0.2-11,0-16.5c-0.1-2.9,0.6-4.5,3.8-4c1,0.1,2,0,3,0
		c192.7,0,385.3,0,578,0c7.9,0,6.8-1,6.9,6.9c0.1,5.3-0.1,10.7,0.1,16c0.1,2.7-0.7,4.1-3.6,3.7c-1.3-0.2-2.7,0-4,0
		C755.2,805.8,659.1,805.8,562.9,805.8z"/>
	<path d="M587.3,630.9c-88.3,0-176.6-0.1-264.9,0.1c-5.2,0-6.5-1.5-6.2-6.4c0.4-5.5,0.2-11,0-16.5c-0.1-2.9,0.9-4,3.7-3.7
		c1.2,0.1,2.3,0,3.5,0c176.1,0,352.3,0,528.4,0c8.3,0,7-0.6,7.1,7.3c0.1,5.2-0.1,10.3,0.1,15.5c0.1,2.9-1,3.9-3.8,3.6
		c-1.3-0.1-2.7,0-4,0C763.3,630.9,675.3,630.9,587.3,630.9z"/>
	<path d="M612,429.9c80.1,0,160.3,0,240.4,0c6.5,0,6.5,0,6.5,6.4c0,5.5-0.1,11,0,16.5c0.1,2.9-1,4-3.8,3.7c-1.2-0.1-2.3,0-3.5,0
		c-159.6,0-319.2,0-478.9,0c-7.4,0-7.4,0-7.4-7.2c0-5.2,0.1-10.3,0-15.5c-0.1-3.1,1.1-4.2,4.1-4c1.5,0.1,3,0,4.5,0
		C453.4,429.9,532.7,429.9,612,429.9z"/>
	<path d="M221.6,281.9c-27.5,0-55-0.1-82.5,0.1c-4,0-5.2-1.1-5-5c0.3-5.3,0.5-10.7,0-16c-0.5-5.1,1.6-5.9,6.1-5.9
		c31.8,0.2,63.6,0.1,95.4,0.1c23,0,46,0.1,69-0.1c3.9,0,5.3,1,5.1,5c-0.3,5.3-0.3,10.7,0,16c0.3,4.4-0.9,6-5.7,5.9
		C276.5,281.8,249.1,281.9,221.6,281.9z"/>
	<path d="M197.5,456.5c-19.3,0-38.6-0.1-57.9,0.1c-4.5,0.1-5.8-1.3-5.5-5.6c0.4-5.6,0.2-11.3,0-17c-0.1-2.9,0.7-4.2,3.9-4.2
		c39.6,0.1,79.3,0.1,118.9,0c2.8,0,3.8,1,3.8,3.8c-0.1,6.2-0.2,12.3,0,18.5c0.1,3.7-1.4,4.5-4.7,4.4
		C236.5,456.5,217,456.5,197.5,456.5z"/>
	<path d="M464.2,281.9c-15,0-30-0.1-44.9,0.1c-3.8,0.1-4.9-1.2-4.7-4.8c0.3-6.1,0.1-12.3,0-18.5c0-2.5,0.7-3.5,3.4-3.5
		c31,0.1,61.9,0.1,92.9,0c2.5,0,3.1,0.9,3.1,3.2c-0.1,6.5-0.2,13,0,19.5c0.1,3.5-1.3,4.1-4.4,4.1
		C494.5,281.8,479.3,281.9,464.2,281.9z"/>
	<path d="M700.1,281.9c-11.3,0-22.6-0.1-34,0.1c-3,0-4.1-0.8-4-4c0.2-6.3,0.2-12.7,0-19c-0.1-2.6,0.5-3.9,3.5-3.9
		c22.8,0.1,45.6,0.1,68.4,0c3.1,0,3.6,1.3,3.5,3.9c-0.1,6.3-0.2,12.7,0,19c0.1,3.1-1.2,3.9-4.1,3.9
		C722.4,281.8,711.3,281.9,700.1,281.9z"/>
	<path d="M176.4,630.9c-10,0-20-0.1-29.9,0.1c-3.1,0-4.5-0.7-4.3-4.1c0.3-6.1,0.2-12.3,0-18.5c-0.1-2.6,0.5-4,3.5-4
		c20.6,0.1,41.2,0.1,61.9,0c2.9,0,3.7,1.3,3.6,3.9c-0.1,6.3-0.1,12.6,0,19c0.1,2.9-1.1,3.7-3.8,3.6
		C197,630.8,186.7,630.9,176.4,630.9z"/>
</g>
</svg>
