<?xml version="1.0" encoding="utf-8"?>
<!-- Generator: Adobe Illustrator 21.1.0, SVG Export Plug-In . SVG Version: 6.00 Build 0)  -->
<svg version="1.1" id="Camada_1" xmlns="http://www.w3.org/2000/svg" xmlns:xlink="http://www.w3.org/1999/xlink" x="0px" y="0px"
	 viewBox="0 0 1000 1055" style="enable-background:new 0 0 1000 1055;" xml:space="preserve">
<title>users2</title>
<title>contract</title>
<title>users2</title>
<title>contract</title>
<g>
	<path d="M498.8,1026.2c-138.8,0-277.6-0.8-416.4,0.5c-36.4,0.3-68-29-67.9-68.3c0.9-257.7,0.9-515.4,0.1-773.1
		c-0.1-38.2,30-68.9,67.2-67.5c44.8,1.6,89.7,0.2,134.5,0.5c7.7,0,10.8-1.8,10.4-10.1c-0.4-8.4,2.9-17,0.8-25.5
		C221,56,242.9,24.4,259,26c16.1,1.6,46,32,30.7,63.9c-3.9,8.2-4.4,20.8,2,26.5c6.2,5.5,17.7,1.8,26.9,1.8
		c126.4,0.1,252.7-0.1,379.1,0.3c10.9,0,14.8-2.8,13.3-13.6c-0.8-5.6,1.1-11.5-0.1-17.1C705,60,725,38.4,741,38
		c15.5-0.4,40,20,32,47.2c0.8,7.8,0.8,15.7,0.3,23.5c-0.5,7.5,2.3,9.7,9.7,9.6c45.2-0.3,90.4,1.1,135.6-0.5
		c36-1.3,67,27.3,66.9,66.8c-0.6,258.4-0.3,516.8-0.3,775.2c0,41.1-25.5,66.3-66.7,66.3C778.6,1026.2,638.7,1026.2,498.8,1026.2z
		 M500,381.2c-136.7,0-286,6.3-422.7,6c-9.7,0,0.4-23.2,0.4-13.3C78,559.3,77.9,744.7,78,930.2c0,22.9,10.4,33.5,33.1,33.5
		c259.1,0,518.1,0,777.2,0c23.6,0,34.2-10.9,34.2-34.8c0-184.3,0-368.7,0-553c0,0,0,11.4-14.6-0.6C783,375.2,537,385.2,500,381.2z
		 M500.3,299.3c83.6,0,167.2,0,250.8,0c53.7,0,107.5,0,161.2,0c5.4,0,10.6,0.8,10.4-7.7c-0.4-27.7,0.1-55.5-0.3-83.3
		c-0.3-15.5-12.4-27.6-28.1-27.7c-37.7-0.4-75.4,0-113.1-0.3c-6.2,0-8.1,2.3-7.9,8.2c0.3,7.8,0.5,15.7-0.2,23.5
		c-1.1,12.9-8.3,21.9-20,26.6c-12,4.8-22.7,1.9-32.5-6.7c-11.9-10.6-9.6-24.4-9.7-37.7c-0.1-13.6,0-13.6-13.9-13.6
		c-131.3,0-262.6,0-393.9,0c-2.1,0-4.3,0.2-6.4,0c-5.5-0.4-7.6,2-7.5,7.5c0.2,8.9,1.1,17.8-0.6,26.6c-2.8,15.3-14.3,25.6-29.3,26.2
		c-15.3,0.7-27.8-9.1-31.8-24.5c-2.2-8.5-1.4-17-0.9-25.5c0.5-8.8-2.9-10.6-11-10.6c-35.2,0.4-70.4,0.1-105.7,0.2
		c-21.1,0.1-32.2,11.1-32.4,32.3c-0.2,24.2-0.1,48.4,0,72.6c0,13.9,0,14,13.7,14C227.7,299.3,364,299.3,500.3,299.3z"/>
	<path d="M518.7,512.3c37.7,0,75.5,0,113.2,0c21.1,0,28.5,7.7,29.6,29c1,18.3-4.1,35-11.3,51.5c-47,108.5-94,217.1-140.6,325.8
		c-5.5,12.8-14.3,20.1-27.9,21.4c-12.4,1.2-24.9,1.7-37.2-1.1c-15-3.4-20.3-12.5-14.2-26.7c15.3-35.6,31.2-70.9,47-106.3
		c32-72.1,64-144.2,96.3-216.2c3.5-7.8,3-10.2-6.4-10.1c-54.1,0.4-108.2,0.2-162.3,0.2c-17.6,0-25.1-6.8-27-24.5
		c-0.5-4.2-0.6-8.5-0.5-12.8c0.9-23.2,8.1-30.2,31.3-30.2C445.4,512.3,482.1,512.3,518.7,512.3z"/>
</g>
</svg>
