<?xml version="1.0" encoding="utf-8"?>
<!-- Generator: Adobe Illustrator 21.1.0, SVG Export Plug-In . SVG Version: 6.00 Build 0)  -->
<svg version="1.1" id="Camada_1" xmlns="http://www.w3.org/2000/svg" xmlns:xlink="http://www.w3.org/1999/xlink" x="0px" y="0px"
	 viewBox="0 0 1000 1000" style="enable-background:new 0 0 1000 1000;" xml:space="preserve">
<g>
	<path d="M502.7,988.9c-268.5,0-487.3-218.8-487.5-487.3C14.9,232.8,234.5,13.3,503.2,13.8c268.7,0.5,487.2,219.3,487,487.8
		C990.1,770,771.1,988.9,502.7,988.9z M336.6,261c-9,0-16.6,3.3-23,9.7c-13,13.1-26.1,26.1-39.1,39.1c-16.6,16.7-16.6,33.8,0.2,50.5
		c44.7,44.7,89.3,89.6,134.3,134c5.9,5.8,5.1,8.6-0.3,14c-44.7,44.3-89.1,88.9-133.6,133.4c-17.3,17.3-17.4,34.1-0.3,51.2
		c11.9,11.9,23.8,23.8,35.7,35.7c17.6,17.6,34.2,17.5,51.9-0.2c44.3-44.3,88.7-88.4,132.7-133c6.4-6.5,9.4-5.6,15.3,0.3
		c44.5,45,89.3,89.6,134.1,134.3c15.5,15.4,33.1,15.5,48.5,0.3c12.7-12.5,25.2-25.1,37.8-37.7c16.6-16.7,16.5-33.8-0.2-50.6
		c-44.7-44.7-89.3-89.6-134.3-134c-6-5.9-5.1-8.6,0.3-14c44.7-44.3,89.1-88.9,133.6-133.4c17.3-17.3,17.4-34.1,0.3-51.2
		c-12.1-12.2-24.2-24.3-36.4-36.4c-16.7-16.6-33.8-16.6-50.5,0.1c-44.5,44.5-89.2,88.8-133.3,133.6c-6.3,6.4-9.5,5.7-15.4-0.2
		c-44.5-45-89.4-89.5-134-134.3C354.1,265.6,346.5,261.2,336.6,261z"/>
</g>
</svg>
