<?xml version="1.0" encoding="utf-8"?>
<!-- Generator: Adobe Illustrator 21.1.0, SVG Export Plug-In . SVG Version: 6.00 Build 0)  -->
<svg version="1.1" id="Camada_1" xmlns="http://www.w3.org/2000/svg" xmlns:xlink="http://www.w3.org/1999/xlink" x="0px" y="0px"
	 viewBox="0 0 1000 1000" style="enable-background:new 0 0 1000 1000;" xml:space="preserve">
<g>
	<path d="M498.5,971.7C238.7,970.2,26.3,756.3,28.4,498.4c2.1-260.2,215.3-472,473.4-470.1c260,1.9,471.6,215,470.1,473.4
		C970.2,761.5,756.9,973.3,498.5,971.7z M778.2,487.8c0-13,0.1-25.9,0-38.9c-0.5-78.4-57.5-137.8-135.6-138.7
		c-93.6-1.1-187.2-1.1-280.8-0.1c-83.4,0.9-139.3,58.7-139.5,142.3c-0.1,25.9-0.3,51.8,0.1,77.7c1,64.3,44.2,117.2,107.3,130.5
		c11.2,2.3,18.6,7.6,25.1,16.6c19.9,27.4,40.7,54.2,60.5,81.7c7.9,11,13.2,11.6,21.4,0.2c19.6-27.6,40.4-54.4,60.3-81.8
		c6.7-9.2,14-13.5,26.1-13.3c38.2,0.9,76.5,0.8,114.7,0.2c83.7-1.3,139.8-57.8,140.6-141.2C778.3,511.3,778.2,499.5,778.2,487.8z"/>
	<path d="M500.7,459.9c18.7,0.3,35.1,17.1,35.1,35.8c0,19.7-16.9,36.7-36.3,36.4c-19.4-0.3-35.6-17.7-35-37.6
		C465.2,475.5,481.9,459.5,500.7,459.9z"/>
	<path d="M400.5,496.3c-0.1,19-16.1,35.3-35.1,35.7c-19.6,0.4-36.3-16.2-36.5-36.2c-0.1-19.4,17.3-36.2,37-35.6
		C384.9,460.7,400.6,477.1,400.5,496.3z"/>
	<path d="M671.3,495.7c-0.1,20.1-16.7,36.7-36.4,36.4c-18.9-0.3-35.1-16.6-35.2-35.6c-0.2-19.7,16.8-36.8,36.3-36.4
		C654.9,460.4,671.4,477.1,671.3,495.7z"/>
</g>
</svg>
